<svg width="262" height="79" viewBox="0 0 262 79" fill="none" xmlns="http://www.w3.org/2000/svg">
<rect x="0.870117" y="1" width="259.87" height="76.8089" rx="8" fill="white" stroke="#CFCFCF"/>
<path fill-rule="evenodd" clip-rule="evenodd" d="M66.7032 37.6533C66.6571 32.1538 71.2042 29.4808 71.4039 29.3579C68.8231 25.6097 64.829 25.0874 63.4311 25.0413C60.0822 24.6879 56.8255 27.0537 55.1204 27.0537C53.3845 27.0537 50.7423 25.0874 47.9157 25.1334C44.275 25.1949 40.8493 27.2995 38.9905 30.5869C35.1347 37.2693 38.0074 47.1008 41.7095 52.5081C43.5683 55.1504 45.719 58.1152 48.5609 58.0077C51.326 57.9001 52.3706 56.2411 55.7041 56.2411C59.0223 56.2411 59.9901 58.0077 62.8781 57.9462C65.8583 57.9001 67.717 55.2886 69.5144 52.6157C71.6497 49.5894 72.5099 46.5939 72.5406 46.4402C72.4638 46.4095 66.7646 44.2281 66.7032 37.6533Z" fill="black"/>
<path fill-rule="evenodd" clip-rule="evenodd" d="M61.2495 21.4927C62.7396 19.6339 63.7535 17.0992 63.477 14.5184C61.3263 14.6106 58.6227 16.0085 57.0711 17.8366C55.7039 19.4495 54.475 22.0764 54.7822 24.5497C57.2094 24.734 59.698 23.3207 61.2495 21.4927Z" fill="black"/>
<path fill-rule="evenodd" clip-rule="evenodd" d="M100.207 48.1607L98.2869 42.2464C98.0872 41.6319 97.7031 40.2186 97.1501 37.9758H97.0733C96.8429 38.9436 96.4896 40.3723 95.998 42.2464L94.1085 48.1607H100.207ZM106.828 57.6235H102.957L100.837 50.9565H93.4633L91.4509 57.6235H87.6873L94.9841 34.9342H99.5005L106.828 57.6235Z" fill="black"/>
<path fill-rule="evenodd" clip-rule="evenodd" d="M121.882 49.3743C121.882 47.7767 121.529 46.471 120.807 45.4417C120.024 44.3664 118.964 43.8287 117.643 43.8287C116.752 43.8287 115.937 44.136 115.2 44.7197C114.478 45.3188 113.987 46.0869 113.771 47.0547C113.664 47.5002 113.602 47.8689 113.602 48.1608V50.8952C113.602 52.078 113.971 53.0919 114.693 53.9061C115.415 54.7202 116.368 55.135 117.535 55.135C118.902 55.135 119.962 54.5973 120.73 53.5527C121.498 52.4928 121.882 51.1102 121.882 49.3743ZM125.585 49.2514C125.585 52.0319 124.832 54.2287 123.311 55.8417C121.959 57.2857 120.269 57.9923 118.272 57.9923C116.106 57.9923 114.555 57.2242 113.602 55.6727V64.2599H109.962V46.6399C109.962 44.8887 109.916 43.1067 109.823 41.2633H113.019L113.218 43.8595H113.28C114.493 41.9085 116.337 40.9254 118.795 40.9254C120.73 40.9254 122.328 41.6935 123.618 43.2143C124.939 44.7504 125.585 46.7475 125.585 49.2514Z" fill="black"/>
<path fill-rule="evenodd" clip-rule="evenodd" d="M140.685 49.3743C140.685 47.7767 140.332 46.471 139.61 45.4417C138.827 44.3664 137.767 43.8287 136.446 43.8287C135.555 43.8287 134.74 44.136 134.003 44.7197C133.281 45.3188 132.805 46.0869 132.574 47.0547C132.467 47.5002 132.405 47.8689 132.405 48.1608V50.8952C132.405 52.078 132.774 53.0919 133.496 53.9061C134.218 54.7202 135.171 55.135 136.338 55.135C137.705 55.135 138.781 54.5973 139.533 53.5527C140.317 52.4928 140.685 51.1102 140.685 49.3743ZM144.388 49.2514C144.388 52.0319 143.635 54.2287 142.114 55.8417C140.762 57.2857 139.072 57.9923 137.075 57.9923C134.909 57.9923 133.358 57.2242 132.405 55.6727V64.2599H128.765V46.6399C128.765 44.8887 128.719 43.1067 128.626 41.2633H131.822L132.021 43.8595H132.083C133.296 41.9085 135.14 40.9254 137.598 40.9254C139.533 40.9254 141.131 41.6935 142.421 43.2143C143.742 44.7504 144.388 46.7475 144.388 49.2514Z" fill="black"/>
<path fill-rule="evenodd" clip-rule="evenodd" d="M165.433 51.2638C165.433 53.1994 164.757 54.7663 163.421 55.9799C161.946 57.301 159.888 57.9615 157.245 57.9615C154.803 57.9615 152.852 57.4853 151.377 56.5483L152.222 53.522C153.82 54.4591 155.571 54.9353 157.476 54.9353C158.843 54.9353 159.918 54.628 160.671 54.0136C161.439 53.3991 161.823 52.5696 161.823 51.5403C161.823 50.6186 161.501 49.8505 160.886 49.2207C160.256 48.5908 159.212 48.0071 157.752 47.4694C153.743 45.9793 151.761 43.8133 151.761 40.9714C151.761 39.1126 152.468 37.5918 153.866 36.3936C155.264 35.2107 157.123 34.6116 159.442 34.6116C161.501 34.6116 163.221 34.9649 164.588 35.687L163.667 38.6364C162.376 37.9451 160.932 37.5918 159.304 37.5918C158.029 37.5918 157.015 37.9144 156.293 38.5289C155.694 39.0973 155.387 39.7732 155.387 40.5874C155.387 41.4783 155.74 42.2311 156.431 42.7995C157.03 43.3371 158.136 43.9209 159.734 44.5507C161.685 45.3342 163.114 46.2559 164.035 47.3158C164.972 48.3758 165.433 49.6969 165.433 51.2638Z" fill="black"/>
<path fill-rule="evenodd" clip-rule="evenodd" d="M177.477 43.9977H173.467V51.9398C173.467 53.9522 174.174 54.966 175.587 54.966C176.233 54.966 176.77 54.9046 177.2 54.797L177.308 57.5622C176.586 57.8233 175.649 57.9616 174.481 57.9616C173.037 57.9616 171.931 57.5161 171.117 56.6405C170.303 55.7648 169.904 54.2901 169.904 52.2316V43.9824H167.522V41.2633H169.904V38.2678L173.467 37.1924V41.2633H177.477V43.9977Z" fill="black"/>
<path fill-rule="evenodd" clip-rule="evenodd" d="M191.748 49.3895C191.748 47.8841 191.425 46.6091 190.78 45.5337C190.012 44.228 188.921 43.5828 187.508 43.5828C186.049 43.5828 184.927 44.228 184.175 45.5337C183.514 46.6091 183.207 47.9148 183.207 49.4664C183.207 50.9718 183.529 52.2622 184.175 53.3222C184.958 54.6279 186.064 55.2731 187.477 55.2731C188.86 55.2731 189.951 54.6126 190.749 53.2914C191.41 52.1854 191.748 50.895 191.748 49.3895ZM195.512 49.3127C195.512 51.8321 194.79 53.8906 193.361 55.5035C191.855 57.1626 189.858 57.9921 187.37 57.9921C184.973 57.9921 183.053 57.1933 181.625 55.6111C180.196 54.0288 179.489 52.0164 179.489 49.5893C179.489 47.0546 180.227 44.9807 181.686 43.3677C183.161 41.7547 185.142 40.9406 187.631 40.9406C190.027 40.9406 191.963 41.7394 193.422 43.337C194.82 44.8732 195.512 46.8702 195.512 49.3127Z" fill="black"/>
<path fill-rule="evenodd" clip-rule="evenodd" d="M207.34 44.4585C206.987 44.397 206.603 44.3663 206.188 44.3663C204.913 44.3663 203.915 44.8425 203.223 45.8103C202.624 46.6552 202.317 47.7459 202.317 49.0363V57.6235H198.676V46.4094C198.676 44.5199 198.645 42.7994 198.569 41.2632H201.733L201.871 44.397H201.979C202.363 43.3217 202.962 42.4461 203.792 41.8009C204.606 41.2171 205.481 40.9252 206.418 40.9252C206.756 40.9252 207.064 40.956 207.325 40.9867L207.34 44.4585Z" fill="black"/>
<path fill-rule="evenodd" clip-rule="evenodd" d="M220.121 47.7305C220.152 46.6552 219.906 45.7181 219.414 44.9347C218.785 43.9208 217.817 43.4139 216.527 43.4139C215.344 43.4139 214.376 43.9054 213.639 44.8886C213.04 45.672 212.671 46.6245 212.563 47.7152L220.121 47.7305ZM223.593 48.6676C223.593 49.3128 223.547 49.8658 223.455 50.3113H212.548C212.594 51.9243 213.116 53.1686 214.13 54.0135C215.052 54.7662 216.235 55.1503 217.694 55.1503C219.307 55.1503 220.782 54.8891 222.103 54.3822L222.672 56.9015C221.12 57.5774 219.292 57.9154 217.187 57.9154C214.652 57.9154 212.656 57.1626 211.211 55.6726C209.768 54.1825 209.046 52.1701 209.046 49.6661C209.046 47.2082 209.721 45.1497 211.073 43.506C212.487 41.7548 214.392 40.8792 216.788 40.8792C219.138 40.8792 220.935 41.7548 222.133 43.506C223.102 44.9193 223.593 46.6245 223.593 48.6676Z" fill="black"/>
<path fill-rule="evenodd" clip-rule="evenodd" d="M95.1838 22.1685L94.2467 19.2498C94.1545 18.9579 93.9702 18.2513 93.6783 17.1452H93.6476C93.5247 17.6214 93.3711 18.3127 93.1099 19.2498L92.1882 22.1685H95.1838ZM98.4558 26.8231H96.551L95.5064 23.5511H91.881L90.8825 26.8231H89.0391L92.6184 15.6705H94.8305L98.4558 26.8231Z" fill="black"/>
<path fill-rule="evenodd" clip-rule="evenodd" d="M107.427 18.7736L104.386 26.8232H102.65L99.7002 18.7736H101.62L102.988 23.0288C103.218 23.7354 103.418 24.4114 103.571 25.0566H103.617C103.756 24.4728 103.955 23.7969 104.201 23.0288L105.553 18.7736H107.427Z" fill="black"/>
<path fill-rule="evenodd" clip-rule="evenodd" d="M113.664 22.8137C111.682 22.8137 110.684 23.29 110.684 24.4421C110.684 25.287 111.191 25.7018 111.913 25.7018C112.819 25.7018 113.664 25.0105 113.664 24.058V22.8137ZM113.91 26.8232L113.772 25.9015H113.725C113.172 26.6388 112.389 27.0075 111.375 27.0075C109.931 27.0075 108.917 25.9936 108.917 24.6418C108.917 22.6601 110.638 21.6309 113.618 21.6309V21.4773C113.618 20.4173 113.05 19.895 111.944 19.895C111.145 19.895 110.453 20.0947 109.839 20.4941L109.47 19.3266C110.208 18.8658 111.145 18.6353 112.235 18.6353C114.34 18.6353 115.4 19.7414 115.4 21.9688V24.9337C115.4 25.7478 115.431 26.3777 115.523 26.8539L113.91 26.8232Z" fill="black"/>
<mask id="mask0" mask-type="alpha" maskUnits="userSpaceOnUse" x="0" y="1" width="261" height="77">
<path fill-rule="evenodd" clip-rule="evenodd" d="M0.870117 77.8089H260.1V1H0.870117V77.8089Z" fill="white"/>
</mask>
<g mask="url(#mask0)">
<path fill-rule="evenodd" clip-rule="evenodd" d="M118.518 26.8078H120.3V18.7736H118.518V26.8078ZM119.379 17.4525C118.779 17.4525 118.319 16.9916 118.319 16.3771C118.319 15.7627 118.795 15.3172 119.409 15.3172C120.024 15.3172 120.515 15.7627 120.5 16.3771C120.5 17.0223 120.039 17.4525 119.379 17.4525Z" fill="black"/>
<path fill-rule="evenodd" clip-rule="evenodd" d="M123.48 26.8078H125.262V15.0868H123.48V26.8078Z" fill="black"/>
<path fill-rule="evenodd" clip-rule="evenodd" d="M132.605 22.8137C130.624 22.8137 129.625 23.2899 129.625 24.4421C129.625 25.287 130.132 25.7017 130.854 25.7017C131.76 25.7017 132.605 25.0105 132.605 24.058V22.8137ZM132.851 26.8232L132.713 25.9015H132.667C132.114 26.6388 131.33 27.0075 130.316 27.0075C128.872 27.0075 127.858 25.9936 127.858 24.6418C127.858 22.6601 129.579 21.6309 132.559 21.6309V21.4773C132.559 20.4173 131.991 19.895 130.885 19.895C130.086 19.895 129.395 20.0947 128.78 20.4941L128.411 19.3112C129.149 18.8504 130.086 18.62 131.177 18.62C133.281 18.62 134.341 19.726 134.341 21.9535V24.9183C134.341 25.7325 134.372 26.3623 134.449 26.8385H132.851V26.8232Z" fill="black"/>
<path fill-rule="evenodd" clip-rule="evenodd" d="M141.223 20.0178C140.194 20.0178 139.257 20.9088 139.257 22.1531V23.5664C139.257 24.6724 140.102 25.5788 141.192 25.5788C142.529 25.5788 143.328 24.4881 143.328 22.7522C143.328 21.1239 142.498 20.0178 141.223 20.0178ZM141.592 27.0074C140.455 27.0074 139.61 26.5312 139.057 25.5788H139.026L138.919 26.8231H137.398C137.444 26.1779 137.459 25.4559 137.459 24.6571V15.0867H139.257V19.9564H139.287C139.825 19.0654 140.67 18.6199 141.853 18.6199C143.788 18.6199 145.14 20.279 145.14 22.6908C145.14 25.1794 143.635 27.0074 141.592 27.0074Z" fill="black"/>
<path fill-rule="evenodd" clip-rule="evenodd" d="M147.782 26.8078H149.564V15.0868H147.782V26.8078Z" fill="black"/>
<path fill-rule="evenodd" clip-rule="evenodd" d="M157.66 21.9534C157.66 20.7091 157.03 19.8335 155.894 19.8335C154.864 19.8335 154.066 20.7245 153.943 21.9534H157.66ZM159.289 23.2284H153.927C153.958 24.7492 154.972 25.6095 156.462 25.6095C157.261 25.6095 157.983 25.4712 158.628 25.2255L158.905 26.4698C158.152 26.8077 157.261 26.9613 156.216 26.9613C153.697 26.9613 152.207 25.3791 152.207 22.9058C152.207 20.4479 153.728 18.5892 156.017 18.5892C158.06 18.5892 159.365 20.11 159.365 22.4142C159.365 22.7368 159.35 23.0134 159.289 23.2284Z" fill="black"/>
<path fill-rule="evenodd" clip-rule="evenodd" d="M170.196 19.9257C168.905 19.9257 168.076 21.1393 168.076 22.8137C168.076 24.4728 168.92 25.671 170.18 25.671C171.44 25.671 172.285 24.3806 172.285 22.7676C172.269 21.1393 171.455 19.9257 170.196 19.9257ZM170.119 27.0075C167.768 27.0075 166.248 25.2563 166.248 22.8752C166.248 20.3866 167.799 18.62 170.257 18.62C172.577 18.62 174.128 20.2944 174.128 22.7369C174.128 25.2409 172.531 27.0075 170.119 27.0075Z" fill="black"/>
<path fill-rule="evenodd" clip-rule="evenodd" d="M183.729 26.8232H181.947V22.1993C181.947 20.7706 181.394 20.064 180.319 20.064C179.259 20.064 178.537 20.9703 178.537 22.0303V26.8078H176.755V21.0779C176.755 20.3712 176.739 19.6031 176.693 18.7736H178.26L178.337 20.0179H178.383C178.859 19.1576 179.843 18.6046 180.933 18.6046C182.623 18.6046 183.729 19.895 183.729 21.9996V26.8232Z" fill="black"/>
<path fill-rule="evenodd" clip-rule="evenodd" d="M195.419 20.1254H193.453V24.0273C193.453 25.0258 193.806 25.5174 194.498 25.5174C194.805 25.5174 195.082 25.4867 195.297 25.4406L195.343 26.7924C194.989 26.9307 194.529 26.9921 193.96 26.9921C192.547 26.9921 191.717 26.2087 191.717 24.1809V20.1254H190.55V18.7889H191.717V17.3142L193.469 16.7766V18.7736H195.435V20.1254" fill="black"/>
<path fill-rule="evenodd" clip-rule="evenodd" d="M204.882 26.8232H203.1V22.23C203.1 20.786 202.547 20.064 201.472 20.064C200.55 20.064 199.69 20.6938 199.69 21.9688V26.8078H197.908V15.0868H199.69V19.9104H199.721C200.289 19.0347 201.088 18.6046 202.132 18.6046C203.838 18.6046 204.882 19.9257 204.882 22.0303V26.8232Z" fill="black"/>
<path fill-rule="evenodd" clip-rule="evenodd" d="M212.379 21.9534C212.379 20.7091 211.749 19.8335 210.612 19.8335C209.583 19.8335 208.769 20.7245 208.661 21.9534H212.379ZM214.007 23.2284H208.646C208.677 24.7492 209.69 25.6095 211.181 25.6095C211.979 25.6095 212.701 25.4712 213.347 25.2255L213.623 26.4698C212.87 26.8077 211.979 26.9613 210.935 26.9613C208.415 26.9613 206.925 25.3791 206.925 22.9058C206.925 20.4479 208.446 18.5892 210.735 18.5892C212.778 18.5892 214.084 20.11 214.084 22.4142C214.084 22.7368 214.069 23.0134 214.007 23.2284Z" fill="black"/>
</g>
</svg>
