<svg width="170" height="170" viewBox="0 0 170 170" fill="none" xmlns="http://www.w3.org/2000/svg">
<path d="M84.5138 169.028C131.189 169.028 169.028 131.189 169.028 84.5138C169.028 37.8382 131.189 0 84.5138 0C37.8381 0 0 37.8382 0 84.5138C0 131.189 37.8381 169.028 84.5138 169.028Z" fill="#1D71B8" fill-opacity="0.2"/>
<path d="M97.1917 87.8436C97.1917 85.5548 95.5984 83.6993 93.633 83.6993H79.3985C77.4331 83.6993 75.8398 85.5548 75.8398 87.8436V89.3171H97.1917V87.8436Z" fill="#1D71B8"/>
<path d="M104.387 53.3083V50.5455H89.8553C89.4969 49.3751 88.7064 48.4545 87.7014 48.0371V42.1649H85.329V48.0371C84.324 48.4545 83.5335 49.3751 83.1751 50.5455H68.6429V53.3083H71.6088L66.2705 68.5038C66.2705 72.3122 68.9313 75.4109 72.2016 75.4109H74.574C77.8442 75.4109 80.5051 72.3122 80.5051 68.5038L75.1427 53.3083H83.1751C83.5335 54.4786 84.3241 55.3993 85.3291 55.8166V75.5623C83.0108 76.1147 81.1769 78.2358 80.7043 80.9365H92.3263C91.8536 78.2358 90.0197 76.1147 87.7015 75.5623V55.8166C88.7064 55.3993 89.497 54.4786 89.8554 53.3083H97.8637L92.5253 68.5038C92.5253 72.3122 95.1862 75.4109 98.4564 75.4109H100.829C104.099 75.4109 106.76 72.3122 106.76 68.5038L101.397 53.3083H104.387ZM77.5392 67.1224H69.2364L73.3878 55.518L77.5392 67.1224ZM103.794 67.1224H95.4912L99.6426 55.518L103.794 67.1224Z" fill="#1D71B8"/>
<path d="M37.9234 104.803H40.1588L44.8566 117.307H42.6911L41.5734 114.111H36.5263L35.3911 117.307H33.2255L37.9234 104.803ZM40.9097 112.295L39.5825 108.575L39.0935 107.125H38.9887L38.4997 108.575L37.1724 112.295H40.9097ZM49.4897 117.586C48.4651 117.586 47.6268 117.365 46.9748 116.923C46.3228 116.469 45.863 115.892 45.5952 115.194L47.3067 114.443C47.5162 114.908 47.8073 115.264 48.1799 115.508C48.5641 115.753 49.0007 115.875 49.4897 115.875C49.967 115.875 50.3687 115.793 50.6947 115.63C51.0207 115.456 51.1837 115.199 51.1837 114.862C51.1837 114.536 51.044 114.28 50.7646 114.093C50.4851 113.907 50.0543 113.744 49.4722 113.604L48.4069 113.342C47.6967 113.168 47.1087 112.859 46.643 112.417C46.1773 111.974 45.9445 111.416 45.9445 110.74C45.9445 110.216 46.0958 109.757 46.3985 109.361C46.7129 108.965 47.132 108.662 47.6559 108.453C48.1799 108.231 48.7504 108.121 49.3674 108.121C50.1941 108.121 50.9217 108.29 51.5504 108.627C52.1791 108.953 52.6332 109.431 52.9126 110.059L51.2361 110.793C50.8984 110.106 50.2814 109.762 49.3849 109.762C48.9541 109.762 48.5932 109.85 48.3021 110.024C48.011 110.199 47.8655 110.426 47.8655 110.705C47.8655 110.973 47.9761 111.194 48.1973 111.369C48.4185 111.532 48.7445 111.672 49.1753 111.788L50.4851 112.12C51.3583 112.341 52.0161 112.679 52.4586 113.133C52.9126 113.575 53.1397 114.123 53.1397 114.775C53.1397 115.333 52.9767 115.828 52.6507 116.259C52.3363 116.678 51.8997 117.004 51.3409 117.237C50.782 117.47 50.1649 117.586 49.4897 117.586ZM54.8029 104.803H56.7239V112.085H56.7763L60.4263 108.4H62.8363V108.505L59.3784 111.945L62.9411 117.202V117.307H60.6533L58.0337 113.273L56.7239 114.547V117.307H54.8029V104.803ZM71.0192 117.586C70.3789 117.586 69.8084 117.464 69.3078 117.22C68.8071 116.963 68.4171 116.608 68.1377 116.154C67.8582 115.688 67.7185 115.165 67.7185 114.582C67.7185 113.663 68.062 112.935 68.7489 112.399C69.4475 111.864 70.3265 111.596 71.386 111.596C71.9099 111.596 72.3814 111.648 72.8006 111.753C73.2197 111.846 73.5515 111.951 73.796 112.068V111.614C73.796 111.066 73.5923 110.624 73.1848 110.286C72.7773 109.937 72.2534 109.762 71.613 109.762C71.1589 109.762 70.7282 109.861 70.3207 110.059C69.9248 110.257 69.6046 110.531 69.3601 110.88L68.0154 109.85C68.4113 109.302 68.9235 108.877 69.5522 108.575C70.181 108.272 70.8795 108.121 71.6479 108.121C72.9403 108.121 73.9357 108.441 74.6343 109.081C75.3329 109.71 75.6822 110.601 75.6822 111.753V117.307H73.796V116.242H73.7087C73.4526 116.626 73.0916 116.946 72.6259 117.202C72.1602 117.458 71.6247 117.586 71.0192 117.586ZM71.3511 115.997C71.8168 115.997 72.2359 115.886 72.6085 115.665C72.981 115.444 73.2721 115.147 73.4817 114.775C73.6912 114.402 73.796 114 73.796 113.57C73.5282 113.418 73.2139 113.296 72.853 113.203C72.5037 113.11 72.1369 113.063 71.7527 113.063C71.0309 113.063 70.5011 113.209 70.1635 113.5C69.8259 113.779 69.657 114.146 69.657 114.6C69.657 115.007 69.8142 115.345 70.1286 115.613C70.4429 115.869 70.8504 115.997 71.3511 115.997ZM82.1832 104.803H84.1391V115.438H89.5006V117.307H82.1832V104.803ZM93.9579 117.586C93.3176 117.586 92.7471 117.464 92.2464 117.22C91.7458 116.963 91.3558 116.608 91.0763 116.154C90.7969 115.688 90.6572 115.165 90.6572 114.582C90.6572 113.663 91.0007 112.935 91.6876 112.399C92.3862 111.864 93.2652 111.596 94.3247 111.596C94.8486 111.596 95.3201 111.648 95.7393 111.753C96.1584 111.846 96.4902 111.951 96.7347 112.068V111.614C96.7347 111.066 96.531 110.624 96.1235 110.286C95.716 109.937 95.1921 109.762 94.5517 109.762C94.0976 109.762 93.6669 109.861 93.2594 110.059C92.8635 110.257 92.5433 110.531 92.2988 110.88L90.9541 109.85C91.35 109.302 91.8622 108.877 92.4909 108.575C93.1197 108.272 93.8182 108.121 94.5866 108.121C95.879 108.121 96.8744 108.441 97.573 109.081C98.2716 109.71 98.6208 110.601 98.6208 111.753V117.307H96.7347V116.242H96.6474C96.3913 116.626 96.0303 116.946 95.5646 117.202C95.0989 117.458 94.5633 117.586 93.9579 117.586ZM94.2897 115.997C94.7555 115.997 95.1746 115.886 95.5472 115.665C95.9197 115.444 96.2108 115.147 96.4204 114.775C96.6299 114.402 96.7347 114 96.7347 113.57C96.4669 113.418 96.1526 113.296 95.7917 113.203C95.4424 113.11 95.0756 113.063 94.6914 113.063C93.9696 113.063 93.4398 113.209 93.1022 113.5C92.7645 113.779 92.5957 114.146 92.5957 114.6C92.5957 115.007 92.7529 115.345 93.0673 115.613C93.3816 115.869 93.7891 115.997 94.2897 115.997ZM99.5484 108.4H101.627L103.425 114.775H103.495L105.504 108.4H107.477L109.468 114.775H109.538L111.337 108.4H113.38L110.533 117.307H108.507L106.464 110.915H106.412L104.386 117.307H102.395L99.5484 108.4ZM117.56 116.818L113.858 108.4H116.006L118.521 114.46H118.591L121.035 108.4H123.149L117.647 121.079H115.622L117.56 116.818ZM128.132 117.586C127.258 117.586 126.472 117.383 125.774 116.975C125.087 116.568 124.546 116.009 124.15 115.298C123.765 114.577 123.573 113.767 123.573 112.871C123.573 112.021 123.76 111.235 124.132 110.513C124.516 109.78 125.046 109.198 125.721 108.767C126.397 108.336 127.165 108.121 128.027 108.121C128.923 108.121 129.697 108.319 130.349 108.714C131.013 109.11 131.514 109.652 131.851 110.339C132.201 111.026 132.375 111.8 132.375 112.661C132.375 112.824 132.358 113.028 132.323 113.273H125.494C125.564 114.099 125.855 114.74 126.368 115.194C126.892 115.636 127.497 115.857 128.184 115.857C128.731 115.857 129.203 115.735 129.598 115.491C130.006 115.234 130.332 114.891 130.576 114.46L132.201 115.229C131.782 115.962 131.234 116.538 130.559 116.958C129.884 117.377 129.075 117.586 128.132 117.586ZM130.419 111.806C130.396 111.491 130.297 111.183 130.122 110.88C129.948 110.566 129.68 110.304 129.319 110.094C128.97 109.885 128.539 109.78 128.027 109.78C127.41 109.78 126.886 109.966 126.455 110.339C126.036 110.7 125.745 111.189 125.582 111.806H130.419ZM134.125 108.4H135.958V109.71H136.046C136.244 109.256 136.587 108.883 137.076 108.592C137.565 108.29 138.083 108.138 138.63 108.138C139.061 108.138 139.422 108.196 139.713 108.313V110.304C139.201 110.117 138.741 110.024 138.334 110.024C137.891 110.024 137.495 110.141 137.146 110.374C136.808 110.606 136.541 110.921 136.343 111.317C136.145 111.701 136.046 112.126 136.046 112.592V117.307H134.125V108.4Z" fill="#1A1A1A"/>
</svg>
