<svg width="34" height="36" viewBox="0 0 34 36" fill="none" xmlns="http://www.w3.org/2000/svg">
<path d="M25.5313 34.4371C25.5313 32.753 24.2254 31.3877 22.6145 31.3877H10.9471C9.33617 31.3877 8.03027 32.753 8.03027 34.4371V35.5214H25.5313V34.4371Z" fill="#9C6A45"/>
<path d="M31.4301 9.02573V6.99278H19.5188C19.2251 6.13163 18.5771 5.45418 17.7534 5.14707V0.826172H15.8088V5.14707C14.9851 5.45418 14.3371 6.13163 14.0433 6.99278H2.13206V9.02573H4.56302L0.1875 20.2069C0.1875 23.0092 2.36845 25.2893 5.0489 25.2893H6.99346C9.6739 25.2893 11.8549 23.0092 11.8549 20.2069L7.45957 9.02573H14.0434C14.3372 9.88689 14.9851 10.5643 15.8089 10.8714V25.4007C13.9087 25.8072 12.4056 27.3679 12.0181 29.3552H21.5441C21.1567 27.3679 19.6536 25.8072 17.7534 25.4007V10.8714C18.5771 10.5643 19.2251 9.88689 19.5189 9.02573H26.0829L21.7073 20.2069C21.7073 23.0092 23.8882 25.2893 26.5687 25.2893H28.5132C31.1937 25.2893 33.3746 23.0092 33.3746 20.2069L28.9794 9.02573H31.4301ZM9.4239 19.1905H2.61846L6.02118 10.6517L9.4239 19.1905ZM30.9437 19.1905H24.1382L27.541 10.6517L30.9437 19.1905Z" fill="#9C6A45"/>
</svg>
