<svg width="162" height="162" viewBox="0 0 162 162" fill="none" xmlns="http://www.w3.org/2000/svg">
<path d="M161.178 80.0981C160.908 35.5876 124.609 -0.273806 80.0981 0.00157543C35.5876 0.271336 -0.273806 36.5711 0.00157544 81.0816C0.271336 125.592 36.5767 161.454 81.0816 161.178C125.587 160.908 161.448 124.609 161.178 80.0981Z" fill="#9A096A" fill-opacity="0.28"/>
<path d="M74.3011 67.3585C73.679 67.3585 73.1748 67.9206 73.1748 68.6132C73.1748 69.3059 73.6789 69.868 74.3011 69.868C74.9231 69.868 75.4272 69.306 75.4272 68.6132C75.4271 67.9206 74.9231 67.3585 74.3011 67.3585Z" fill="#9A096A"/>
<path d="M92.1874 66.3062C90.8605 65.7732 89.7971 65.2254 88.9356 64.6293C88.7842 64.5165 88.7305 64.5025 88.5983 64.4214C88.1125 64.1231 87.6468 64.3694 87.5129 64.5592C87.476 64.6116 87.4383 64.6638 87.3997 64.7157C86.3904 66.0308 83.0672 67.6235 83.066 67.6239C82.806 67.7031 82.6146 67.9674 82.6146 68.2824C82.6146 68.283 82.6146 68.2836 82.6146 68.2836L82.6144 68.2843L82.626 72.8333C82.626 75.6368 80.595 77.9175 78.1012 77.9175C75.6026 77.9175 73.5698 75.6368 73.5698 72.8333V70.9295C72.7084 70.5967 72.089 69.6869 72.089 68.6136C72.089 67.2586 73.0751 66.16 74.2917 66.16C75.508 66.16 76.4942 67.2586 76.4942 68.6136C76.4942 69.6633 75.9014 70.5566 75.0691 70.9071V72.748C75.0691 74.7346 76.4273 76.3524 78.0995 76.3524C79.7689 76.3524 81.1289 74.7346 81.1289 72.748L81.1368 68.313L81.1368 68.3118C81.1368 68.3113 81.1368 68.311 81.1368 68.3106L81.1368 68.2819C81.1368 68.2819 81.136 68.2797 81.1353 68.2777C81.1227 67.9943 80.9339 67.7844 80.7259 67.6673C80.7233 67.6658 77.1849 65.6998 76.1473 64.2285C76.0134 64.0388 75.5478 63.7925 75.0619 64.0907C74.1563 64.6468 72.9249 65.1054 71.3687 65.7306C66.5698 67.6577 65.1865 69.6236 65.1865 70.9645C65.1865 72.303 65.1865 79.7451 65.1865 79.7451H81.7661H81.7902H98.3699C98.3699 79.7451 98.3699 72.303 98.3699 70.9645C98.3697 69.6237 96.9867 68.2333 92.1874 66.3062Z" fill="#9A096A"/>
<path d="M73.9512 49.887C74.1981 53.5006 75.4883 51.9432 75.7543 53.5262C76.2779 56.6411 77.347 56.7605 77.7224 57.8326C77.8066 58.0737 77.8561 59.2262 77.8561 59.6089C77.8561 60.8911 77.7931 61.5704 77.3426 62.2214C77.2403 62.3692 77.068 62.8517 77.2883 63.2178C78.2848 64.873 80.2082 66.2646 82.0157 66.2905C83.8231 66.2646 85.7465 64.8732 86.7431 63.2178C86.9633 62.8519 86.7909 62.3693 86.6887 62.2214C86.2383 61.5704 86.175 60.8911 86.175 59.6089C86.175 59.2262 86.2245 58.0738 86.3087 57.8326C86.6841 56.7605 87.7533 56.6411 88.2768 53.5262C88.5429 51.9433 89.8332 53.5007 90.0801 49.887C90.0801 48.4468 89.3757 48.0887 89.3757 48.0887C89.3757 48.0887 89.7337 45.9573 89.874 44.3173C90.0479 42.2731 88.8029 36.9932 82.1628 36.9932C82.1387 36.9932 82.0584 36.9932 82.0157 36.9932C81.9729 36.9932 81.8926 36.9932 81.8684 36.9932C75.2285 36.9932 73.9834 42.2731 74.1572 44.3173C74.2974 45.9573 74.6555 48.0887 74.6555 48.0887C74.6555 48.0887 73.9512 48.4468 73.9512 49.887Z" fill="#9A096A"/>
<path d="M48.1021 93.5795H50.2337L54.7135 105.503H52.6485L51.5827 102.456H46.7699L45.6874 105.503H43.6224L48.1021 93.5795ZM50.9498 100.724L49.6842 97.1766L49.2179 95.7944H49.118L48.6517 97.1766L47.386 100.724H50.9498ZM59.1314 105.77C58.1544 105.77 57.3551 105.559 56.7333 105.137C56.1116 104.704 55.6731 104.154 55.4177 103.488L57.0497 102.772C57.2496 103.216 57.5271 103.555 57.8824 103.788C58.2488 104.021 58.6651 104.138 59.1314 104.138C59.5866 104.138 59.9696 104.06 60.2805 103.905C60.5913 103.738 60.7468 103.494 60.7468 103.172C60.7468 102.861 60.6135 102.617 60.3471 102.439C60.0806 102.261 59.6699 102.106 59.1147 101.973L58.0989 101.723C57.4217 101.556 56.861 101.262 56.4169 100.84C55.9728 100.418 55.7508 99.8855 55.7508 99.2416C55.7508 98.742 55.8951 98.3035 56.1838 97.926C56.4835 97.5485 56.8832 97.2599 57.3828 97.06C57.8824 96.8491 58.4264 96.7436 59.0148 96.7436C59.8031 96.7436 60.497 96.9046 61.0965 97.2266C61.696 97.5374 62.129 97.9926 62.3954 98.5921L60.7967 99.2916C60.4748 98.6365 59.8863 98.309 59.0315 98.309C58.6207 98.309 58.2765 98.3923 57.999 98.5588C57.7214 98.7254 57.5826 98.9419 57.5826 99.2083C57.5826 99.4637 57.6881 99.6746 57.8991 99.8411C58.11 99.9966 58.4209 100.13 58.8316 100.241L60.0806 100.557C60.9133 100.768 61.5406 101.09 61.9625 101.523C62.3954 101.945 62.6119 102.467 62.6119 103.089C62.6119 103.621 62.4565 104.093 62.1456 104.504C61.8459 104.904 61.4296 105.215 60.8966 105.437C60.3637 105.659 59.7753 105.77 59.1314 105.77ZM64.1979 93.5795H66.0298V100.524H66.0797L69.5602 97.0101H71.8584V97.11L68.561 100.391L71.9583 105.403V105.503H69.7767L67.2787 101.656L66.0298 102.872V105.503H64.1979V93.5795ZM79.6614 105.77C79.0507 105.77 78.5067 105.653 78.0293 105.42C77.5519 105.176 77.18 104.837 76.9136 104.404C76.6471 103.96 76.5139 103.46 76.5139 102.905C76.5139 102.028 76.8414 101.334 77.4964 100.824C78.1626 100.313 79.0008 100.058 80.0111 100.058C80.5107 100.058 80.9603 100.108 81.36 100.207C81.7597 100.296 82.0761 100.396 82.3092 100.507V100.074C82.3092 99.5525 82.1149 99.1306 81.7264 98.8086C81.3378 98.4756 80.8382 98.309 80.2276 98.309C79.7946 98.309 79.3838 98.4034 78.9952 98.5921C78.6178 98.7809 78.3124 99.0418 78.0793 99.3748L76.797 98.3923C77.1745 97.8705 77.663 97.4653 78.2625 97.1766C78.862 96.888 79.5281 96.7436 80.2609 96.7436C81.4932 96.7436 82.4424 97.0489 83.1086 97.6596C83.7747 98.2591 84.1078 99.1084 84.1078 100.207V105.503H82.3092V104.487H82.226C81.9817 104.854 81.6375 105.159 81.1935 105.403C80.7494 105.648 80.2387 105.77 79.6614 105.77ZM79.9778 104.254C80.4219 104.254 80.8215 104.149 81.1768 103.938C81.5321 103.727 81.8096 103.444 82.0095 103.089C82.2093 102.733 82.3092 102.35 82.3092 101.939C82.0539 101.795 81.7541 101.679 81.4099 101.59C81.0769 101.501 80.7272 101.456 80.3608 101.456C79.6725 101.456 79.1673 101.595 78.8453 101.873C78.5234 102.139 78.3624 102.489 78.3624 102.922C78.3624 103.311 78.5123 103.633 78.812 103.888C79.1118 104.132 79.5004 104.254 79.9778 104.254ZM90.3069 93.5795H94.1205C95.3529 93.5795 96.4298 93.8293 97.3513 94.3289C98.2728 94.8285 98.9777 95.5335 99.4662 96.4439C99.9658 97.3431 100.216 98.3756 100.216 99.5414C100.216 100.707 99.9658 101.745 99.4662 102.656C98.9777 103.555 98.2728 104.254 97.3513 104.754C96.4298 105.253 95.3529 105.503 94.1205 105.503H90.3069V93.5795ZM94.0872 103.721C95.4195 103.721 96.4575 103.355 97.2014 102.622C97.9563 101.878 98.3338 100.851 98.3338 99.5414C98.3338 98.2424 97.9563 97.221 97.2014 96.4772C96.4575 95.7333 95.4195 95.3614 94.0872 95.3614H92.1721V103.721H94.0872ZM105.778 105.77C104.923 105.77 104.157 105.575 103.48 105.187C102.803 104.787 102.275 104.243 101.898 103.555C101.52 102.866 101.332 102.1 101.332 101.257C101.332 100.413 101.52 99.6468 101.898 98.9585C102.275 98.2702 102.803 97.7317 103.48 97.3431C104.157 96.9435 104.923 96.7436 105.778 96.7436C106.633 96.7436 107.399 96.9435 108.076 97.3431C108.753 97.7428 109.281 98.2868 109.658 98.9752C110.036 99.6635 110.224 100.424 110.224 101.257C110.224 102.1 110.036 102.866 109.658 103.555C109.281 104.243 108.753 104.787 108.076 105.187C107.399 105.575 106.633 105.77 105.778 105.77ZM105.778 104.088C106.244 104.088 106.677 103.977 107.077 103.755C107.477 103.521 107.793 103.194 108.026 102.772C108.27 102.339 108.393 101.834 108.393 101.257C108.393 100.679 108.27 100.18 108.026 99.7579C107.793 99.336 107.477 99.014 107.077 98.792C106.677 98.5588 106.244 98.4423 105.778 98.4423C105.312 98.4423 104.879 98.5588 104.479 98.792C104.079 99.014 103.757 99.336 103.513 99.7579C103.28 100.18 103.163 100.679 103.163 101.257C103.163 101.834 103.28 102.339 103.513 102.772C103.757 103.194 104.079 103.521 104.479 103.755C104.879 103.977 105.312 104.088 105.778 104.088ZM115.844 105.77C115 105.77 114.239 105.575 113.562 105.187C112.896 104.798 112.374 104.265 111.997 103.588C111.63 102.9 111.447 102.123 111.447 101.257C111.447 100.391 111.63 99.6191 111.997 98.9419C112.374 98.2535 112.896 97.7151 113.562 97.3265C114.239 96.9379 115 96.7436 115.844 96.7436C116.776 96.7436 117.57 96.9546 118.225 97.3764C118.88 97.7983 119.346 98.3701 119.624 99.0917L117.942 99.7912C117.564 98.8919 116.848 98.4423 115.794 98.4423C115.338 98.4423 114.917 98.5588 114.528 98.792C114.15 99.0251 113.845 99.3582 113.612 99.7912C113.39 100.213 113.279 100.702 113.279 101.257C113.279 101.812 113.39 102.306 113.612 102.739C113.845 103.172 114.15 103.505 114.528 103.738C114.917 103.971 115.338 104.088 115.794 104.088C116.326 104.088 116.782 103.971 117.159 103.738C117.548 103.494 117.842 103.15 118.042 102.705L119.69 103.422C119.368 104.143 118.88 104.715 118.225 105.137C117.57 105.559 116.776 105.77 115.844 105.77Z" fill="#1A1A1A"/>
</svg>
