<svg width="33" height="38" viewBox="0 0 33 38" fill="none" xmlns="http://www.w3.org/2000/svg">
<path d="M9.54252 26.4619C8.95049 26.4619 8.4707 26.9422 8.4707 27.5338C8.4707 28.1255 8.95041 28.6057 9.54252 28.6057C10.1344 28.6057 10.6141 28.1256 10.6141 27.5338C10.614 26.9422 10.1344 26.4619 9.54252 26.4619Z" fill="#548BF8"/>
<path d="M26.5641 25.5624C25.3014 25.1071 24.2895 24.6391 23.4697 24.1299C23.3256 24.0335 23.2745 24.0216 23.1487 23.9523C22.6864 23.6974 22.2433 23.9078 22.1159 24.07C22.0807 24.1147 22.0448 24.1593 22.0082 24.2037C21.0477 25.3271 17.8853 26.6878 17.8842 26.6881C17.6368 26.7557 17.4546 26.9816 17.4546 27.2506C17.4546 27.2511 17.4546 27.2516 17.4546 27.2516L17.4545 27.2522L17.4655 31.1383C17.4655 33.5333 15.5328 35.4816 13.1597 35.4816C10.7821 35.4816 8.84763 33.5333 8.84763 31.1383V29.512C8.02787 29.2276 7.43848 28.4504 7.43848 27.5336C7.43848 26.376 8.37688 25.4375 9.53457 25.4375C10.692 25.4375 11.6305 26.376 11.6305 27.5336C11.6305 28.4302 11.0664 29.1934 10.2743 29.4928V31.0655C10.2743 32.7626 11.5669 34.1447 13.1581 34.1447C14.7467 34.1447 16.0409 32.7626 16.0409 31.0655L16.0483 27.2768L16.0484 27.2757C16.0484 27.2753 16.0483 27.275 16.0483 27.2747L16.0484 27.2502C16.0484 27.2502 16.0476 27.2483 16.0469 27.2466C16.0349 27.0045 15.8553 26.8252 15.6573 26.7251C15.6549 26.7238 12.2878 25.0443 11.3003 23.7875C11.173 23.6254 10.7299 23.415 10.2675 23.6698C9.40576 24.1448 8.23398 24.5366 6.75304 25.0707C2.18646 26.717 0.870117 28.3963 0.870117 29.5418C0.870117 30.6853 0.870117 37.0429 0.870117 37.0429H16.6472H16.6702H32.4473C32.4473 37.0429 32.4473 30.6853 32.4473 29.5418C32.4472 28.3964 31.1311 27.2087 26.5641 25.5624Z" fill="#548BF8"/>
<path d="M9.20996 11.5363C9.44492 14.6233 10.6727 13.2928 10.9259 14.6452C11.424 17.3062 12.4414 17.4082 12.7987 18.3241C12.8788 18.53 12.9259 19.5145 12.9259 19.8415C12.9259 20.9369 12.8659 21.5171 12.4372 22.0733C12.3399 22.1996 12.1759 22.6118 12.3856 22.9245C13.3338 24.3385 15.1641 25.5273 16.8841 25.5494C18.6041 25.5273 20.4343 24.3387 21.3827 22.9245C21.5922 22.6119 21.4282 22.1996 21.3309 22.0733C20.9024 21.5171 20.8422 20.9369 20.8422 19.8415C20.8422 19.5145 20.8892 18.5301 20.9694 18.3241C21.3266 17.4082 22.344 17.3062 22.8422 14.6452C23.0954 13.2929 24.3232 14.6234 24.5582 11.5363C24.5582 10.306 23.8879 10 23.8879 10C23.8879 10 24.2286 8.17929 24.3621 6.77827C24.5275 5.03194 23.3429 0.521484 17.0242 0.521484C17.0012 0.521484 16.9248 0.521484 16.8842 0.521484C16.8434 0.521484 16.767 0.521484 16.744 0.521484C10.4254 0.521484 9.24062 5.03194 9.40597 6.77827C9.53946 8.17929 9.88018 10 9.88018 10C9.88018 10 9.20996 10.306 9.20996 11.5363Z" fill="#548BF8"/>
</svg>
