<svg width="37" height="40" viewBox="0 0 37 40" fill="none" xmlns="http://www.w3.org/2000/svg">
<path d="M30.4165 11.6777L26.2176 7.15584C25.3837 6.25663 24.2523 5.75087 23.0722 5.74976H13.6656C12.4855 5.75087 11.3541 6.25663 10.5201 7.15584L6.32128 11.6777C5.4863 12.5758 5.01666 13.7942 5.01562 15.0651V29.7171C5.01563 30.9885 5.48458 32.2077 6.31932 33.1066C7.15406 34.0056 8.28621 34.5106 9.46671 34.5106H27.2711C28.4516 34.5106 29.5837 34.0056 30.4185 33.1066C31.2532 32.2077 31.7221 30.9885 31.7221 29.7171V15.0651C31.7211 13.7942 31.2515 12.5758 30.4165 11.6777ZM18.3689 26.5215C16.7949 26.5215 15.2853 25.8481 14.1724 24.6495C13.0594 23.4509 12.4341 21.8253 12.4341 20.1302C12.4341 19.7064 12.5904 19.3 12.8687 19.0004C13.1469 18.7007 13.5243 18.5324 13.9178 18.5324C14.3113 18.5324 14.6887 18.7007 14.9669 19.0004C15.2452 19.3 15.4015 19.7064 15.4015 20.1302C15.4015 20.9777 15.7141 21.7906 16.2706 22.3899C16.8271 22.9892 17.5819 23.3258 18.3689 23.3258C19.1559 23.3258 19.9107 22.9892 20.4671 22.3899C21.0236 21.7906 21.3363 20.9777 21.3363 20.1302C21.3363 19.7064 21.4926 19.3 21.7708 19.0004C22.0491 18.7007 22.4265 18.5324 22.82 18.5324C23.2135 18.5324 23.5909 18.7007 23.8691 19.0004C24.1474 19.3 24.3037 19.7064 24.3037 20.1302C24.3037 21.8253 23.6784 23.4509 22.5654 24.6495C21.4524 25.8481 19.9429 26.5215 18.3689 26.5215ZM10.075 12.1411L12.6121 9.40878C12.8965 9.1168 13.2727 8.95129 13.6656 8.94541H23.0722C23.465 8.95129 23.8413 9.1168 24.1256 9.40878L26.6627 12.1411H10.075Z" fill="#EE5E31"/>
</svg>
