<svg width="152" height="152" viewBox="0 0 152 152" fill="none" xmlns="http://www.w3.org/2000/svg">
<path d="M75.6776 151.015C117.379 151.015 151.185 117.209 151.185 75.5077C151.185 33.8059 117.379 0 75.6776 0C33.9759 0 0.169922 33.8059 0.169922 75.5077C0.169922 117.209 33.9759 151.015 75.6776 151.015Z" fill="#95C11F" fill-opacity="0.35"/>
<path d="M95.2265 37.8242C94.8969 37.7458 94.5501 37.7881 94.249 37.9434L92.1086 39.0123L89.9498 37.933C89.7564 37.8363 89.5432 37.7859 89.327 37.7859C89.1108 37.7859 88.8976 37.8363 88.7042 37.933L86.5185 39.0132L84.3615 37.933C84.1675 37.8356 83.9535 37.7849 83.7365 37.7849C83.5195 37.7849 83.3054 37.8356 83.1115 37.933L80.9667 39.0097L78.8384 37.9356C78.645 37.8375 78.4313 37.786 78.2145 37.7851C77.9976 37.7842 77.7835 37.8339 77.5893 37.9304L75.3957 39.0141L73.237 37.9321C73.0433 37.8355 72.8298 37.7852 72.6133 37.7852C72.3968 37.7852 72.1833 37.8355 71.9896 37.9321L69.8248 39.0123L67.6626 37.9321C67.3838 37.7924 67.0663 37.7502 66.7607 37.8124C66.4552 37.8746 66.1793 38.0375 65.9774 38.2751C65.7597 38.5345 65.6423 38.8634 65.6466 39.2021V60.0687L65.6509 60.0731H82.3594C83.0982 60.0731 83.8067 60.3666 84.329 60.8889C84.8514 61.4113 85.1449 62.1198 85.1449 62.8586V71.907C85.1449 74.5993 88.0235 76.7816 90.7158 76.7816H91.7604C92.9609 76.7816 94.1122 76.3047 94.961 75.4558C95.8099 74.607 96.2868 73.4557 96.2868 72.2552V39.1777C96.287 38.866 96.1827 38.5632 95.9905 38.3178C95.7982 38.0724 95.5293 37.8986 95.2265 37.8242ZM89.3231 55.8905H78.2247C77.4727 55.8905 76.8233 55.3126 76.7902 54.5605C76.7818 54.3725 76.8115 54.1848 76.8775 54.0086C76.9436 53.8325 77.0447 53.6715 77.1747 53.5355C77.3047 53.3995 77.4609 53.2912 77.6339 53.2173C77.8069 53.1433 77.9931 53.1051 78.1812 53.1051H89.2796C90.0316 53.1051 90.681 53.6831 90.7141 54.4351C90.7226 54.6231 90.6929 54.8108 90.6268 54.987C90.5607 55.1631 90.4596 55.3241 90.3296 55.4601C90.1996 55.5961 90.0434 55.7044 89.8704 55.7784C89.6974 55.8523 89.5112 55.8905 89.3231 55.8905ZM89.3231 48.9269H72.6538C71.9017 48.9269 71.2524 48.3489 71.2193 47.5968C71.2108 47.4089 71.2405 47.2211 71.3066 47.045C71.3727 46.8688 71.4738 46.7079 71.6038 46.5719C71.7338 46.4358 71.89 46.3276 72.063 46.2536C72.2359 46.1796 72.4221 46.1414 72.6103 46.1414H89.2796C90.0316 46.1414 90.681 46.7194 90.7141 47.4715C90.7226 47.6594 90.6929 47.8471 90.6268 48.0233C90.5607 48.1995 90.4596 48.3604 90.3296 48.4964C90.1996 48.6324 90.0434 48.7407 89.8704 48.8147C89.6974 48.8887 89.5112 48.9268 89.3231 48.9269Z" fill="#95C11F"/>
<path d="M82.3596 71.907V64.247C82.3596 63.8776 82.2129 63.5234 81.9517 63.2622C81.6905 63.001 81.3362 62.8542 80.9669 62.8542H57.2904C56.5516 62.8565 55.8437 63.1514 55.3217 63.6742C54.7997 64.197 54.506 64.9053 54.5049 65.6441C54.5049 70.0442 55.008 71.8739 55.7636 73.2667C57.0458 75.6317 59.3673 76.7816 62.8613 76.7816H84.2467C84.3154 76.7817 84.3826 76.7614 84.4398 76.7234C84.497 76.6853 84.5417 76.6312 84.5682 76.5678C84.5947 76.5045 84.6019 76.4347 84.5889 76.3672C84.5758 76.2998 84.5431 76.2377 84.4948 76.1888C83.6714 75.3628 82.3596 74.2573 82.3596 71.907Z" fill="#95C11F"/>
<path d="M50.4871 92.2865H54.7313C55.3309 92.2865 55.8831 92.418 56.388 92.681C56.9034 92.9439 57.3136 93.3068 57.6187 93.7696C57.9237 94.2324 58.0762 94.7426 58.0762 95.3001C58.0762 95.8575 57.9342 96.3414 57.6502 96.7516C57.3767 97.1618 57.0139 97.4721 56.5616 97.6825V97.7772C57.1296 97.977 57.5871 98.3084 57.9342 98.7712C58.2918 99.234 58.4707 99.7757 58.4707 100.396C58.4707 101.017 58.3076 101.569 57.9816 102.053C57.666 102.537 57.2347 102.915 56.6878 103.189C56.1513 103.452 55.5623 103.583 54.9207 103.583H50.4871V92.2865ZM54.6525 97.0198C55.1573 97.0198 55.5623 96.8621 55.8673 96.5465C56.1829 96.231 56.3407 95.8681 56.3407 95.4578C56.3407 95.0476 56.1881 94.69 55.8831 94.385C55.5886 94.0694 55.1994 93.9116 54.7156 93.9116H52.2542V97.0198H54.6525ZM54.9207 101.942C55.4571 101.942 55.8831 101.774 56.1987 101.438C56.5247 101.101 56.6878 100.712 56.6878 100.27C56.6878 99.8178 56.5195 99.4286 56.1829 99.1025C55.8568 98.7659 55.415 98.5976 54.8576 98.5976H52.2542V101.942H54.9207ZM61.1044 94.3692C60.7784 94.3692 60.4996 94.2587 60.2682 94.0379C60.0473 93.8064 59.9369 93.5277 59.9369 93.2016C59.9369 92.8756 60.0473 92.6021 60.2682 92.3812C60.4996 92.1498 60.7784 92.0341 61.1044 92.0341C61.4305 92.0341 61.704 92.1498 61.9249 92.3812C62.1563 92.6021 62.272 92.8756 62.272 93.2016C62.272 93.5277 62.1563 93.8064 61.9249 94.0379C61.704 94.2587 61.4305 94.3692 61.1044 94.3692ZM60.2367 95.5367H61.9722V103.583H60.2367V95.5367ZM64.1319 92.2865H65.8675V103.583H64.1319V92.2865ZM67.9068 92.2865H69.6424V103.583H67.9068V92.2865ZM75.3166 95.5367H76.9732V96.5938H77.0521C77.2835 96.2257 77.6254 95.9154 78.0777 95.663C78.53 95.4105 79.0401 95.2843 79.6081 95.2843C80.3339 95.2843 80.9913 95.4684 81.5803 95.8365C82.1694 96.2047 82.6322 96.7148 82.9688 97.367C83.3159 98.0086 83.4894 98.7396 83.4894 99.5601C83.4894 100.38 83.3159 101.117 82.9688 101.769C82.6322 102.411 82.1694 102.915 81.5803 103.284C80.9913 103.652 80.3339 103.836 79.6081 103.836C79.0401 103.836 78.53 103.71 78.0777 103.457C77.6254 103.205 77.2835 102.9 77.0521 102.542H76.9732L77.0521 103.662V106.991H75.3166V95.5367ZM79.3557 102.242C79.7764 102.242 80.1709 102.132 80.539 101.911C80.9072 101.69 81.2017 101.374 81.4226 100.964C81.6434 100.554 81.7539 100.086 81.7539 99.5601C81.7539 99.0341 81.6434 98.5713 81.4226 98.1716C81.2017 97.7614 80.9072 97.4458 80.539 97.225C80.1709 97.0041 79.7764 96.8936 79.3557 96.8936C78.9349 96.8936 78.5405 97.0041 78.1724 97.225C77.8147 97.4458 77.5255 97.7614 77.3046 98.1716C77.0837 98.5713 76.9732 99.0341 76.9732 99.5601C76.9732 100.086 77.0837 100.554 77.3046 100.964C77.5255 101.374 77.8147 101.69 78.1724 101.911C78.5405 102.132 78.9349 102.242 79.3557 102.242ZM87.5957 103.836C87.0172 103.836 86.5018 103.725 86.0495 103.504C85.5972 103.273 85.2448 102.952 84.9924 102.542C84.74 102.121 84.6137 101.648 84.6137 101.122C84.6137 100.291 84.924 99.6337 85.5446 99.1498C86.1757 98.666 86.9699 98.4241 87.9271 98.4241C88.4004 98.4241 88.8264 98.4714 89.205 98.5661C89.5837 98.6502 89.8835 98.7449 90.1044 98.8501V98.4398C90.1044 97.9455 89.9203 97.5458 89.5522 97.2407C89.184 96.9252 88.7107 96.7674 88.1322 96.7674C87.7219 96.7674 87.3328 96.8568 86.9646 97.0356C86.607 97.2144 86.3177 97.4616 86.0968 97.7772L84.8819 96.8463C85.2396 96.3519 85.7024 95.968 86.2704 95.6945C86.8384 95.421 87.4695 95.2843 88.1637 95.2843C89.3313 95.2843 90.2306 95.5735 90.8617 96.1521C91.4928 96.7201 91.8084 97.5247 91.8084 98.5661V103.583H90.1044V102.621H90.0255C89.7941 102.968 89.468 103.257 89.0473 103.489C88.6265 103.72 88.1427 103.836 87.5957 103.836ZM87.8955 102.4C88.3162 102.4 88.6949 102.3 89.0315 102.1C89.3681 101.9 89.631 101.632 89.8204 101.296C90.0097 100.959 90.1044 100.596 90.1044 100.207C89.8625 100.07 89.5785 99.9598 89.2524 99.8756C88.9368 99.7915 88.6055 99.7494 88.2584 99.7494C87.6062 99.7494 87.1276 99.8809 86.8226 100.144C86.5176 100.396 86.3651 100.728 86.3651 101.138C86.3651 101.506 86.5071 101.811 86.7911 102.053C87.0751 102.284 87.4432 102.4 87.8955 102.4ZM96.007 103.142L92.6621 95.5367H94.6028L96.8747 101.012H96.9379L99.1467 95.5367H101.056L96.0859 106.991H94.2556L96.007 103.142Z" fill="#1A1A1A"/>
</svg>
