<svg width="215" height="240" viewBox="0 0 215 240" fill="none" xmlns="http://www.w3.org/2000/svg">
<path opacity="0.5" d="M211.922 202.233L149.018 238.654C146.21 240.282 141.96 240.457 139.528 239.049L1.64283 159.254C-0.789261 157.846 -0.486397 155.39 2.32197 153.762L65.2258 117.341C68.0342 115.713 72.2835 115.538 74.7155 116.946L212.601 196.741C215.042 198.149 214.74 200.605 211.922 202.233Z" fill="#13247A"/>
<path d="M214.252 175.454L201.293 173.191L74.7233 99.9453C72.2913 98.5378 68.042 98.7126 65.2336 100.341L6.60657 134.287L0.0078125 133.137V139.861H0.0169904C0.00781271 140.763 0.549297 141.619 1.65062 142.263L139.536 222.058C141.968 223.465 146.218 223.291 149.026 221.662L211.93 185.242C213.49 184.34 214.279 183.181 214.252 182.087V175.454Z" fill="url(#paint0_linear)"/>
<path d="M211.922 178.563L149.018 214.984C146.21 216.612 141.96 216.787 139.528 215.379L1.64283 135.574C-0.789261 134.167 -0.486397 131.711 2.32197 130.082L65.2258 93.6621C68.0342 92.0338 72.2835 91.859 74.7155 93.2665L212.601 173.062C215.042 174.47 214.74 176.935 211.922 178.563Z" fill="url(#paint1_linear)"/>
<path d="M211.922 177.699L149.018 214.119C146.21 215.747 141.961 215.922 139.529 214.514L1.64304 134.719C0.725268 134.185 0.192963 133.505 0.0461197 132.778C-0.146612 133.817 0.367339 134.848 1.64304 135.584L139.529 215.379C141.961 216.787 146.21 216.612 149.018 214.984L211.922 178.563C213.666 177.551 214.446 176.217 214.198 175.012C214.033 175.96 213.262 176.926 211.922 177.699Z" fill="white"/>
<path d="M212.022 172.722L138.94 215.03L2.22949 135.915L75.3114 93.607L212.022 172.722Z" fill="#0F65B2"/>
<path d="M43.2091 110.175L33.4991 115.796C33.0769 116.044 32.4437 116.063 32.0766 115.851L31.9756 115.796C31.6085 115.584 31.6544 115.216 32.0766 114.968L41.7865 109.347C42.2087 109.099 42.842 109.08 43.2091 109.292L43.31 109.347C43.6772 109.559 43.6313 109.927 43.2091 110.175Z" fill="#0063AD"/>
<path d="M168.282 121.785H44.6953V188.241H168.282V121.785Z" fill="white"/>
<path d="M151.316 176.109C154.795 168.766 137.531 153.255 112.756 141.464C87.9817 129.673 65.0782 126.067 61.5998 133.41C58.1215 140.753 75.3855 156.264 100.16 168.055C124.935 179.846 147.838 183.452 151.316 176.109Z" fill="white"/>
<path d="M151.133 176.022C154.596 168.711 137.402 153.265 112.728 141.522C88.0539 129.779 65.2444 126.186 61.7813 133.496C58.3182 140.807 75.5128 156.254 100.187 167.997C124.86 179.74 147.67 183.333 151.133 176.022Z" fill="white"/>
<path d="M150.96 175.94C154.411 168.656 137.283 153.269 112.706 141.572C88.1279 129.874 65.407 126.296 61.9569 133.579C58.5068 140.863 75.6341 156.25 100.212 167.947C124.789 179.645 147.51 183.223 150.96 175.94Z" fill="white"/>
<path d="M150.785 175.856C154.222 168.601 137.162 153.273 112.681 141.621C88.199 129.97 65.5666 126.406 62.1296 133.662C58.6925 140.918 75.7524 156.245 100.234 167.897C124.715 179.549 147.348 183.112 150.785 175.856Z" fill="white"/>
<path d="M150.611 175.774C154.033 168.55 137.039 153.286 112.654 141.68C88.2681 130.074 65.726 126.521 62.3041 133.745C58.8823 140.969 75.8766 156.233 100.262 167.839C124.647 179.445 147.19 182.997 150.611 175.774Z" fill="#FEFFFF"/>
<path d="M150.436 175.691C153.845 168.495 136.918 153.29 112.628 141.729C88.3393 130.169 65.8856 126.632 62.4768 133.828C59.068 141.024 75.995 156.229 100.284 167.789C124.573 179.349 147.027 182.887 150.436 175.691Z" fill="#FEFEFF"/>
<path d="M150.255 175.604C153.651 168.435 136.795 153.292 112.607 141.779C88.4184 130.267 66.0569 126.746 62.6612 133.915C59.2655 141.083 76.1213 156.227 100.31 167.739C124.498 179.251 146.86 182.773 150.255 175.604Z" fill="#FEFEFF"/>
<path d="M150.08 175.521C153.463 168.38 136.674 153.296 112.582 141.829C88.4895 130.363 66.2166 126.856 62.8339 133.997C59.4512 141.139 76.2397 156.223 100.332 167.689C124.424 179.156 146.697 182.662 150.08 175.521Z" fill="#FEFEFE"/>
<path d="M149.906 175.438C153.274 168.329 136.551 153.308 112.555 141.887C88.5586 130.467 66.3759 126.971 63.0085 134.08C59.641 141.189 76.3639 156.21 100.36 167.631C124.356 179.052 146.539 182.547 149.906 175.438Z" fill="#FDFEFE"/>
<path d="M149.732 175.356C153.086 168.274 136.431 153.312 112.531 141.937C88.6307 130.563 66.5365 127.082 63.1821 134.163C59.8277 141.245 76.4832 156.207 100.383 167.582C124.283 178.957 146.377 182.437 149.732 175.356Z" fill="#FDFDFE"/>
<path d="M149.55 175.269C152.892 168.215 136.307 153.314 112.508 141.987C88.7088 130.66 66.7069 127.196 63.3655 134.25C60.0242 141.304 76.6086 156.205 100.408 167.532C124.207 178.859 146.209 182.323 149.55 175.269Z" fill="#FDFDFE"/>
<path d="M149.376 175.186C152.704 168.16 136.187 153.318 112.484 142.037C88.7809 130.756 66.8675 127.307 63.5392 134.333C60.2108 141.359 76.7279 156.201 100.431 167.482C124.134 178.763 146.048 182.212 149.376 175.186Z" fill="#FCFDFE"/>
<path d="M149.221 175.104C145.908 182.096 124.083 178.665 100.478 167.423C76.8733 156.19 60.4177 141.407 63.7308 134.415C67.044 127.424 88.8685 130.855 112.474 142.097C136.079 153.329 152.534 168.104 149.221 175.104Z" fill="#FCFDFE"/>
<path d="M149.027 175.02C152.327 168.053 135.943 153.335 112.432 142.145C88.9211 130.955 67.1865 127.532 63.8864 134.499C60.5864 141.465 76.9705 156.184 100.481 167.374C123.992 178.563 145.727 181.987 149.027 175.02Z" fill="#FBFCFE"/>
<path d="M148.854 174.937C152.141 167.998 135.825 153.339 112.41 142.195C88.9951 131.051 67.3491 127.643 64.062 134.582C60.775 141.521 77.0917 156.18 100.506 167.324C123.921 178.468 145.567 181.877 148.854 174.937Z" fill="#FBFCFD"/>
<path d="M148.671 174.85C151.943 167.943 135.695 153.349 112.381 142.253C89.0673 131.157 67.5153 127.761 64.2435 134.668C60.9717 141.575 77.2191 156.17 100.533 167.266C123.847 178.362 145.399 181.757 148.671 174.85Z" fill="#FBFCFD"/>
<path d="M148.498 174.767C151.757 167.888 135.577 153.353 112.359 142.303C89.1414 131.253 67.6778 127.872 64.4191 134.751C61.1603 141.63 77.3403 156.165 100.558 167.216C123.776 178.266 145.24 181.647 148.498 174.767Z" fill="#FAFBFD"/>
<path d="M148.324 174.685C151.569 167.833 135.457 153.357 112.335 142.353C89.2135 131.348 67.8385 127.982 64.5927 134.834C61.347 141.686 77.4596 156.161 100.581 167.166C123.703 178.17 145.078 181.537 148.324 174.685Z" fill="#FAFBFD"/>
<path d="M148.149 174.602C151.382 167.777 135.337 153.361 112.311 142.403C89.2855 131.444 67.9991 128.092 64.7664 134.917C61.5337 141.741 77.579 156.157 100.605 167.116C123.63 178.075 144.917 181.426 148.149 174.602Z" fill="#F9FBFD"/>
<path d="M147.966 174.515C151.183 167.723 135.207 153.372 112.283 142.461C89.3578 131.55 68.1653 128.211 64.9478 135.004C61.7303 141.796 77.7063 156.147 100.631 167.058C123.556 177.969 144.748 181.307 147.966 174.515Z" fill="#F9FAFC"/>
<path d="M147.793 174.432C150.998 167.667 135.089 153.376 112.26 142.511C89.4318 131.646 68.3278 128.322 65.1234 135.086C61.919 141.851 77.8276 156.143 100.656 167.008C123.485 177.873 144.589 181.197 147.793 174.432Z" fill="#F8FAFC"/>
<path d="M147.619 174.349C150.81 167.612 134.969 153.38 112.236 142.56C89.5039 131.741 68.4884 128.432 65.2971 135.169C62.1057 141.906 77.9469 156.139 100.679 166.958C123.412 177.777 144.427 181.086 147.619 174.349Z" fill="#F8FAFC"/>
<path d="M147.445 174.266C150.624 167.557 134.85 153.384 112.213 142.61C89.577 131.837 68.65 128.542 65.4717 135.252C62.2933 141.962 78.0672 156.134 100.704 166.908C123.34 177.681 144.267 180.976 147.445 174.266Z" fill="#F7F9FC"/>
<path d="M147.27 174.184C150.433 167.506 134.725 153.396 112.184 142.669C89.6441 131.941 68.8074 128.658 65.6443 135.335C62.4812 142.013 78.1894 156.123 100.73 166.85C123.27 177.578 144.107 180.861 147.27 174.184Z" fill="#F7F9FC"/>
<path d="M147.088 174.097C150.238 167.447 134.601 153.398 112.162 142.718C89.7222 132.038 68.9778 128.772 65.8277 135.422C62.6777 142.072 78.3148 156.12 100.754 166.8C123.194 177.48 143.938 180.747 147.088 174.097Z" fill="#F6F9FB"/>
<path d="M146.914 174.014C150.051 167.392 134.481 153.402 112.138 142.768C89.7943 132.134 69.1384 128.882 66.0014 135.505C62.8644 142.127 78.4341 156.117 100.777 166.751C123.121 177.385 143.777 180.637 146.914 174.014Z" fill="#F6F8FB"/>
<path d="M146.739 173.931C149.861 167.341 134.357 153.415 112.11 142.827C89.8624 132.238 69.2968 128.997 66.175 135.588C63.0532 142.178 78.5574 156.104 100.805 166.692C123.052 177.281 143.617 180.522 146.739 173.931Z" fill="#F5F8FB"/>
<path d="M146.565 173.848C149.673 167.285 134.237 153.419 112.086 142.876C89.9345 132.334 69.4574 129.108 66.3486 135.67C63.2399 142.233 78.6767 156.1 100.828 166.642C122.979 177.185 143.456 180.411 146.565 173.848Z" fill="#F5F7FB"/>
<path d="M146.383 173.762C149.479 167.226 134.113 153.421 112.063 142.926C90.0127 132.432 69.6278 129.222 66.5321 135.757C63.4363 142.293 78.8021 156.098 100.852 166.593C122.903 177.087 143.288 180.297 146.383 173.762Z" fill="#F4F7FB"/>
<path d="M146.209 173.679C149.291 167.171 133.993 153.425 112.039 142.976C90.0848 132.527 69.7884 129.333 66.7057 135.84C63.623 142.348 78.9214 156.094 100.876 166.543C122.83 176.992 143.126 180.186 146.209 173.679Z" fill="#F4F7FA"/>
<path d="M146.035 173.596C149.103 167.12 133.87 153.437 112.012 143.034C90.1539 132.631 69.9478 129.447 66.8803 135.923C63.8128 142.399 79.0456 156.081 100.904 166.484C122.762 176.887 142.968 180.071 146.035 173.596Z" fill="#F3F6FA"/>
<path d="M145.861 173.513C148.915 167.065 133.75 153.441 111.988 143.084C90.2259 132.727 70.1084 129.557 67.0539 136.006C63.9995 142.454 79.1649 156.077 100.927 166.434C122.689 176.792 142.806 179.961 145.861 173.513Z" fill="#F2F6FA"/>
<path d="M145.688 173.43C148.729 167.01 133.631 153.446 111.966 143.134C90.3 132.823 70.2709 129.668 67.2296 136.089C64.1882 142.509 79.2862 156.073 100.952 166.385C122.618 176.696 142.647 179.851 145.688 173.43Z" fill="#F2F5FA"/>
<path d="M145.505 173.343C148.533 166.95 133.506 153.448 111.941 143.184C90.3762 132.92 70.4393 129.783 67.411 136.176C64.3827 142.569 79.4096 156.071 100.975 166.335C122.54 176.599 142.476 179.736 145.505 173.343Z" fill="#F1F5F9"/>
<path d="M145.33 173.26C148.343 166.899 133.382 153.46 111.913 143.242C90.4443 133.024 70.5977 129.897 67.5846 136.258C64.5715 142.619 79.5328 156.059 101.002 166.277C122.47 176.494 142.317 179.621 145.33 173.26Z" fill="#F1F4F9"/>
<path d="M145.156 173.177C148.156 166.844 133.262 153.464 111.889 143.292C90.5164 133.12 70.7583 130.008 67.7583 136.341C64.7582 142.674 79.6522 156.055 101.025 166.227C122.398 176.399 142.156 179.511 145.156 173.177Z" fill="#F0F4F9"/>
<path d="M144.983 173.095C147.97 166.789 133.143 153.468 111.867 143.342C90.5904 133.215 70.9209 130.118 67.9339 136.424C64.9469 142.73 79.7734 156.051 101.05 166.177C122.327 176.303 141.996 179.4 144.983 173.095Z" fill="#EFF4F9"/>
<path d="M144.807 173.012C147.779 166.738 133.018 153.481 111.838 143.4C90.6575 133.319 71.0783 130.233 68.1065 136.507C65.1347 142.781 79.8957 156.038 101.076 166.119C122.256 176.2 141.836 179.286 144.807 173.012Z" fill="#EFF3F8"/>
<path d="M144.625 172.925C147.584 166.679 132.894 153.482 111.814 143.45C90.7347 133.417 71.2477 130.347 68.289 136.594C65.3302 142.84 80.0201 156.036 101.1 166.069C122.179 176.101 141.666 179.171 144.625 172.925Z" fill="#EEF3F8"/>
<path d="M144.451 172.842C147.396 166.624 132.774 153.487 111.79 143.5C90.8068 133.513 71.4083 130.458 68.4626 136.677C65.5169 142.895 80.1394 156.033 101.123 166.019C122.106 176.006 141.505 179.061 144.451 172.842Z" fill="#EEF2F8"/>
<path d="M144.291 172.759C141.364 178.95 122.054 175.905 101.165 165.969C80.2769 156.025 65.7211 142.953 68.6579 136.761C71.5856 130.57 90.8955 133.615 111.784 143.551C132.663 153.495 147.228 166.567 144.291 172.759Z" fill="#EDF2F8"/>
<path d="M144.103 172.676C147.021 166.518 132.531 153.503 111.74 143.608C90.949 133.712 71.7293 130.683 68.8118 136.842C65.8944 143.001 80.3839 156.016 101.175 165.911C121.966 175.807 141.186 178.835 144.103 172.676Z" fill="#ECF1F7"/>
<path d="M143.922 172.59C146.826 166.458 132.408 153.505 111.718 143.657C91.0271 133.81 71.8996 130.798 68.9952 136.929C66.0908 143.061 80.5093 156.014 101.2 165.861C121.89 175.709 141.018 178.721 143.922 172.59Z" fill="#ECF1F7"/>
<path d="M143.748 172.507C146.639 166.403 132.288 153.509 111.693 143.707C91.0992 133.906 72.0603 130.908 69.1689 137.012C66.2775 143.116 80.6286 156.01 101.223 165.812C121.817 175.613 140.856 178.611 143.748 172.507Z" fill="#EBF0F7"/>
<path d="M143.573 172.424C146.451 166.348 132.168 153.513 111.669 143.757C91.1713 134.001 72.2209 131.019 69.3425 137.095C66.4642 143.171 80.7479 156.006 101.246 165.762C121.744 175.517 140.695 178.5 143.573 172.424Z" fill="#EAF0F6"/>
<path d="M143.398 172.341C146.262 166.297 132.043 153.525 111.641 143.815C91.2394 134.105 72.3793 131.133 69.5161 137.178C66.653 143.222 80.8711 155.993 101.273 165.703C121.675 175.413 140.535 178.385 143.398 172.341Z" fill="#EAEFF6"/>
<path d="M143.224 172.258C146.074 166.241 131.923 153.529 111.617 143.865C91.3115 134.201 72.5399 131.244 69.6898 137.26C66.8397 143.277 80.9905 155.989 101.296 165.653C121.602 175.318 140.374 178.275 143.224 172.258Z" fill="#E9EFF6"/>
<path d="M143.042 172.171C145.879 166.182 131.799 153.531 111.594 143.915C91.3886 134.299 72.7093 131.358 69.8722 137.347C67.0352 143.336 81.1149 155.987 101.32 165.604C121.525 175.22 140.205 178.16 143.042 172.171Z" fill="#E8EEF6"/>
<path d="M142.868 172.088C145.69 166.131 131.676 153.544 111.567 143.973C91.4577 134.402 72.8686 131.473 70.0468 137.43C67.225 143.387 81.2391 155.975 101.348 165.545C121.457 175.116 140.046 178.045 142.868 172.088Z" fill="#E7EEF5"/>
<path d="M142.712 172.004C139.903 177.938 121.401 175.022 101.385 165.5C81.3682 155.979 67.4273 143.449 70.2357 137.516C73.0441 131.582 91.5463 134.498 111.563 144.02C131.57 153.541 145.52 166.071 142.712 172.004Z" fill="#E7EDF5"/>
<path d="M142.521 171.923C145.317 166.021 131.437 153.552 111.521 144.073C91.6038 134.594 73.1918 131.694 70.3961 137.596C67.6004 143.498 81.4797 155.967 101.396 165.446C121.313 174.925 139.725 177.825 142.521 171.923Z" fill="#E6EDF5"/>
<path d="M142.338 171.836C145.12 165.962 131.312 153.554 111.496 144.123C91.68 134.692 73.3602 131.808 70.5775 137.683C67.7949 143.557 81.6031 155.965 101.419 165.396C121.235 174.827 139.555 177.71 142.338 171.836Z" fill="#E5ECF4"/>
<path d="M142.163 171.753C144.93 165.911 131.188 153.566 111.468 144.181C91.7482 134.796 73.5186 131.923 70.7512 137.766C67.9837 143.608 81.7263 155.952 101.446 165.338C121.166 174.723 139.396 177.595 142.163 171.753Z" fill="#E5ECF4"/>
<path d="M141.988 171.671C144.743 165.856 131.068 153.571 111.444 144.231C91.8202 134.892 73.6792 132.034 70.9248 137.849C68.1704 143.664 81.8456 155.949 101.469 165.288C121.093 174.628 139.234 177.485 141.988 171.671Z" fill="#E4EBF4"/>
<path d="M141.816 171.587C144.557 165.8 130.949 153.575 111.422 144.281C91.8943 134.987 73.8418 132.144 71.1004 137.931C68.359 143.719 81.9669 155.944 101.494 165.238C121.022 174.532 139.074 177.375 141.816 171.587Z" fill="#E3EBF4"/>
<path d="M141.639 171.505C144.368 165.745 130.827 153.579 111.396 144.331C91.9644 135.083 74.0004 132.255 71.2721 138.014C68.5438 143.774 82.0843 155.94 101.516 165.188C120.947 174.436 138.911 177.264 141.639 171.505Z" fill="#E2EAF3"/>
<path d="M141.46 171.418C144.173 165.69 130.702 153.589 111.371 144.389C92.0405 135.189 74.1705 132.374 71.4574 138.101C68.7443 143.829 82.2155 155.93 101.546 165.13C120.877 174.33 138.747 177.145 141.46 171.418Z" fill="#E2EAF3"/>
<path d="M141.285 171.335C143.985 165.635 130.582 153.593 111.347 144.439C92.1126 135.284 74.3311 132.484 71.6311 138.184C68.931 143.884 82.3348 155.926 101.569 165.08C120.804 174.235 138.585 177.035 141.285 171.335Z" fill="#E1E9F3"/>
<path d="M141.111 171.252C143.798 165.58 130.461 153.597 111.323 144.489C92.1847 135.38 74.4918 132.594 71.8047 138.267C69.1177 143.939 82.4542 155.922 101.593 165.03C120.731 174.139 138.424 176.925 141.111 171.252Z" fill="#E0E8F2"/>
<path d="M140.936 171.169C143.608 165.529 130.337 153.61 111.295 144.547C92.2528 135.484 74.6501 132.709 71.9783 138.35C69.3065 143.99 82.5774 155.909 101.62 164.972C120.662 174.035 138.264 176.81 140.936 171.169Z" fill="#DFE8F2"/>
<path d="M140.775 171.084C138.114 176.696 120.603 173.936 101.66 164.921C82.7173 155.905 69.5106 144.047 72.1721 138.426C74.8336 132.815 92.3446 135.575 111.287 144.59C130.23 153.605 143.428 165.473 140.775 171.084Z" fill="#DFE7F2"/>
<path d="M140.58 170.999C143.226 165.414 130.094 153.615 111.248 144.646C92.4031 135.677 74.9811 132.934 72.3354 138.519C69.6897 144.104 82.8221 155.903 101.667 164.872C120.513 173.841 137.935 176.585 140.58 170.999Z" fill="#DEE7F1"/>
<path d="M140.419 170.919C137.785 176.475 120.458 173.743 101.698 164.819C82.9483 155.896 69.8793 144.158 72.5133 138.601C75.1473 133.045 92.4748 135.777 111.234 144.7C129.984 153.624 143.053 165.362 140.419 170.919Z" fill="#DDE6F1"/>
<path d="M140.231 170.833C142.849 165.308 129.849 153.632 111.196 144.754C92.5433 135.876 75.3001 133.159 72.6827 138.685C70.0652 144.21 83.0646 155.886 101.718 164.764C120.371 173.642 137.614 176.359 140.231 170.833Z" fill="#DCE6F1"/>
<path d="M140.058 170.751C142.662 165.253 129.73 153.636 111.173 144.804C92.6163 135.973 75.4617 133.27 72.8573 138.768C70.2529 144.266 83.1849 155.883 101.742 164.715C120.299 173.547 137.453 176.249 140.058 170.751Z" fill="#DCE5F0"/>
<path d="M139.875 170.664C142.467 165.194 129.606 153.638 111.15 144.854C92.6935 136.07 75.6311 133.384 73.0397 138.855C70.4484 144.325 83.3093 155.881 101.765 164.665C120.222 173.449 137.284 176.135 139.875 170.664Z" fill="#DBE4F0"/>
<path d="M139.72 170.578C137.141 176.015 120.172 173.347 101.807 164.608C83.4427 155.868 70.649 144.369 73.228 138.932C75.8069 133.496 92.7764 136.163 111.141 144.903C129.496 153.642 142.299 165.141 139.72 170.578Z" fill="#DAE4F0"/>
<path d="M139.526 170.499C142.089 165.088 129.361 153.655 111.098 144.962C92.8337 136.27 75.9501 133.61 73.387 139.021C70.8239 144.431 83.5519 155.864 101.816 164.557C120.08 173.249 136.963 175.91 139.526 170.499Z" fill="#D9E3EF"/>
<path d="M139.362 170.413C136.81 175.794 120.015 173.154 101.852 164.507C83.6807 155.859 71.0246 144.489 73.576 139.107C76.1274 133.726 92.9226 136.366 111.085 145.013C129.257 153.651 141.913 165.031 139.362 170.413Z" fill="#D8E3EF"/>
<path d="M139.179 170.333C141.716 164.977 129.123 153.663 111.051 145.062C92.9798 136.461 76.2733 133.83 73.7362 139.186C71.1992 144.542 83.7925 155.856 101.864 164.457C119.936 173.058 136.642 175.689 139.179 170.333Z" fill="#D7E2EF"/>
<path d="M138.997 170.246C141.519 164.922 128.995 153.673 111.024 145.12C93.053 136.567 76.4405 133.949 73.9187 139.273C71.3969 144.596 83.9208 155.846 101.892 164.399C119.862 172.951 136.475 175.569 138.997 170.246Z" fill="#D7E1EE"/>
<path d="M138.822 170.163C141.331 164.867 128.874 153.677 111 145.17C93.1251 136.663 76.6011 134.06 74.0923 139.356C71.5835 144.652 84.0401 155.842 101.915 164.349C119.789 172.856 136.313 175.459 138.822 170.163Z" fill="#D6E1EE"/>
<path d="M138.65 170.08C141.145 164.812 128.756 153.681 110.978 145.22C93.1991 136.758 76.7636 134.17 74.2679 139.439C71.7722 144.707 84.1614 155.838 101.94 164.299C119.718 172.761 136.154 175.349 138.65 170.08Z" fill="#D5E0EE"/>
<path d="M138.491 169.999C136.013 175.242 119.668 172.667 101.983 164.249C84.2971 155.832 71.9807 144.765 74.4587 139.521C76.9366 134.278 93.2821 136.853 110.967 145.271C128.644 153.688 140.969 164.755 138.491 169.999Z" fill="#D4E0ED"/>
<path d="M138.291 169.91C140.758 164.702 128.506 153.695 110.924 145.328C93.3424 136.96 77.0895 134.399 74.622 139.608C72.1546 144.817 84.407 155.823 101.989 164.191C119.57 172.559 135.823 175.119 138.291 169.91Z" fill="#D3DFED"/>
<path d="M138.117 169.828C140.572 164.646 128.386 153.7 110.901 145.378C93.4155 137.056 77.251 134.51 74.7966 139.691C72.3422 144.872 84.5273 155.819 102.013 164.141C119.498 172.463 135.663 175.009 138.117 169.828Z" fill="#D2DEED"/>
<path d="M137.96 169.741C135.519 174.893 119.439 172.363 102.048 164.084C84.656 155.804 72.5414 144.921 74.9827 139.77C77.424 134.618 93.5033 137.148 110.895 145.427C128.287 153.707 140.401 164.59 137.96 169.741Z" fill="#D2DEEC"/>
<path d="M137.769 169.662C140.197 164.536 128.147 153.708 110.854 145.477C93.5607 137.247 77.5732 134.73 75.1449 139.857C72.7166 144.983 84.7669 155.811 102.06 164.041C119.353 172.272 135.341 174.788 137.769 169.662Z" fill="#D1DDEC"/>
<path d="M137.61 169.576C135.196 174.672 119.301 172.17 102.102 163.982C84.9027 155.795 72.9258 145.032 75.3396 139.935C77.7533 134.839 93.649 137.341 110.848 145.528C128.038 153.716 140.024 164.479 137.61 169.576Z" fill="#D0DCEC"/>
<path d="M137.435 169.493C135.031 174.562 119.227 172.069 102.129 163.936C85.0306 155.795 73.118 145.096 75.5134 140.027C77.9179 134.958 93.7219 137.451 110.82 145.584C127.918 153.725 139.831 164.424 137.435 169.493Z" fill="#CFDCEB"/>
<path d="M137.24 169.41C139.627 164.371 127.78 153.726 110.78 145.635C93.78 137.544 78.0636 135.07 75.6766 140.11C73.2895 145.149 85.1359 155.793 102.136 163.884C119.136 171.975 134.853 174.449 137.24 169.41Z" fill="#CEDBEB"/>
<path d="M137.065 169.327C139.437 164.32 127.656 153.739 110.752 145.694C93.8481 137.649 78.222 135.186 75.8502 140.193C73.4784 145.2 85.2591 155.781 102.163 163.826C119.067 171.871 134.693 174.334 137.065 169.327Z" fill="#CDDBEB"/>
<path d="M136.904 169.244C134.546 174.221 119.008 171.774 102.204 163.78C85.3993 155.776 73.6794 145.262 76.0472 140.276C78.4059 135.299 93.9437 137.746 110.748 145.74C127.552 153.734 139.263 164.258 136.904 169.244Z" fill="#CCDAEA"/>
<path d="M136.709 169.157C139.055 164.205 127.413 153.745 110.705 145.793C93.9983 137.842 78.5529 135.41 76.2072 140.362C73.8615 145.314 85.5038 155.774 102.211 163.726C118.918 171.677 134.363 174.109 136.709 169.157Z" fill="#CCD9EA"/>
<path d="M136.534 169.074C138.866 164.15 127.291 153.749 110.68 145.843C94.0694 137.937 78.7126 135.52 76.3799 140.445C74.0472 145.369 85.6221 155.77 102.233 163.676C118.844 171.581 134.201 173.998 136.534 169.074Z" fill="#CBD9E9"/>
<path d="M136.36 168.991C138.677 164.099 127.168 153.761 110.653 145.901C94.1385 138.041 78.8719 135.635 76.5545 140.528C74.2371 145.42 85.7463 155.758 102.261 163.618C118.776 171.478 134.043 173.883 136.36 168.991Z" fill="#CAD8E9"/>
<path d="M136.185 168.908C138.49 164.044 127.048 153.765 110.629 145.951C94.2106 138.137 79.0325 135.746 76.7281 140.61C74.4237 145.475 85.8656 155.754 102.284 163.568C118.703 171.382 133.881 173.773 136.185 168.908Z" fill="#C9D7E9"/>
<path d="M136.022 168.821C133.728 173.66 118.64 171.277 102.322 163.513C86.004 155.749 74.6237 145.528 76.9181 140.689C79.2125 135.851 94.3007 138.233 110.619 145.997C126.946 153.771 138.317 163.982 136.022 168.821Z" fill="#C8D7E8"/>
<path d="M135.83 168.739C138.108 163.929 126.804 153.771 110.583 146.05C94.3609 138.33 79.3635 135.97 77.0852 140.78C74.8069 145.59 86.1103 155.747 102.332 163.468C118.554 171.188 133.551 173.548 135.83 168.739Z" fill="#C7D6E8"/>
<path d="M135.655 168.656C137.918 163.878 126.68 153.783 110.555 146.109C94.429 138.434 79.5219 136.085 77.2588 140.863C74.9957 145.64 86.2336 155.735 102.359 163.41C118.485 171.084 133.392 173.433 135.655 168.656Z" fill="#C6D5E8"/>
<path d="M135.48 168.572C137.731 163.822 126.56 153.787 110.531 146.158C94.501 138.529 79.6825 136.195 77.4325 140.945C75.1824 145.695 86.3529 155.73 102.382 163.359C118.412 170.989 133.23 173.322 135.48 168.572Z" fill="#C5D5E7"/>
<path d="M135.326 168.49C133.087 173.209 118.357 170.891 102.424 163.311C86.4916 155.73 75.3866 145.749 77.626 141.03C79.8653 136.311 94.5955 138.629 110.528 146.209C126.451 153.789 137.556 163.762 135.326 168.49Z" fill="#C4D4E7"/>
<path d="M135.133 168.407C137.355 163.717 126.318 153.804 110.48 146.267C94.6432 138.729 80.0035 136.421 77.7817 141.112C75.5599 145.802 86.5974 155.715 102.435 163.252C118.272 170.79 132.912 173.098 135.133 168.407Z" fill="#C3D3E6"/>
<path d="M134.967 168.315C132.756 172.979 118.209 170.689 102.469 163.2C86.7295 155.712 75.7622 145.86 77.974 141.195C80.1858 136.531 94.7325 138.822 110.472 146.31C126.212 153.799 137.179 163.66 134.967 168.315Z" fill="#C2D3E6"/>
<path d="M134.777 168.238C136.973 163.603 126.074 153.811 110.434 146.367C94.7934 138.923 80.3345 136.646 78.1388 141.281C75.9431 145.917 86.8421 155.709 102.482 163.153C118.123 170.596 132.582 172.873 134.777 168.238Z" fill="#C1D2E6"/>
<path d="M134.618 168.15C132.433 172.758 118.07 170.495 102.523 163.09C86.9762 155.694 76.1466 145.961 78.3309 141.352C80.5151 136.743 94.8782 139.006 110.425 146.402C125.963 153.817 136.802 163.55 134.618 168.15Z" fill="#C1D1E5"/>
<path d="M134.429 168.072C136.597 163.496 125.831 153.827 110.383 146.475C94.9346 139.122 80.6544 136.871 78.487 141.447C76.3196 146.023 87.0856 155.692 102.534 163.044C117.982 170.397 132.262 172.648 134.429 168.072Z" fill="#C0D1E5"/>
<path d="M134.247 167.985C136.401 163.437 125.706 153.829 110.359 146.524C95.0118 139.22 80.8238 136.986 78.6694 141.534C76.515 146.082 87.21 155.69 102.557 162.995C117.905 170.299 132.093 172.533 134.247 167.985Z" fill="#BFD0E5"/>
<path d="M134.072 167.902C136.214 163.382 125.586 153.833 110.335 146.574C95.0839 139.316 80.9844 137.096 78.8431 141.617C76.7017 146.137 87.3293 155.686 102.58 162.945C117.832 170.203 131.931 172.423 134.072 167.902Z" fill="#BECFE4"/>
<path d="M133.898 167.819C136.026 163.326 125.466 153.837 110.311 146.624C95.1559 139.411 81.145 137.206 79.0167 141.699C76.8884 146.192 87.4487 155.682 102.604 162.895C117.759 170.108 131.77 172.312 133.898 167.819Z" fill="#BDCEE4"/>
<path d="M133.724 167.736C135.837 163.276 125.343 153.849 110.284 146.682C95.225 139.515 81.3044 137.321 79.1913 141.782C77.0782 146.243 87.5729 155.669 102.632 162.836C117.691 170.003 131.611 172.197 133.724 167.736Z" fill="#BCCEE3"/>
<path d="M133.562 167.653C131.461 172.087 117.63 169.907 102.67 162.786C87.7107 155.666 77.2849 146.301 79.3865 141.867C81.4882 137.433 95.319 139.613 110.279 146.733C125.238 153.854 135.664 163.219 133.562 167.653Z" fill="#BBCDE3"/>
<path d="M133.367 167.567C135.454 163.161 125.098 153.855 110.236 146.782C95.3743 139.708 81.6344 137.546 79.5474 141.952C77.4604 146.357 87.8166 155.663 102.679 162.737C117.541 169.81 131.28 171.972 133.367 167.567Z" fill="#BACCE3"/>
<path d="M133.193 167.484C135.265 163.11 124.974 153.868 110.208 146.84C95.4424 139.812 81.7928 137.661 79.721 142.035C77.6492 146.408 87.9398 155.651 102.706 162.678C117.471 169.706 131.121 171.857 133.193 167.484Z" fill="#B9CCE2"/>
<path d="M133.029 167.395C130.973 171.747 117.408 169.603 102.743 162.621C88.0766 155.638 77.8526 146.457 79.9084 142.106C81.9642 137.755 95.5288 139.898 110.195 146.881C124.87 153.872 135.094 163.053 133.029 167.395Z" fill="#B8CBE2"/>
<path d="M132.845 167.319C134.89 163 124.735 153.876 110.161 146.94C95.5876 140.004 82.115 137.882 80.0693 142.201C78.0236 146.519 88.1794 155.643 102.753 162.579C117.327 169.515 130.799 171.637 132.845 167.319Z" fill="#B7CAE1"/>
<path d="M132.682 167.23C130.654 171.517 117.264 169.41 102.791 162.52C88.3174 155.629 78.2311 146.568 80.2594 142.281C82.2877 137.994 95.6779 140.101 110.151 146.991C124.624 153.881 134.711 162.943 132.682 167.23Z" fill="#B6C9E1"/>
<path d="M132.489 167.149C134.506 162.89 124.487 153.891 110.11 147.048C95.7338 140.206 82.4438 138.112 80.4263 142.371C78.4089 146.63 88.428 155.629 102.805 162.471C117.181 169.314 130.471 171.408 132.489 167.149Z" fill="#B5C9E1"/>
<path d="M132.314 167.066C134.319 162.835 124.367 153.895 110.086 147.098C95.8059 140.301 82.6044 138.222 80.6 142.453C78.5956 146.685 88.5473 155.625 102.828 162.421C117.108 169.218 130.31 171.297 132.314 167.066Z" fill="#B4C8E0"/>
<path d="M132.142 166.983C134.133 162.779 124.249 153.899 110.064 147.148C95.8799 140.397 82.7669 138.332 80.7756 142.536C78.7842 146.74 88.6686 155.62 102.853 162.371C117.037 169.122 130.15 171.187 132.142 166.983Z" fill="#B3C7E0"/>
<path d="M131.975 166.899C130.002 171.075 116.979 169.024 102.891 162.317C88.8031 155.611 78.9829 146.798 80.9653 142.621C82.9385 138.445 95.9617 140.496 110.049 147.203C124.137 153.9 133.957 162.722 131.975 166.899Z" fill="#B2C7DF"/>
<path d="M131.784 166.813C133.747 162.669 123.999 153.913 110.012 147.256C96.0242 140.599 83.0938 138.562 81.1307 142.706C79.1676 146.85 88.9153 155.606 102.903 162.263C116.89 168.921 129.821 170.958 131.784 166.813Z" fill="#B1C6DF"/>
<path d="M131.61 166.73C133.56 162.613 123.88 153.916 109.989 147.305C96.0973 140.694 83.2553 138.671 81.3053 142.788C79.3552 146.905 89.0356 155.601 102.927 162.213C116.818 168.824 129.66 170.847 131.61 166.73Z" fill="#B0C5DE"/>
<path d="M131.437 166.648C133.374 162.558 123.761 153.921 109.966 147.355C96.1704 140.79 83.4169 138.782 81.4799 142.871C79.5429 146.96 89.1559 155.598 102.951 162.163C116.746 168.729 129.5 170.737 131.437 166.648Z" fill="#AFC4DE"/>
<path d="M131.262 166.565C133.184 162.508 123.637 153.933 109.938 147.413C96.2385 140.894 83.5753 138.897 81.6535 142.954C79.7317 147.011 89.2791 155.585 102.978 162.105C116.677 168.625 129.34 170.622 131.262 166.565Z" fill="#AEC4DE"/>
<path d="M131.103 166.475C129.194 170.505 116.62 168.527 103.019 162.05C89.4176 155.574 79.937 147.065 81.846 143.035C83.7549 139.006 96.3284 140.984 109.93 147.46C123.531 153.937 133.012 162.446 131.103 166.475Z" fill="#ADC3DD"/>
<path d="M130.92 166.392C129.02 170.394 116.538 168.426 103.038 162.004C89.5375 155.574 80.1212 147.12 82.021 143.118C83.9208 139.116 96.4024 141.085 109.903 147.506C123.403 153.937 132.819 162.391 130.92 166.392Z" fill="#ACC2DD"/>
<path d="M130.731 166.312C132.613 162.337 123.272 153.943 109.866 147.563C96.4598 141.182 84.0659 139.232 82.1833 143.206C80.3006 147.181 89.6421 155.575 103.048 161.955C116.454 168.336 128.848 170.286 130.731 166.312Z" fill="#ABC1DC"/>
<path d="M130.556 166.23C132.424 162.287 123.148 153.956 109.838 147.622C96.5279 141.287 84.2243 139.348 82.3569 143.29C80.4894 147.232 89.7654 155.563 103.075 161.898C116.385 168.233 128.689 170.172 130.556 166.23Z" fill="#AAC1DC"/>
<path d="M130.383 166.147C132.237 162.232 123.028 153.96 109.815 147.671C96.601 141.382 84.3859 139.458 82.5315 143.372C80.6771 147.287 89.8857 155.559 103.099 161.848C116.313 168.137 128.528 170.061 130.383 166.147Z" fill="#A9C0DC"/>
<path d="M130.201 166.06C132.043 162.173 122.905 153.962 109.792 147.721C96.6791 141.48 84.5563 139.572 82.7149 143.459C80.8736 147.347 90.011 155.557 103.124 161.798C116.237 168.039 128.36 169.947 130.201 166.06Z" fill="#A8BFDB"/>
<path d="M130.048 165.979C128.221 169.833 116.189 167.938 103.166 161.747C90.1431 155.556 81.0755 147.405 82.9019 143.541C84.7282 139.687 96.7602 141.582 109.783 147.773C122.797 153.964 131.874 162.115 130.048 165.979Z" fill="#A7BEDB"/>
<path d="M129.852 165.894C131.665 162.067 122.661 153.979 109.74 147.829C96.8193 141.68 84.8753 139.798 83.0622 143.625C81.2491 147.453 90.2536 155.541 103.174 161.69C116.095 167.839 128.039 169.722 129.852 165.894Z" fill="#A6BEDA"/>
<path d="M129.69 165.804C127.891 169.603 116.033 167.736 103.212 161.636C90.3909 155.537 81.4519 147.506 83.2507 143.707C85.0495 139.908 96.9071 141.775 109.728 147.874C122.559 153.983 131.489 162.004 129.69 165.804Z" fill="#A5BDDA"/>
<path d="M129.505 165.728C131.292 161.956 122.422 153.987 109.694 147.929C96.9655 141.871 85.1984 140.018 83.4114 143.791C81.6244 147.563 90.4942 155.532 103.223 161.59C115.951 167.648 127.718 169.501 129.505 165.728Z" fill="#A4BCD9"/>
<path d="M129.322 165.642C131.093 161.901 122.293 153.997 109.665 147.987C97.0377 141.977 85.3646 140.137 83.5929 143.878C81.8211 147.618 90.6215 155.522 103.249 161.532C115.877 167.542 127.55 169.382 129.322 165.642Z" fill="#A3BBD9"/>
<path d="M129.166 165.555C127.404 169.272 115.822 167.441 103.285 161.48C90.7486 155.519 82.0207 147.672 83.7828 143.955C85.5449 140.239 97.1271 142.069 109.664 148.031C122.191 154.001 130.919 161.839 129.166 165.555Z" fill="#A1BAD8"/>
<path d="M128.983 165.473C127.239 169.162 115.739 167.349 103.304 161.425C90.8678 155.51 82.204 147.718 83.9478 144.038C85.6916 140.349 97.1912 142.161 109.627 148.086C122.063 154.001 130.736 161.793 128.983 165.473Z" fill="#A0BAD8"/>
<path d="M128.8 165.393C130.533 161.735 121.934 154.009 109.595 148.136C97.2559 142.264 85.8484 140.468 84.1158 144.126C82.3831 147.784 90.9814 155.51 103.321 161.382C115.66 167.255 127.067 169.051 128.8 165.393Z" fill="#9FB9D8"/>
<path d="M128.635 165.307C126.919 168.932 115.603 167.156 103.359 161.324C91.1164 155.5 82.5904 147.837 84.3066 144.204C86.0228 140.57 97.3389 142.355 109.582 148.187C121.825 154.019 130.351 161.682 128.635 165.307Z" fill="#9EB8D7"/>
<path d="M128.442 165.223C130.146 161.625 121.685 154.023 109.543 148.244C97.4002 142.465 86.1752 140.697 84.4708 144.295C82.7664 147.893 91.2281 155.495 103.37 161.274C115.513 167.053 126.738 168.821 128.442 165.223Z" fill="#9DB7D7"/>
<path d="M128.287 165.141C126.598 168.711 115.457 166.954 103.415 161.223C91.3651 155.491 82.9767 147.948 84.6654 144.378C86.3541 140.809 97.4958 142.566 109.537 148.297C121.578 154.029 129.976 161.572 128.287 165.141Z" fill="#9CB6D6"/>
<path d="M128.111 165.059C126.431 168.6 115.391 166.862 103.441 161.177C91.4921 155.491 83.1679 148.012 84.8382 144.47C86.5178 140.929 97.5585 142.667 109.508 148.353C121.457 154.029 129.781 161.517 128.111 165.059Z" fill="#9BB6D6"/>
<path d="M127.936 164.967C126.275 168.481 115.317 166.751 103.46 161.112C91.602 155.473 83.3513 148.049 85.0125 144.535C86.6736 141.021 97.6318 142.75 109.489 148.389C121.338 154.038 129.598 161.462 127.936 164.967Z" fill="#9AB5D5"/>
<path d="M127.737 164.888C129.387 161.405 121.197 154.046 109.444 148.452C97.6906 142.859 86.8252 141.148 85.1752 144.631C83.5251 148.114 91.7153 155.473 103.468 161.067C115.222 166.66 126.087 168.371 127.737 164.888Z" fill="#99B4D5"/>
<path d="M127.579 164.801C125.945 168.26 115.161 166.558 103.506 161.011C91.85 155.464 83.7185 148.159 85.3613 144.71C86.995 141.251 97.7788 142.952 109.434 148.5C121.09 154.047 129.212 161.351 127.579 164.801Z" fill="#98B3D4"/>
<path d="M127.39 164.722C129.012 161.299 120.954 154.063 109.394 148.561C97.8328 143.058 87.1462 141.373 85.5244 144.797C83.9026 148.221 91.9598 155.457 103.521 160.959C115.081 166.461 125.768 168.146 127.39 164.722Z" fill="#97B2D4"/>
<path d="M127.231 164.635C125.625 168.03 115.024 166.365 103.562 160.91C92.0986 155.454 84.1049 148.279 85.7201 144.875C87.3262 141.481 97.9265 143.146 109.389 148.601C120.852 154.065 128.837 161.241 127.231 164.635Z" fill="#96B2D4"/>
<path d="M127.056 164.553C125.459 167.92 114.951 166.264 103.589 160.855C92.2176 155.445 84.2972 148.325 85.8941 144.958C87.4911 141.591 97.9995 143.247 109.361 148.656C120.723 154.065 128.653 161.186 127.056 164.553Z" fill="#94B1D3"/>
<path d="M126.859 164.47C128.442 161.128 120.591 154.073 109.323 148.71C98.0551 143.347 87.6377 141.708 86.0551 145.049C84.4724 148.39 92.3238 155.446 103.592 160.809C114.859 166.172 125.277 167.811 126.859 164.47Z" fill="#93B0D3"/>
<path d="M126.699 164.387C125.129 167.699 114.804 166.071 103.626 160.753C92.4567 155.436 84.6648 148.445 86.2342 145.133C87.8036 141.821 98.1285 143.449 109.307 148.767C120.485 154.084 128.268 161.075 126.699 164.387Z" fill="#92AFD2"/>
<path d="M126.511 164.304C128.066 161.022 120.347 154.089 109.272 148.818C98.1963 143.547 87.9577 141.933 86.4033 145.215C84.8489 148.496 92.5674 155.43 103.643 160.701C114.718 165.972 124.957 167.585 126.511 164.304Z" fill="#91AED2"/>
<path d="M126.336 164.221C127.877 160.967 120.226 154.093 109.247 148.868C98.2674 143.642 88.1173 142.044 86.576 145.298C85.0347 148.552 92.6857 155.426 103.665 160.651C114.644 165.877 124.794 167.475 126.336 164.221Z" fill="#90AED1"/>
<path d="M126.154 164.134C127.683 160.908 120.103 154.095 109.224 148.917C98.3455 143.74 88.2877 142.158 86.7594 145.384C85.2311 148.611 92.8111 155.423 103.69 160.601C114.568 165.779 124.626 167.36 126.154 164.134Z" fill="#8FADD1"/>
<path d="M125.98 164.051C127.493 160.857 119.979 154.107 109.196 148.976C98.4136 143.844 88.4461 142.273 86.933 145.467C85.4199 148.661 92.9343 155.411 103.717 160.543C114.499 165.675 124.467 167.245 125.98 164.051Z" fill="#8EACD0"/>
<path d="M125.826 163.964C124.33 167.129 114.445 165.574 103.763 160.487C93.0798 155.399 85.6275 148.711 87.1327 145.547C88.6286 142.382 98.513 143.937 109.196 149.024C119.869 154.111 127.322 160.799 125.826 163.964Z" fill="#8DABD0"/>
<path d="M125.633 163.886C127.12 160.747 119.74 154.116 109.15 149.076C98.5598 144.036 88.7693 142.494 87.2823 145.634C85.7953 148.773 93.1749 155.403 103.765 160.444C114.355 165.484 124.146 167.025 125.633 163.886Z" fill="#8CAACF"/>
<path d="M125.458 163.803C126.93 160.696 119.616 154.128 109.122 149.134C98.6279 144.139 88.9277 142.609 87.4559 145.716C85.9841 148.823 93.2981 155.391 103.792 160.385C114.286 165.38 123.986 166.91 125.458 163.803Z" fill="#8AA9CF"/>
<path d="M125.294 163.716C123.835 166.797 114.226 165.279 103.827 160.339C93.4289 155.39 86.1877 148.886 87.6469 145.804C89.1062 142.723 98.7152 144.24 109.114 149.181C119.512 154.13 126.753 160.634 125.294 163.716Z" fill="#89A9CF"/>
<path d="M125.119 163.633C123.669 166.687 114.152 165.187 103.854 160.284C93.5568 155.381 86.3799 148.932 87.8208 145.887C89.2708 142.833 98.7881 144.332 109.085 149.236C119.383 154.13 126.56 160.579 125.119 163.633Z" fill="#88A8CE"/>
<path d="M124.929 163.551C126.361 160.526 119.253 154.139 109.052 149.284C98.8512 144.429 89.4202 142.945 87.9876 145.969C86.5549 148.993 93.6631 155.381 103.864 160.236C114.065 165.091 123.496 166.575 124.929 163.551Z" fill="#87A7CE"/>
<path d="M124.754 163.467C126.172 160.475 119.129 154.151 109.024 149.341C98.9193 144.532 89.5786 143.059 88.1612 146.051C86.7438 149.044 93.7863 155.368 103.891 160.177C113.996 164.987 123.337 166.46 124.754 163.467Z" fill="#86A6CD"/>
<path d="M124.587 163.384C123.183 166.347 113.932 164.893 103.928 160.128C93.9245 155.362 86.9494 149.098 88.3536 146.135C89.7578 143.173 99.0089 144.627 109.013 149.392C119.025 154.148 125.991 160.413 124.587 163.384Z" fill="#85A5CD"/>
<path d="M124.412 163.292C123.017 166.227 113.858 164.783 103.955 160.073C94.0434 155.353 87.1418 149.153 88.5276 146.218C89.9226 143.284 99.0819 144.728 108.985 149.438C118.897 154.157 125.807 160.358 124.412 163.292Z" fill="#84A4CC"/>
<path d="M124.223 163.215C125.601 160.305 118.764 154.161 108.952 149.491C99.1406 144.821 90.0692 143.394 88.6909 146.304C87.3126 149.213 94.1494 155.358 103.961 160.028C113.773 164.697 122.844 166.124 124.223 163.215Z" fill="#82A4CC"/>
<path d="M124.066 163.127C122.698 166.006 113.723 164.59 104.003 159.971C94.2842 155.344 87.5203 149.263 88.8786 146.384C90.2461 143.505 99.2218 144.921 108.941 149.539C118.66 154.167 125.424 160.247 124.066 163.127Z" fill="#81A3CB"/>
<path d="M123.875 163.049C125.225 160.199 118.521 154.177 108.901 149.599C99.2818 145.02 90.3892 143.619 89.0392 146.469C87.6891 149.319 94.3929 155.341 104.012 159.919C113.632 164.498 122.525 165.899 123.875 163.049Z" fill="#80A2CB"/>
<path d="M123.706 162.961C122.366 165.785 113.565 164.396 104.047 159.861C94.5302 155.326 87.8947 149.374 89.2255 146.549C90.5654 143.725 99.3668 145.114 108.884 149.65C118.411 154.176 125.046 160.137 123.706 162.961Z" fill="#7FA1CA"/>
<path d="M123.532 162.878C122.211 165.675 113.501 164.295 104.075 159.815C94.6499 155.326 88.0879 149.429 89.4095 146.642C90.7311 143.845 99.4407 145.225 108.866 149.705C118.292 154.185 124.854 160.082 123.532 162.878Z" fill="#7EA0CA"/>
<path d="M123.344 162.797C124.653 160.034 118.153 154.196 108.827 149.757C99.5001 145.318 90.8786 143.96 89.5698 146.722C88.2611 149.485 94.7608 155.323 104.087 159.762C113.414 164.201 122.035 165.56 123.344 162.797Z" fill="#7D9FC9"/>
<path d="M123.183 162.713C121.889 165.445 113.354 164.102 104.13 159.714C94.8976 155.326 88.4732 149.539 89.7673 146.807C91.0613 144.075 99.5966 145.418 108.82 149.806C118.044 154.194 124.477 159.971 123.183 162.713Z" fill="#7B9EC9"/>
<path d="M123.009 162.63C121.724 165.335 113.28 164.01 104.149 159.659C95.0168 155.316 88.6566 149.594 89.9323 146.89C91.2172 144.185 99.6607 145.51 108.792 149.861C117.924 154.203 124.284 159.916 123.009 162.63Z" fill="#7A9EC8"/>
<path d="M122.835 162.547C121.568 165.224 113.216 163.909 104.176 159.613C95.1455 155.316 88.8405 149.659 90.1162 146.982C91.3827 144.305 99.7344 145.62 108.774 149.916C117.805 154.213 124.101 159.861 122.835 162.547Z" fill="#799DC8"/>
<path d="M122.651 162.455C121.394 165.105 113.134 163.798 104.195 159.548C95.2557 155.298 89.024 149.696 90.2814 147.046C91.5387 144.397 99.7986 145.703 108.738 149.953C117.686 154.213 123.908 159.815 122.651 162.455Z" fill="#789CC7"/>
<path d="M122.465 162.379C123.706 159.758 117.545 154.223 108.704 150.015C99.8626 145.807 91.6892 144.52 90.4478 147.141C89.2065 149.761 95.3674 155.297 104.209 159.505C113.05 163.713 121.223 164.999 122.465 162.379Z" fill="#779BC7"/>
<path d="M122.301 162.29C121.071 164.884 112.995 163.605 104.249 159.447C95.5024 155.289 89.4084 149.815 90.6382 147.221C91.868 144.627 99.9444 145.905 108.691 150.064C117.437 154.231 123.531 159.705 122.301 162.29Z" fill="#759AC6"/>
<path d="M122.128 162.207C120.917 164.773 112.923 163.513 104.278 159.392C95.6321 155.28 89.6024 149.861 90.823 147.304C92.0345 144.737 100.028 145.998 108.674 150.119C117.319 154.231 123.34 159.649 122.128 162.207Z" fill="#7499C6"/>
<path d="M121.936 162.126C123.136 159.592 117.179 154.241 108.631 150.172C100.083 146.104 92.1805 144.859 90.9805 147.393C89.7804 149.926 95.7373 155.278 104.285 159.346C112.834 163.415 120.736 164.659 121.936 162.126Z" fill="#7398C5"/>
<path d="M121.778 162.041C120.594 164.543 112.774 163.311 104.322 159.291C95.8691 155.271 89.977 149.981 91.1701 147.469C92.354 144.967 100.173 146.2 108.626 150.22C117.07 154.24 122.962 159.539 121.778 162.041Z" fill="#7297C5"/>
<path d="M121.595 161.958C120.42 164.433 112.702 163.219 104.341 159.245C95.9892 155.27 90.1614 150.036 91.3361 147.561C92.5109 145.087 100.229 146.301 108.59 150.275C116.951 154.249 122.77 159.484 121.595 161.958Z" fill="#7197C4"/>
<path d="M121.421 161.876C120.265 164.323 112.629 163.118 104.369 159.19C96.1091 155.261 90.3547 150.091 91.5111 147.644C92.6675 145.197 100.303 146.402 108.563 150.33C116.832 154.259 122.587 159.429 121.421 161.876Z" fill="#6F96C4"/>
<path d="M121.247 161.793C120.1 164.212 112.556 163.026 104.397 159.143C96.2379 155.261 90.5477 150.146 91.6949 147.736C92.8421 145.317 100.386 146.503 108.545 150.386C116.704 154.259 122.394 159.373 121.247 161.793Z" fill="#6E95C3"/>
<path d="M121.071 161.71C119.942 164.102 112.481 162.924 104.423 159.088C96.3558 155.252 90.7391 150.202 91.8679 147.81C92.9968 145.418 100.458 146.595 108.516 150.432C116.583 154.268 122.2 159.318 121.071 161.71Z" fill="#6D94C3"/>
<path d="M120.898 161.618C119.779 163.982 112.418 162.823 104.452 159.024C96.4855 155.234 90.933 150.248 92.0527 147.883C93.1724 145.519 100.533 146.678 108.499 150.478C116.465 154.277 122.018 159.263 120.898 161.618Z" fill="#6C93C2"/>
<path d="M120.723 161.535C119.622 163.863 112.344 162.722 104.479 158.978C96.6135 155.234 91.1252 150.303 92.2265 147.975C93.3279 145.648 100.606 146.789 108.471 150.533C116.336 154.277 121.825 159.208 120.723 161.535Z" fill="#6B92C2"/>
<path d="M120.524 161.456C121.615 159.152 116.201 154.286 108.432 150.588C100.662 146.89 93.4785 145.76 92.3872 148.064C91.2958 150.368 96.7098 155.233 104.48 158.931C112.249 162.629 119.433 163.759 120.524 161.456Z" fill="#6991C1"/>
<path d="M120.366 161.37C119.292 163.642 112.198 162.529 104.516 158.877C96.8436 155.224 91.493 150.422 92.5668 148.141C93.6406 145.869 100.735 146.982 108.417 150.634C116.098 154.295 121.449 159.097 120.366 161.37Z" fill="#6890C1"/>
<path d="M120.191 161.287C119.126 163.532 112.124 162.428 104.543 158.821C96.9624 155.215 91.6852 150.468 92.7498 148.224C93.8144 145.979 100.817 147.083 108.398 150.689C115.979 154.295 121.256 159.042 120.191 161.287Z" fill="#678FC0"/>
<path d="M120.016 161.204C118.97 163.421 112.05 162.336 104.57 158.775C97.0903 155.215 91.8774 150.533 92.9236 148.316C93.9699 146.099 100.89 147.184 108.37 150.744C115.849 154.305 121.062 158.987 120.016 161.204Z" fill="#668FC0"/>
<path d="M119.843 161.121C118.806 163.311 111.978 162.234 104.599 158.72C97.211 155.206 92.0715 150.588 93.1086 148.399C94.1457 146.209 100.974 147.285 108.353 150.8C115.732 154.314 120.88 158.932 119.843 161.121Z" fill="#648EBF"/>
<path d="M119.646 161.037C120.668 158.88 115.591 154.321 108.307 150.854C101.022 147.387 94.2888 146.325 93.2671 148.482C92.2453 150.639 97.3222 155.198 104.607 158.665C111.891 162.132 118.625 163.194 119.646 161.037Z" fill="#638DBF"/>
<path d="M119.484 160.956C118.475 163.09 111.83 162.041 104.644 158.619C97.4579 155.197 92.4469 150.698 93.4565 148.564C94.466 146.43 101.111 147.479 108.297 150.901C115.492 154.323 120.494 158.821 119.484 160.956Z" fill="#628CBE"/>
<path d="M119.309 160.873C118.318 162.97 111.756 161.94 104.661 158.564C97.5671 155.188 92.6295 150.744 93.6207 148.647C94.6119 146.549 101.174 147.58 108.268 150.956C115.363 154.332 120.309 158.766 119.309 160.873Z" fill="#618BBE"/>
<path d="M119.136 160.781C118.154 162.851 111.684 161.839 104.69 158.509C97.6968 155.179 92.8235 150.8 93.8055 148.73C94.7875 146.66 101.258 147.672 108.251 151.002C115.245 154.332 120.118 158.711 119.136 160.781Z" fill="#5F8ABD"/>
<path d="M118.942 160.701C119.91 158.658 115.104 154.343 108.209 151.061C101.314 147.779 94.9398 146.774 93.9724 148.817C93.0049 150.859 97.8104 155.175 104.706 158.457C111.601 161.738 117.975 162.743 118.942 160.701Z" fill="#5E89BD"/>
<path d="M118.786 160.615C117.832 162.63 111.545 161.636 104.744 158.407C97.9436 155.169 93.2079 150.91 94.1623 148.895C95.1168 146.881 101.404 147.874 108.204 151.103C114.996 154.341 119.741 158.601 118.786 160.615Z" fill="#5D88BC"/>
<path d="M118.613 160.533C117.668 162.52 111.473 161.545 104.773 158.352C98.0734 155.16 93.402 150.965 94.3381 148.978C95.2834 146.991 101.478 147.966 108.178 151.158C114.878 154.351 119.549 158.546 118.613 160.533Z" fill="#5C87BC"/>
<path d="M118.428 160.45C117.501 162.409 111.398 161.443 104.79 158.297C98.1824 155.151 93.5844 151.02 94.5114 149.061C95.4383 147.101 101.541 148.067 108.149 151.214C114.757 154.36 119.365 158.49 118.428 160.45Z" fill="#5A86BB"/>
<path d="M118.254 160.367C117.337 162.299 111.325 161.351 104.818 158.251C98.3114 155.151 93.7776 151.076 94.6862 149.153C95.6039 147.221 101.615 148.169 108.122 151.269C114.638 154.36 119.172 158.435 118.254 160.367Z" fill="#5985BB"/>
<path d="M118.08 160.284C117.181 162.188 111.252 161.25 104.837 158.196C98.4214 155.142 93.9519 151.131 94.8604 149.227C95.7599 147.322 101.689 148.261 108.104 151.315C114.51 154.369 118.979 158.38 118.08 160.284Z" fill="#5884BA"/>
<path d="M117.907 160.201C117.017 162.069 111.18 161.149 104.866 158.15C98.5513 155.142 94.146 151.195 95.0362 149.319C95.9265 147.451 101.763 148.371 108.078 151.37C114.392 154.378 118.797 158.325 117.907 160.201Z" fill="#5784BA"/>
<path d="M117.73 160.119C116.858 161.958 111.113 161.057 104.891 158.095C98.6772 155.133 94.3362 151.241 95.2081 149.401C96.08 147.561 101.825 148.463 108.048 151.425C114.27 154.378 118.602 158.27 117.73 160.119Z" fill="#5583B9"/>
<path d="M117.557 160.036C116.694 161.848 111.041 160.956 104.919 158.049C98.798 155.132 94.5304 151.305 95.3931 149.493C96.2558 147.681 101.909 148.573 108.031 151.48C114.152 154.387 118.411 158.214 117.557 160.036Z" fill="#5482B9"/>
<path d="M117.373 159.944C116.529 161.728 110.958 160.855 104.938 157.984C98.9171 155.114 94.7137 151.342 95.5581 149.558C96.4024 147.773 101.973 148.647 107.994 151.517C114.024 154.387 118.227 158.159 117.373 159.944Z" fill="#5381B8"/>
<path d="M117.199 159.861C116.363 161.618 110.884 160.753 104.965 157.938C99.0359 155.114 94.9059 151.407 95.7411 149.65C96.5763 147.893 102.055 148.757 107.975 151.582C113.904 154.397 118.034 158.104 117.199 159.861Z" fill="#5280B8"/>
<path d="M117.024 159.778C116.207 161.508 110.82 160.661 104.992 157.883C99.1638 155.105 95.0981 151.462 95.9149 149.732C96.7318 148.003 102.119 148.849 107.947 151.628C113.784 154.406 117.84 158.049 117.024 159.778Z" fill="#507FB7"/>
<path d="M116.85 159.695C116.042 161.397 110.747 160.56 105.011 157.828C99.2748 155.096 95.2825 151.508 96.0901 149.815C96.8978 148.113 102.193 148.951 107.929 151.683C113.656 154.406 117.658 157.994 116.85 159.695Z" fill="#4F7EB7"/>
<path d="M116.677 159.613C115.888 161.287 110.675 160.459 105.04 157.782C99.4047 155.096 95.4766 151.572 96.2659 149.907C97.0552 148.233 102.268 149.061 107.903 151.738C113.538 154.415 117.466 157.947 116.677 159.613Z" fill="#4E7DB6"/>
<path d="M116.502 159.53C115.722 161.167 110.601 160.367 105.067 157.727C99.5325 155.087 95.6686 151.628 96.4488 149.981C97.2289 148.343 102.341 149.144 107.884 151.784C113.418 154.424 117.273 157.892 116.502 159.53Z" fill="#4C7CB5"/>
<path d="M116.318 159.447C115.557 161.057 110.527 160.266 105.085 157.681C99.6426 155.096 95.8522 151.683 96.614 150.073C97.3757 148.463 102.405 149.254 107.847 151.839C113.299 154.424 117.089 157.837 116.318 159.447Z" fill="#4B7BB5"/>
<path d="M116.143 159.364C115.391 160.946 110.453 160.174 105.112 157.625C99.7704 155.086 96.0442 151.738 96.7968 150.156C97.5494 148.573 102.487 149.346 107.828 151.894C113.17 154.433 116.896 157.782 116.143 159.364Z" fill="#4A7AB4"/>
<path d="M115.969 159.281C115.234 160.836 110.379 160.073 105.139 157.58C99.8893 155.086 96.2366 151.802 96.9708 150.248C97.705 148.693 102.56 149.456 107.8 151.949C113.05 154.443 116.703 157.727 115.969 159.281Z" fill="#4979B4"/>
<path d="M115.795 159.199C115.07 160.726 110.316 159.971 105.168 157.524C100.019 155.077 96.4306 151.848 97.1556 150.321C97.8806 148.794 102.635 149.548 107.783 151.996C112.932 154.443 116.521 157.672 115.795 159.199Z" fill="#4778B3"/>
<path d="M115.62 159.107C114.913 160.606 110.242 159.87 105.185 157.46C100.137 155.059 96.613 151.894 97.3197 150.395C98.0263 148.895 102.698 149.631 107.755 152.041C112.802 154.452 116.327 157.616 115.62 159.107Z" fill="#4677B3"/>
<path d="M115.447 159.024C114.749 160.496 110.17 159.769 105.214 157.414C100.258 155.059 96.8071 151.95 97.5046 150.487C98.2021 149.015 102.782 149.742 107.738 152.097C112.694 154.452 116.135 157.561 115.447 159.024Z" fill="#4576B2"/>
<path d="M115.262 158.941C114.583 160.376 110.086 159.677 105.231 157.359C100.376 155.05 96.9895 152.005 97.6687 150.57C98.3478 149.135 102.845 149.834 107.7 152.152C112.564 154.461 115.951 157.506 115.262 158.941Z" fill="#4375B2"/>
<path d="M115.088 158.858C114.418 160.266 110.022 159.576 105.259 157.313C100.496 155.05 97.1827 152.069 97.8527 150.652C98.5227 149.245 102.919 149.935 107.682 152.198C112.445 154.47 115.758 157.451 115.088 158.858Z" fill="#4274B1"/>
<path d="M114.914 158.775C114.263 160.155 109.949 159.475 105.287 157.258C100.625 155.04 97.3759 152.115 98.0275 150.735C98.6791 149.355 102.993 150.036 107.655 152.253C112.317 154.47 115.566 157.396 114.914 158.775Z" fill="#4173B1"/>
<path d="M114.738 158.693C114.096 160.045 109.874 159.383 105.313 157.212C100.752 155.04 97.5669 152.179 98.2093 150.827C98.8518 149.475 103.074 150.137 107.635 152.308C112.196 154.479 115.381 157.34 114.738 158.693Z" fill="#3F72B0"/>
<path d="M114.549 158.61C115.177 157.284 112.064 154.484 107.595 152.357C103.126 150.231 98.9944 149.582 98.3661 150.908C97.7378 152.234 100.851 155.034 105.32 157.161C109.788 159.287 113.92 159.936 114.549 158.61Z" fill="#3E72B0"/>
<path d="M114.392 158.527C113.777 159.824 109.739 159.189 105.361 157.101C100.992 155.022 97.9454 152.281 98.5603 150.984C99.1752 149.686 103.213 150.321 107.591 152.41C111.96 154.489 114.998 157.23 114.392 158.527Z" fill="#3D71AF"/>
<path d="M114.207 158.444C113.611 159.714 109.655 159.088 105.378 157.055C101.102 155.022 98.128 152.345 98.7246 151.076C99.3211 149.806 103.277 150.432 107.554 152.465C111.83 154.498 114.813 157.175 114.207 158.444Z" fill="#3B70AE"/>
<path d="M114.033 158.361C113.446 159.603 109.582 158.987 105.406 157C101.231 155.013 98.3212 152.4 98.8994 151.158C99.4868 149.916 103.351 150.533 107.526 152.52C111.711 154.507 114.621 157.12 114.033 158.361Z" fill="#3A6FAE"/>
<path d="M113.859 158.27C113.29 159.475 109.518 158.886 105.434 156.945C101.35 155.004 98.5144 152.446 99.0834 151.241C99.6524 150.036 103.424 150.625 107.508 152.566C111.593 154.507 114.438 157.064 113.859 158.27Z" fill="#396EAD"/>
<path d="M113.684 158.187C113.124 159.364 109.443 158.785 105.46 156.89C101.477 154.995 98.7056 152.502 99.2562 151.324C99.8161 150.146 103.496 150.726 107.479 152.621C111.463 154.516 114.243 157.009 113.684 158.187Z" fill="#376DAD"/>
<path d="M113.509 158.104C112.968 159.254 109.37 158.693 105.488 156.844C101.606 154.995 98.8894 152.557 99.4401 151.407C99.9815 150.257 103.579 150.818 107.461 152.667C111.344 154.525 114.051 156.954 113.509 158.104Z" fill="#366CAC"/>
<path d="M113.335 158.021C112.802 159.143 109.297 158.591 105.515 156.788C101.725 154.985 99.0818 152.612 99.6141 151.49C100.146 150.367 103.652 150.919 107.433 152.722C111.224 154.525 113.867 156.899 113.335 158.021Z" fill="#356BAC"/>
<path d="M113.15 157.938C112.636 159.033 109.222 158.49 105.524 156.733C101.834 154.976 99.2552 152.667 99.7783 151.572C100.292 150.478 103.706 151.02 107.405 152.768C111.104 154.535 113.673 156.844 113.15 157.938Z" fill="#336AAB"/>
<path d="M112.977 157.856C112.473 158.923 109.15 158.398 105.553 156.687C101.955 154.976 99.4495 152.722 99.9543 151.664C100.459 150.597 103.781 151.122 107.379 152.833C110.977 154.544 113.482 156.788 112.977 157.856Z" fill="#3269AB"/>
<path d="M112.802 157.773C112.316 158.812 109.076 158.297 105.58 156.632C102.083 154.967 99.6415 152.778 100.137 151.738C100.624 150.698 103.863 151.214 107.36 152.879C110.857 154.544 113.298 156.733 112.802 157.773Z" fill="#3168AA"/>
<path d="M112.63 157.69C112.152 158.702 109.004 158.205 105.609 156.586C102.204 154.967 99.8359 152.842 100.313 151.83C100.79 150.818 103.938 151.315 107.334 152.934C110.73 154.553 113.107 156.678 112.63 157.69Z" fill="#2F67AA"/>
<path d="M112.435 157.604C112.899 156.627 110.598 154.561 107.297 152.99C103.996 151.419 100.944 150.937 100.481 151.915C100.018 152.892 102.319 154.959 105.62 156.53C108.921 158.101 111.972 158.582 112.435 157.604Z" fill="#2E66A9"/>
<path d="M112.28 157.524C111.83 158.472 108.865 158.012 105.662 156.485C102.459 154.958 100.22 152.952 100.67 152.005C101.119 151.057 104.084 151.517 107.287 153.044C110.49 154.562 112.729 156.568 112.28 157.524Z" fill="#2D65A8"/>
<path d="M112.097 157.432C111.656 158.352 108.784 157.902 105.682 156.42C102.57 154.939 100.404 152.998 100.845 152.069C101.286 151.149 104.158 151.6 107.26 153.081C110.371 154.571 112.537 156.512 112.097 157.432Z" fill="#2B64A8"/>
<path d="M111.922 157.35C111.5 158.242 108.719 157.8 105.7 156.374C102.69 154.939 100.588 153.053 101.01 152.161C101.432 151.269 104.213 151.71 107.232 153.136C110.252 154.571 112.344 156.457 111.922 157.35Z" fill="#2A63A7"/>
<path d="M111.747 157.267C111.334 158.132 108.645 157.708 105.727 156.319C102.808 154.93 100.78 153.109 101.193 152.244C101.606 151.379 104.295 151.802 107.214 153.192C110.123 154.581 112.16 156.402 111.747 157.267Z" fill="#2962A7"/>
<path d="M111.574 157.184C111.18 158.021 108.573 157.607 105.756 156.264C102.938 154.921 100.974 153.164 101.369 152.327C101.763 151.49 104.37 151.903 107.187 153.247C110.005 154.59 111.969 156.347 111.574 157.184Z" fill="#2761A6"/>
<path d="M111.397 157.101C111.012 157.911 108.497 157.515 105.781 156.218C103.064 154.921 101.164 153.219 101.55 152.419C101.935 151.609 104.45 152.005 107.166 153.302C109.883 154.59 111.774 156.292 111.397 157.101Z" fill="#2660A6"/>
<path d="M111.225 157.018C110.857 157.8 108.435 157.414 105.81 156.163C103.185 154.912 101.359 153.274 101.726 152.492C102.093 151.72 104.516 152.097 107.14 153.348C109.765 154.599 111.592 156.236 111.225 157.018Z" fill="#255FA5"/>
<path d="M111.042 156.936C110.684 157.681 108.353 157.313 105.829 156.117C103.305 154.912 101.543 153.329 101.901 152.584C102.259 151.839 104.59 152.207 107.114 153.403C109.637 154.608 111.4 156.181 111.042 156.936Z" fill="#235EA4"/>
<path d="M110.866 156.853C110.526 157.57 108.278 157.221 105.855 156.062C103.423 154.903 101.734 153.385 102.074 152.667C102.413 151.95 104.662 152.299 107.085 153.458C109.517 154.608 111.206 156.126 110.866 156.853Z" fill="#225DA4"/>
<path d="M110.692 156.77C110.362 157.46 108.205 157.12 105.874 156.016C103.543 154.902 101.918 153.449 102.249 152.759C102.579 152.069 104.736 152.409 107.067 153.513C109.398 154.617 111.023 156.071 110.692 156.77Z" fill="#205CA3"/>
<path d="M110.517 156.678C110.205 157.34 108.14 157.018 105.901 155.951C103.671 154.884 102.111 153.486 102.423 152.823C102.735 152.161 104.8 152.483 107.039 153.55C109.269 154.617 110.829 156.025 110.517 156.678Z" fill="#1F5BA3"/>
<path d="M110.342 156.595C110.039 157.23 108.066 156.917 105.928 155.896C103.789 154.875 102.303 153.541 102.606 152.906C102.908 152.272 104.882 152.584 107.02 153.605C109.149 154.627 110.636 155.97 110.342 156.595Z" fill="#1E5AA2"/>
<path d="M110.154 156.519C110.441 155.914 109.018 154.635 106.976 153.663C104.934 152.691 103.046 152.394 102.759 153C102.472 153.606 103.895 154.885 105.937 155.856C107.979 156.828 109.867 157.125 110.154 156.519Z" fill="#1C59A2"/>
<path d="M109.986 156.43C109.711 157.009 107.921 156.724 105.975 155.795C104.03 154.866 102.68 153.651 102.947 153.081C103.222 152.502 105.012 152.787 106.957 153.716C108.912 154.636 110.261 155.859 109.986 156.43Z" fill="#1B58A1"/>
<path d="M109.811 156.347C109.554 156.89 107.847 156.623 106.002 155.749C104.157 154.875 102.872 153.716 103.129 153.164C103.386 152.621 105.093 152.888 106.938 153.762C108.783 154.645 110.077 155.804 109.811 156.347Z" fill="#1957A0"/>
<path d="M109.636 156.264C109.388 156.779 107.773 156.531 106.029 155.694C104.276 154.866 103.065 153.771 103.303 153.247C103.551 152.732 105.166 152.98 106.91 153.817C108.663 154.654 109.884 155.749 109.636 156.264Z" fill="#1856A0"/>
<path d="M109.462 156.181C109.233 156.669 107.7 156.43 106.048 155.648C104.396 154.866 103.249 153.826 103.478 153.339C103.708 152.851 105.241 153.09 106.893 153.872C108.544 154.654 109.692 155.694 109.462 156.181Z" fill="#17559F"/>
<path d="M109.287 156.098C109.066 156.558 107.635 156.328 106.074 155.592C104.514 154.857 103.44 153.881 103.651 153.421C103.872 152.961 105.303 153.191 106.864 153.927C108.424 154.663 109.507 155.638 109.287 156.098Z" fill="#15549F"/>
<path d="M109.114 156.016C108.912 156.448 107.563 156.236 106.104 155.537C104.645 154.838 103.635 153.927 103.837 153.495C104.039 153.063 105.388 153.274 106.848 153.973C108.298 154.673 109.316 155.583 109.114 156.016Z" fill="#14539E"/>
<path d="M108.93 155.933C108.737 156.338 107.48 156.135 106.121 155.491C104.763 154.847 103.818 153.992 104.001 153.587C104.194 153.182 105.451 153.385 106.81 154.029C108.177 154.673 109.122 155.528 108.93 155.933Z" fill="#12529E"/>
<path d="M108.756 155.841C108.581 156.218 107.407 156.034 106.149 155.427C104.883 154.829 104.002 154.038 104.185 153.661C104.36 153.283 105.534 153.467 106.792 154.075C108.058 154.682 108.939 155.473 108.756 155.841Z" fill="#11519D"/>
<path d="M108.582 155.758C108.417 156.108 107.343 155.933 106.177 155.381C105.012 154.829 104.195 154.093 104.36 153.753C104.525 153.403 105.599 153.578 106.765 154.13C107.93 154.682 108.747 155.418 108.582 155.758Z" fill="#104F9C"/>
<path d="M108.407 155.675C108.26 155.988 107.269 155.841 106.204 155.326C105.139 154.82 104.387 154.148 104.543 153.835C104.69 153.523 105.681 153.67 106.746 154.185C107.81 154.691 108.554 155.363 108.407 155.675Z" fill="#0E4E9C"/>
<path d="M108.233 155.592C108.096 155.878 107.196 155.74 106.223 155.28C105.251 154.82 104.571 154.213 104.709 153.918C104.847 153.633 105.746 153.771 106.719 154.231C107.692 154.7 108.371 155.307 108.233 155.592Z" fill="#0D4D9B"/>
<path d="M108.057 155.51C107.938 155.767 107.13 155.638 106.249 155.224C105.377 154.81 104.763 154.259 104.891 154.001C105.01 153.743 105.818 153.872 106.699 154.286C107.571 154.7 108.177 155.252 108.057 155.51Z" fill="#0B4C9B"/>
<path d="M107.875 155.427C107.765 155.657 107.049 155.547 106.269 155.179C105.489 154.811 104.947 154.323 105.057 154.093C105.167 153.863 105.883 153.973 106.663 154.341C107.443 154.709 107.985 155.197 107.875 155.427Z" fill="#0A4B9A"/>
<path d="M107.701 155.344C107.609 155.547 106.976 155.445 106.296 155.123C105.617 154.801 105.14 154.378 105.241 154.176C105.333 153.973 105.966 154.075 106.645 154.397C107.324 154.719 107.802 155.142 107.701 155.344Z" fill="#094A9A"/>
<path d="M107.527 155.261C107.444 155.436 106.903 155.353 106.325 155.068C105.737 154.792 105.333 154.424 105.416 154.249C105.499 154.075 106.04 154.157 106.618 154.443C107.206 154.719 107.609 155.087 107.527 155.261Z" fill="#074999"/>
<path d="M107.352 155.179C107.288 155.326 106.838 155.252 106.351 155.022C105.865 154.792 105.525 154.489 105.599 154.341C105.663 154.194 106.113 154.268 106.599 154.498C107.086 154.728 107.416 155.031 107.352 155.179Z" fill="#064898"/>
<path d="M107.178 155.096C107.123 155.215 106.765 155.151 106.379 154.967C105.994 154.783 105.719 154.535 105.774 154.424C105.829 154.305 106.187 154.369 106.572 154.553C106.958 154.737 107.233 154.976 107.178 155.096Z" fill="#044798"/>
<path d="M107.002 155.004C106.966 155.087 106.69 155.05 106.397 154.912C106.103 154.774 105.901 154.59 105.947 154.507C105.984 154.424 106.259 154.461 106.553 154.599C106.837 154.737 107.039 154.921 107.002 155.004Z" fill="#034697"/>
<path d="M106.82 154.921C106.792 154.976 106.608 154.949 106.416 154.857C106.223 154.765 106.085 154.645 106.113 154.581C106.14 154.525 106.324 154.553 106.517 154.645C106.719 154.746 106.847 154.866 106.82 154.921Z" fill="#014597"/>
<path d="M106.645 154.838C106.636 154.866 106.544 154.857 106.443 154.811C106.342 154.765 106.278 154.7 106.296 154.673C106.305 154.645 106.397 154.654 106.498 154.7C106.59 154.755 106.663 154.811 106.645 154.838Z" fill="#004496"/>
<path opacity="0.4" d="M204.422 73.0463L105.441 130.322C103.449 131.472 100.448 131.6 98.7225 130.598L38.1222 95.5296C36.3968 94.5361 36.6171 92.7974 38.6086 91.6475L137.59 34.3629C139.582 33.213 142.583 33.0842 144.308 34.0869L204.908 69.155C206.625 70.1485 206.404 71.8964 204.422 73.0463Z" fill="white"/>
<path opacity="0.2" d="M194.052 74.2055L107.461 124.315C105.726 125.317 103.092 125.428 101.587 124.563L48.5675 93.883C47.0623 93.009 47.2551 91.4911 48.9896 90.4792L135.581 40.3701C137.316 39.3674 139.95 39.257 141.455 40.1218L194.474 70.8017C195.979 71.6757 195.787 73.2027 194.052 74.2055Z" fill="#041860"/>
<path d="M101.642 131.619C100.486 131.619 99.3756 131.389 98.5496 130.901L37.9493 95.8332C37.0866 95.3364 36.6094 94.6281 36.6094 93.8369C36.6094 92.917 37.2702 92.0062 38.4266 91.3347L137.408 34.0501C139.491 32.845 142.658 32.7162 144.475 33.7741L205.075 68.8422C205.938 69.3389 206.415 70.0473 206.415 70.8293C206.415 71.7492 205.754 72.6599 204.598 73.3315L105.616 130.616C104.488 131.288 103.028 131.619 101.642 131.619ZM141.382 33.7557C140.124 33.7557 138.794 34.0593 137.757 34.6665L38.7845 91.951C37.8484 92.4938 37.3161 93.1838 37.3161 93.8461C37.3161 94.3705 37.6648 94.8581 38.3072 95.2352L98.9075 130.303C100.532 131.242 103.386 131.113 105.277 130.027L204.258 72.7427C205.194 72.2 205.727 71.51 205.727 70.8476C205.727 70.3233 205.378 69.8357 204.735 69.4677L144.135 34.3997C143.401 33.9673 142.419 33.7557 141.382 33.7557Z" fill="white"/>
<path d="M206.067 56.3035L204.965 57.1774C204.947 57.1682 204.929 57.1498 204.901 57.1406L144.301 22.0725C142.575 21.079 139.574 21.1986 137.583 22.3485L38.6106 79.6239C38.3811 79.7619 38.1701 79.8999 37.9865 80.0471L36.9678 79.2927V81.7766H36.977C36.9586 82.4205 37.3349 83.0461 38.1333 83.506L98.7336 118.574C100.459 119.568 103.46 119.448 105.452 118.298L204.433 61.0135C205.525 60.388 206.076 59.5784 206.076 58.8149V56.3035H206.067Z" fill="white"/>
<path d="M204.422 58.5021L105.441 115.787C103.449 116.937 100.448 117.065 98.7225 116.063L38.1222 80.9946C36.3968 80.0011 36.6171 78.2624 38.6086 77.1125L137.59 19.8279C139.582 18.678 142.583 18.5492 144.308 19.5519L204.899 54.6108C206.625 55.6135 206.404 57.3522 204.422 58.5021Z" fill="url(#paint2_linear)"/>
<path d="M126.286 47.2328L117.77 42.3019L119.853 41.0968C120.248 40.8668 120.624 40.6921 120.991 40.5633C121.358 40.4345 121.734 40.3517 122.12 40.3149C122.505 40.2781 122.909 40.3057 123.313 40.4069C123.717 40.5081 124.12 40.6737 124.524 40.9128C125.571 41.52 125.745 42.0996 125.029 42.6607C125.626 42.4215 126.222 42.3387 126.819 42.3939C127.406 42.4491 128.021 42.6607 128.645 43.0103C129.453 43.4795 129.866 43.9486 129.884 44.427C129.893 44.9054 129.508 45.3653 128.728 45.8253L126.286 47.2328ZM122.799 43.4151L123.285 43.1391C123.744 42.8723 123.955 42.6423 123.937 42.4215C123.909 42.2099 123.671 41.9708 123.212 41.704C122.973 41.566 122.753 41.4648 122.542 41.4188C122.34 41.3636 122.129 41.3544 121.918 41.3912C121.707 41.428 121.514 41.4832 121.321 41.566C121.138 41.6488 120.908 41.7684 120.633 41.9248L120.422 42.0444L122.799 43.4151ZM126.745 45.6965L127.314 45.3653C127.773 45.0985 127.984 44.8502 127.948 44.6202C127.911 44.3902 127.645 44.1326 127.149 43.8474C126.635 43.5531 126.167 43.3967 125.736 43.3783C125.304 43.3599 124.855 43.4887 124.377 43.7646L123.891 44.0498L126.745 45.6965Z" fill="white"/>
<path d="M131.673 44.1142L124.891 38.1898L126.506 37.2515L136.748 41.1796L135.307 42.0168L132.985 41.0692L131.508 41.9248L133.132 43.2679L131.673 44.1142ZM130.663 41.244L131.801 40.5817L127.736 38.889L130.663 41.244Z" fill="white"/>
<path d="M137.583 40.692L129.066 35.7612L130.131 35.1448L137.042 36.7271L132.224 33.9397L133.508 33.1945L142.025 38.1254L141.007 38.7142L133.83 37.0031L138.896 39.9377L137.583 40.692Z" fill="white"/>
<path d="M143.292 37.3895L134.775 32.4586L136.326 31.5571L140.025 33.7005L138.006 30.5912L139.484 29.7356L141.668 32.8818L148.166 34.5653L146.624 35.4576L141.154 33.9857L141.402 34.4825L144.852 36.4788L143.292 37.3895Z" fill="white"/>
<path d="M117.07 94.7386L98.0997 105.713L95.9062 104.444L114.877 93.4691L117.07 94.7386Z" fill="white"/>
<path d="M140.391 81.2431L121.421 92.218L119.228 90.9484L138.198 79.9736L140.391 81.2431Z" fill="white"/>
<path d="M163.712 67.7476L144.742 78.7225L142.539 77.453L161.519 66.4781L163.712 67.7476Z" fill="white"/>
<path d="M187.032 54.2521L168.062 65.227L165.859 63.9574L184.839 52.9826L187.032 54.2521Z" fill="white"/>
<path d="M202.333 130.377L171.891 112.604C165.861 109.117 160.171 108.565 155.876 111.049C151.581 113.533 149.213 118.749 149.213 125.731V127.967C149.424 128.114 149.653 128.252 149.883 128.399V125.731C149.883 118.997 152.131 113.993 156.206 111.628C160.29 109.264 165.733 109.816 171.551 113.183L201.994 130.956C202.15 131.048 202.361 130.993 202.453 130.837C202.554 130.671 202.499 130.469 202.333 130.377Z" fill="white"/>
<path d="M107.389 109.209V40.4345C107.389 26.6722 97.7155 9.86494 85.8212 2.9838C79.9934 -0.383178 74.5051 -0.925939 70.3476 1.4843C66.1993 3.88534 63.9141 8.92661 63.9141 15.6606V20.4534C64.1343 20.6742 64.3638 20.9042 64.584 21.125V15.6606C64.584 9.16579 66.75 4.33611 70.6872 2.06386C74.6244 -0.208389 79.8741 0.32518 85.4908 3.56336C97.2015 10.3433 106.728 26.8746 106.728 40.4345V109.209C106.728 120.616 113.428 134.121 122.514 142.253C122.514 141.95 122.514 141.655 122.514 141.352C113.776 133.311 107.389 120.258 107.389 109.209Z" fill="white"/>
<path d="M122.56 141.959C122.56 141.959 114.804 134.047 111.794 127.525C108.775 121.003 107.215 114.959 107.159 109.577C107.104 104.195 107.058 57.9041 107.058 57.9041C107.058 57.9041 107.389 38.7142 106.581 35.6784C105.774 32.6518 103.874 16.4792 88.079 4.86962C72.2842 -6.74001 64.3914 5.78036 64.4832 12.3303C64.575 18.8711 64.4832 23.066 64.4832 23.066C64.4832 23.066 73.1378 30.0851 76.405 40.1125C79.6723 50.1398 79.9843 48.4011 80.0394 58.3733C80.0945 68.3454 80.1403 118.951 80.1403 118.951C80.1403 118.951 79.4061 127.838 81.6179 134.719C83.8298 141.6 87.7945 149.217 92.5027 154.212C97.2108 159.208 104.158 165.105 110.583 164.525C117.007 163.945 121.33 161.572 122.56 151.379V141.959Z" fill="white"/>
<path d="M70.3481 1.47491L43.7236 16.8655L64.4836 23.0659L70.3481 1.47491Z" fill="white"/>
<path d="M149.211 127.967V131.058C147.734 129.981 140.768 125.216 134.151 125.446C126.698 125.713 124.202 132.548 124.202 132.548C124.202 132.548 122.44 137.654 122.569 140.045C122.587 140.459 122.614 140.947 122.633 141.462C122.587 141.425 122.55 141.389 122.504 141.352C122.504 141.655 122.504 141.95 122.504 142.253C122.559 142.299 122.605 142.336 122.66 142.382C122.725 144.682 122.743 147.221 122.743 147.221C122.743 147.221 122.807 151.775 122.165 154.774C121.008 160.155 116.456 163.219 116.107 163.688L143.429 147.92C143.457 147.911 143.475 147.902 143.503 147.883C143.54 147.865 143.576 147.837 143.613 147.81L143.751 147.727L143.769 147.708C147.725 145.261 149.9 140.34 149.9 133.799V128.399C149.652 128.252 149.422 128.114 149.211 127.967Z" fill="url(#paint3_linear)"/>
<path d="M127.92 127.267L155.875 111.049C155.875 111.049 160.638 108.537 166.402 110.653C172.166 112.769 202.369 130.929 202.369 130.929L175.387 146.512C175.387 146.512 144.036 127.037 140.356 126.062C132.802 124.057 127.92 127.267 127.92 127.267Z" fill="white"/>
<path d="M63.9059 22.5601C62.8046 21.5114 57.6651 16.9669 50.1578 15.817C41.6592 14.5106 38.1533 24.4736 38.1533 24.4736C38.1533 24.4736 37.1713 29.6436 37.208 32.707C37.2447 35.7704 37.465 46.8833 37.465 46.8833L64.3923 31.3363C64.5025 31.2811 64.5759 31.1707 64.5759 31.0419V23.1489C64.3556 22.9189 64.1354 22.7809 63.9059 22.5601Z" fill="url(#paint4_linear)"/>
<path d="M110.849 164.902C107.876 164.902 104.59 163.909 101.194 161.94C89.3825 155.105 79.7826 138.426 79.7826 124.765V55.9906C79.7826 42.4399 70.2562 25.8994 58.5455 19.1194C52.9379 15.8721 47.6791 15.3385 43.7511 17.6199C39.8138 19.9014 37.6479 24.7219 37.6479 31.2166V46.5888C37.6479 46.7728 37.5011 46.9292 37.3083 46.9292C37.1248 46.9292 36.9688 46.782 36.9688 46.5888V31.2166C36.9688 24.4735 39.254 19.4414 43.4023 17.0404C47.5506 14.6393 53.0481 15.1729 58.8759 18.5399C70.7702 25.421 80.4434 42.2283 80.4434 55.9906V124.765C80.4434 138.215 89.8964 154.636 101.525 161.36C107.095 164.58 112.308 165.114 116.209 162.851C120.109 160.588 122.266 155.795 122.266 149.355V141.287C122.266 134.305 124.634 129.089 128.929 126.605C133.224 124.121 138.914 124.673 144.944 128.16L175.387 145.933C175.543 146.025 175.598 146.227 175.506 146.393C175.414 146.559 175.203 146.605 175.047 146.513L144.605 128.739C138.786 125.372 133.344 124.82 129.26 127.185C125.175 129.549 122.936 134.553 122.936 141.287V149.355C122.936 156.052 120.669 161.048 116.548 163.43C114.851 164.415 112.923 164.902 110.849 164.902Z" fill="url(#paint5_linear)"/>
<path d="M87.0146 71.096V68.6674L89.8414 67.0299V69.4585L87.0146 71.096Z" fill="#DDE1ED"/>
<path d="M94.9912 61.9427V59.5141L100.369 56.3955V58.8241L94.9912 61.9427Z" fill="#DDE1ED"/>
<path d="M87.29 61.4367V59.008L100.368 51.437V53.8656L87.29 61.4367Z" fill="#DDE1ED"/>
<path d="M91.833 68.2994V65.8707L102.754 59.56V61.9886L91.833 68.2994Z" fill="#DDE1ED"/>
<path d="M87.29 66.3952V63.9666L92.6682 60.848V63.2767L87.29 66.3952Z" fill="#DDE1ED"/>
<path d="M90.4567 94.72V97.1395L87.1436 99.0621V96.6335L90.4567 94.72Z" fill="#DDE1ED"/>
<path d="M96.486 91.2243V93.6529L93.1729 95.5664V93.1469L96.486 91.2243Z" fill="#DDE1ED"/>
<path d="M100.104 84.5915V87.0202L87.3008 94.4257V91.997L100.104 84.5915Z" fill="#DDE1ED"/>
<path d="M93.7158 76.91V74.4906L100.103 70.7924V73.2118L93.7158 76.91Z" fill="#DDE1ED"/>
<path d="M87.1436 80.7184V78.2898L90.4567 76.3671V78.7958L87.1436 80.7184Z" fill="#DDE1ED"/>
<path d="M87.1436 85.2538V82.8252L93.4578 79.173V81.6017L87.1436 85.2538Z" fill="#DDE1ED"/>
<path d="M96.001 80.1297V77.701L100.103 75.3276V77.7562L96.001 80.1297Z" fill="#DDE1ED"/>
<path d="M93.7158 105.189V102.76L100.103 99.0621V101.491L93.7158 105.189Z" fill="#DDE1ED"/>
<path d="M87.1436 108.988V106.56L90.4567 104.646V107.066L87.1436 108.988Z" fill="#DDE1ED"/>
<path d="M87.1436 113.524V111.095L93.4578 107.443V109.871L87.1436 113.524Z" fill="#DDE1ED"/>
<path d="M96.001 108.4V105.971L100.103 103.597V106.026L96.001 108.4Z" fill="#DDE1ED"/>
<path d="M163.079 131.085L160.986 129.871L163.813 128.243L165.906 129.457L163.079 131.085Z" fill="#DDE1ED"/>
<path d="M167.135 124.204L165.033 122.99L170.421 119.871L172.513 121.085L167.135 124.204Z" fill="#DDE1ED"/>
<path d="M155.15 126.182L153.048 124.968L166.135 117.396L168.228 118.611L155.15 126.182Z" fill="#DDE1ED"/>
<path d="M167.907 128.298L165.806 127.083L176.727 120.763L178.82 121.978L167.907 128.298Z" fill="#DDE1ED"/>
<path d="M159.436 128.656L157.334 127.442L162.721 124.333L164.814 125.547L159.436 128.656Z" fill="#DDE1ED"/>
<path d="M20.0352 136.605L18.8054 137.313L15.9053 135.639L17.1351 134.931L20.0352 136.605Z" fill="white"/>
<path d="M22.2921 135.298L21.0623 136.007L18.1621 134.333L19.3919 133.624L22.2921 135.298Z" fill="white"/>
<path d="M24.5509 133.992L23.321 134.701L20.4209 133.026L21.6507 132.318L24.5509 133.992Z" fill="white"/>
<path d="M26.8077 132.686L25.5779 133.394L22.6777 131.72L23.9075 131.002L26.8077 132.686Z" fill="white"/>
<path d="M186.161 174.654L164.557 162.161C164.034 161.857 163.373 161.692 162.712 161.655V161.646C162.694 161.646 162.675 161.646 162.648 161.646C162.519 161.636 162.382 161.646 162.253 161.646C162.198 161.646 162.134 161.646 162.079 161.655C161.95 161.664 161.822 161.682 161.693 161.701C161.638 161.71 161.583 161.719 161.528 161.728C161.4 161.756 161.28 161.793 161.161 161.83C161.115 161.848 161.06 161.857 161.014 161.866C160.858 161.922 160.702 161.995 160.564 162.069L144.467 171.443L129.103 180.366L127.607 180.514L127.617 181.866L127.635 182.041C127.699 182.427 127.984 182.804 128.516 183.108L150.129 195.601C150.653 195.904 151.313 196.07 151.974 196.107V196.116C151.993 196.116 152.011 196.116 152.038 196.116C152.167 196.125 152.295 196.116 152.433 196.116C152.488 196.116 152.552 196.116 152.607 196.107C152.736 196.097 152.864 196.079 152.993 196.061C153.048 196.051 153.103 196.042 153.158 196.033C153.287 196.005 153.406 195.969 153.525 195.932C153.571 195.913 153.626 195.904 153.672 195.886C153.828 195.831 153.984 195.757 154.122 195.683L186.326 176.963C186.831 176.668 187.079 176.273 187.07 175.877V175.84V175.831V174.562L186.161 174.654Z" fill="white"/>
<path d="M128.35 179.465L144.466 170.109L169.512 184.589L154.102 194.349C153.047 194.966 151.266 194.929 150.128 194.267L128.515 181.774C127.358 181.112 127.294 180.081 128.35 179.465Z" fill="url(#paint6_linear)"/>
<path d="M160.582 160.744L144.466 170.1L169.356 184.497L186.325 175.638C187.381 175.021 187.316 173.991 186.169 173.329L164.556 160.836C163.418 160.174 161.637 160.137 160.582 160.744Z" fill="url(#paint7_linear)"/>
<path d="M187.059 174.396C187.142 174.847 186.894 175.297 186.325 175.629L154.093 194.34C153.524 194.671 152.744 194.809 151.964 194.763L154.102 175.665L187.059 174.396Z" fill="url(#paint8_linear)"/>
<path d="M127.615 180.698C127.533 180.247 127.78 179.797 128.349 179.465L160.581 160.754C161.15 160.423 161.931 160.285 162.711 160.331L160.572 179.429L127.615 180.698Z" fill="url(#paint9_linear)"/>
<path d="M152.195 186.622C152.131 186.622 152.067 186.622 152.011 186.622L151.617 186.585C150.984 186.511 150.415 186.337 149.946 186.061L128.333 173.559C127.874 173.292 127.544 172.952 127.379 172.565L127.333 172.574L127.268 172.197V172.142C127.25 172.078 127.259 171.967 127.268 171.884C127.268 171.829 127.278 171.792 127.287 171.746C127.314 171.636 127.351 171.544 127.397 171.452C127.424 171.397 127.434 171.36 127.461 171.323C127.525 171.222 127.599 171.13 127.672 171.057C127.709 171.011 127.736 170.983 127.764 170.955C127.892 170.836 128.03 170.735 128.186 170.643L160.418 151.931C160.574 151.839 160.739 151.765 160.923 151.701L161.033 151.664C161.207 151.609 161.336 151.572 161.474 151.545L161.602 151.526C161.795 151.499 161.933 151.48 162.07 151.462H162.208C162.401 151.453 162.538 151.453 162.676 151.462L163.071 151.499C163.704 151.572 164.273 151.747 164.741 152.023L186.354 164.516C186.813 164.783 187.144 165.123 187.309 165.509L187.355 165.5L187.419 165.877V165.932C187.437 165.997 187.428 166.107 187.419 166.19C187.419 166.245 187.41 166.291 187.401 166.328C187.373 166.438 187.327 166.54 187.29 166.632C187.272 166.687 187.254 166.724 187.235 166.76C187.171 166.862 187.098 166.954 187.024 167.027L186.933 167.128C186.804 167.248 186.666 167.349 186.51 167.432L154.278 186.144C154.122 186.236 153.948 186.309 153.774 186.374L153.663 186.41C153.489 186.465 153.361 186.502 153.223 186.53L153.094 186.548C152.902 186.576 152.764 186.594 152.626 186.613H152.489C152.379 186.622 152.287 186.622 152.195 186.622ZM152.911 185.868L153.14 186.19L153.067 185.849C153.186 185.822 153.287 185.794 153.397 185.757L153.645 186.052L153.526 185.72C153.663 185.674 153.792 185.61 153.92 185.546L186.152 166.825C186.263 166.76 186.354 166.687 186.446 166.613L186.758 166.788L186.501 166.549C186.556 166.494 186.602 166.438 186.63 166.392C186.676 166.273 186.703 166.227 186.712 166.181C186.721 166.07 186.721 166.024 186.721 165.997L186.712 165.96C186.657 165.666 186.409 165.371 186.006 165.132L164.392 152.639C163.942 152.382 163.337 152.216 162.703 152.179L162.566 152.17C162.456 152.17 162.373 152.17 162.29 152.17L162.125 152.179C162.015 152.189 161.896 152.207 161.786 152.225L161.556 151.903L161.63 152.244C161.51 152.271 161.409 152.299 161.299 152.336L161.051 152.041L161.171 152.373C161.033 152.428 160.895 152.483 160.776 152.557L128.544 171.268C128.434 171.333 128.342 171.406 128.25 171.48C128.149 171.599 128.094 171.654 128.067 171.7C128.012 171.82 127.993 171.875 127.984 171.912C127.975 172.022 127.975 172.068 127.975 172.096L127.984 172.133C128.039 172.427 128.287 172.722 128.691 172.961L150.304 185.454C150.754 185.711 151.36 185.877 151.993 185.914L152.131 185.923C152.241 185.923 152.323 185.923 152.415 185.923L152.58 185.914C152.681 185.895 152.801 185.886 152.911 185.868Z" fill="white"/>
<path opacity="0.4" d="M186.747 166.779C186.812 166.705 186.876 166.641 186.922 166.567C186.94 166.54 186.949 166.503 186.968 166.466C187.004 166.393 187.032 166.319 187.05 166.245C187.06 166.209 187.06 166.181 187.06 166.144C187.069 166.071 187.069 165.997 187.06 165.914C187.06 165.905 187.06 165.887 187.06 165.877H187.05C186.986 165.491 186.702 165.114 186.169 164.81L164.556 152.317C164.033 152.014 163.372 151.848 162.711 151.812V151.802C162.693 151.802 162.674 151.802 162.647 151.802C162.518 151.793 162.39 151.802 162.252 151.802C162.197 151.802 162.133 151.802 162.078 151.812C161.949 151.821 161.821 151.839 161.702 151.858C161.647 151.867 161.591 151.876 161.536 151.885C161.408 151.913 161.289 151.95 161.169 151.986C161.123 152.005 161.068 152.014 161.022 152.032C160.866 152.087 160.71 152.161 160.573 152.235L149.826 158.472L144.457 161.59L128.341 170.946C128.203 171.029 128.084 171.112 127.983 171.204C127.955 171.231 127.937 171.259 127.909 171.287C127.845 171.36 127.781 171.425 127.744 171.498C127.726 171.526 127.717 171.563 127.698 171.599C127.662 171.673 127.634 171.747 127.616 171.82C127.607 171.857 127.606 171.885 127.606 171.921C127.597 171.995 127.597 172.069 127.606 172.151C127.606 172.161 127.606 172.179 127.606 172.188H127.616C127.68 172.575 127.964 172.952 128.497 173.255L150.11 185.748C150.633 186.052 151.294 186.217 151.955 186.254V186.263C151.973 186.263 151.992 186.263 152.019 186.263C152.148 186.272 152.276 186.263 152.414 186.263C152.469 186.263 152.533 186.263 152.588 186.254C152.717 186.245 152.845 186.226 152.964 186.208C153.019 186.199 153.075 186.19 153.13 186.18C153.258 186.153 153.377 186.116 153.497 186.079C153.543 186.061 153.598 186.052 153.644 186.033C153.8 185.978 153.956 185.904 154.093 185.831L186.325 167.119C186.463 167.036 186.582 166.954 186.683 166.862C186.711 166.834 186.729 166.807 186.747 166.779Z" fill="white"/>
<defs>
<linearGradient id="paint0_linear" x1="14.5461" y1="112.102" x2="196.487" y2="207.741" gradientUnits="userSpaceOnUse">
<stop stop-color="#3A9BD5"/>
<stop offset="0.3053" stop-color="#3A9BD5"/>
<stop offset="0.3555" stop-color="#3A9BD5"/>
<stop offset="0.5988" stop-color="#3999D4"/>
<stop offset="0.6883" stop-color="#3592CF"/>
<stop offset="0.7522" stop-color="#2F86C7"/>
<stop offset="0.8039" stop-color="#2676BC"/>
<stop offset="0.8102" stop-color="#2573BA"/>
</linearGradient>
<linearGradient id="paint1_linear" x1="19.5243" y1="173.251" x2="181.14" y2="105.268" gradientUnits="userSpaceOnUse">
<stop stop-color="#59BDEF"/>
<stop offset="1" stop-color="#7BDAFF"/>
</linearGradient>
<linearGradient id="paint2_linear" x1="222.829" y1="20.8132" x2="105.806" y2="171.168" gradientUnits="userSpaceOnUse">
<stop stop-color="#59BDEF"/>
<stop offset="1" stop-color="#7BDAFF"/>
</linearGradient>
<linearGradient id="paint3_linear" x1="145.457" y1="132.933" x2="114.889" y2="149.344" gradientUnits="userSpaceOnUse">
<stop stop-color="#59BDEF"/>
<stop offset="1" stop-color="#7BDAFF"/>
</linearGradient>
<linearGradient id="paint4_linear" x1="51.4513" y1="28.2166" x2="16.3511" y2="39.9843" gradientUnits="userSpaceOnUse">
<stop stop-color="#59BDEF"/>
<stop offset="1" stop-color="#7BDAFF"/>
</linearGradient>
<linearGradient id="paint5_linear" x1="36.9669" y1="90.2285" x2="175.56" y2="90.2285" gradientUnits="userSpaceOnUse">
<stop stop-color="#59BDEF"/>
<stop offset="1" stop-color="#7BDAFF"/>
</linearGradient>
<linearGradient id="paint6_linear" x1="151.857" y1="206.763" x2="151.796" y2="179.937" gradientUnits="userSpaceOnUse">
<stop offset="0.7677" stop-color="#59BDEF"/>
<stop offset="0.8452" stop-color="#55B8EB"/>
<stop offset="0.9318" stop-color="#49ABE1"/>
<stop offset="1" stop-color="#3A9BD5"/>
</linearGradient>
<linearGradient id="paint7_linear" x1="207.748" y1="174.267" x2="161.449" y2="174.126" gradientUnits="userSpaceOnUse">
<stop offset="0.7677" stop-color="#59BDEF"/>
<stop offset="0.8452" stop-color="#55B8EB"/>
<stop offset="0.9318" stop-color="#49ABE1"/>
<stop offset="1" stop-color="#3A9BD5"/>
</linearGradient>
<linearGradient id="paint8_linear" x1="195.782" y1="199.771" x2="176.701" y2="166.9" gradientUnits="userSpaceOnUse">
<stop offset="0.7677" stop-color="#3A9BD5"/>
<stop offset="0.8386" stop-color="#3896D2"/>
<stop offset="0.9179" stop-color="#3189C9"/>
<stop offset="1" stop-color="#2573BA"/>
</linearGradient>
<linearGradient id="paint9_linear" x1="153.079" y1="160.686" x2="147.23" y2="190.413" gradientUnits="userSpaceOnUse">
<stop stop-color="#7BDAFF"/>
<stop offset="1" stop-color="#59BDEF"/>
</linearGradient>
</defs>
</svg>
