<svg width="217" height="216" viewBox="0 0 217 216" fill="none" xmlns="http://www.w3.org/2000/svg">
<path opacity="0.5" d="M213.664 180.953L150.239 214.25C147.411 215.739 143.117 215.898 140.664 214.608L1.65716 141.649C-0.796321 140.359 -0.485058 138.112 2.34377 136.622L65.7682 103.326C68.597 101.836 72.8906 101.678 75.3441 102.968L214.35 175.927C216.804 177.217 216.502 179.464 213.664 180.953Z" fill="#13247A"/>
<path d="M216.007 160.049L202.944 157.985L75.344 91.0177C72.8905 89.7278 68.6061 89.8943 65.7681 91.3756L6.65556 122.408L0 121.351V127.493H0.00916374C8.94044e-06 128.317 0.540131 129.099 1.65702 129.69L140.663 202.649C143.117 203.939 147.401 203.772 150.239 202.291L213.664 168.995C215.238 168.171 216.026 167.106 216.007 166.107V160.049Z" fill="url(#paint0_linear)"/>
<path d="M213.664 162.886L150.239 196.183C147.41 197.672 143.117 197.83 140.663 196.541L1.66595 123.59C-0.787532 122.3 -0.476269 120.053 2.35256 118.564L65.777 85.2672C68.6058 83.7776 72.8994 83.6195 75.3529 84.9094L214.359 157.868C216.804 159.15 216.502 161.397 213.664 162.886Z" fill="url(#paint1_linear)"/>
<path d="M213.665 162.104L150.24 195.4C147.411 196.89 143.118 197.048 140.664 195.758L1.65772 122.799C0.733087 122.317 0.202155 121.693 0.0465237 121.018C-0.145727 121.975 0.376049 122.908 1.65772 123.582L140.664 196.541C143.118 197.83 147.402 197.664 150.24 196.183L213.665 162.886C215.431 161.963 216.21 160.739 215.962 159.641C215.788 160.515 215.019 161.388 213.665 162.104Z" fill="white"/>
<path d="M213.765 157.552L140.087 196.233L2.26172 123.898L75.9395 85.2173L213.765 157.552Z" fill="#0F65B2"/>
<path d="M43.5681 100.363L33.7815 105.498C33.3604 105.723 32.7104 105.748 32.3442 105.556L32.2435 105.506C31.8773 105.315 31.9231 104.974 32.3442 104.749L42.1307 99.6143C42.5519 99.3897 43.2019 99.3647 43.5681 99.5644L43.6688 99.6143C44.0441 99.7974 43.9892 100.139 43.5681 100.363Z" fill="#0063AD"/>
<path d="M20.2045 124.53L18.9686 125.179L16.0391 123.64L17.2749 122.991L20.2045 124.53Z" fill="white"/>
<path d="M22.4857 123.332L21.2498 123.981L18.3203 122.45L19.5562 121.801L22.4857 123.332Z" fill="white"/>
<path d="M24.7559 122.142L23.52 122.791L20.5996 121.251L21.8355 120.602L24.7559 122.142Z" fill="white"/>
<path d="M27.0355 120.944L25.7997 121.593L22.8701 120.061L24.106 119.412L27.0355 120.944Z" fill="white"/>
<path d="M68.8723 9.42892C71.28 9.42892 73.23 11.2015 73.23 13.3902C73.23 15.5789 71.28 17.3515 68.8723 17.3515C66.4646 17.3515 64.5146 15.5789 64.5146 13.3902C64.5146 11.2015 66.4646 9.42892 68.8723 9.42892Z" fill="white"/>
<path d="M54.8118 9.42892C57.2195 9.42892 59.1695 11.2015 59.1695 13.3902C59.1695 15.5789 57.2195 17.3515 54.8118 17.3515C52.404 17.3515 50.4541 15.5789 50.4541 13.3902C50.4633 11.2015 52.4132 9.42892 54.8118 9.42892Z" fill="#7BDAFF"/>
<path opacity="0.5" d="M40.759 9.42892C43.1668 9.42892 45.1167 11.2015 45.1167 13.3902C45.1167 15.5789 43.1668 17.3515 40.759 17.3515C38.3513 17.3515 36.4014 15.5789 36.4014 13.3902C36.4014 11.2015 38.3513 9.42892 40.759 9.42892Z" fill="#7BDAFF"/>
<path opacity="0.1" d="M26.6955 9.42896C29.1032 9.42896 31.0532 11.2015 31.0532 13.3902C31.0532 15.5789 29.1032 17.3515 26.6955 17.3515C24.2879 17.3515 22.3379 15.5789 22.3379 13.3902C22.3379 11.2015 24.2879 9.42896 26.6955 9.42896Z" fill="#7BDAFF"/>
<path opacity="0.6" d="M93.1596 144.936C106.76 144.936 117.786 139.15 117.786 132.012C117.786 124.874 106.76 119.088 93.1596 119.088C79.5588 119.088 68.5332 124.874 68.5332 132.012C68.5332 139.15 79.5588 144.936 93.1596 144.936Z" fill="#041860"/>
<path d="M93.1592 152.243C83.3728 152.243 73.5772 150.287 66.1252 146.376C58.8379 142.556 54.8281 137.455 54.8281 132.012C54.8281 126.569 58.8379 121.476 66.1252 117.656C81.0292 109.834 105.28 109.834 120.193 117.656C127.481 121.476 131.49 126.578 131.49 132.02C131.49 137.455 127.481 142.556 120.193 146.376C112.732 150.287 102.946 152.243 93.1592 152.243ZM93.1592 112.372C83.4918 112.372 73.8152 114.303 66.4547 118.164C59.3872 121.876 55.4873 126.794 55.4873 132.004C55.4873 137.221 59.3781 142.131 66.4547 145.843C81.1756 153.574 105.143 153.574 119.864 145.843C126.931 142.131 130.831 137.213 130.831 132.004C130.831 126.786 126.94 121.876 119.864 118.164C112.494 114.311 102.827 112.372 93.1592 112.372Z" fill="white"/>
<path d="M192.783 55.8324L87.0814 0.357993C86.2575 -0.0747499 85.5068 -0.0997115 84.9301 0.19988V0.191556L83.3555 1.02376C83.3555 1.02376 83.7216 1.07369 84.0787 1.1153C83.8864 1.52307 83.7766 2.02239 83.7766 2.61325V68.8147C83.7766 71.02 85.2505 73.5832 87.0723 74.5402L192.774 130.015C192.975 130.123 193.167 130.198 193.36 130.256V131.005L194.943 130.164H194.934C195.63 129.798 196.079 128.949 196.079 127.743V61.5413C196.079 59.3526 194.605 56.7894 192.783 55.8324Z" fill="white"/>
<path d="M191.254 130.838L85.5525 75.3641C83.7307 74.407 82.2568 71.8439 82.2568 69.6385V3.43709C82.2568 1.23176 83.7307 0.216478 85.5525 1.17351L191.254 56.6479C193.076 57.6049 194.549 60.1681 194.549 62.3734V128.575C194.549 130.78 193.076 131.795 191.254 130.838Z" fill="url(#paint2_linear)"/>
<path d="M159.733 60.085V50.6312L161.94 51.7879C162.361 52.0043 162.718 52.2373 163.029 52.4786C163.34 52.72 163.615 52.9946 163.853 53.3025C164.091 53.6104 164.274 53.9516 164.402 54.3428C164.521 54.7256 164.585 55.1417 164.585 55.5911C164.585 56.7561 164.137 57.1723 163.258 56.8477C163.789 57.2305 164.192 57.6882 164.448 58.2042C164.713 58.7201 164.842 59.3276 164.851 60.0267C164.851 60.9255 164.64 61.4914 164.21 61.7327C163.78 61.974 163.148 61.8742 162.324 61.4414L159.733 60.085ZM161.372 55.3497L161.885 55.616C162.37 55.8657 162.699 55.9323 162.883 55.8158C163.066 55.6909 163.157 55.3747 163.157 54.8671C163.157 54.6008 163.13 54.3677 163.066 54.1763C163.002 53.9766 162.91 53.8018 162.764 53.6437C162.626 53.4856 162.461 53.3525 162.297 53.236C162.123 53.1194 161.894 52.9863 161.61 52.8365L161.381 52.72V55.3497H161.372ZM161.372 59.7271L161.976 60.0433C162.461 60.3013 162.8 60.3596 162.992 60.2181C163.185 60.0766 163.276 59.7354 163.276 59.1779C163.276 58.6036 163.166 58.1376 162.956 57.7714C162.745 57.4053 162.388 57.089 161.885 56.831L161.372 56.5564V59.7271Z" fill="white"/>
<path d="M165.427 63.0725L167.258 54.584L168.97 55.4828L170.791 65.8936L169.263 65.0947L168.896 62.7063L167.34 61.8907L166.974 63.888L165.427 63.0725ZM167.514 60.8505L168.722 61.4829L168.118 57.2887L167.514 60.8505Z" fill="white"/>
<path d="M171.679 66.3514V56.8976L172.805 57.4885L175.011 63.9963V58.6452L176.366 59.3609V68.8147L175.295 68.2488L173.07 61.458V67.0837L171.679 66.3514Z" fill="white"/>
<path d="M177.712 69.522V60.0683L179.351 60.9338V65.0365L181.118 61.8575L182.683 62.6814L180.962 66.0102L182.866 72.2267L181.227 71.3695L179.671 66.11L179.341 66.5511V70.3792L177.712 69.522Z" fill="white"/>
<path d="M111.434 75.2226L91.3662 64.6869V62.2486L111.434 72.7842V75.2226Z" fill="white"/>
<path d="M136.096 88.1633L116.038 77.636V75.1976L136.096 85.7249V88.1633Z" fill="white"/>
<path d="M160.76 101.112L140.702 90.5767V88.1384L160.76 98.674V101.112Z" fill="white"/>
<path d="M185.432 114.053L165.364 103.526V101.087L185.432 111.615V114.053Z" fill="white"/>
<path opacity="0.2" d="M106.023 27.2213L82.248 25.4737V69.6468C82.248 71.8522 83.7219 74.4153 85.5438 75.3724L131.281 99.3813C143.1 84.1521 140.427 60.8172 140.427 60.8172L106.023 27.2213Z" fill="#041860"/>
<path d="M132.304 65.9603L97.8916 32.3727L63.4787 29.8428C63.4787 29.8428 57.9493 72.2517 97.8916 117.232C137.834 114.178 132.304 65.9603 132.304 65.9603Z" fill="url(#paint3_linear)"/>
<path d="M63.4803 29.8428L55.7354 33.904L90.1482 36.4338L97.8932 32.3727L63.4803 29.8428Z" fill="url(#paint4_linear)"/>
<path d="M124.56 70.0297L90.1475 36.4421L75.9942 35.1439L55.7346 33.9122C55.7346 33.9122 50.2051 76.3211 90.1475 121.301C130.09 118.239 124.56 70.0297 124.56 70.0297Z" fill="url(#paint5_linear)"/>
<path d="M124.562 70.0297L90.1492 36.4422L55.7363 33.9123C56.7067 33.4046 56.7067 33.4046 56.7067 33.4046L91.5774 35.9678L125.99 69.5554C125.99 69.5554 130.604 109.859 100.86 119.096C129.03 109.027 124.562 70.0297 124.562 70.0297Z" fill="white"/>
<path opacity="0.2" d="M120.384 70.5457L89.4405 40.3452L76.7154 39.1801L58.4973 38.0733C58.4973 38.0733 53.5263 76.2046 89.4405 116.641C125.355 113.895 120.384 70.5457 120.384 70.5457Z" fill="white"/>
<path d="M67.5392 49.5026L66.3223 48.3963L65.1053 49.5026L66.3223 50.6089L67.5392 49.5026Z" fill="white"/>
<path d="M71.9533 49.4762L70.7363 48.3699L69.5193 49.4762L70.7363 50.5825L71.9533 49.4762Z" fill="white"/>
<path d="M69.7443 47.4981L68.5273 46.3918L67.3104 47.4981L68.5274 48.6044L69.7443 47.4981Z" fill="white"/>
<path d="M69.7443 51.4808L68.5273 50.3745L67.3104 51.4808L68.5273 52.5871L69.7443 51.4808Z" fill="white"/>
<path d="M194.092 43.6074L191.584 41.3271L197.599 35.8596L191.584 30.392L194.092 28.1118L202.615 35.8596L194.092 43.6074ZM192.591 41.3271L194.092 42.6919L201.618 35.8513L194.092 29.0106L192.591 30.3754L198.606 35.8429L192.591 41.3271Z" fill="white"/>
<path opacity="0.5" d="M184.763 28.5696L182.758 30.3921L188.782 35.8597L182.758 41.3272L184.763 43.1497L190.787 37.6822L192.792 35.8597L184.763 28.5696Z" fill="#7BDAFF"/>
<path d="M144.895 175.611C144.648 175.611 144.437 175.436 144.419 175.211C144.401 174.97 144.593 174.762 144.859 174.737C152.128 174.213 159.387 172.207 165.32 169.095C171.765 165.716 175.619 162.346 176.781 159.092C176.864 158.867 177.129 158.734 177.386 158.809C177.642 158.884 177.779 159.133 177.697 159.358C176.452 162.828 172.451 166.357 165.796 169.852C159.744 173.031 152.338 175.07 144.932 175.611C144.923 175.611 144.904 175.611 144.895 175.611Z" fill="white"/>
<path d="M177.624 157.319C177.368 157.319 177.157 157.136 177.148 156.895C177.047 154.298 174.969 151.868 171.142 149.863C162.683 145.427 151.652 145.444 140.08 149.929C139.833 150.021 139.549 149.921 139.448 149.696C139.348 149.471 139.458 149.213 139.705 149.122C151.56 144.528 162.894 144.52 171.618 149.105C175.747 151.269 177.99 153.957 178.1 156.861C178.109 157.103 177.899 157.302 177.633 157.311C177.633 157.319 177.633 157.319 177.624 157.319Z" fill="white"/>
<path d="M137.562 175.594C137.544 175.594 137.534 175.594 137.516 175.594C133.479 175.253 129.918 174.321 127.226 172.914C124.242 171.35 122.383 169.236 121.852 166.798C121.779 166.457 121.889 166.115 122.163 165.824C122.639 165.325 123.537 165.05 124.525 165.1C125.651 165.158 126.539 165.624 126.741 166.274C127.272 167.963 128.645 169.403 130.806 170.534C138.322 174.479 152.786 173.297 163.049 167.913C169.677 164.434 173.174 160.889 173.174 157.66C173.174 155.388 171.398 153.258 168.047 151.494C159.387 146.95 147.641 147.907 135.804 154.115C131.538 156.354 128.471 159.1 127.18 161.846C126.915 162.412 126.109 162.795 125.12 162.82C124.15 162.837 123.308 162.529 122.951 162.013C122.731 161.705 122.713 161.339 122.887 161.014C124.626 157.802 128.151 154.739 133.058 152.168C133.287 152.043 133.579 152.118 133.717 152.326C133.854 152.534 133.772 152.8 133.543 152.925C128.801 155.413 125.413 158.343 123.756 161.405C123.729 161.447 123.729 161.48 123.766 161.538C123.912 161.746 124.425 161.954 125.102 161.946C125.798 161.929 126.228 161.68 126.301 161.505C127.675 158.584 130.879 155.696 135.328 153.358C147.467 146.983 159.57 146.026 168.533 150.736C172.204 152.659 174.144 155.055 174.144 157.66C174.144 161.272 170.574 164.975 163.534 168.67C152.997 174.196 138.102 175.378 130.33 171.292C127.968 170.052 126.411 168.404 125.816 166.507C125.743 166.274 125.212 166.007 124.48 165.966C123.711 165.924 123.125 166.157 122.905 166.39C122.795 166.507 122.804 166.59 122.813 166.615C123.289 168.795 124.992 170.709 127.72 172.149C130.293 173.497 133.717 174.387 137.617 174.72C137.882 174.745 138.075 174.953 138.047 175.195C138.02 175.428 137.809 175.594 137.562 175.594Z" fill="white"/>
<path d="M149.682 171.084C148.913 171.084 148.162 170.842 147.759 170.443C147.457 170.143 147.366 169.76 147.494 169.411C147.668 168.936 148.217 168.57 148.977 168.429C152.245 167.83 155.404 166.756 158.122 165.333C162.572 163.003 165.089 160.664 165.41 158.592C165.565 157.56 165.172 156.595 164.238 155.713C163.917 155.413 163.789 155.047 163.89 154.673C164.009 154.207 164.467 153.824 165.144 153.607C166.316 153.233 167.772 153.458 168.458 154.123C169.767 155.388 170.372 156.778 170.243 158.268C170.06 160.431 168.339 162.662 165.135 164.909C164.924 165.058 164.622 165.017 164.458 164.825C164.293 164.634 164.339 164.359 164.549 164.21C167.534 162.121 169.127 160.09 169.291 158.193C169.401 156.961 168.879 155.796 167.762 154.714C167.387 154.348 166.325 154.148 165.465 154.423C165.044 154.556 164.86 154.747 164.833 154.864C164.824 154.889 164.805 154.972 164.934 155.089C166.087 156.171 166.572 157.386 166.371 158.7C166.005 161.089 163.396 163.569 158.617 166.082C155.815 167.555 152.547 168.662 149.178 169.286C148.721 169.369 148.464 169.552 148.418 169.685C148.409 169.71 148.391 169.76 148.492 169.86C148.748 170.118 149.471 170.31 150.185 170.168C153.911 169.436 157.5 168.204 160.558 166.598C160.787 166.473 161.079 166.548 161.217 166.756C161.345 166.964 161.272 167.23 161.043 167.355C157.903 169.003 154.213 170.276 150.387 171.017C150.14 171.059 149.911 171.084 149.682 171.084Z" fill="white"/>
<path d="M142.057 171.758C142.021 171.758 141.984 171.758 141.948 171.758C138.414 171.658 135.365 170.984 133.132 169.81C130.605 168.487 129.277 166.631 129.277 164.451C129.277 161.139 132.472 157.477 137.819 154.673C146.296 150.22 154.764 148.797 161.667 150.645C162.409 150.845 162.921 151.236 163.077 151.71C163.196 152.076 163.095 152.451 162.793 152.759C162.17 153.408 160.761 153.666 159.589 153.349C154.654 152.001 148.429 152.958 142.057 156.029C141.819 156.146 141.728 156.262 141.728 156.337C141.728 156.42 141.838 156.528 142.003 156.612C142.524 156.886 143.431 156.895 143.98 156.637C150.315 153.591 156.229 153.033 160.184 155.114C161.777 155.954 162.619 157.044 162.619 158.284C162.619 160.315 160.422 162.495 156.101 164.767C150.169 167.88 142.35 168.845 138.67 166.914C137.517 166.307 136.821 165.458 136.656 164.459C136.436 163.136 137.114 161.646 138.634 160.157C138.725 160.074 138.707 160.024 138.707 160.007C138.688 159.916 138.542 159.782 138.267 159.674C137.526 159.4 136.537 159.566 136.208 159.882C134.541 161.53 133.754 163.228 133.992 164.684C134.184 165.849 135.008 166.823 136.446 167.58C137.892 168.337 139.888 168.803 142.204 168.928C143.431 168.995 144.319 169.544 144.355 170.285C144.374 170.618 144.245 170.909 143.98 171.15C143.55 171.525 142.845 171.758 142.057 171.758ZM155.405 150.728C150.095 150.728 144.209 152.326 138.304 155.43C133.251 158.076 130.239 161.455 130.239 164.451C130.239 166.307 131.401 167.896 133.617 169.053C135.713 170.152 138.606 170.784 141.975 170.876C142.607 170.892 143.083 170.709 143.284 170.518C143.33 170.476 143.394 170.401 143.385 170.335C143.376 170.11 142.891 169.819 142.14 169.777C139.668 169.652 137.535 169.145 135.96 168.312C134.285 167.43 133.278 166.215 133.04 164.792C132.756 163.07 133.626 161.106 135.493 159.266C136.134 158.634 137.572 158.443 138.624 158.842C139.183 159.05 139.54 159.391 139.641 159.791C139.723 160.115 139.613 160.448 139.338 160.723C138.048 161.996 137.434 163.261 137.608 164.301C137.736 165.042 138.249 165.658 139.155 166.132C142.57 167.921 149.958 166.964 155.625 163.985C159.525 161.938 161.667 159.907 161.667 158.259C161.667 157.344 161.008 156.528 159.708 155.846C156.046 153.924 150.48 154.481 144.438 157.386C143.595 157.793 142.35 157.777 141.536 157.344C141.05 157.086 140.767 156.703 140.776 156.295C140.785 155.871 141.087 155.488 141.618 155.23C148.219 152.051 154.7 151.078 159.873 152.484C160.761 152.725 161.74 152.509 162.079 152.159C162.198 152.035 162.17 151.96 162.161 151.926C162.116 151.777 161.859 151.577 161.402 151.452C159.516 150.978 157.511 150.728 155.405 150.728Z" fill="white"/>
<path d="M144.345 165.974C143.173 165.974 142.202 165.791 141.497 165.425C140.728 165.017 140.316 164.418 140.316 163.685C140.316 162.121 142.166 160.215 145.269 158.584C150.304 155.938 154.708 155.222 157.344 156.603C158.479 157.194 158.736 157.943 158.745 158.459C158.782 159.732 157.472 161.172 154.863 162.72C154.049 163.203 152.675 163.228 151.806 162.77C151.339 162.52 151.064 162.154 151.046 161.763C151.037 161.372 151.266 161.022 151.705 160.764C153.801 159.524 153.801 159.017 153.801 159.017C153.215 158.709 151.449 158.975 148.235 160.656C146.011 161.821 145.095 162.82 145.095 163.103C145.095 163.344 144.885 163.544 144.619 163.544C144.354 163.544 144.143 163.352 144.134 163.111C144.125 161.904 146.908 160.348 147.759 159.907C149.956 158.75 152.868 157.527 154.241 158.243C154.57 158.418 154.753 158.684 154.763 159C154.772 159.433 154.525 160.157 152.227 161.513C152.089 161.597 152.007 161.688 152.007 161.755C152.007 161.813 152.08 161.921 152.282 162.029C152.84 162.321 153.82 162.312 154.332 162.004C157.372 160.207 157.802 159.033 157.784 158.501C157.775 158.068 157.463 157.694 156.859 157.377C155.761 156.803 152.465 155.838 145.745 159.358C143.026 160.781 141.268 162.487 141.268 163.702C141.268 164.118 141.497 164.443 141.964 164.684C143.136 165.3 145.434 165.267 148.107 164.592C148.363 164.526 148.629 164.667 148.702 164.9C148.775 165.133 148.62 165.375 148.363 165.441C146.89 165.791 145.516 165.974 144.345 165.974Z" fill="white"/>
<path d="M136.381 150.928C136.326 150.928 136.28 150.919 136.225 150.894L123.555 144.245C123.408 144.17 123.363 143.995 123.445 143.862C123.527 143.729 123.71 143.688 123.866 143.762L136.536 150.412C136.683 150.487 136.729 150.661 136.646 150.795C136.582 150.878 136.481 150.928 136.381 150.928Z" fill="white"/>
<defs>
<linearGradient id="paint0_linear" x1="14.6744" y1="102.126" x2="189.913" y2="203.699" gradientUnits="userSpaceOnUse">
<stop stop-color="#3A9BD5"/>
<stop offset="0.3053" stop-color="#3A9BD5"/>
<stop offset="0.3555" stop-color="#3A9BD5"/>
<stop offset="0.5988" stop-color="#3999D4"/>
<stop offset="0.6883" stop-color="#3592CF"/>
<stop offset="0.7522" stop-color="#2F86C7"/>
<stop offset="0.8039" stop-color="#2676BC"/>
<stop offset="0.8102" stop-color="#2573BA"/>
</linearGradient>
<linearGradient id="paint1_linear" x1="19.6916" y1="158.034" x2="177.507" y2="84.8338" gradientUnits="userSpaceOnUse">
<stop stop-color="#59BDEF"/>
<stop offset="1" stop-color="#7BDAFF"/>
</linearGradient>
<linearGradient id="paint2_linear" x1="232.948" y1="130.225" x2="40.2315" y2="108.793" gradientUnits="userSpaceOnUse">
<stop stop-color="#59BDEF"/>
<stop offset="1" stop-color="#7BDAFF"/>
</linearGradient>
<linearGradient id="paint3_linear" x1="87.9368" y1="65.3809" x2="189.56" y2="99.6858" gradientUnits="userSpaceOnUse">
<stop stop-color="#2573BA"/>
<stop offset="0.907" stop-color="#0364AE"/>
<stop offset="1" stop-color="#0063AD"/>
</linearGradient>
<linearGradient id="paint4_linear" x1="97.8929" y1="33.1382" x2="55.7372" y2="33.1382" gradientUnits="userSpaceOnUse">
<stop stop-color="#0063AD"/>
<stop offset="1" stop-color="#2573BA"/>
</linearGradient>
<linearGradient id="paint5_linear" x1="55.4763" y1="60.6648" x2="124.822" y2="60.6648" gradientUnits="userSpaceOnUse">
<stop stop-color="#7BDAFF"/>
<stop offset="1" stop-color="#59BDEF"/>
</linearGradient>
</defs>
</svg>
