<svg width="217" height="216" viewBox="0 0 217 216" fill="none" xmlns="http://www.w3.org/2000/svg">
<path opacity="0.6" d="M40.2922 116.856L22.3223 106.452L36.6027 98.1905L54.5726 108.586L40.2922 116.856Z" fill="#041860"/>
<path d="M40.9977 120.766L15.5664 106.047L35.9041 94.2807L61.3355 109L40.9977 120.766ZM16.787 106.047L40.9977 120.057L60.1057 109L35.895 94.9891L16.787 106.047Z" fill="white"/>
<path d="M40.2922 92.8088L22.3223 82.4043L36.6027 74.1433L54.5726 84.5386L40.2922 92.8088Z" fill="url(#paint0_linear)"/>
<path d="M54.5725 95.6975V84.5386L40.292 92.8089V103.959L54.5725 95.6975Z" fill="url(#paint1_linear)"/>
<path d="M22.3223 82.4043V93.5632L40.2921 103.958V92.8088L22.3223 82.4043Z" fill="url(#paint2_linear)"/>
<path d="M33.3696 79.7917L25.5869 84.2994V86.7097L27.8997 88.0528V85.6334L35.6824 81.1349L33.3696 79.7917Z" fill="white"/>
<path d="M38.3149 82.6526L30.5322 87.1603V89.5705L32.845 90.9045V88.4942L40.6185 83.9865L38.3149 82.6526Z" fill="white"/>
<path d="M43.2612 85.5137L35.4785 90.0214V92.4316L37.7913 93.7747V91.3553L45.5648 86.8568L43.2612 85.5137Z" fill="white"/>
<path d="M33.3701 79.7917V80.7668L34.8569 81.6131L35.6829 81.1348L33.3701 79.7917Z" fill="#A9EBFF"/>
<path d="M26.4322 86.2128L25.5879 86.7096L27.9007 88.0527V87.0408L26.4322 86.2128Z" fill="#A9EBFF"/>
<path d="M33.3715 79.7917L25.5889 84.2994V86.7097L26.4332 86.2129V84.787L33.3807 80.7669L33.3715 79.7917Z" fill="url(#paint3_linear)"/>
<path d="M38.3164 82.6527V83.6278L39.794 84.465L40.62 83.9866L38.3164 82.6527Z" fill="#A9EBFF"/>
<path d="M31.3694 89.0739L30.5342 89.5706L32.847 90.9045V89.9018L31.3694 89.0739Z" fill="#A9EBFF"/>
<path d="M38.3168 82.6527L30.5342 87.1604V89.5706L31.3694 89.0738V87.6479L38.3168 83.6278V82.6527Z" fill="url(#paint4_linear)"/>
<path d="M43.2627 85.5137V86.4888L44.7403 87.3352L45.5663 86.8568L43.2627 85.5137Z" fill="#A9EBFF"/>
<path d="M36.3147 91.9348L35.4795 92.4316L37.7923 93.7747V92.7627L36.3147 91.9348Z" fill="#A9EBFF"/>
<path d="M43.2641 85.5137L35.4814 90.0214V92.4316L36.3166 91.9349V90.509L43.2641 86.4888V85.5137Z" fill="url(#paint5_linear)"/>
<path d="M133.609 215.483C112.527 215.483 91.4555 210.837 75.4037 201.555C59.8016 192.521 51.2021 180.497 51.2021 167.692C51.2021 154.886 59.7925 142.863 75.4037 133.829C107.489 115.255 159.71 115.255 191.804 133.829C207.406 142.863 216.006 154.886 216.006 167.692C216.006 180.497 207.416 192.521 191.804 201.555C175.762 210.837 154.681 215.483 133.609 215.483ZM133.609 120.508C112.638 120.508 91.6758 125.126 75.7158 134.362C60.3064 143.277 51.8262 155.116 51.8262 167.692C51.8262 180.267 60.3064 192.107 75.7158 201.021C107.636 219.493 159.581 219.493 191.501 201.021C206.911 192.107 215.391 180.267 215.391 167.692C215.391 155.116 206.902 143.277 191.501 134.362C175.541 125.126 154.57 120.508 133.609 120.508Z" fill="white"/>
<path opacity="0.5" d="M133.608 201.748C166.114 201.748 192.465 186.5 192.465 167.692C192.465 148.883 166.114 133.636 133.608 133.636C101.103 133.636 74.752 148.883 74.752 167.692C74.752 186.5 101.103 201.748 133.608 201.748Z" fill="#13247A"/>
<path d="M171.092 35.377L110.841 0.474516C109.868 -0.0866469 108.978 -0.132644 108.29 0.244531L104.196 2.63637L106.867 4.25546V145.77C106.867 148.695 108.647 152.099 110.832 153.368L170.386 187.866L169.532 190.893L173.653 188.492H173.644C174.497 188.013 175.039 186.882 175.039 185.263V42.9757C175.057 40.0411 173.277 36.6465 171.092 35.377Z" fill="url(#paint6_linear)"/>
<path d="M166.906 190.699L106.654 155.797C104.461 154.527 102.689 151.124 102.689 148.198V5.9205C102.689 2.99509 104.47 1.64278 106.654 2.9123L166.906 37.8148C169.099 39.0843 170.87 42.4881 170.87 45.4135V187.691C170.87 190.626 169.099 191.969 166.906 190.699Z" fill="url(#paint7_linear)"/>
<path d="M170.871 187.793L102.681 148.3V5.81944L170.871 45.3124V187.793Z" fill="#0F65B2"/>
<path opacity="0.4" d="M159.976 190.534L99.1191 155.282C96.8339 153.957 95.4297 151.519 95.4297 148.879V14.8807C95.4297 13.0041 97.4488 11.8358 99.0732 12.7741L159.931 48.0261C162.216 49.3509 163.62 51.7887 163.62 54.4289V188.427C163.62 190.295 161.601 191.463 159.976 190.534Z" fill="white"/>
<path d="M161.198 191.132C160.739 191.132 160.271 191.012 159.848 190.764L98.9912 155.512C96.6325 154.15 95.1641 151.602 95.1641 148.87V14.8808C95.1641 13.9056 95.6688 13.0317 96.5132 12.5441C97.3575 12.0566 98.3671 12.0566 99.2114 12.5441L160.069 47.7962C162.427 49.1577 163.896 51.7059 163.896 54.4381V188.427C163.896 189.402 163.391 190.276 162.547 190.764C162.124 191.012 161.656 191.132 161.198 191.132ZM97.8623 12.7189C97.4952 12.7189 97.1189 12.8201 96.7793 13.0133C96.1002 13.3997 95.6964 14.108 95.6964 14.89V148.888C95.6964 151.427 97.0547 153.792 99.2481 155.061L160.105 190.313C160.785 190.709 161.592 190.709 162.262 190.313C162.941 189.927 163.345 189.218 163.345 188.436V54.4289C163.345 51.8899 161.987 49.5257 159.793 48.2561L98.9361 13.0041C98.5965 12.8109 98.2294 12.7189 97.8623 12.7189Z" fill="white"/>
<path d="M141.282 26.3341L132.269 21.118C131.967 20.9432 131.719 20.4648 131.719 20.0601C131.719 19.6553 131.967 19.4621 132.269 19.6369L141.282 24.853C141.585 25.0277 141.833 25.5061 141.833 25.9109C141.833 26.3249 141.585 26.5089 141.282 26.3341Z" fill="#0063AD"/>
<path opacity="0.2" d="M144.988 107.206C146.218 107.923 147.218 107.16 147.218 105.513V56.0297C147.218 54.383 146.218 52.4695 144.988 51.752L95.6214 23.1879C95.5021 23.7582 95.4287 24.3562 95.4287 24.9726V78.5222L144.988 107.206Z" fill="#041860"/>
<path d="M107.894 88.8714L107.903 90.1041C106.847 89.6165 105.507 89.3957 103.92 89.5061C98.3304 89.9201 91.8234 94.345 89.3914 99.3955C88.7122 100.794 88.4277 102.091 88.4736 103.232L87.3447 102.854L88.5653 104.658V104.648C89.5749 106.221 91.6307 107.105 94.4758 106.893C100.065 106.479 106.572 102.054 109.004 97.0036C110.225 94.4738 110.197 92.2751 109.16 90.7481L107.894 88.8714Z" fill="#F4A856"/>
<path d="M107.728 95.127C105.287 100.177 98.7797 104.612 93.1997 105.016C87.6105 105.43 85.0591 101.659 87.5003 96.6081C89.9416 91.5576 96.4486 87.1235 102.029 86.7187C107.609 86.314 110.169 90.0673 107.728 95.127Z" fill="#FCCC6B"/>
<path d="M107.728 95.127C105.287 100.177 98.7797 104.612 93.1997 105.016C87.6105 105.43 85.0591 101.659 87.5003 96.6081C89.9416 91.5576 96.4486 87.1235 102.029 86.7187C107.609 86.314 110.169 90.0673 107.728 95.127Z" fill="url(#paint8_radial)"/>
<path d="M101.12 100.895C98.8808 102.431 96.2927 103.48 93.9156 103.655C91.612 103.82 89.8316 103.167 88.9046 101.797C87.9777 100.426 88.0236 98.5307 89.0331 96.4425C91.0889 92.1739 96.6047 88.4206 101.322 88.0802C103.626 87.9146 105.406 88.5678 106.333 89.9385C107.26 91.3092 107.214 93.2043 106.205 95.2925C105.186 97.3992 103.314 99.3863 101.12 100.895ZM94.2277 91.0056C92.0617 92.4959 90.2262 94.4462 89.2167 96.5345C88.2438 98.5491 88.1888 100.38 89.0698 101.677C89.9509 102.974 91.6671 103.609 93.8973 103.443C98.5504 103.103 103.984 99.4047 106.012 95.2005C106.985 93.1859 107.04 91.3552 106.159 90.0581C105.278 88.761 103.561 88.1262 101.331 88.2918C98.9817 88.4574 96.4303 89.4877 94.2277 91.0056Z" fill="#F4A856"/>
<path d="M106.104 95.2465C104.057 99.4874 98.5964 103.204 93.9066 103.554C89.2168 103.894 87.0784 100.739 89.1251 96.4976C91.1717 92.2567 96.6324 88.5402 101.322 88.1906C106.012 87.841 108.16 90.9964 106.104 95.2465Z" fill="url(#paint9_radial)"/>
<path d="M89.4 96.9025C91.4466 92.6616 96.9074 88.945 101.597 88.5954C103.818 88.4299 105.461 89.0554 106.37 90.2053C105.553 88.7978 103.791 87.9975 101.322 88.1815C96.632 88.5219 91.1713 92.2476 89.1247 96.4885C88.0417 98.724 88.1335 100.656 89.143 101.944C88.4088 100.674 88.4364 98.9079 89.4 96.9025Z" fill="#F4A856"/>
<path d="M107.464 94.7313C105.022 99.7818 98.5155 104.216 92.9355 104.621C90.2647 104.814 88.2824 104.059 87.2178 102.652C88.1998 104.299 90.2923 105.228 93.2016 105.007C98.7908 104.593 105.298 100.168 107.73 95.1177C109.006 92.4775 108.914 90.196 107.748 88.6689C108.657 90.196 108.629 92.3119 107.464 94.7313Z" fill="#FCE586"/>
<path d="M106.03 101.107C107.278 99.8464 108.306 98.4573 109.004 97.013C110.224 94.4831 110.197 92.2845 109.16 90.7574L107.884 88.8715C107.866 88.8439 107.847 88.8255 107.829 88.7979C107.801 88.7611 107.774 88.7151 107.746 88.6783C107.755 88.6875 107.755 88.7059 107.765 88.7151C106.7 87.2892 104.727 86.5072 102.029 86.7096C98.8715 86.9396 95.4115 88.4575 92.5664 90.6562L102.625 101.097H106.03V101.107Z" fill="#F4A856"/>
<path d="M138.595 55.8365L66.9536 14.3749C66.3937 14.0529 65.8889 14.0345 65.4943 14.2553L64.4297 14.8808C64.4297 14.8808 64.6775 14.9176 64.9253 14.9544C64.7968 15.258 64.7234 15.6352 64.7234 16.0767V65.551C64.7234 67.1977 65.7237 69.1112 66.9536 69.8288L138.595 111.29C138.732 111.373 138.861 111.428 138.989 111.465V112.026L140.063 111.401H140.054C140.531 111.125 140.825 110.49 140.825 109.589V60.105C140.834 58.4675 139.834 56.554 138.595 55.8365Z" fill="white"/>
<path d="M137.555 111.898L65.9138 70.436C64.684 69.7184 63.6836 67.805 63.6836 66.1583V16.6748C63.6836 15.0281 64.684 14.2645 65.9138 14.9821L137.555 56.4437C138.785 57.1613 139.785 59.0747 139.785 60.7214V110.205C139.785 111.852 138.785 112.615 137.555 111.898Z" fill="url(#paint10_linear)"/>
<path d="M116.2 59.0194V51.9542L117.696 52.819C117.981 52.9846 118.228 53.1502 118.43 53.3341C118.641 53.5181 118.825 53.7205 118.99 53.9505C119.155 54.1805 119.275 54.4381 119.357 54.7233C119.44 55.0084 119.477 55.3212 119.477 55.6616C119.477 56.5355 119.174 56.8483 118.577 56.5999C118.935 56.8851 119.21 57.2255 119.385 57.6119C119.568 57.9982 119.651 58.449 119.66 58.9734C119.66 59.6449 119.513 60.0681 119.229 60.2521C118.935 60.4269 118.513 60.3625 117.953 60.0313L116.2 59.0194ZM117.311 55.4776L117.659 55.68C117.99 55.8732 118.21 55.9192 118.329 55.8272C118.449 55.7352 118.513 55.496 118.513 55.1188C118.513 54.9164 118.495 54.7509 118.449 54.6037C118.412 54.4565 118.339 54.3277 118.247 54.2081C118.155 54.0885 118.045 53.9873 117.926 53.9045C117.806 53.8125 117.65 53.7205 117.458 53.6009L117.302 53.5089V55.4776H117.311ZM117.311 58.7526L117.714 58.9918C118.045 59.185 118.274 59.231 118.403 59.1206C118.531 59.0194 118.596 58.7526 118.596 58.3478C118.596 57.9246 118.522 57.5751 118.375 57.2991C118.228 57.0231 117.99 56.7931 117.65 56.5907L117.302 56.3883V58.7526H117.311Z" fill="white"/>
<path d="M120.063 61.2457L121.302 54.8981L122.459 55.5697L123.698 63.3524L122.661 62.7544L122.413 60.9697L121.358 60.3625L121.11 61.8621L120.063 61.2457ZM121.477 59.5898L122.294 60.059L121.89 56.922L121.477 59.5898Z" fill="white"/>
<path d="M124.295 63.702V56.6369L125.057 57.0784L126.553 61.9449V57.9432L127.47 58.4767V65.5419L126.745 65.1187L125.24 60.0406V64.2447L124.295 63.702Z" fill="white"/>
<path d="M128.387 66.0662V59.0011L129.497 59.6451V62.7085L130.699 60.335L131.764 60.9514L130.599 63.4352L131.883 68.0809L130.773 67.4369L129.717 63.5088L129.497 63.84V66.701L128.387 66.0662Z" fill="white"/>
<path d="M83.4626 70.3255L69.8613 62.4601V60.6386L83.4626 68.504V70.3255Z" fill="white"/>
<path d="M100.176 80.0032L86.5752 72.1285V70.3071L100.176 78.1817V80.0032Z" fill="white"/>
<path d="M116.898 89.6718L103.297 81.8064V79.9849L116.898 87.8503V89.6718Z" fill="white"/>
<path d="M133.61 99.3495L120.009 91.484V89.6625L133.61 97.528V99.3495Z" fill="white"/>
<path opacity="0.2" d="M137.555 56.4437L65.9138 14.9821C64.684 14.2645 63.6836 15.0281 63.6836 16.6748V66.1491C63.6836 66.4526 63.7295 66.7562 63.7845 67.069C67.5933 64.3092 83.0944 55.7629 112.702 72.1379C123.476 78.0991 132.489 77.3079 139.794 73.4074V60.7122C139.785 59.0747 138.785 57.1613 137.555 56.4437Z" fill="white"/>
<path opacity="0.2" d="M93.3748 53.9323C103.434 52.6352 111.84 49.5442 118.824 45.6068L65.906 14.9821C64.6762 14.2645 63.6758 15.0281 63.6758 16.6748V64.024C68.9621 59.8567 77.993 55.9193 93.3748 53.9323Z" fill="white"/>
<path d="M109.637 173.662L108.948 174.683C108.361 173.681 107.379 172.742 106.002 171.933C101.166 169.099 93.3004 169.072 88.4362 171.85C87.087 172.623 86.1142 173.524 85.5085 174.499L84.7834 173.552L84.7743 175.723C84.7192 177.6 85.9215 179.485 88.3811 180.93C93.2178 183.763 101.083 183.791 105.947 181.013C108.379 179.623 109.6 177.784 109.609 175.944L109.637 173.662Z" fill="#F4A856"/>
<path d="M105.974 178.731C101.11 181.518 93.2445 181.482 88.4079 178.648C83.5712 175.815 83.5896 171.27 88.4537 168.483C93.3179 165.695 101.183 165.732 106.02 168.566C110.856 171.399 110.838 175.944 105.974 178.731Z" fill="#FCCC6B"/>
<path d="M105.974 178.731C101.11 181.518 93.2445 181.482 88.4079 178.648C83.5712 175.815 83.5896 171.27 88.4537 168.483C93.3179 165.695 101.183 165.732 106.02 168.566C110.856 171.399 110.838 175.944 105.974 178.731Z" fill="url(#paint11_radial)"/>
<path d="M97.2753 179.743C94.5587 179.743 91.8421 179.136 89.7771 177.931C87.7764 176.762 86.6842 175.208 86.6934 173.561C86.7026 171.914 87.8131 170.369 89.823 169.219C93.9254 166.864 100.588 166.901 104.672 169.283C106.673 170.452 107.765 172.006 107.756 173.653C107.747 175.309 106.637 176.845 104.627 177.995C102.598 179.163 99.9368 179.743 97.2753 179.743ZM97.1652 167.683C94.5403 167.683 91.9247 168.253 89.9148 169.403C87.9783 170.516 86.9045 171.988 86.8953 173.561C86.8861 175.134 87.9508 176.624 89.8781 177.747C93.9071 180.102 100.469 180.129 104.516 177.811C106.453 176.698 107.527 175.226 107.536 173.653C107.545 172.08 106.48 170.59 104.553 169.467C102.525 168.281 99.845 167.683 97.1652 167.683Z" fill="#F4A856"/>
<path d="M104.572 177.912C100.487 180.249 93.8887 180.221 89.823 177.848C85.7573 175.474 85.7756 171.647 89.8597 169.311C93.9438 166.974 100.543 167.002 104.608 169.375C108.674 171.749 108.656 175.576 104.572 177.912Z" fill="url(#paint12_radial)"/>
<path d="M89.86 169.808C93.9441 167.471 100.543 167.499 104.609 169.872C106.527 170.994 107.536 172.439 107.637 173.901C107.757 172.273 106.756 170.626 104.618 169.366C100.552 166.993 93.9533 166.965 89.8692 169.302C87.7217 170.534 86.6938 172.181 86.8039 173.809C86.914 172.356 87.9327 170.921 89.86 169.808Z" fill="#F4A856"/>
<path d="M105.985 178.262C101.121 181.049 93.2553 181.012 88.4186 178.179C86.1059 176.827 84.9036 175.079 84.8118 173.313C84.6925 175.226 85.8948 177.176 88.4186 178.648C93.2553 181.482 101.121 181.509 105.985 178.731C108.518 177.277 109.738 175.346 109.637 173.423C109.527 175.189 108.307 176.928 105.985 178.262Z" fill="#FCE586"/>
<path d="M111.775 170.617L111.087 171.638C110.5 170.636 109.518 169.697 108.141 168.888C103.304 166.054 95.439 166.027 90.5748 168.805C89.2257 169.578 88.2529 170.479 87.6471 171.454L86.9221 170.507L86.9129 172.678C86.8579 174.555 88.0601 176.44 90.5198 177.885C95.3564 180.718 103.222 180.746 108.086 177.968C110.518 176.578 111.739 174.739 111.748 172.899L111.775 170.617Z" fill="#F4A856"/>
<path d="M108.114 175.686C103.249 178.473 95.3841 178.437 90.5475 175.603C85.7109 172.77 85.7292 168.225 90.5934 165.438C95.4576 162.651 103.323 162.687 108.159 165.521C112.996 168.345 112.978 172.899 108.114 175.686Z" fill="#FCCC6B"/>
<path d="M108.114 175.686C103.249 178.473 95.3841 178.437 90.5475 175.603C85.7109 172.77 85.7292 168.225 90.5934 165.438C95.4576 162.651 103.323 162.687 108.159 165.521C112.996 168.345 112.978 172.899 108.114 175.686Z" fill="url(#paint13_radial)"/>
<path d="M99.4042 176.698C96.6876 176.698 93.971 176.091 91.906 174.886C89.9053 173.717 88.8131 172.163 88.8223 170.516C88.8315 168.869 89.942 167.324 91.9519 166.174C96.0543 163.819 102.717 163.856 106.801 166.238C108.802 167.407 109.894 168.961 109.885 170.608C109.876 172.255 108.765 173.8 106.755 174.95C104.727 176.118 102.066 176.698 99.4042 176.698ZM99.294 164.628C96.6692 164.628 94.0536 165.199 92.0437 166.349C90.1072 167.462 89.0334 168.934 89.0242 170.507C89.015 172.08 90.0796 173.57 92.007 174.693C96.036 177.048 102.598 177.075 106.645 174.757C108.582 173.644 109.656 172.172 109.665 170.599C109.674 169.026 108.609 167.535 106.682 166.413C104.654 165.226 101.974 164.628 99.294 164.628Z" fill="#F4A856"/>
<path d="M106.71 174.858C102.626 177.195 96.0274 177.167 91.9617 174.794C87.896 172.42 87.9143 168.593 91.9984 166.257C96.0825 163.92 102.681 163.948 106.747 166.321C110.803 168.704 110.785 172.521 106.71 174.858Z" fill="url(#paint14_radial)"/>
<path d="M91.9988 166.763C96.0828 164.426 102.682 164.454 106.747 166.827C108.665 167.949 109.675 169.394 109.776 170.856C109.895 169.228 108.895 167.581 106.756 166.321C102.691 163.948 96.092 163.92 92.0079 166.257C89.8603 167.489 88.8324 169.136 88.9426 170.764C89.0435 169.302 90.0623 167.867 91.9988 166.763Z" fill="#F4A856"/>
<path d="M108.114 175.208C103.249 177.995 95.3842 177.958 90.5475 175.125C88.2347 173.773 87.0325 172.025 86.9407 170.258C86.8214 172.172 88.0237 174.122 90.5475 175.594C95.3842 178.428 103.249 178.455 108.114 175.677C110.647 174.223 111.867 172.292 111.766 170.369C111.656 172.135 110.445 173.874 108.114 175.208Z" fill="#FCE586"/>
<path d="M128.139 185.778L127.45 186.799C126.863 185.796 125.881 184.858 124.504 184.048C119.668 181.215 111.802 181.187 106.938 183.965C105.589 184.738 104.616 185.64 104.01 186.615L103.285 185.667L103.276 187.838C103.221 189.715 104.423 191.601 106.883 193.045C111.72 195.879 119.585 195.906 124.449 193.128C126.881 191.739 128.102 189.899 128.111 188.059L128.139 185.778Z" fill="#F4A856"/>
<path d="M128.14 185.771C128.158 181.803 122.613 178.562 115.755 178.531C108.897 178.5 103.323 181.692 103.306 185.66C103.288 189.628 108.833 192.869 115.691 192.9C122.549 192.931 128.123 189.739 128.14 185.771Z" fill="#FCCC6B"/>
<path d="M124.476 190.846C119.612 193.633 111.746 193.596 106.91 190.763C102.073 187.929 102.092 183.385 106.956 180.597C111.82 177.81 119.685 177.847 124.522 180.68C129.359 183.504 129.34 188.058 124.476 190.846Z" fill="url(#paint15_radial)"/>
<path d="M115.777 191.859C113.061 191.859 110.344 191.251 108.279 190.046C106.278 188.878 105.186 187.323 105.195 185.677C105.205 184.021 106.315 182.484 108.325 181.335C112.427 178.979 119.09 179.016 123.174 181.399C125.175 182.567 126.267 184.122 126.258 185.769C126.249 187.425 125.138 188.961 123.129 190.111C121.091 191.279 118.439 191.859 115.777 191.859ZM115.667 179.798C113.042 179.798 110.427 180.369 108.417 181.518C106.48 182.632 105.406 184.104 105.397 185.677C105.388 187.25 106.453 188.74 108.38 189.862C112.409 192.217 118.971 192.245 123.018 189.927C124.955 188.814 126.029 187.342 126.038 185.769C126.047 184.196 124.982 182.705 123.055 181.583C121.027 180.387 118.347 179.798 115.667 179.798Z" fill="#F4A856"/>
<path d="M123.074 190.019C118.989 192.355 112.391 192.328 108.325 189.954C104.259 187.581 104.278 183.754 108.362 181.417C112.446 179.081 119.045 179.108 123.11 181.482C127.176 183.864 127.158 187.682 123.074 190.019Z" fill="url(#paint16_radial)"/>
<path d="M108.362 181.923C112.446 179.587 119.045 179.614 123.111 181.988C125.029 183.11 126.038 184.554 126.139 186.017C126.258 184.389 125.258 182.733 123.12 181.482C119.054 179.108 112.455 179.081 108.371 181.417C106.224 182.65 105.196 184.297 105.306 185.925C105.416 184.462 106.435 183.027 108.362 181.923Z" fill="#F4A856"/>
<path d="M124.477 190.368C119.613 193.156 111.747 193.119 106.911 190.286C104.598 188.933 103.396 187.185 103.304 185.419C103.185 187.333 104.387 189.283 106.911 190.755C111.747 193.588 119.613 193.616 124.477 190.838C127.01 189.384 128.231 187.452 128.13 185.53C128.02 187.296 126.808 189.034 124.477 190.368Z" fill="#FCE586"/>
<path d="M103.304 190.092L102.615 191.113C102.028 190.111 101.046 189.172 99.6693 188.363C94.8326 185.529 86.9674 185.502 82.1032 188.28C80.7541 189.053 79.7812 189.954 79.1755 190.929L78.4504 189.982L78.4413 192.153C78.3862 194.03 79.5885 195.915 82.0481 197.36C86.8848 200.193 94.75 200.221 99.6142 197.442C102.046 196.053 103.267 194.214 103.276 192.374L103.304 190.092Z" fill="#F4A856"/>
<path d="M103.296 190.094C103.313 186.126 97.7683 182.885 90.9104 182.854C84.0525 182.823 78.4786 186.015 78.4609 189.983C78.4431 193.951 83.9882 197.192 90.8461 197.223C97.704 197.254 103.278 194.062 103.296 190.094Z" fill="#FCCC6B"/>
<path d="M99.6419 195.161C94.7778 197.948 86.9125 197.911 82.0758 195.078C77.2392 192.245 77.2575 187.7 82.1217 184.913C86.9859 182.125 94.8512 182.162 99.6878 184.995C104.524 187.829 104.506 192.373 99.6419 195.161Z" fill="url(#paint17_radial)"/>
<path d="M90.9315 196.173C88.2149 196.173 85.4983 195.566 83.4334 194.361C81.4326 193.192 80.3405 191.638 80.3497 189.991C80.3588 188.344 81.4693 186.799 83.4793 185.649C87.5817 183.294 94.2447 183.331 98.3287 185.713C100.329 186.882 101.422 188.436 101.412 190.083C101.403 191.73 100.293 193.275 98.2829 194.425C96.2546 195.593 93.5931 196.173 90.9315 196.173ZM90.8214 184.113C88.1966 184.113 85.581 184.683 83.571 185.833C81.6346 186.946 80.5608 188.418 80.5516 189.991C80.5424 191.564 81.607 193.054 83.5343 194.177C87.5633 196.532 94.1254 196.559 98.1727 194.241C100.109 193.128 101.183 191.656 101.192 190.083C101.201 188.51 100.137 187.02 98.2094 185.897C96.1812 184.711 93.5013 184.113 90.8214 184.113Z" fill="#F4A856"/>
<path d="M98.2386 194.342C94.1545 196.679 87.5557 196.651 83.49 194.278C79.4243 191.904 79.4426 188.077 83.5267 185.741C87.6108 183.404 94.2096 183.432 98.2753 185.805C102.332 188.179 102.313 192.006 98.2386 194.342Z" fill="url(#paint18_radial)"/>
<path d="M83.5251 186.238C87.6092 183.901 94.2079 183.929 98.2736 186.302C100.192 187.424 101.201 188.869 101.302 190.331C101.422 188.703 100.421 187.056 98.2828 185.796C94.2171 183.423 87.6183 183.395 83.5343 185.732C81.3867 186.964 80.3588 188.611 80.4689 190.239C80.5699 188.786 81.5886 187.351 83.5251 186.238Z" fill="#F4A856"/>
<path d="M99.6419 194.692C94.7778 197.479 86.9125 197.443 82.0759 194.609C79.7631 193.257 78.5608 191.509 78.469 189.743C78.3497 191.656 79.552 193.606 82.0759 195.078C86.9125 197.912 94.7778 197.939 99.6419 195.161C102.175 193.708 103.396 191.776 103.295 189.853C103.185 191.619 101.973 193.358 99.6419 194.692Z" fill="#FCE586"/>
<path d="M115.053 185.52L114.364 186.541C113.777 185.538 112.795 184.6 111.418 183.791C106.582 180.957 98.7163 180.93 93.8522 183.708C92.5031 184.481 91.5302 185.382 90.9245 186.357L90.1995 185.41L90.1903 187.581C90.1352 189.457 91.3375 191.343 93.7971 192.788C98.6338 195.621 106.499 195.649 111.363 192.87C113.795 191.481 115.016 189.641 115.025 187.801L115.053 185.52Z" fill="#F4A856"/>
<path d="M115.055 185.511C115.073 181.543 109.528 178.302 102.67 178.271C95.8123 178.24 90.2384 181.432 90.2206 185.4C90.2029 189.368 95.7479 192.609 102.606 192.64C109.464 192.671 115.038 189.479 115.055 185.511Z" fill="#FCCC6B"/>
<path d="M111.391 190.58C106.527 193.367 98.6615 193.331 93.8249 190.497C88.9882 187.664 89.0066 183.119 93.8708 180.332C98.7349 177.545 106.6 177.581 111.437 180.415C116.273 183.248 116.255 187.802 111.391 190.58Z" fill="url(#paint19_radial)"/>
<path d="M102.691 191.601C99.9747 191.601 97.2581 190.994 95.1931 189.789C93.1924 188.62 92.1003 187.066 92.1094 185.419C92.1186 183.772 93.2291 182.227 95.239 181.077C99.3415 178.722 106.004 178.759 110.089 181.141C112.089 182.309 113.181 183.864 113.172 185.511C113.163 187.158 112.053 188.703 110.043 189.853C108.005 191.021 105.353 191.601 102.691 191.601ZM102.581 179.531C99.9564 179.531 97.3407 180.102 95.3308 181.252C93.3943 182.365 92.3205 183.837 92.3113 185.41C92.3022 186.983 93.3668 188.473 95.2941 189.595C99.3231 191.95 105.885 191.978 109.933 189.66C111.869 188.547 112.943 187.075 112.952 185.502C112.961 183.929 111.897 182.438 109.969 181.316C107.941 180.129 105.261 179.531 102.581 179.531Z" fill="#F4A856"/>
<path d="M109.988 189.761C105.904 192.098 99.3047 192.07 95.239 189.697C91.1733 187.323 91.1917 183.496 95.2757 181.16C99.3598 178.823 105.959 178.851 110.024 181.224C114.09 183.607 114.072 187.424 109.988 189.761Z" fill="url(#paint20_radial)"/>
<path d="M95.2761 181.666C99.3602 179.329 105.959 179.357 110.025 181.73C111.943 182.852 112.952 184.297 113.053 185.759C113.173 184.131 112.172 182.484 110.034 181.224C105.968 178.851 99.3693 178.823 95.2853 181.16C93.1377 182.392 92.1098 184.039 92.2199 185.667C92.33 184.205 93.3488 182.769 95.2761 181.666Z" fill="#F4A856"/>
<path d="M111.391 190.111C106.527 192.898 98.6615 192.861 93.8249 190.028C91.5121 188.676 90.3098 186.928 90.218 185.161C90.0987 187.075 91.301 189.025 93.8249 190.497C98.6615 193.33 106.527 193.358 111.391 190.58C113.924 189.126 115.145 187.194 115.044 185.272C114.934 187.038 113.722 188.777 111.391 190.111Z" fill="#FCE586"/>
<path d="M118.264 183.027L117.575 184.048C116.988 183.046 116.006 182.107 114.629 181.298C109.793 178.464 101.927 178.437 97.0631 181.215C95.714 181.988 94.7412 182.889 94.1354 183.864L93.4104 182.917L93.4012 185.088C93.3462 186.964 94.5484 188.85 97.008 190.295C101.845 193.128 109.71 193.156 114.574 190.377C117.006 188.988 118.227 187.148 118.236 185.309L118.264 183.027Z" fill="#F4A856"/>
<path d="M114.601 188.096C109.737 190.883 101.871 190.847 97.0348 188.013C92.1982 185.18 92.2165 180.635 97.0807 177.848C101.945 175.06 109.81 175.097 114.647 177.931C119.483 180.755 119.465 185.309 114.601 188.096Z" fill="#FCCC6B"/>
<path d="M114.601 188.096C109.737 190.883 101.871 190.847 97.0348 188.013C92.1982 185.18 92.2165 180.635 97.0807 177.848C101.945 175.06 109.81 175.097 114.647 177.931C119.483 180.755 119.465 185.309 114.601 188.096Z" fill="url(#paint21_radial)"/>
<path d="M105.902 189.108C103.186 189.108 100.469 188.501 98.4041 187.296C96.4033 186.127 95.3112 184.573 95.3204 182.926C95.3295 181.279 96.4401 179.734 98.45 178.584C102.552 176.229 109.215 176.266 113.299 178.648C115.3 179.817 116.392 181.371 116.383 183.018C116.374 184.665 115.264 186.21 113.254 187.36C111.216 188.528 108.564 189.108 105.902 189.108ZM105.792 177.048C103.167 177.048 100.552 177.618 98.5417 178.768C96.6053 179.881 95.5315 181.353 95.5223 182.926C95.5131 184.499 96.5777 185.989 98.505 187.112C102.534 189.467 109.096 189.494 113.143 187.176C115.08 186.063 116.154 184.591 116.163 183.018C116.172 181.445 115.107 179.955 113.18 178.832C111.152 177.646 108.472 177.048 105.792 177.048Z" fill="#F4A856"/>
<path d="M113.198 187.277C109.114 189.614 102.516 189.586 98.45 187.213C94.3842 184.839 94.4026 181.012 98.4867 178.676C102.571 176.339 109.169 176.367 113.235 178.74C117.301 181.114 117.283 184.931 113.198 187.277Z" fill="url(#paint22_radial)"/>
<path d="M98.487 179.173C102.571 176.836 109.17 176.864 113.236 179.237C115.154 180.359 116.163 181.804 116.264 183.266C116.383 181.638 115.383 179.991 113.245 178.731C109.179 176.358 102.58 176.33 98.4962 178.667C96.3486 179.899 95.3207 181.546 95.4308 183.174C95.541 181.721 96.5597 180.277 98.487 179.173Z" fill="#F4A856"/>
<path d="M114.602 187.618C109.738 190.405 101.872 190.368 97.0358 187.535C94.723 186.183 93.5208 184.435 93.429 182.668C93.3097 184.582 94.5119 186.532 97.0358 188.004C101.872 190.837 109.738 190.865 114.602 188.087C117.135 186.633 118.356 184.701 118.255 182.779C118.144 184.554 116.933 186.293 114.602 187.618Z" fill="#FCE586"/>
<path d="M119.972 178.243L119.283 179.265C118.696 178.262 117.714 177.323 116.337 176.514C111.501 173.68 103.635 173.653 98.7711 176.431C97.422 177.204 96.4492 178.105 95.8435 179.081L95.1184 178.133L95.1092 180.304C95.0542 182.181 96.2565 184.067 98.7161 185.511C103.553 188.344 111.418 188.372 116.282 185.594C118.714 184.205 119.935 182.365 119.944 180.525L119.972 178.243Z" fill="#F4A856"/>
<path d="M119.967 178.241C119.984 174.273 114.439 171.031 107.581 171C100.723 170.969 95.1496 174.161 95.1318 178.129C95.114 182.097 100.659 185.339 107.517 185.37C114.375 185.401 119.949 182.209 119.967 178.241Z" fill="#FCCC6B"/>
<path d="M116.309 183.311C111.445 186.099 103.579 186.062 98.7428 183.229C93.9062 180.395 93.9245 175.851 98.7887 173.063C103.653 170.276 111.518 170.313 116.355 173.146C121.191 175.97 121.173 180.524 116.309 183.311Z" fill="url(#paint23_radial)"/>
<path d="M107.6 184.324C104.883 184.324 102.166 183.717 100.101 182.512C98.1006 181.344 97.0085 179.789 97.0176 178.142C97.0268 176.496 98.1373 174.95 100.147 173.8C104.25 171.445 110.913 171.482 114.997 173.865C116.997 175.033 118.09 176.588 118.08 178.234C118.071 179.89 116.961 181.427 114.951 182.576C112.923 183.745 110.261 184.324 107.6 184.324ZM107.489 172.264C104.865 172.264 102.249 172.834 100.239 173.984C98.3025 175.097 97.2287 176.569 97.2195 178.142C97.2104 179.715 98.275 181.206 100.202 182.328C104.231 184.683 110.793 184.711 114.841 182.392C116.777 181.279 117.851 179.807 117.86 178.234C117.869 176.661 116.805 175.171 114.877 174.049C112.849 172.853 110.169 172.264 107.489 172.264Z" fill="#F4A856"/>
<path d="M114.896 182.484C110.812 184.821 104.213 184.793 100.147 182.42C96.0815 180.046 96.0999 176.219 100.184 173.883C104.268 171.546 110.867 171.574 114.932 173.947C118.998 176.33 118.98 180.148 114.896 182.484Z" fill="url(#paint24_radial)"/>
<path d="M100.194 174.389C104.278 172.052 110.877 172.08 114.943 174.453C116.861 175.575 117.87 177.02 117.971 178.483C118.091 176.854 117.09 175.208 114.952 173.947C110.886 171.574 104.287 171.546 100.203 173.883C98.0556 175.116 97.0277 176.762 97.1379 178.391C97.2388 176.928 98.2575 175.493 100.194 174.389Z" fill="#F4A856"/>
<path d="M116.309 182.834C111.445 185.621 103.58 185.585 98.7429 182.751C96.4301 181.399 95.2278 179.651 95.136 177.885C95.0167 179.798 96.219 181.748 98.7429 183.22C103.58 186.054 111.445 186.081 116.309 183.303C118.842 181.85 120.063 179.918 119.962 177.995C119.852 179.761 118.631 181.5 116.309 182.834Z" fill="#FCE586"/>
<path d="M128.551 180.221L127.67 181.077C127.294 179.973 126.532 178.851 125.348 177.784C121.191 174.021 113.5 172.374 108.168 174.104C106.69 174.582 105.552 175.272 104.763 176.091L104.249 175.015L103.799 177.14H103.808C103.368 178.961 104.157 181.059 106.277 182.972C110.434 186.735 118.125 188.381 123.458 186.652C126.119 185.787 127.689 184.241 128.074 182.448L128.551 180.221Z" fill="#F4A856"/>
<path d="M123.935 184.435C118.603 186.164 110.912 184.517 106.754 180.755C102.597 176.992 103.542 172.54 108.874 170.81C114.206 169.081 121.897 170.728 126.055 174.49C130.212 178.253 129.258 182.705 123.935 184.435Z" fill="#FCCC6B"/>
<path d="M123.935 184.435C118.603 186.164 110.912 184.517 106.754 180.755C102.597 176.992 103.542 172.54 108.874 170.81C114.206 169.081 121.897 170.728 126.055 174.49C130.212 178.253 129.258 182.705 123.935 184.435Z" fill="url(#paint25_radial)"/>
<path d="M115.199 183.634C112.537 183.073 110.004 181.923 108.224 180.322C106.507 178.768 105.755 177.02 106.094 175.41C106.443 173.791 107.838 172.512 110.041 171.795C114.538 170.332 121.054 171.73 124.569 174.904C126.285 176.459 127.047 178.207 126.698 179.817C126.349 181.436 124.954 182.714 122.752 183.432C120.531 184.159 117.805 184.186 115.199 183.634ZM117.557 171.804C114.987 171.261 112.308 171.289 110.114 171.997C107.985 172.687 106.636 173.911 106.305 175.447C105.975 176.983 106.709 178.657 108.37 180.157C111.83 183.285 118.255 184.665 122.688 183.229C124.817 182.54 126.166 181.316 126.496 179.771C126.827 178.234 126.092 176.56 124.431 175.06C122.688 173.487 120.182 172.356 117.557 171.804Z" fill="#F4A856"/>
<path d="M122.723 183.34C118.253 184.793 111.792 183.404 108.304 180.249C104.817 177.094 105.606 173.359 110.085 171.905C114.554 170.452 121.016 171.841 124.503 174.996C127.991 178.151 127.192 181.886 122.723 183.34Z" fill="url(#paint26_radial)"/>
<path d="M109.976 172.393C114.446 170.939 120.907 172.328 124.394 175.484C126.046 176.974 126.735 178.602 126.533 180.046C126.982 178.483 126.34 176.652 124.495 174.987C121.008 171.831 114.547 170.442 110.077 171.896C107.718 172.659 106.388 174.058 106.158 175.677C106.571 174.278 107.865 173.083 109.976 172.393Z" fill="#F4A856"/>
<path d="M124.027 183.965C118.695 185.695 111.004 184.048 106.846 180.286C104.855 178.483 104.038 176.532 104.304 174.784C103.799 176.634 104.57 178.786 106.745 180.746C110.903 184.508 118.594 186.155 123.926 184.425C126.707 183.524 128.285 181.877 128.588 179.982C128.12 181.693 126.578 183.137 124.027 183.965Z" fill="#FCE586"/>
<path d="M109.61 127.822L108.509 128.374C108.49 127.214 108.096 125.908 107.297 124.528C104.48 119.68 97.6516 115.761 92.0441 115.789C90.4931 115.798 89.199 116.102 88.1986 116.654L88.0334 115.467L86.9596 117.353H86.9688C85.996 118.953 86.1153 121.198 87.5562 123.663C90.3738 128.512 97.2019 132.43 102.81 132.403C105.609 132.394 107.573 131.4 108.481 129.799L109.61 127.822Z" fill="#F4A856"/>
<path d="M109.624 127.814C111.588 124.369 108.354 118.811 102.4 115.399C96.4463 111.987 90.0269 112.014 88.0622 115.459C86.0976 118.904 89.3316 124.463 95.2857 127.874C101.24 131.286 107.659 131.259 109.624 127.814Z" fill="#FCCC6B"/>
<path d="M103.938 130.425C98.3397 130.453 91.5115 126.534 88.6848 121.686C85.8672 116.837 88.1158 112.882 93.7142 112.863C99.3126 112.836 106.141 116.755 108.967 121.603C111.794 126.451 109.536 130.407 103.938 130.425Z" fill="url(#paint27_radial)"/>
<path d="M95.8612 127.012C93.4934 125.669 91.4284 123.801 90.2261 121.732C89.0606 119.726 88.8678 117.831 89.6846 116.405C90.5014 114.97 92.2269 114.179 94.5396 114.17C99.2661 114.151 105.048 117.463 107.434 121.557C108.6 123.562 108.793 125.448 107.976 126.883C107.159 128.318 105.434 129.109 103.121 129.119C100.78 129.137 98.174 128.328 95.8612 127.012ZM101.689 116.46C99.4038 115.163 96.8432 114.372 94.5396 114.381C92.3094 114.39 90.6483 115.145 89.8682 116.516C89.0881 117.877 89.2808 119.698 90.4097 121.63C92.7592 125.669 98.4585 128.935 103.121 128.916C105.36 128.907 107.012 128.153 107.792 126.782C108.572 125.421 108.38 123.599 107.251 121.667C106.067 119.625 104.02 117.776 101.689 116.46Z" fill="#F4A856"/>
<path d="M103.12 129.018C98.4209 129.036 92.6848 125.752 90.317 121.686C87.9491 117.61 89.8397 114.299 94.5387 114.28C99.2377 114.262 104.974 117.546 107.342 121.612C109.709 125.678 107.819 128.999 103.12 129.018Z" fill="url(#paint28_radial)"/>
<path d="M94.291 114.703C98.99 114.685 104.726 117.969 107.094 122.035C108.214 123.958 108.379 125.715 107.745 127.04C108.654 125.687 108.59 123.746 107.342 121.603C104.974 117.528 99.2378 114.243 94.5388 114.271C92.0608 114.28 90.3629 115.209 89.6562 116.681C90.4731 115.467 92.07 114.712 94.291 114.703Z" fill="#F4A856"/>
<path d="M104.175 130.011C98.577 130.039 91.7488 126.12 88.9221 121.272C87.5729 118.953 87.3894 116.838 88.1695 115.255C87.1232 116.865 87.215 119.147 88.6834 121.676C91.501 126.524 98.3292 130.443 103.937 130.416C106.855 130.407 108.865 129.321 109.719 127.601C108.764 129.091 106.855 130.002 104.175 130.011Z" fill="#FCE586"/>
<path d="M107.214 149.606L107.122 150.829C106.112 150.25 104.8 149.919 103.212 149.891C97.6138 149.817 90.7489 153.681 87.8946 158.502C87.1053 159.835 86.7015 161.105 86.6556 162.246L85.5635 161.777L86.6281 163.672V163.662C87.5 165.318 89.4732 166.367 92.3274 166.404C97.9258 166.477 104.791 162.614 107.645 157.793C109.077 155.383 109.233 153.184 108.333 151.574L107.214 149.606Z" fill="#F4A856"/>
<path d="M106.517 155.825C103.653 160.654 96.7974 164.509 91.199 164.435C85.6006 164.362 83.3796 160.397 86.2339 155.567C89.0973 150.737 95.953 146.883 101.551 146.956C107.159 147.03 109.38 150.995 106.517 155.825Z" fill="#FCCC6B"/>
<path d="M106.517 155.825C103.653 160.654 96.7974 164.509 91.199 164.435C85.6006 164.362 83.3796 160.397 86.2339 155.567C89.0973 150.737 95.953 146.883 101.551 146.956C107.159 147.03 109.38 150.995 106.517 155.825Z" fill="url(#paint29_radial)"/>
<path d="M99.4394 161.004C97.0716 162.347 94.41 163.166 92.0239 163.138C89.7111 163.11 87.9948 162.301 87.1872 160.857C86.3796 159.412 86.5907 157.526 87.7746 155.53C90.1883 151.455 95.9978 148.189 100.733 148.244C103.046 148.272 104.762 149.081 105.57 150.526C106.378 151.97 106.167 153.856 104.983 155.852C103.79 157.876 101.761 159.688 99.4394 161.004ZM93.4188 150.563C91.1336 151.86 89.1329 153.654 87.9582 155.641C86.8201 157.563 86.609 159.385 87.38 160.755C88.1509 162.126 89.8029 162.899 92.033 162.926C96.6953 162.982 102.422 159.762 104.808 155.751C105.946 153.828 106.157 152.007 105.387 150.636C104.616 149.265 102.964 148.493 100.733 148.465C98.3748 148.437 95.7408 149.238 93.4188 150.563Z" fill="#F4A856"/>
<path d="M104.892 155.806C102.487 159.854 96.7331 163.092 92.0249 163.037C87.326 162.982 85.4537 159.642 87.8583 155.595C90.2628 151.547 96.0172 148.309 100.725 148.364C105.434 148.419 107.297 151.749 104.892 155.806Z" fill="url(#paint30_radial)"/>
<path d="M88.1073 156.027C90.5119 151.979 96.2663 148.741 100.974 148.796C103.195 148.824 104.783 149.587 105.591 150.811C104.903 149.339 103.214 148.391 100.736 148.364C96.0369 148.309 90.2733 151.547 87.8687 155.595C86.6022 157.729 86.5196 159.661 87.419 161.031C86.7949 159.698 86.9785 157.94 88.1073 156.027Z" fill="#F4A856"/>
<path d="M106.285 155.411C103.422 160.24 96.5661 164.095 90.9677 164.021C88.2879 163.984 86.3881 163.055 85.4336 161.574C86.2779 163.304 88.2695 164.398 91.1972 164.435C96.7956 164.509 103.661 160.645 106.515 155.825C108.011 153.304 108.112 151.023 107.084 149.403C107.855 150.986 107.653 153.102 106.285 155.411Z" fill="#FCE586"/>
<path d="M33.6729 149.67C33.2508 149.67 32.8286 149.56 32.4523 149.339L0.293693 130.729C0.110139 130.618 0 130.434 0 130.223C0 130.011 0.110139 129.818 0.293693 129.708L28.7354 113.25L29.0199 113.747L0.578199 130.204L32.7368 148.842C33.315 149.173 34.0309 149.173 34.6091 148.842L53.7904 137.785C54.5522 137.343 55.4883 137.352 56.2409 137.794L64.097 142.393L63.8125 142.89L55.9564 138.291C55.3782 137.95 54.6623 137.95 54.0749 138.281L34.8936 149.348C34.5173 149.56 34.0951 149.67 33.6729 149.67Z" fill="white"/>
<path d="M177.385 122.228L147.447 90.0029L117.509 87.5743C117.509 87.5743 112.7 128.254 147.447 171.399C182.194 168.474 177.385 122.228 177.385 122.228Z" fill="url(#paint31_linear)"/>
<path d="M117.51 87.5834L110.773 91.4748L140.711 93.9034L147.447 90.0029L117.51 87.5834Z" fill="url(#paint32_linear)"/>
<path d="M170.649 126.129L140.712 93.9036L128.404 92.6524L110.774 91.4749C110.774 91.4749 105.965 132.155 140.712 175.3C175.458 172.374 170.649 126.129 170.649 126.129Z" fill="url(#paint33_linear)"/>
<path d="M170.65 126.129L140.712 93.9035L110.774 91.4748C111.619 90.9873 111.619 90.9873 111.619 90.9873L141.951 93.4435L171.889 125.669C171.889 125.669 175.908 164.325 150.027 173.193C174.532 163.534 170.65 126.129 170.65 126.129Z" fill="white"/>
<path opacity="0.2" d="M167.014 126.626L140.096 97.6568L129.028 96.5345L113.178 95.4765C113.178 95.4765 108.855 132.053 140.096 170.847C171.337 168.207 167.014 126.626 167.014 126.626Z" fill="white"/>
<defs>
<linearGradient id="paint0_linear" x1="40.1928" y1="84.8225" x2="14.6236" y2="65.1149" gradientUnits="userSpaceOnUse">
<stop stop-color="#59BDEF"/>
<stop offset="1" stop-color="#7BDAFF"/>
</linearGradient>
<linearGradient id="paint1_linear" x1="40.2951" y1="94.2509" x2="54.5768" y2="94.2509" gradientUnits="userSpaceOnUse">
<stop stop-color="#2573BA"/>
<stop offset="1" stop-color="#0063AD"/>
</linearGradient>
<linearGradient id="paint2_linear" x1="22.3226" y1="93.1835" x2="40.2953" y2="93.1835" gradientUnits="userSpaceOnUse">
<stop stop-color="#3A9BD5"/>
<stop offset="1" stop-color="#2573BA"/>
</linearGradient>
<linearGradient id="paint3_linear" x1="25.5925" y1="83.2541" x2="33.3771" y2="83.2541" gradientUnits="userSpaceOnUse">
<stop stop-color="#2573BA"/>
<stop offset="1" stop-color="#0063AD"/>
</linearGradient>
<linearGradient id="paint4_linear" x1="30.5336" y1="86.1128" x2="38.318" y2="86.1128" gradientUnits="userSpaceOnUse">
<stop stop-color="#2573BA"/>
<stop offset="1" stop-color="#0063AD"/>
</linearGradient>
<linearGradient id="paint5_linear" x1="35.4821" y1="88.9758" x2="43.2665" y2="88.9758" gradientUnits="userSpaceOnUse">
<stop stop-color="#2573BA"/>
<stop offset="1" stop-color="#0063AD"/>
</linearGradient>
<linearGradient id="paint6_linear" x1="104.193" y1="95.4429" x2="288.192" y2="95.4429" gradientUnits="userSpaceOnUse">
<stop stop-color="#3A9BD5"/>
<stop offset="0.522" stop-color="#3088C8"/>
<stop offset="1" stop-color="#297BBF"/>
</linearGradient>
<linearGradient id="paint7_linear" x1="89.1539" y1="35.709" x2="213.595" y2="99.2692" gradientUnits="userSpaceOnUse">
<stop stop-color="#59BDEF"/>
<stop offset="1" stop-color="#7BDAFF"/>
</linearGradient>
<radialGradient id="paint8_radial" cx="0" cy="0" r="1" gradientUnits="userSpaceOnUse" gradientTransform="translate(89.3684 96.5517) rotate(-51.5824) scale(17.7644 17.7549)">
<stop stop-color="#FCE586"/>
<stop offset="0.2273" stop-color="#FCDB7B"/>
<stop offset="0.6161" stop-color="#FCD06F"/>
<stop offset="1" stop-color="#FCCC6B"/>
</radialGradient>
<radialGradient id="paint9_radial" cx="0" cy="0" r="1" gradientUnits="userSpaceOnUse" gradientTransform="translate(107.151 99.7061) rotate(-51.5824) scale(42.2584 42.2358)">
<stop stop-color="#FCE586"/>
<stop offset="0.2273" stop-color="#FCDB7B"/>
<stop offset="0.6161" stop-color="#FCD06F"/>
<stop offset="1" stop-color="#FCCC6B"/>
</radialGradient>
<linearGradient id="paint10_linear" x1="63.6769" y1="63.441" x2="139.789" y2="63.441" gradientUnits="userSpaceOnUse">
<stop stop-color="#7BDAFF"/>
<stop offset="1" stop-color="#59BDEF"/>
</linearGradient>
<radialGradient id="paint11_radial" cx="0" cy="0" r="1" gradientUnits="userSpaceOnUse" gradientTransform="translate(90.0289 169.502) rotate(-17.1121) scale(17.7422 17.7769)">
<stop stop-color="#FCE586"/>
<stop offset="0.2273" stop-color="#FCDB7B"/>
<stop offset="0.6161" stop-color="#FCD06F"/>
<stop offset="1" stop-color="#FCCC6B"/>
</radialGradient>
<radialGradient id="paint12_radial" cx="0" cy="0" r="1" gradientUnits="userSpaceOnUse" gradientTransform="translate(102.915 182.183) rotate(-17.1122) scale(42.206 42.2886)">
<stop stop-color="#FCE586"/>
<stop offset="0.2273" stop-color="#FCDB7B"/>
<stop offset="0.6161" stop-color="#FCD06F"/>
<stop offset="1" stop-color="#FCCC6B"/>
</radialGradient>
<radialGradient id="paint13_radial" cx="0" cy="0" r="1" gradientUnits="userSpaceOnUse" gradientTransform="translate(92.1624 166.451) rotate(-17.1121) scale(17.7423 17.777)">
<stop stop-color="#FCE586"/>
<stop offset="0.2273" stop-color="#FCDB7B"/>
<stop offset="0.6161" stop-color="#FCD06F"/>
<stop offset="1" stop-color="#FCCC6B"/>
</radialGradient>
<radialGradient id="paint14_radial" cx="0" cy="0" r="1" gradientUnits="userSpaceOnUse" gradientTransform="translate(105.048 179.133) rotate(-17.1121) scale(42.206 42.2886)">
<stop stop-color="#FCE586"/>
<stop offset="0.2273" stop-color="#FCDB7B"/>
<stop offset="0.6161" stop-color="#FCD06F"/>
<stop offset="1" stop-color="#FCCC6B"/>
</radialGradient>
<radialGradient id="paint15_radial" cx="0" cy="0" r="1" gradientUnits="userSpaceOnUse" gradientTransform="translate(108.53 181.612) rotate(-17.1121) scale(17.7423 17.777)">
<stop stop-color="#FCE586"/>
<stop offset="0.2273" stop-color="#FCDB7B"/>
<stop offset="0.6161" stop-color="#FCD06F"/>
<stop offset="1" stop-color="#FCCC6B"/>
</radialGradient>
<radialGradient id="paint16_radial" cx="0" cy="0" r="1" gradientUnits="userSpaceOnUse" gradientTransform="translate(121.416 194.295) rotate(-17.1121) scale(42.206 42.2885)">
<stop stop-color="#FCE586"/>
<stop offset="0.2273" stop-color="#FCDB7B"/>
<stop offset="0.6161" stop-color="#FCD06F"/>
<stop offset="1" stop-color="#FCCC6B"/>
</radialGradient>
<radialGradient id="paint17_radial" cx="0" cy="0" r="1" gradientUnits="userSpaceOnUse" gradientTransform="translate(83.6908 185.931) rotate(-17.1121) scale(17.7422 17.7769)">
<stop stop-color="#FCE586"/>
<stop offset="0.2273" stop-color="#FCDB7B"/>
<stop offset="0.6161" stop-color="#FCD06F"/>
<stop offset="1" stop-color="#FCCC6B"/>
</radialGradient>
<radialGradient id="paint18_radial" cx="0" cy="0" r="1" gradientUnits="userSpaceOnUse" gradientTransform="translate(96.5762 198.613) rotate(-17.112) scale(42.2061 42.2885)">
<stop stop-color="#FCE586"/>
<stop offset="0.2273" stop-color="#FCDB7B"/>
<stop offset="0.6161" stop-color="#FCD06F"/>
<stop offset="1" stop-color="#FCCC6B"/>
</radialGradient>
<radialGradient id="paint19_radial" cx="0" cy="0" r="1" gradientUnits="userSpaceOnUse" gradientTransform="translate(95.4444 181.353) rotate(-17.1121) scale(17.7422 17.7769)">
<stop stop-color="#FCE586"/>
<stop offset="0.2273" stop-color="#FCDB7B"/>
<stop offset="0.6161" stop-color="#FCD06F"/>
<stop offset="1" stop-color="#FCCC6B"/>
</radialGradient>
<radialGradient id="paint20_radial" cx="0" cy="0" r="1" gradientUnits="userSpaceOnUse" gradientTransform="translate(108.33 194.035) rotate(-17.1121) scale(42.2061 42.2886)">
<stop stop-color="#FCE586"/>
<stop offset="0.2273" stop-color="#FCDB7B"/>
<stop offset="0.6161" stop-color="#FCD06F"/>
<stop offset="1" stop-color="#FCCC6B"/>
</radialGradient>
<radialGradient id="paint21_radial" cx="0" cy="0" r="1" gradientUnits="userSpaceOnUse" gradientTransform="translate(98.6546 178.864) rotate(-17.1121) scale(17.7422 17.7769)">
<stop stop-color="#FCE586"/>
<stop offset="0.2273" stop-color="#FCDB7B"/>
<stop offset="0.6161" stop-color="#FCD06F"/>
<stop offset="1" stop-color="#FCCC6B"/>
</radialGradient>
<radialGradient id="paint22_radial" cx="0" cy="0" r="1" gradientUnits="userSpaceOnUse" gradientTransform="translate(111.541 191.546) rotate(-17.1121) scale(42.206 42.2886)">
<stop stop-color="#FCE586"/>
<stop offset="0.2273" stop-color="#FCDB7B"/>
<stop offset="0.6161" stop-color="#FCD06F"/>
<stop offset="1" stop-color="#FCCC6B"/>
</radialGradient>
<radialGradient id="paint23_radial" cx="0" cy="0" r="1" gradientUnits="userSpaceOnUse" gradientTransform="translate(100.357 174.077) rotate(-17.112) scale(17.7422 17.7769)">
<stop stop-color="#FCE586"/>
<stop offset="0.2273" stop-color="#FCDB7B"/>
<stop offset="0.6161" stop-color="#FCD06F"/>
<stop offset="1" stop-color="#FCCC6B"/>
</radialGradient>
<radialGradient id="paint24_radial" cx="0" cy="0" r="1" gradientUnits="userSpaceOnUse" gradientTransform="translate(113.242 186.76) rotate(-17.1121) scale(42.2059 42.2886)">
<stop stop-color="#FCE586"/>
<stop offset="0.2273" stop-color="#FCDB7B"/>
<stop offset="0.6161" stop-color="#FCD06F"/>
<stop offset="1" stop-color="#FCCC6B"/>
</radialGradient>
<radialGradient id="paint25_radial" cx="0" cy="0" r="1" gradientUnits="userSpaceOnUse" gradientTransform="translate(110.205 172.124) rotate(-5.27372) scale(17.7389 17.7802)">
<stop stop-color="#FCE586"/>
<stop offset="0.2273" stop-color="#FCDB7B"/>
<stop offset="0.6161" stop-color="#FCD06F"/>
<stop offset="1" stop-color="#FCCC6B"/>
</radialGradient>
<radialGradient id="paint26_radial" cx="0" cy="0" r="1" gradientUnits="userSpaceOnUse" gradientTransform="translate(120.226 187.181) rotate(-5.27369) scale(42.1984 42.2962)">
<stop stop-color="#FCE586"/>
<stop offset="0.2273" stop-color="#FCDB7B"/>
<stop offset="0.6161" stop-color="#FCD06F"/>
<stop offset="1" stop-color="#FCCC6B"/>
</radialGradient>
<radialGradient id="paint27_radial" cx="0" cy="0" r="1" gradientUnits="userSpaceOnUse" gradientTransform="translate(94.5906 114.52) rotate(12.4497) scale(17.7406 17.7787)">
<stop stop-color="#FCE586"/>
<stop offset="0.2273" stop-color="#FCDB7B"/>
<stop offset="0.6161" stop-color="#FCD06F"/>
<stop offset="1" stop-color="#FCCC6B"/>
</radialGradient>
<radialGradient id="paint28_radial" cx="0" cy="0" r="1" gradientUnits="userSpaceOnUse" gradientTransform="translate(99.5745 131.917) rotate(12.4497) scale(42.202 42.2925)">
<stop stop-color="#FCE586"/>
<stop offset="0.2273" stop-color="#FCDB7B"/>
<stop offset="0.6161" stop-color="#FCD06F"/>
<stop offset="1" stop-color="#FCCC6B"/>
</radialGradient>
<radialGradient id="paint29_radial" cx="0" cy="0" r="1" gradientUnits="userSpaceOnUse" gradientTransform="translate(88.1042 155.673) rotate(-46.6842) scale(17.7609 17.7584)">
<stop stop-color="#FCE586"/>
<stop offset="0.2273" stop-color="#FCDB7B"/>
<stop offset="0.6161" stop-color="#FCD06F"/>
<stop offset="1" stop-color="#FCCC6B"/>
</radialGradient>
<radialGradient id="paint30_radial" cx="0" cy="0" r="1" gradientUnits="userSpaceOnUse" gradientTransform="translate(105.552 160.338) rotate(-46.6842) scale(42.2499 42.2442)">
<stop stop-color="#FCE586"/>
<stop offset="0.2273" stop-color="#FCDB7B"/>
<stop offset="0.6161" stop-color="#FCD06F"/>
<stop offset="1" stop-color="#FCCC6B"/>
</radialGradient>
<linearGradient id="paint31_linear" x1="138.784" y1="121.671" x2="228.825" y2="149.236" gradientUnits="userSpaceOnUse">
<stop stop-color="#2573BA"/>
<stop offset="0.907" stop-color="#0364AE"/>
<stop offset="1" stop-color="#0063AD"/>
</linearGradient>
<linearGradient id="paint32_linear" x1="147.444" y1="90.742" x2="110.771" y2="90.742" gradientUnits="userSpaceOnUse">
<stop stop-color="#0063AD"/>
<stop offset="1" stop-color="#2573BA"/>
</linearGradient>
<linearGradient id="paint33_linear" x1="110.546" y1="117.147" x2="170.872" y2="117.147" gradientUnits="userSpaceOnUse">
<stop stop-color="#7BDAFF"/>
<stop offset="1" stop-color="#59BDEF"/>
</linearGradient>
</defs>
</svg>
