<svg width="34" height="34" viewBox="0 0 34 34" fill="none" xmlns="http://www.w3.org/2000/svg">
<path d="M32.0171 2.47462C31.774 2.41681 31.5183 2.44801 31.2962 2.56257L29.7176 3.35092L28.1254 2.55487C27.9828 2.48356 27.8256 2.44644 27.6661 2.44644C27.5066 2.44644 27.3494 2.48356 27.2068 2.55487L25.5947 3.35157L24.0039 2.55487C23.8609 2.48304 23.703 2.44563 23.543 2.44563C23.3829 2.44563 23.2251 2.48304 23.082 2.55487L21.5002 3.349L19.9305 2.55679C19.7879 2.48447 19.6303 2.44646 19.4704 2.44579C19.3104 2.44512 19.1525 2.48181 19.0093 2.55294L17.3915 3.35221L15.7994 2.55422C15.6565 2.48295 15.499 2.44585 15.3394 2.44585C15.1797 2.44585 15.0223 2.48295 14.8794 2.55422L13.2828 3.35092L11.6881 2.55422C11.4825 2.45117 11.2483 2.42009 11.0229 2.46595C10.7976 2.51181 10.5942 2.63196 10.4452 2.80716C10.2847 2.99851 10.1981 3.24112 10.2013 3.49088V18.8805L10.2045 18.8837H22.5273C23.0722 18.8837 23.5947 19.1002 23.98 19.4854C24.3652 19.8707 24.5817 20.3932 24.5817 20.9381V27.6115C24.5817 29.5971 26.7047 31.2066 28.6904 31.2066H29.4608C30.3461 31.2066 31.1953 30.8549 31.8213 30.2288C32.4474 29.6028 32.7991 28.7537 32.7991 27.8683V3.4729C32.7993 3.243 32.7223 3.01968 32.5805 2.83869C32.4388 2.6577 32.2404 2.52951 32.0171 2.47462ZM27.6632 15.799H19.4779C18.9232 15.799 18.4443 15.3727 18.4199 14.818C18.4137 14.6794 18.4356 14.541 18.4843 14.411C18.5331 14.2811 18.6076 14.1624 18.7035 14.0621C18.7994 13.9618 18.9146 13.8819 19.0422 13.8274C19.1697 13.7728 19.3071 13.7447 19.4458 13.7446H27.6311C28.1858 13.7446 28.6647 14.1709 28.6891 14.7256C28.6953 14.8642 28.6734 15.0027 28.6247 15.1326C28.576 15.2625 28.5014 15.3812 28.4055 15.4815C28.3097 15.5818 28.1945 15.6617 28.0669 15.7162C27.9393 15.7708 27.802 15.799 27.6632 15.799ZM27.6632 10.6631H15.3692C14.8145 10.6631 14.3356 10.2368 14.3112 9.68217C14.305 9.54355 14.3269 9.4051 14.3756 9.27518C14.4244 9.14526 14.4989 9.02655 14.5948 8.92624C14.6907 8.82593 14.8059 8.74608 14.9335 8.69151C15.061 8.63695 15.1984 8.6088 15.3371 8.60877H27.6311C28.1858 8.60877 28.6647 9.03505 28.6891 9.58972C28.6953 9.72834 28.6734 9.86679 28.6247 9.99671C28.576 10.1266 28.5014 10.2453 28.4055 10.3456C28.3097 10.446 28.1945 10.5258 28.0669 10.5804C27.9393 10.6349 27.802 10.6631 27.6632 10.6631Z" fill="#EB3D3D"/>
<path d="M22.5279 27.6112V21.9617C22.5279 21.6893 22.4196 21.4281 22.227 21.2354C22.0344 21.0428 21.7731 20.9346 21.5007 20.9346H4.03872C3.49384 20.9363 2.97181 21.1537 2.58682 21.5393C2.20183 21.9249 1.98522 22.4472 1.98438 22.9921C1.98437 26.2374 2.35544 27.5868 2.91268 28.614C3.85833 30.3582 5.5705 31.2063 8.14742 31.2063H23.9197C23.9703 31.2064 24.0199 31.1914 24.0621 31.1634C24.1043 31.1353 24.1372 31.0954 24.1568 31.0487C24.1763 31.0019 24.1816 30.9504 24.172 30.9007C24.1624 30.851 24.1382 30.8052 24.1026 30.7691C23.4953 30.1599 22.5279 29.3446 22.5279 27.6112Z" fill="#EB3D3D"/>
</svg>
