<svg width="25" height="29" viewBox="0 0 25 29" fill="none" xmlns="http://www.w3.org/2000/svg">
<path d="M9.45703 18.5586V12.9425C9.45725 12.8412 9.48397 12.7417 9.53456 12.6539C9.58514 12.5662 9.65782 12.4931 9.74537 12.4422C9.83292 12.3912 9.93229 12.364 10.0336 12.3633C10.1349 12.3626 10.2346 12.3885 10.3229 12.4383L15.2752 15.2468C15.3643 15.2974 15.4385 15.3708 15.4901 15.4595C15.5417 15.5482 15.5689 15.6489 15.5689 15.7515C15.5689 15.854 15.5417 15.9548 15.4901 16.0435C15.4385 16.1321 15.3643 16.2055 15.2752 16.2562L10.3229 19.0647C10.2345 19.1145 10.1346 19.1404 10.0332 19.1396C9.9317 19.1389 9.83221 19.1115 9.74461 19.0603C9.65701 19.0091 9.58435 18.9359 9.5339 18.8478C9.48344 18.7598 9.45694 18.6601 9.45703 18.5586Z" fill="#828282"/>
<path d="M10.0344 19.9278C9.67161 19.9273 9.32383 19.783 9.06732 19.5265C8.81081 19.27 8.66648 18.9222 8.66602 18.5595V12.9434C8.66599 12.7046 8.72853 12.47 8.8474 12.2629C8.96627 12.0558 9.1373 11.8835 9.3435 11.7631C9.54969 11.6427 9.78384 11.5784 10.0226 11.5767C10.2614 11.575 10.4964 11.6358 10.7044 11.7532L15.6566 14.5616C15.8671 14.6809 16.0422 14.8539 16.164 15.0629C16.2858 15.2719 16.35 15.5095 16.35 15.7514C16.35 15.9933 16.2858 16.2309 16.164 16.4399C16.0422 16.649 15.8671 16.8219 15.6566 16.9412L10.7044 19.7497C10.5 19.8656 10.2693 19.9269 10.0344 19.9278ZM10.2409 13.2988V18.2023L14.5648 15.751L10.2409 13.2988Z" fill="#828282"/>
<path d="M20.3249 25.2046C20.116 25.2046 19.9156 25.1216 19.7678 24.9738C19.6201 24.8261 19.5371 24.6257 19.5371 24.4167C19.5371 24.2077 19.6201 24.0074 19.7678 23.8596C19.9156 23.7118 20.116 23.6288 20.3249 23.6288C21.014 23.6279 21.6746 23.3537 22.1619 22.8665C22.6492 22.3792 22.9233 21.7186 22.9243 21.0295V10.4727C22.9233 9.78357 22.6492 9.12296 22.1619 8.6357C21.6746 8.14843 21.014 7.87427 20.3249 7.87334H4.17506C3.48596 7.87427 2.82535 8.14843 2.33809 8.6357C1.85082 9.12296 1.57667 9.78357 1.57573 10.4727V21.0322C1.57667 21.7213 1.85082 22.3819 2.33809 22.8691C2.82535 23.3564 3.48596 23.6306 4.17506 23.6315H16.819C17.0279 23.6315 17.2283 23.7145 17.3761 23.8623C17.5238 24.01 17.6069 24.2104 17.6069 24.4194C17.6069 24.6283 17.5238 24.8287 17.3761 24.9765C17.2283 25.1242 17.0279 25.2072 16.819 25.2072H4.17506C3.06812 25.2061 2.00686 24.7658 1.22414 23.9831C0.441418 23.2004 0.00117297 22.1391 0 21.0322V10.4727C0.00117297 9.36573 0.441418 8.30447 1.22414 7.52175C2.00686 6.73903 3.06812 6.29878 4.17506 6.29761H20.3249C21.4319 6.29878 22.4931 6.73903 23.2759 7.52175C24.0586 8.30447 24.4988 9.36573 24.5 10.4727V21.0322C24.4981 22.1386 24.0576 23.1992 23.2749 23.9814C22.4923 24.7635 21.4314 25.2034 20.3249 25.2046Z" fill="#828282"/>
<path d="M15.6489 27.568H8.55905C8.22482 27.568 7.90427 27.4353 7.66794 27.1989C7.4316 26.9626 7.29883 26.6421 7.29883 26.3078V24.4175H16.9092V26.3078C16.9092 26.6421 16.7764 26.9626 16.5401 27.1989C16.3037 27.4353 15.9832 27.568 15.6489 27.568Z" fill="#828282"/>
<path d="M15.6497 28.355H8.55981C8.01684 28.3543 7.4963 28.1382 7.11237 27.7543C6.72843 27.3704 6.51242 26.8498 6.51172 26.3069V24.4165C6.51172 24.2076 6.59472 24.0072 6.74247 23.8594C6.89023 23.7117 7.09062 23.6287 7.29958 23.6287H16.9099C17.0134 23.6287 17.1158 23.6491 17.2114 23.6886C17.307 23.7282 17.3939 23.7863 17.467 23.8594C17.5402 23.9326 17.5982 24.0194 17.6378 24.115C17.6774 24.2106 17.6978 24.3131 17.6978 24.4165V26.3069C17.6971 26.8498 17.4811 27.3704 17.0971 27.7543C16.7132 28.1382 16.1927 28.3543 15.6497 28.355ZM8.08745 25.2035V26.306C8.08768 26.4312 8.13752 26.5512 8.22606 26.6398C8.31459 26.7283 8.43461 26.7781 8.55981 26.7784H15.6497C15.7749 26.7781 15.8949 26.7283 15.9835 26.6398C16.072 26.5512 16.1218 26.4312 16.1221 26.306V25.2035H8.08745Z" fill="#828282"/>
<path d="M12.1065 7.87327C11.9882 7.87347 11.8714 7.84696 11.7647 7.7957C11.6581 7.74445 11.5644 7.66978 11.4906 7.57727L7.71169 2.85097C7.64563 2.77036 7.5962 2.67743 7.5663 2.57759C7.53641 2.47774 7.52663 2.37295 7.53751 2.2693C7.5484 2.16564 7.57974 2.06517 7.62973 1.97371C7.67972 1.88226 7.74736 1.80163 7.82873 1.7365C7.9101 1.67137 8.00359 1.62303 8.10377 1.59428C8.20396 1.56553 8.30884 1.55695 8.41236 1.56903C8.51589 1.58111 8.61599 1.61361 8.70687 1.66465C8.79774 1.71568 8.8776 1.78425 8.94179 1.86636L12.7234 6.59266C12.816 6.70854 12.874 6.84821 12.8907 6.9956C12.9075 7.14299 12.8822 7.29211 12.818 7.42581C12.7537 7.55951 12.653 7.67234 12.5275 7.75135C12.4019 7.83035 12.2566 7.8723 12.1083 7.87238L12.1065 7.87327Z" fill="#828282"/>
<path d="M12.394 7.87327C12.2381 7.8734 12.0856 7.82727 11.9559 7.7407C11.8263 7.65414 11.7252 7.53104 11.6655 7.387C11.6058 7.24295 11.5902 7.08443 11.6206 6.93151C11.6511 6.77859 11.7262 6.63815 11.8366 6.52796L18.1395 0.225933C18.2882 0.082902 18.487 0.00389824 18.6933 0.00589637C18.8996 0.00789451 19.0969 0.0907351 19.2428 0.236619C19.3887 0.382504 19.4715 0.579791 19.4735 0.786093C19.4755 0.992395 19.3965 1.19125 19.2535 1.33993L12.9479 7.64196C12.8012 7.78938 12.602 7.87256 12.394 7.87327Z" fill="#828282"/>
</svg>
