<svg width="248" height="248" viewBox="0 0 248 248" fill="none" xmlns="http://www.w3.org/2000/svg">
<path d="M185.513 185.687C219.638 151.555 219.638 96.2164 185.513 62.0844C151.389 27.9524 96.0624 27.9524 61.9381 62.0844C27.8137 96.2164 27.8137 151.555 61.9381 185.687C96.0624 219.819 151.389 219.819 185.513 185.687Z" fill="#00983A" fill-opacity="0.26"/>
<path d="M141.262 87.9955L135.4 81.671C134.236 80.4134 132.657 79.706 131.009 79.7044H117.877C116.23 79.706 114.65 80.4134 113.486 81.671L107.624 87.9955C106.459 89.2516 105.803 90.9557 105.802 92.7333V113.226C105.802 115.004 106.456 116.71 107.622 117.967C108.787 119.224 110.368 119.931 112.016 119.931H136.871C138.519 119.931 140.099 119.224 141.265 117.967C142.43 116.71 143.085 115.004 143.085 113.226V92.7333C143.083 90.9557 142.428 89.2516 141.262 87.9955ZM124.443 108.757C122.246 108.757 120.139 107.815 118.585 106.139C117.031 104.462 116.158 102.188 116.158 99.8176C116.158 99.2249 116.376 98.6564 116.765 98.2373C117.153 97.8182 117.68 97.5828 118.229 97.5828C118.779 97.5828 119.306 97.8182 119.694 98.2373C120.082 98.6564 120.301 99.2249 120.301 99.8176C120.301 101.003 120.737 102.14 121.514 102.978C122.291 103.816 123.345 104.287 124.443 104.287C125.542 104.287 126.596 103.816 127.372 102.978C128.149 102.14 128.586 101.003 128.586 99.8176C128.586 99.2249 128.804 98.6564 129.192 98.2373C129.581 97.8182 130.108 97.5828 130.657 97.5828C131.206 97.5828 131.733 97.8182 132.122 98.2373C132.51 98.6564 132.728 99.2249 132.728 99.8176C132.728 102.188 131.855 104.462 130.302 106.139C128.748 107.815 126.641 108.757 124.443 108.757ZM112.865 88.6436L116.407 84.8221C116.804 84.4137 117.329 84.1822 117.877 84.174H131.009C131.558 84.1822 132.083 84.4137 132.48 84.8221L136.022 88.6436H112.865Z" fill="#00983A"/>
<path d="M78.8268 150.161C77.557 150.161 76.3971 149.862 75.3471 149.263C74.2971 148.665 73.4729 147.841 72.8746 146.791C72.2764 145.741 71.9772 144.581 71.9772 143.311C71.9772 142.041 72.2764 140.881 72.8746 139.831C73.4729 138.781 74.2971 137.957 75.3471 137.359C76.3971 136.761 77.557 136.462 78.8268 136.462C79.8158 136.462 80.7132 136.645 81.519 137.011C82.3371 137.377 83.0575 137.908 83.6801 138.604L82.215 140.015C81.7632 139.477 81.2626 139.081 80.7132 138.824C80.1638 138.556 79.535 138.421 78.8268 138.421C77.9477 138.421 77.1419 138.623 76.4093 139.026C75.689 139.429 75.1151 140.002 74.6878 140.747C74.2604 141.48 74.0468 142.334 74.0468 143.311C74.0468 144.288 74.2604 145.149 74.6878 145.894C75.1151 146.626 75.689 147.194 76.4093 147.597C77.1419 148 77.9477 148.201 78.8268 148.201C80.292 148.201 81.5374 147.591 82.563 146.37L84.0464 147.798C83.4115 148.543 82.6484 149.123 81.7571 149.538C80.8658 149.953 79.8891 150.161 78.8268 150.161ZM85.8281 136.755H87.8427V149.868H85.8281V136.755ZM91.3638 139.172C90.9853 139.172 90.6617 139.044 90.3931 138.788C90.1367 138.519 90.0085 138.195 90.0085 137.817C90.0085 137.438 90.1367 137.121 90.3931 136.865C90.6617 136.596 90.9853 136.462 91.3638 136.462C91.7423 136.462 92.0597 136.596 92.3161 136.865C92.5847 137.121 92.719 137.438 92.719 137.817C92.719 138.195 92.5847 138.519 92.3161 138.788C92.0597 139.044 91.7423 139.172 91.3638 139.172ZM90.3565 140.527H92.371V149.868H90.3565V140.527ZM99.1108 150.161C98.1828 150.161 97.3465 149.947 96.6017 149.52C95.8691 149.092 95.2953 148.506 94.8801 147.762C94.4772 147.005 94.2757 146.15 94.2757 145.198C94.2757 144.245 94.4772 143.397 94.8801 142.652C95.2953 141.895 95.8691 141.303 96.6017 140.875C97.3465 140.448 98.1828 140.234 99.1108 140.234C100.136 140.234 101.009 140.466 101.73 140.93C102.45 141.394 102.963 142.023 103.268 142.817L101.418 143.586C101.003 142.597 100.216 142.102 99.0558 142.102C98.5552 142.102 98.0913 142.231 97.6639 142.487C97.2488 142.743 96.913 143.11 96.6566 143.586C96.4124 144.05 96.2903 144.587 96.2903 145.198C96.2903 145.808 96.4124 146.351 96.6566 146.828C96.913 147.304 97.2488 147.67 97.6639 147.926C98.0913 148.183 98.5552 148.311 99.0558 148.311C99.6419 148.311 100.142 148.183 100.558 147.926C100.985 147.658 101.308 147.279 101.528 146.791L103.341 147.578C102.987 148.372 102.45 149.001 101.73 149.465C101.009 149.929 100.136 150.161 99.1108 150.161ZM105.055 136.755H107.069V144.392H107.124L110.952 140.527H113.479V140.637L109.853 144.245L113.589 149.758V149.868H111.19L108.443 145.637L107.069 146.974V149.868H105.055V136.755ZM127.793 147.395L129.093 149.025L127.61 150.161L126.676 148.989C125.821 149.77 124.796 150.161 123.599 150.161C122.708 150.161 121.89 149.959 121.145 149.556C120.412 149.154 119.832 148.604 119.405 147.908C118.978 147.2 118.764 146.412 118.764 145.546C118.764 144.801 118.959 144.087 119.35 143.403C119.741 142.719 120.272 142.151 120.943 141.7C120.357 140.943 120.064 140.24 120.064 139.593C120.064 139.02 120.205 138.495 120.486 138.018C120.779 137.53 121.175 137.151 121.676 136.883C122.177 136.602 122.732 136.462 123.343 136.462C124.124 136.462 124.777 136.669 125.302 137.084C125.827 137.487 126.2 138.012 126.419 138.659L124.753 139.538C124.448 138.708 123.984 138.293 123.361 138.293C122.982 138.293 122.665 138.409 122.409 138.641C122.164 138.873 122.042 139.184 122.042 139.575C122.042 139.954 122.189 140.326 122.482 140.692L126.639 145.948L127.775 144.099L129.276 145.033L127.793 147.395ZM123.654 148.329C124.411 148.329 125.046 148.073 125.559 147.56L122.042 143.091C121.615 143.36 121.279 143.714 121.035 144.154C120.791 144.581 120.669 145.033 120.669 145.509C120.669 146.046 120.803 146.535 121.072 146.974C121.34 147.401 121.7 147.737 122.152 147.981C122.616 148.213 123.117 148.329 123.654 148.329ZM138.847 150.161C137.76 150.161 136.783 149.843 135.917 149.208C135.05 148.574 134.451 147.682 134.122 146.535L136.063 145.747C136.258 146.467 136.6 147.06 137.089 147.524C137.589 147.975 138.188 148.201 138.884 148.201C139.531 148.201 140.08 148.036 140.532 147.707C140.984 147.365 141.209 146.901 141.209 146.315C141.209 145.778 141.008 145.338 140.605 144.996C140.214 144.642 139.525 144.288 138.536 143.934L137.711 143.641C136.832 143.336 136.094 142.896 135.495 142.322C134.897 141.748 134.598 140.991 134.598 140.051C134.598 139.404 134.775 138.806 135.129 138.256C135.483 137.707 135.972 137.274 136.594 136.956C137.229 136.626 137.943 136.462 138.737 136.462C139.885 136.462 140.8 136.742 141.484 137.304C142.168 137.854 142.626 138.476 142.858 139.172L141.008 139.96C140.874 139.545 140.617 139.178 140.239 138.861C139.86 138.543 139.372 138.385 138.774 138.385C138.175 138.385 137.669 138.537 137.254 138.842C136.851 139.148 136.649 139.538 136.649 140.015C136.649 140.466 136.832 140.839 137.199 141.132C137.565 141.425 138.139 141.706 138.92 141.974L139.744 142.249C140.868 142.64 141.734 143.152 142.345 143.787C142.968 144.41 143.279 145.246 143.279 146.296C143.279 147.151 143.059 147.871 142.62 148.458C142.18 149.031 141.618 149.459 140.935 149.74C140.263 150.02 139.567 150.161 138.847 150.161ZM145.296 136.755H147.311V140.326L147.219 141.754H147.311C147.579 141.315 147.976 140.955 148.501 140.674C149.039 140.381 149.612 140.234 150.223 140.234C151.358 140.234 152.225 140.57 152.824 141.242C153.422 141.901 153.721 142.805 153.721 143.952V149.868H151.706V144.227C151.706 143.519 151.517 142.988 151.139 142.634C150.772 142.279 150.29 142.102 149.692 142.102C149.24 142.102 148.831 142.231 148.465 142.487C148.111 142.743 147.83 143.085 147.622 143.513C147.415 143.928 147.311 144.373 147.311 144.85V149.868H145.296V136.755ZM160.387 150.161C159.447 150.161 158.604 149.947 157.859 149.52C157.114 149.08 156.535 148.482 156.119 147.725C155.704 146.968 155.497 146.126 155.497 145.198C155.497 144.27 155.704 143.427 156.119 142.67C156.535 141.913 157.114 141.321 157.859 140.894C158.604 140.454 159.447 140.234 160.387 140.234C161.327 140.234 162.169 140.454 162.914 140.894C163.659 141.333 164.239 141.932 164.654 142.689C165.069 143.446 165.277 144.282 165.277 145.198C165.277 146.126 165.069 146.968 164.654 147.725C164.239 148.482 163.659 149.08 162.914 149.52C162.169 149.947 161.327 150.161 160.387 150.161ZM160.387 148.311C160.899 148.311 161.376 148.189 161.815 147.945C162.255 147.688 162.603 147.328 162.859 146.864C163.128 146.388 163.262 145.832 163.262 145.198C163.262 144.563 163.128 144.013 162.859 143.549C162.603 143.085 162.255 142.731 161.815 142.487C161.376 142.231 160.899 142.102 160.387 142.102C159.874 142.102 159.398 142.231 158.958 142.487C158.519 142.731 158.164 143.085 157.896 143.549C157.639 144.013 157.511 144.563 157.511 145.198C157.511 145.832 157.639 146.388 157.896 146.864C158.164 147.328 158.519 147.688 158.958 147.945C159.398 148.189 159.874 148.311 160.387 148.311ZM166.971 140.527H168.894V141.754H168.986C169.255 141.327 169.651 140.967 170.176 140.674C170.701 140.381 171.294 140.234 171.953 140.234C172.795 140.234 173.558 140.448 174.242 140.875C174.926 141.303 175.463 141.895 175.854 142.652C176.257 143.397 176.458 144.245 176.458 145.198C176.458 146.15 176.257 147.005 175.854 147.762C175.463 148.506 174.926 149.092 174.242 149.52C173.558 149.947 172.795 150.161 171.953 150.161C171.294 150.161 170.701 150.014 170.176 149.721C169.651 149.428 169.255 149.074 168.986 148.659H168.894L168.986 149.959V153.824H166.971V140.527ZM171.66 148.311C172.148 148.311 172.606 148.183 173.033 147.926C173.461 147.67 173.803 147.304 174.059 146.828C174.315 146.351 174.444 145.808 174.444 145.198C174.444 144.587 174.315 144.05 174.059 143.586C173.803 143.11 173.461 142.743 173.033 142.487C172.606 142.231 172.148 142.102 171.66 142.102C171.171 142.102 170.714 142.231 170.286 142.487C169.871 142.743 169.535 143.11 169.279 143.586C169.023 144.05 168.894 144.587 168.894 145.198C168.894 145.808 169.023 146.351 169.279 146.828C169.535 147.304 169.871 147.67 170.286 147.926C170.714 148.183 171.171 148.311 171.66 148.311Z" fill="#1A1A1A"/>
</svg>
