<svg width="27" height="25" viewBox="0 0 27 25" fill="none" xmlns="http://www.w3.org/2000/svg">
<path d="M7.30859 19.7174V19.2174H6.80859H3.38002C2.26245 19.2174 1.30859 18.2635 1.30859 17.1459V3.00307C1.30859 1.8855 2.26245 0.931641 3.38002 0.931641H23.9514C25.069 0.931641 26.0229 1.8855 26.0229 3.00307V17.1459C26.0229 18.2635 25.069 19.2174 23.9514 19.2174H11.7123H11.4911L11.3423 19.381L7.30859 23.8185V19.7174ZM19.6657 7.64593C18.4442 7.64593 17.4515 8.63864 17.4515 9.86021C17.4515 11.0818 18.4442 12.0745 19.6657 12.0745C20.8873 12.0745 21.88 11.0818 21.88 9.86021C21.88 8.63864 20.8873 7.64593 19.6657 7.64593ZM13.6657 7.64593C12.4442 7.64593 11.4515 8.63864 11.4515 9.86021C11.4515 11.0818 12.4442 12.0745 13.6657 12.0745C14.8873 12.0745 15.88 11.0818 15.88 9.86021C15.88 8.63864 14.8873 7.64593 13.6657 7.64593ZM7.66574 7.64593C6.44417 7.64593 5.45145 8.63864 5.45145 9.86021C5.45145 11.0818 6.44416 12.0745 7.66574 12.0745C8.88731 12.0745 9.88002 11.0818 9.88002 9.86021C9.88002 8.63864 8.88731 7.64593 7.66574 7.64593Z" stroke="black"/>
</svg>
