<svg width="26" height="26" viewBox="0 0 26 26" fill="none" xmlns="http://www.w3.org/2000/svg">
<path d="M1.2602 21.4247C1.05858 21.4247 0.865221 21.3468 0.722656 21.2079C0.580091 21.0691 0.5 20.8808 0.5 20.6845V2.79885C0.500864 2.05681 0.80396 1.3454 1.34279 0.820695C1.88163 0.295991 2.6122 0.000841797 3.37422 0L15.3635 0C16.1255 0.000841797 16.8561 0.295991 17.3949 0.820695C17.9338 1.3454 18.2369 2.05681 18.2377 2.79885V14.4077C18.2377 14.6042 18.1576 14.7926 18.0149 14.9315C17.8723 15.0704 17.6788 15.1484 17.4771 15.1484C17.2754 15.1484 17.0819 15.0704 16.9393 14.9315C16.7966 14.7926 16.7165 14.6042 16.7165 14.4077V2.79885C16.7161 2.44955 16.5734 2.11468 16.3197 1.86768C16.0661 1.62069 15.7222 1.48175 15.3635 1.48133H3.37422C3.01552 1.48175 2.67162 1.62069 2.41798 1.86768C2.16434 2.11468 2.02165 2.44955 2.02122 2.79885V20.6845C2.02122 20.7818 2.00153 20.8781 1.96327 20.968C1.92502 21.0578 1.86895 21.1395 1.79827 21.2082C1.72759 21.277 1.64369 21.3315 1.55137 21.3686C1.45904 21.4058 1.3601 21.4249 1.2602 21.4247Z" fill="#828282"/>
<path d="M1.25977 20.4436V23.2011C1.25977 23.4714 1.31445 23.7391 1.4207 23.9888C1.52695 24.2385 1.68268 24.4654 1.879 24.6565C2.07532 24.8476 2.30837 24.9991 2.56485 25.1025C2.82133 25.2059 3.09621 25.259 3.37379 25.2589H15.3631C15.6406 25.259 15.9155 25.2059 16.172 25.1025C16.4285 24.9991 16.6615 24.8476 16.8579 24.6565C17.0542 24.4654 17.2099 24.2385 17.3162 23.9888C17.4224 23.7391 17.4771 23.4714 17.4771 23.2011V20.4436H1.25977Z" fill="#828282"/>
<path d="M15.3635 26H3.37422C2.6122 25.9992 1.88163 25.704 1.34279 25.1793C0.80396 24.6546 0.500864 23.9432 0.5 23.2012V20.4436C0.5 20.2473 0.580091 20.059 0.722656 19.9202C0.865221 19.7814 1.05858 19.7034 1.2602 19.7034H17.4775C17.6791 19.7034 17.8725 19.7814 18.0151 19.9202C18.1576 20.059 18.2377 20.2473 18.2377 20.4436V23.1988C18.2375 23.9412 17.9347 24.6532 17.3958 25.1784C16.8569 25.7037 16.126 25.9992 15.3635 26ZM2.0204 21.1847V23.1988C2.02083 23.5481 2.16352 23.8829 2.41716 24.1299C2.67081 24.3769 3.0147 24.5159 3.37341 24.5163H15.3635C15.7222 24.5159 16.0661 24.3769 16.3197 24.1299C16.5734 23.8829 16.7161 23.5481 16.7165 23.1988V21.1815L2.0204 21.1847Z" fill="#828282"/>
<path d="M10.6228 23.5805H8.18053C7.97881 23.5805 7.78534 23.5024 7.6427 23.3635C7.50005 23.2246 7.41992 23.0362 7.41992 22.8398C7.41992 22.6434 7.50005 22.455 7.6427 22.3161C7.78534 22.1772 7.97881 22.0991 8.18053 22.0991H10.6228C10.8245 22.0991 11.018 22.1772 11.1606 22.3161C11.3033 22.455 11.3834 22.6434 11.3834 22.8398C11.3834 23.0362 11.3033 23.2246 11.1606 23.3635C11.018 23.5024 10.8245 23.5805 10.6228 23.5805Z" fill="#828282"/>
<path d="M17.477 22.1071C17.2754 22.1071 17.082 22.0291 16.9395 21.8902C16.7969 21.7514 16.7168 21.5631 16.7168 21.3668V17.9748C16.7168 17.7783 16.7969 17.59 16.9396 17.4511C17.0822 17.3122 17.2757 17.2341 17.4774 17.2341C17.6791 17.2341 17.8726 17.3122 18.0152 17.4511C18.1579 17.59 18.238 17.7783 18.238 17.9748V21.3668C18.238 21.4641 18.2183 21.5604 18.1801 21.6503C18.1418 21.7401 18.0857 21.8218 18.0151 21.8905C17.9444 21.9593 17.8605 22.0138 17.7682 22.0509C17.6758 22.0881 17.5769 22.1072 17.477 22.1071Z" fill="#828282"/>
<path d="M22.7711 17.7053C22.615 17.7055 22.4626 17.6589 22.3347 17.5719C22.2067 17.4848 22.1093 17.3616 22.0558 17.2188C22.0023 17.076 21.9952 16.9207 22.0356 16.7738C22.0759 16.627 22.1616 16.4958 22.2812 16.3981C22.3873 16.3106 22.4894 16.22 22.5841 16.1277C23.477 15.256 23.9785 14.0751 23.9785 12.8438C23.9785 11.6126 23.477 10.4317 22.5841 9.55997C22.4415 9.4211 22.3614 9.23275 22.3614 9.03637C22.3614 8.83998 22.4415 8.65165 22.5841 8.51278C22.7267 8.37392 22.9201 8.2959 23.1218 8.2959C23.3234 8.2959 23.5169 8.37392 23.6595 8.51278C24.8373 9.66236 25.4988 11.2199 25.4988 12.8438C25.4988 14.4677 24.8373 16.0253 23.6595 17.1749C23.5345 17.2966 23.3998 17.4134 23.261 17.5311C23.124 17.6438 22.9504 17.7055 22.7711 17.7053Z" fill="#828282"/>
<path d="M20.6855 16.6661C20.5272 16.6664 20.3729 16.6186 20.2439 16.5294C20.1149 16.4402 20.0177 16.314 19.9658 16.1685C19.914 16.023 19.91 15.8653 19.9546 15.7175C19.9991 15.5696 20.0899 15.439 20.2143 15.3438C20.3158 15.2659 20.4126 15.1823 20.5042 15.0933C21.1161 14.4961 21.4597 13.6868 21.4597 12.8431C21.4597 11.9994 21.1161 11.1902 20.5042 10.5929C20.3616 10.4541 20.2814 10.2657 20.2814 10.0693C20.2814 9.87294 20.3616 9.68459 20.5042 9.54573C20.6468 9.40686 20.8402 9.32886 21.0419 9.32886C21.2435 9.32886 21.437 9.40686 21.5796 9.54573C22.0581 10.0115 22.4299 10.5707 22.6703 11.1865C22.9108 11.8024 23.0144 12.4609 22.9745 13.1186C22.9345 13.7763 22.7518 14.4183 22.4385 15.0022C22.1251 15.5861 21.6882 16.0988 21.1566 16.5063C21.0226 16.6099 20.8565 16.6662 20.6855 16.6661Z" fill="#828282"/>
</svg>
