<svg width="50" height="28" viewBox="0 0 50 28" fill="none" xmlns="http://www.w3.org/2000/svg">
<path d="M18.6211 19.3179C16.3664 19.3179 14.5442 21.1465 14.5442 23.4013C14.5442 25.6494 16.3664 27.4782 18.6211 27.4782C20.8759 27.4782 22.698 25.6494 22.698 23.4013C22.6979 21.1465 20.8759 19.3179 18.6211 19.3179ZM18.6211 25.4398C17.4937 25.4398 16.5826 24.522 16.5826 23.4012C16.5826 22.2739 17.4937 21.3627 18.6211 21.3627C19.7485 21.3627 20.6596 22.2739 20.6596 23.4012C20.6595 24.522 19.7485 25.4398 18.6211 25.4398ZM49.3695 16.3017V20.655C49.3695 21.7409 48.4892 22.6213 47.4032 22.6213H45.2992C44.919 20.0125 42.6709 18.0069 39.9573 18.0069C37.2503 18.0069 35.0021 20.0126 34.6219 22.6213H23.9578C23.5776 20.0125 21.3294 18.0069 18.6224 18.0069C15.9154 18.0069 13.6672 20.0126 13.2871 22.6213H10.6522C9.5662 22.6213 8.68589 21.741 8.68589 20.655V16.3017H49.3695ZM39.9625 19.3179C37.7078 19.3179 35.8791 21.1465 35.8791 23.4013C35.8791 25.6494 37.7079 27.4782 39.9625 27.4782C42.2107 27.4782 44.0393 25.6494 44.0393 23.4013C44.0393 21.1465 42.2107 19.3179 39.9625 19.3179ZM39.9625 25.4398C38.8351 25.4398 37.9241 24.522 37.9241 23.4012C37.9241 22.2739 38.8351 21.3627 39.9625 21.3627C41.0833 21.3627 42.001 22.2739 42.001 23.4012C42.001 24.522 41.0833 25.4398 39.9625 25.4398ZM48.5947 11.9178L40.8671 4.27523C40.3755 3.79019 39.7135 3.5149 39.0252 3.5149H35.1254V2.05321C35.1254 0.965221 34.2471 0.0869141 33.1591 0.0869141H10.6508C9.56931 0.0869141 8.68454 0.9653 8.68454 2.05321V2.3613L0.705064 3.28095L14.8443 5.12217L0.521484 6.54499L14.7939 8.57418L0.521484 9.81167L8.68501 11.3513L8.68446 15.2147H49.3682V13.7792C49.3682 13.0779 49.0863 12.4094 48.5947 11.9178ZM45.2257 12.1734H37.7471C37.5767 12.1734 37.439 12.0358 37.439 11.8654V6.09083C37.439 5.92042 37.5767 5.78274 37.7471 5.78274H39.1695C39.2481 5.78274 39.3268 5.81554 39.3858 5.86798L45.4356 11.6425C45.6386 11.8326 45.501 12.1734 45.2257 12.1734Z" fill="#D2C01E"/>
</svg>
