<svg width="266" height="267" viewBox="0 0 266 267" fill="none" xmlns="http://www.w3.org/2000/svg">
<path d="M199.053 199.645C235.698 162.992 235.698 103.566 199.053 66.9129C162.409 30.2599 102.996 30.26 66.3511 66.9129C29.7064 103.566 29.7064 162.992 66.3511 199.645C102.996 236.298 162.409 236.298 199.053 199.645Z" fill="#E94E1B" fill-opacity="0.2"/>
<path d="M125.018 121.284C122.462 121.284 120.397 123.594 120.397 126.441C120.397 129.28 122.462 131.589 125.018 131.589C127.574 131.589 129.64 129.28 129.64 126.441C129.64 123.594 127.574 121.284 125.018 121.284ZM125.018 129.015C123.74 129.015 122.707 127.856 122.707 126.441C122.707 125.017 123.74 123.867 125.018 123.867C126.296 123.867 127.329 125.017 127.329 126.441C127.329 127.856 126.296 129.015 125.018 129.015ZM159.876 117.476V122.973C159.876 124.344 158.878 125.456 157.647 125.456H155.261C154.83 122.162 152.282 119.629 149.206 119.629C146.137 119.629 143.588 122.162 143.157 125.456H131.068C130.637 122.162 128.089 119.629 125.02 119.629C121.951 119.629 119.402 122.162 118.972 125.456H115.984C114.753 125.456 113.755 124.344 113.755 122.973V117.476H159.876ZM149.212 121.284C146.656 121.284 144.583 123.594 144.583 126.441C144.583 129.28 146.656 131.589 149.212 131.589C151.76 131.589 153.833 129.28 153.833 126.441C153.833 123.594 151.76 121.284 149.212 121.284ZM149.212 129.015C147.934 129.015 146.901 127.856 146.901 126.441C146.901 125.017 147.934 123.867 149.212 123.867C150.482 123.867 151.522 125.017 151.522 126.441C151.522 127.856 150.482 129.015 149.212 129.015ZM158.997 111.94L150.237 102.289C149.68 101.676 148.929 101.329 148.149 101.329H143.728V99.483C143.728 98.1091 142.732 97 141.499 97H115.983C114.757 97 113.754 98.1092 113.754 99.483V99.8721L104.708 101.033L120.737 103.358L104.5 105.155L120.68 107.718L104.5 109.28L113.754 111.224L113.754 116.103H159.874V114.29C159.874 113.405 159.555 112.561 158.997 111.94ZM155.178 112.263H146.7C146.507 112.263 146.351 112.089 146.351 111.874V104.582C146.351 104.366 146.507 104.193 146.7 104.193H148.313C148.402 104.193 148.491 104.234 148.558 104.3L155.416 111.592C155.646 111.832 155.49 112.263 155.178 112.263Z" fill="#E94E1B"/>
<path d="M94.7154 144.175H99.0289C100.423 144.175 101.641 144.458 102.683 145.023C103.725 145.588 104.523 146.385 105.075 147.415C105.64 148.432 105.923 149.6 105.923 150.918C105.923 152.237 105.64 153.411 105.075 154.441C104.523 155.458 103.725 156.249 102.683 156.814C101.641 157.379 100.423 157.662 99.0289 157.662H94.7154V144.175ZM98.9912 155.646C100.498 155.646 101.672 155.232 102.513 154.403C103.367 153.562 103.794 152.4 103.794 150.918C103.794 149.449 103.367 148.294 102.513 147.453C101.672 146.611 100.498 146.191 98.9912 146.191H96.8251V155.646H98.9912ZM109.175 146.662C108.786 146.662 108.453 146.53 108.177 146.266C107.913 145.99 107.781 145.657 107.781 145.268C107.781 144.878 107.913 144.552 108.177 144.288C108.453 144.012 108.786 143.874 109.175 143.874C109.564 143.874 109.891 144.012 110.154 144.288C110.431 144.552 110.569 144.878 110.569 145.268C110.569 145.657 110.431 145.99 110.154 146.266C109.891 146.53 109.564 146.662 109.175 146.662ZM108.139 148.055H110.211V157.662H108.139V148.055ZM116.293 157.963C115.188 157.963 114.284 157.724 113.58 157.247C112.877 156.758 112.381 156.136 112.092 155.383L113.938 154.573C114.164 155.075 114.478 155.458 114.88 155.722C115.294 155.985 115.765 156.117 116.293 156.117C116.808 156.117 117.241 156.029 117.592 155.853C117.944 155.665 118.12 155.389 118.12 155.025C118.12 154.673 117.969 154.397 117.668 154.196C117.366 153.995 116.902 153.819 116.274 153.668L115.125 153.386C114.359 153.198 113.725 152.865 113.222 152.388C112.72 151.91 112.469 151.308 112.469 150.579C112.469 150.014 112.632 149.518 112.959 149.091C113.298 148.664 113.75 148.338 114.315 148.112C114.88 147.873 115.495 147.754 116.161 147.754C117.052 147.754 117.837 147.936 118.515 148.3C119.193 148.652 119.683 149.167 119.984 149.845L118.176 150.636C117.812 149.895 117.147 149.525 116.18 149.525C115.715 149.525 115.326 149.619 115.012 149.807C114.698 149.995 114.541 150.24 114.541 150.542C114.541 150.831 114.66 151.069 114.899 151.257C115.137 151.433 115.489 151.584 115.954 151.71L117.366 152.067C118.308 152.306 119.018 152.67 119.495 153.16C119.984 153.637 120.229 154.227 120.229 154.93C120.229 155.533 120.054 156.067 119.702 156.532C119.363 156.984 118.892 157.335 118.289 157.586C117.687 157.837 117.021 157.963 116.293 157.963ZM121.856 148.055H123.834V149.317H123.928C124.204 148.878 124.612 148.507 125.152 148.206C125.692 147.905 126.301 147.754 126.979 147.754C127.846 147.754 128.631 147.974 129.334 148.413C130.037 148.853 130.589 149.462 130.991 150.24C131.406 151.006 131.613 151.879 131.613 152.859C131.613 153.838 131.406 154.717 130.991 155.496C130.589 156.262 130.037 156.864 129.334 157.304C128.631 157.743 127.846 157.963 126.979 157.963C126.301 157.963 125.692 157.812 125.152 157.511C124.612 157.21 124.204 156.845 123.928 156.419H123.834L123.928 157.756V161.73H121.856V148.055ZM126.678 156.061C127.18 156.061 127.651 155.929 128.091 155.665C128.53 155.401 128.882 155.025 129.145 154.535C129.409 154.045 129.541 153.486 129.541 152.859C129.541 152.231 129.409 151.678 129.145 151.201C128.882 150.711 128.53 150.335 128.091 150.071C127.651 149.807 127.18 149.675 126.678 149.675C126.176 149.675 125.705 149.807 125.265 150.071C124.838 150.335 124.493 150.711 124.229 151.201C123.965 151.678 123.834 152.231 123.834 152.859C123.834 153.486 123.965 154.045 124.229 154.535C124.493 155.025 124.838 155.401 125.265 155.665C125.705 155.929 126.176 156.061 126.678 156.061ZM136.515 157.963C135.824 157.963 135.209 157.831 134.669 157.568C134.129 157.291 133.708 156.908 133.407 156.419C133.106 155.916 132.955 155.351 132.955 154.723C132.955 153.731 133.325 152.946 134.066 152.369C134.82 151.791 135.768 151.502 136.911 151.502C137.476 151.502 137.984 151.559 138.436 151.672C138.888 151.772 139.246 151.885 139.51 152.011V151.521C139.51 150.931 139.29 150.454 138.851 150.09C138.411 149.713 137.846 149.525 137.155 149.525C136.666 149.525 136.201 149.631 135.762 149.845C135.335 150.058 134.989 150.353 134.726 150.73L133.275 149.619C133.702 149.029 134.255 148.57 134.933 148.244C135.611 147.917 136.364 147.754 137.193 147.754C138.587 147.754 139.661 148.099 140.414 148.79C141.167 149.468 141.544 150.429 141.544 151.672V157.662H139.51V156.513H139.416C139.139 156.927 138.75 157.272 138.248 157.549C137.746 157.825 137.168 157.963 136.515 157.963ZM136.873 156.249C137.375 156.249 137.827 156.13 138.229 155.891C138.631 155.653 138.945 155.332 139.171 154.93C139.397 154.529 139.51 154.095 139.51 153.631C139.221 153.468 138.882 153.336 138.493 153.235C138.116 153.135 137.721 153.085 137.306 153.085C136.528 153.085 135.956 153.242 135.592 153.555C135.228 153.857 135.046 154.252 135.046 154.742C135.046 155.182 135.215 155.546 135.554 155.835C135.893 156.111 136.333 156.249 136.873 156.249ZM147.555 157.812C147.128 157.812 146.726 157.743 146.349 157.605C145.973 157.467 145.665 157.285 145.426 157.059C144.886 156.519 144.617 155.784 144.617 154.855V149.882H142.94V148.055H144.617V145.343H146.688V148.055H149.024V149.882H146.688V154.403C146.688 154.918 146.789 155.282 146.99 155.496C147.178 155.747 147.505 155.872 147.969 155.872C148.183 155.872 148.371 155.847 148.534 155.797C148.698 155.734 148.873 155.64 149.062 155.514V157.53C148.647 157.718 148.145 157.812 147.555 157.812ZM155.072 157.963C154.117 157.963 153.257 157.743 152.491 157.304C151.738 156.864 151.148 156.262 150.721 155.496C150.306 154.717 150.099 153.838 150.099 152.859C150.099 151.879 150.306 151.006 150.721 150.24C151.148 149.462 151.738 148.853 152.491 148.413C153.257 147.974 154.117 147.754 155.072 147.754C156.127 147.754 157.024 147.993 157.765 148.47C158.506 148.947 159.034 149.594 159.347 150.41L157.445 151.201C157.018 150.184 156.208 149.675 155.015 149.675C154.5 149.675 154.023 149.807 153.584 150.071C153.157 150.335 152.811 150.711 152.548 151.201C152.297 151.678 152.171 152.231 152.171 152.859C152.171 153.486 152.297 154.045 152.548 154.535C152.811 155.025 153.157 155.401 153.584 155.665C154.023 155.929 154.5 156.061 155.015 156.061C155.618 156.061 156.133 155.929 156.56 155.665C156.999 155.389 157.332 155 157.558 154.497L159.423 155.307C159.059 156.123 158.506 156.77 157.765 157.247C157.024 157.724 156.127 157.963 155.072 157.963ZM161.185 144.175H163.257V147.848L163.163 149.317H163.257C163.533 148.865 163.941 148.495 164.481 148.206C165.034 147.905 165.624 147.754 166.252 147.754C167.42 147.754 168.311 148.099 168.926 148.79C169.542 149.468 169.849 150.397 169.849 151.578V157.662H167.777V151.86C167.777 151.132 167.583 150.586 167.194 150.222C166.817 149.857 166.321 149.675 165.705 149.675C165.241 149.675 164.82 149.807 164.443 150.071C164.079 150.335 163.791 150.686 163.577 151.126C163.364 151.553 163.257 152.011 163.257 152.501V157.662H161.185V144.175Z" fill="#1A1A1A"/>
</svg>
