<svg width="27" height="28" viewBox="0 0 27 28" fill="none" xmlns="http://www.w3.org/2000/svg">
<path d="M13.4747 6.6355C11.6349 6.6375 9.87092 7.36926 8.56994 8.67025C7.26896 9.97123 6.53718 11.7352 6.53518 13.575C6.5307 15.1281 7.05396 16.6366 8.0192 17.8533C8.21113 18.0974 8.41212 18.3309 8.6237 18.5779L8.63503 18.5915C9.33431 19.287 9.87305 20.127 10.2135 21.0526C10.2676 21.3587 10.2884 21.6698 10.2755 21.9805V22.5094C10.2755 22.7425 10.368 22.966 10.5328 23.1308C10.6977 23.2956 10.9212 23.3882 11.1542 23.3882H15.7544C15.9875 23.3882 16.211 23.2956 16.3758 23.1308C16.5406 22.966 16.6332 22.7425 16.6332 22.5094V21.9729C16.6202 21.6852 16.6405 21.3969 16.6936 21.1138C17.0663 20.1506 17.632 19.2737 18.356 18.5371L18.3847 18.5031C18.5766 18.2765 18.758 18.0649 18.9234 17.8548C19.8901 16.6376 20.4143 15.1279 20.4097 13.5735C20.4073 11.7347 19.676 9.97184 18.3761 8.67131C17.0761 7.37079 15.3135 6.6387 13.4747 6.6355ZM17.5475 16.7698C17.4031 16.9541 17.2324 17.1544 17.0518 17.3659L17.0163 17.4075C16.1166 18.3282 15.4288 19.4342 15.0011 20.6483C14.9198 20.9694 14.8792 21.2994 14.8802 21.6306H12.0323C12.0355 21.2803 11.9947 20.931 11.9106 20.5909C11.507 19.4092 10.8428 18.3333 9.96717 17.443L9.95508 17.4294C9.7556 17.1982 9.5667 16.976 9.39895 16.766C8.67826 15.8582 8.2874 14.7326 8.29047 13.5735C8.29047 12.1991 8.83647 10.8809 9.80835 9.90904C10.7802 8.93716 12.0984 8.39116 13.4728 8.39116C14.8473 8.39116 16.1654 8.93716 17.1373 9.90904C18.1092 10.8809 18.6552 12.1991 18.6552 13.5735C18.6593 14.7338 18.2687 15.8609 17.5475 16.7698Z" fill="#828282"/>
<path d="M15.7559 23.6383H11.1565C11.039 23.6349 10.922 23.6551 10.8124 23.6976C10.7028 23.7402 10.6029 23.8044 10.5185 23.8863C10.4342 23.9682 10.3671 24.0662 10.3213 24.1745C10.2755 24.2828 10.252 24.3991 10.252 24.5167C10.252 24.6343 10.2755 24.7507 10.3213 24.8589C10.3671 24.9672 10.4342 25.0652 10.5185 25.1471C10.6029 25.229 10.7028 25.2932 10.8124 25.3358C10.922 25.3784 11.039 25.3986 11.1565 25.3951H15.7567C15.8742 25.3986 15.9912 25.3784 16.1008 25.3358C16.2104 25.2932 16.3103 25.229 16.3946 25.1471C16.479 25.0652 16.546 24.9672 16.5918 24.8589C16.6376 24.7507 16.6612 24.6343 16.6612 24.5167C16.6612 24.3991 16.6376 24.2828 16.5918 24.1745C16.546 24.0662 16.479 23.9682 16.3946 23.8863C16.3103 23.8044 16.2104 23.7402 16.1008 23.6976C15.9912 23.6551 15.8742 23.6349 15.7567 23.6383H15.7559Z" fill="#828282"/>
<path d="M14.6034 25.6422H12.301C12.1835 25.6388 12.0665 25.6589 11.9569 25.7015C11.8473 25.7441 11.7474 25.8083 11.6631 25.8902C11.5787 25.9721 11.5116 26.0701 11.4659 26.1784C11.4201 26.2867 11.3965 26.403 11.3965 26.5206C11.3965 26.6382 11.4201 26.7546 11.4659 26.8629C11.5116 26.9711 11.5787 27.0691 11.6631 27.151C11.7474 27.233 11.8473 27.2971 11.9569 27.3397C12.0665 27.3823 12.1835 27.4025 12.301 27.399H14.6011C14.8296 27.3923 15.0465 27.2968 15.2058 27.1328C15.365 26.9688 15.4541 26.7492 15.4541 26.5206C15.4541 26.292 15.365 26.0724 15.2058 25.9084C15.0465 25.7444 14.8296 25.6489 14.6011 25.6422H14.6034Z" fill="#828282"/>
<path d="M25.5955 12.6962H22.5647C22.4472 12.6927 22.3302 12.7129 22.2206 12.7555C22.111 12.7981 22.0111 12.8622 21.9267 12.9441C21.8424 13.026 21.7753 13.124 21.7295 13.2323C21.6838 13.3406 21.6602 13.457 21.6602 13.5746C21.6602 13.6921 21.6838 13.8085 21.7295 13.9168C21.7753 14.0251 21.8424 14.1231 21.9267 14.205C22.0111 14.2869 22.111 14.3511 22.2206 14.3937C22.3302 14.4362 22.4472 14.4564 22.5647 14.453H25.5955C25.713 14.4564 25.83 14.4362 25.9396 14.3937C26.0492 14.3511 26.1491 14.2869 26.2334 14.205C26.3178 14.1231 26.3848 14.0251 26.4306 13.9168C26.4764 13.8085 26.5 13.6921 26.5 13.5746C26.5 13.457 26.4764 13.3406 26.4306 13.2323C26.3848 13.124 26.3178 13.026 26.2334 12.9441C26.1491 12.8622 26.0492 12.7981 25.9396 12.7555C25.83 12.7129 25.713 12.6927 25.5955 12.6962Z" fill="#828282"/>
<path d="M5.26179 13.5751C5.26179 13.342 5.1692 13.1185 5.0044 12.9537C4.8396 12.7889 4.61608 12.6963 4.38301 12.6963H1.35301C1.1245 12.703 0.907604 12.7985 0.748344 12.9625C0.589083 13.1265 0.5 13.3461 0.5 13.5747C0.5 13.8033 0.589083 14.0229 0.748344 14.1869C0.907604 14.3509 1.1245 14.4464 1.35301 14.4531H4.38377C4.61657 14.4529 4.83978 14.3603 5.0044 14.1957C5.16902 14.0311 5.26159 13.8079 5.26179 13.5751Z" fill="#828282"/>
<path d="M13.4757 5.36313C13.5911 5.36313 13.7053 5.3404 13.812 5.29624C13.9186 5.25208 14.0155 5.18735 14.0971 5.10574C14.1787 5.02414 14.2434 4.92727 14.2876 4.82065C14.3317 4.71403 14.3545 4.59976 14.3545 4.48435V1.4536C14.3477 1.22509 14.2523 1.00819 14.0883 0.84893C13.9243 0.689669 13.7047 0.600586 13.4761 0.600586C13.2475 0.600586 13.0278 0.689669 12.8638 0.84893C12.6998 1.00819 12.6044 1.22509 12.5977 1.4536V4.48435C12.5977 4.71729 12.6901 4.9407 12.8548 5.10548C13.0194 5.27026 13.2427 5.36293 13.4757 5.36313Z" fill="#828282"/>
<path d="M20.5243 19.379C20.4436 19.2934 20.3466 19.2248 20.239 19.1774C20.1314 19.13 20.0153 19.1046 19.8977 19.1029C19.7801 19.1011 19.6634 19.123 19.5544 19.1672C19.4454 19.2114 19.3464 19.277 19.2632 19.3602C19.1801 19.4433 19.1145 19.5423 19.0703 19.6513C19.0261 19.7603 19.0042 19.8771 19.006 19.9947C19.0077 20.1123 19.033 20.2283 19.0805 20.3359C19.1279 20.4435 19.1964 20.5405 19.282 20.6212L21.4249 22.7649C21.5913 22.9216 21.8121 23.0073 22.0406 23.0039C22.2692 23.0005 22.4873 22.9082 22.6489 22.7466C22.8105 22.585 22.9028 22.3668 22.9062 22.1383C22.9096 21.9098 22.8239 21.689 22.6672 21.5226L20.5243 19.379Z" fill="#828282"/>
<path d="M6.42287 7.77058C6.50444 7.85215 6.60127 7.91685 6.70784 7.96099C6.81441 8.00514 6.92863 8.02786 7.04398 8.02786C7.15933 8.02786 7.27355 8.00514 7.38012 7.96099C7.4867 7.91685 7.58353 7.85215 7.66509 7.77058C7.74666 7.68902 7.81136 7.59219 7.85551 7.48562C7.89965 7.37905 7.92237 7.26482 7.92237 7.14947C7.92237 7.03412 7.89965 6.9199 7.85551 6.81333C7.81136 6.70676 7.74666 6.60993 7.66509 6.52836L5.52294 4.38544C5.44137 4.30388 5.34454 4.23918 5.23797 4.19503C5.1314 4.15089 5.01717 4.12817 4.90182 4.12817C4.78647 4.12817 4.67225 4.15089 4.56568 4.19503C4.45911 4.23918 4.36228 4.30388 4.28071 4.38544C4.19915 4.46701 4.13444 4.56385 4.0903 4.67042C4.04616 4.77699 4.02344 4.89121 4.02344 5.00656C4.02344 5.12191 4.04616 5.23613 4.0903 5.3427C4.13444 5.44927 4.19915 5.54611 4.28071 5.62767L6.42287 7.77058Z" fill="#828282"/>
<path d="M6.42339 19.3782L4.27821 21.5249C4.1215 21.6913 4.03575 21.9121 4.03916 22.1406C4.04257 22.3691 4.13485 22.5873 4.29645 22.7489C4.45804 22.9105 4.67624 23.0028 4.90474 23.0062C5.13325 23.0096 5.3541 22.9238 5.52043 22.7671L7.66335 20.6235C7.82006 20.4571 7.90581 20.2363 7.9024 20.0078C7.89899 19.7793 7.8067 19.5611 7.64511 19.3995C7.48351 19.2379 7.26532 19.1456 7.03681 19.1422C6.80831 19.1388 6.58746 19.2245 6.42113 19.3812L6.42339 19.3782Z" fill="#828282"/>
<path d="M19.9017 8.02459C20.0171 8.02468 20.1313 8.00196 20.2379 7.95775C20.3445 7.91353 20.4413 7.84868 20.5228 7.76693L22.6649 5.62401C22.8297 5.45928 22.9222 5.23586 22.9222 5.0029C22.9222 4.76994 22.8297 4.54652 22.6649 4.38179C22.5834 4.30022 22.4865 4.23552 22.38 4.19138C22.2734 4.14724 22.1592 4.12451 22.0438 4.12451C21.8109 4.12451 21.5875 4.21706 21.4227 4.38179L19.2805 6.5247C19.1578 6.6476 19.0742 6.80413 19.0403 6.97453C19.0064 7.14492 19.0238 7.32152 19.0903 7.48203C19.1568 7.64254 19.2693 7.77974 19.4137 7.87631C19.5582 7.97288 19.728 8.02448 19.9017 8.02459Z" fill="#828282"/>
</svg>
