<svg width="18" height="24" viewBox="0 0 18 24" fill="none" xmlns="http://www.w3.org/2000/svg">
<path d="M2.18937 19.9235L2.18922 19.9234C1.91069 19.6858 1.75 19.3371 1.75 18.9724C1.75 16.5716 3.69106 14.6441 6.10574 14.6441H12.2553C14.6685 14.6441 16.6026 16.5695 16.6026 18.9724C16.6026 19.3386 16.4427 19.6854 16.1646 19.9222L16.1636 19.9231C14.2812 21.5305 11.8417 22.5 9.17629 22.5C6.51166 22.5 4.07271 21.5306 2.18937 19.9235ZM9.1798 1.5C11.5472 1.5 13.4654 3.41889 13.4654 5.78486C13.4654 8.15144 11.5473 10.0697 9.1798 10.0697C6.81392 10.0697 4.89565 8.15161 4.89565 5.78486C4.89565 3.41872 6.81401 1.5 9.1798 1.5Z" stroke="black" stroke-opacity="0.6" stroke-width="2"/>
</svg>
