<svg width="37" height="32" viewBox="0 0 37 32" fill="none" xmlns="http://www.w3.org/2000/svg">
<g clip-path="url(#clip0)">
<path d="M2.73926 27.6413C2.73926 28.7126 3.53656 29.5815 4.51969 29.5815H36.5675C37.5507 29.5815 38.348 28.7126 38.348 27.6413V8.23911H2.73926V27.6413ZM27.6653 15.0299C27.6653 14.4939 28.0637 14.0598 28.5556 14.0598H33.8969C34.3887 14.0598 34.7871 14.4939 34.7871 15.0299V16.9701C34.7871 17.5061 34.3887 17.9402 33.8969 17.9402H28.5556C28.0637 17.9402 27.6653 17.5061 27.6653 16.9701V15.0299ZM27.6653 22.3057C27.6653 22.0377 27.8645 21.8206 28.1105 21.8206H34.342C34.5879 21.8206 34.7871 22.0377 34.7871 22.3057V23.2758C34.7871 23.5438 34.5879 23.7608 34.342 23.7608H28.1105C27.8645 23.7608 27.6653 23.5438 27.6653 23.2758V22.3057ZM6.30013 16.485C6.30013 16.217 6.49931 16 6.74524 16H23.6594C23.9053 16 24.1045 16.217 24.1045 16.485V17.4551C24.1045 17.7231 23.9053 17.9402 23.6594 17.9402H6.74524C6.49931 17.9402 6.30013 17.7231 6.30013 17.4551V16.485ZM6.30013 22.3057C6.30013 22.0377 6.49931 21.8206 6.74524 21.8206H16.5376C16.7836 21.8206 16.9827 22.0377 16.9827 22.3057V23.2758C16.9827 23.5438 16.7836 23.7608 16.5376 23.7608H6.74524C6.49931 23.7608 6.30013 23.5438 6.30013 23.2758V22.3057ZM37.4577 2.41846H3.62948C3.13763 2.41846 2.73926 2.85258 2.73926 3.38857V6.29889H38.348V3.38857C38.348 2.85258 37.9496 2.41846 37.4577 2.41846Z" fill="#14B571"/>
</g>
<defs>
<clipPath id="clip0">
<rect width="35.6087" height="31.0435" fill="white" transform="translate(0.739258 0.478027)"/>
</clipPath>
</defs>
</svg>
