<svg width="220" height="66" viewBox="0 0 220 66" fill="none" xmlns="http://www.w3.org/2000/svg">
<mask id="mask0" style="mask-type:alpha" maskUnits="userSpaceOnUse" x="0" y="0" width="219" height="66">
<path fill-rule="evenodd" clip-rule="evenodd" d="M0.522217 0.888H218.939V65.6039H0.522217V0.888Z" fill="white"/>
</mask>
<g mask="url(#mask0)">
<path fill-rule="evenodd" clip-rule="evenodd" d="M210.849 65.604H8.61172C4.0816 65.604 0.522217 62.0446 0.522217 57.5145V8.9775C0.522217 4.44738 4.0816 0.888 8.61172 0.888H210.849C215.379 0.888 218.939 4.44738 218.939 8.9775V57.5145C218.939 62.0446 215.379 65.604 210.849 65.604" fill="black"/>
</g>
<path fill-rule="evenodd" clip-rule="evenodd" d="M122.836 21.9207V12.2133H124.292L128.984 19.8174V12.2133H130.278V21.9207H128.984L123.968 13.993V21.9207H122.836ZM113.451 19.8174C114.098 20.4646 115.069 20.9499 116.04 20.9499C117.01 20.9499 117.981 20.6264 118.628 19.8174C119.275 19.1703 119.761 18.1995 119.761 17.067C119.761 15.9345 119.437 14.9637 118.628 14.3166C117.981 13.6694 117.01 13.184 116.04 13.184C115.069 13.184 114.098 13.5076 113.451 14.3166C112.804 14.9637 112.318 15.9345 112.318 17.067C112.318 18.1995 112.642 19.1703 113.451 19.8174V19.8174ZM119.6 20.6263C118.629 21.597 117.497 22.0824 116.04 22.0824C114.584 22.0824 113.452 21.597 112.481 20.6263C111.51 19.6555 111.025 18.523 111.025 17.0669C111.025 15.6108 111.51 14.4783 112.481 13.5075C113.452 12.5368 114.584 12.0514 116.04 12.0514C117.497 12.0514 118.629 12.5368 119.6 13.5075C120.571 14.4783 121.056 15.6108 121.056 17.0669C121.056 18.523 120.571 19.6555 119.6 20.6263V20.6263ZM104.23 21.9207H102.936V13.3458H100.185V12.2133H106.819V13.3458H104.068V21.9207H104.23ZM97.4338 21.9207H98.7281V12.2133H97.4338V21.9207ZM89.9921 21.9207H88.6978V13.3458H85.9473V12.2133H92.7425V13.3458H89.9921V21.9207ZM84.6523 13.3458H80.284V16.4198H84.3287V17.5524H80.284V20.6264H84.6523V21.9207H78.9897V12.2133H84.6523V13.3458ZM77.2113 17.3906C77.2113 18.6849 76.8877 19.8174 76.0788 20.6264C75.108 21.5971 73.9755 22.0825 72.5194 22.0825C71.0633 22.0825 69.9308 21.5971 68.96 20.6264C67.9893 19.6556 67.5039 18.5231 67.5039 17.067C67.5039 15.6109 67.9893 14.4784 68.96 13.5076C69.9308 12.5369 71.0633 12.0515 72.5194 12.0515C73.1666 12.0515 73.8137 12.2133 74.4609 12.5369C75.108 12.8605 75.5934 13.184 75.917 13.6694L75.108 14.4784C74.4609 13.6694 73.6519 13.3458 72.5194 13.3458C71.5487 13.3458 70.5779 13.6694 69.9308 14.4784C69.1218 15.1255 68.7982 16.0963 68.7982 17.2288C68.7982 18.3613 69.1218 19.3321 69.9308 19.9792C70.7397 20.6264 71.5487 21.1117 72.5194 21.1117C73.6519 21.1117 74.4609 20.7882 75.2698 19.9792C75.7552 19.4938 76.0788 18.8467 76.0788 18.0377H72.5194V16.7434H77.2113V17.3906Z" fill="white"/>
<path d="M122.836 21.9207H122.813V21.9435H122.836V21.9207ZM122.836 12.2133V12.1906H122.813V12.2133H122.836ZM124.292 12.2133L124.311 12.2014L124.304 12.1906H124.292V12.2133ZM128.984 19.8174L128.964 19.8294L129.006 19.8976V19.8174H128.984ZM128.984 12.2133V12.1906H128.961V12.2133H128.984ZM130.278 12.2133H130.301V12.1906H130.278V12.2133ZM130.278 21.9207V21.9435H130.301V21.9207H130.278ZM128.984 21.9207L128.964 21.9329L128.971 21.9435H128.984V21.9207ZM123.968 13.993L123.987 13.9808L123.945 13.9145V13.993H123.968ZM123.968 21.9207V21.9435H123.991V21.9207H123.968ZM113.451 19.8174L113.467 19.8012L113.465 19.7996L113.451 19.8174ZM118.628 19.8174L118.612 19.8012L118.61 19.8032L118.628 19.8174ZM118.628 14.3166L118.612 14.3327L118.614 14.3343L118.628 14.3166ZM113.451 14.3166L113.467 14.3327L113.469 14.3308L113.451 14.3166ZM102.936 21.9207H102.913V21.9435H102.936V21.9207ZM102.936 13.3458H102.958V13.3231H102.936V13.3458ZM100.185 13.3458H100.163V13.3686H100.185V13.3458ZM100.185 12.2133V12.1906H100.163V12.2133H100.185ZM106.819 12.2133H106.841V12.1906H106.819V12.2133ZM106.819 13.3458V13.3686H106.841V13.3458H106.819ZM104.068 13.3458V13.3231H104.045V13.3458H104.068ZM104.068 21.9207H104.045V21.9435H104.068V21.9207ZM97.4338 21.9207H97.411V21.9435H97.4338V21.9207ZM98.7281 21.9207V21.9435H98.7508V21.9207H98.7281ZM98.7281 12.2133H98.7508V12.1906H98.7281V12.2133ZM97.4338 12.2133V12.1906H97.411V12.2133H97.4338ZM89.9921 21.9207V21.9435H90.0148V21.9207H89.9921ZM88.6978 21.9207H88.675V21.9435H88.6978V21.9207ZM88.6978 13.3458H88.7205V13.3231H88.6978V13.3458ZM85.9473 13.3458H85.9246V13.3686H85.9473V13.3458ZM85.9473 12.2133V12.1906H85.9246V12.2133H85.9473ZM92.7425 12.2133H92.7653V12.1906H92.7425V12.2133ZM92.7425 13.3458V13.3686H92.7653V13.3458H92.7425ZM89.9921 13.3458V13.3231H89.9693V13.3458H89.9921ZM84.6523 13.3458V13.3686H84.6751V13.3458H84.6523ZM80.284 13.3458V13.3231H80.2612V13.3458H80.284ZM80.284 16.4198H80.2612V16.4426H80.284V16.4198ZM84.3287 16.4198H84.3515V16.3971H84.3287V16.4198ZM84.3287 17.5524V17.5751H84.3515V17.5524H84.3287ZM80.284 17.5524V17.5296H80.2612V17.5524H80.284ZM80.284 20.6264H80.2612V20.6491H80.284V20.6264ZM84.6523 20.6264H84.6751V20.6036H84.6523V20.6264ZM84.6523 21.9207V21.9435H84.6751V21.9207H84.6523ZM78.9897 21.9207H78.9669V21.9435H78.9897V21.9207ZM78.9897 12.2133V12.1906H78.9669V12.2133H78.9897ZM84.6523 12.2133H84.6751V12.1906H84.6523V12.2133ZM75.917 13.6694L75.9331 13.6855L75.9463 13.6723L75.9359 13.6568L75.917 13.6694ZM75.108 14.4784L75.0903 14.4926L75.1062 14.5124L75.1241 14.4944L75.108 14.4784ZM69.9308 14.4784L69.9453 14.4966L69.9485 14.4926L69.9308 14.4784ZM76.0788 18.0377H76.1015V18.015H76.0788V18.0377ZM72.5194 18.0377H72.4966V18.0605H72.5194V18.0377ZM72.5194 16.7434V16.7207H72.4966V16.7434H72.5194ZM77.2113 16.7434H77.2341V16.7207H77.2113V16.7434ZM122.858 21.9207V12.2133H122.813V21.9207H122.858ZM122.836 12.2361H124.292V12.1906H122.836V12.2361ZM124.272 12.2253L128.964 19.8294L129.003 19.8055L124.311 12.2014L124.272 12.2253ZM129.006 19.8174V12.2133H128.961V19.8174H129.006ZM128.984 12.2361H130.278V12.1906H128.984V12.2361ZM130.255 12.2133V21.9207H130.301V12.2133H130.255ZM130.278 21.898H128.984V21.9435H130.278V21.898ZM129.003 21.9085L123.987 13.9808L123.949 14.0052L128.964 21.9329L129.003 21.9085ZM123.945 13.993V21.9207H123.991V13.993H123.945ZM123.968 21.898H122.836V21.9435H123.968V21.898ZM113.435 19.8335C114.085 20.4841 115.062 20.9727 116.04 20.9727V20.9272C115.076 20.9272 114.111 20.445 113.467 19.8013L113.435 19.8335ZM116.04 20.9727C117.015 20.9727 117.993 20.6474 118.646 19.8316L118.61 19.8032C117.969 20.6053 117.006 20.9272 116.04 20.9272V20.9727ZM118.644 19.8335C119.295 19.1825 119.784 18.2061 119.784 17.067H119.738C119.738 18.1929 119.255 19.158 118.612 19.8013L118.644 19.8335ZM119.784 17.067C119.784 15.9303 119.459 14.9517 118.642 14.2988L118.614 14.3343C119.416 14.9757 119.738 15.9386 119.738 17.067H119.784ZM118.644 14.3005C117.994 13.6499 117.017 13.1613 116.04 13.1613V13.2068C117.003 13.2068 117.968 13.6889 118.612 14.3326L118.644 14.3005ZM116.04 13.1613C115.064 13.1613 114.086 13.4865 113.433 14.3023L113.469 14.3308C114.11 13.5287 115.074 13.2068 116.04 13.2068V13.1613ZM113.435 14.3005C112.784 14.9515 112.296 15.9279 112.296 17.067H112.341C112.341 15.941 112.824 14.9759 113.467 14.3326L113.435 14.3005ZM112.296 17.067C112.296 18.2037 112.621 19.1822 113.437 19.8352L113.465 19.7996C112.663 19.1583 112.341 18.1953 112.341 17.067H112.296ZM119.584 20.6102C118.617 21.5767 117.491 22.0597 116.04 22.0597V22.1051C117.503 22.1051 118.641 21.6174 119.616 20.6424L119.584 20.6102ZM116.04 22.0597C114.59 22.0597 113.464 21.5767 112.497 20.6102L112.465 20.6424C113.44 21.6174 114.578 22.1051 116.04 22.1051V22.0597ZM112.497 20.6102C111.531 19.6437 111.048 18.517 111.048 17.0669H111.002C111.002 18.529 111.49 19.6674 112.465 20.6424L112.497 20.6102ZM111.048 17.0669C111.048 15.6168 111.531 14.4901 112.497 13.5236L112.465 13.4914C111.49 14.4665 111.002 15.6048 111.002 17.0669H111.048ZM112.497 13.5236C113.464 12.5572 114.59 12.0742 116.04 12.0742V12.0287C114.578 12.0287 113.44 12.5164 112.465 13.4914L112.497 13.5236ZM116.04 12.0742C117.491 12.0742 118.617 12.5572 119.584 13.5236L119.616 13.4914C118.641 12.5164 117.503 12.0287 116.04 12.0287V12.0742ZM119.584 13.5236C120.55 14.4901 121.033 15.6168 121.033 17.0669H121.079C121.079 15.6048 120.591 14.4665 119.616 13.4914L119.584 13.5236ZM121.033 17.0669C121.033 18.517 120.55 19.6437 119.584 20.6102L119.616 20.6424C120.591 19.6674 121.079 18.529 121.079 17.0669H121.033ZM104.23 21.898H102.936V21.9435H104.23V21.898ZM102.958 21.9207V13.3458H102.913V21.9207H102.958ZM102.936 13.3231H100.185V13.3686H102.936V13.3231ZM100.208 13.3458V12.2133H100.163V13.3458H100.208ZM100.185 12.2361H106.819V12.1906H100.185V12.2361ZM106.796 12.2133V13.3458H106.841V12.2133H106.796ZM106.819 13.3231H104.068V13.3686H106.819V13.3231ZM104.045 13.3458V21.9207H104.091V13.3458H104.045ZM104.068 21.9435H104.23V21.898H104.068V21.9435ZM97.4338 21.9435H98.7281V21.898H97.4338V21.9435ZM98.7508 21.9207V12.2133H98.7054V21.9207H98.7508ZM98.7281 12.1906H97.4338V12.2361H98.7281V12.1906ZM97.411 12.2133V21.9207H97.4565V12.2133H97.411ZM89.9921 21.898H88.6978V21.9435H89.9921V21.898ZM88.7205 21.9207V13.3458H88.675V21.9207H88.7205ZM88.6978 13.3231H85.9473V13.3686H88.6978V13.3231ZM85.9701 13.3458V12.2133H85.9246V13.3458H85.9701ZM85.9473 12.2361H92.7425V12.1906H85.9473V12.2361ZM92.7198 12.2133V13.3458H92.7653V12.2133H92.7198ZM92.7425 13.3231H89.9921V13.3686H92.7425V13.3231ZM89.9693 13.3458V21.9207H90.0148V13.3458H89.9693ZM84.6523 13.3231H80.284V13.3686H84.6523V13.3231ZM80.2612 13.3458V16.4198H80.3067V13.3458H80.2612ZM80.284 16.4426H84.3287V16.3971H80.284V16.4426ZM84.306 16.4198V17.5524H84.3515V16.4198H84.306ZM84.3287 17.5296H80.284V17.5751H84.3287V17.5296ZM80.2612 17.5524V20.6264H80.3067V17.5524H80.2612ZM80.284 20.6491H84.6523V20.6036H80.284V20.6491ZM84.6296 20.6264V21.9207H84.6751V20.6264H84.6296ZM84.6523 21.898H78.9897V21.9435H84.6523V21.898ZM79.0124 21.9207V12.2133H78.9669V21.9207H79.0124ZM78.9897 12.2361H84.6523V12.1906H78.9897V12.2361ZM84.6296 12.2133V13.3458H84.6751V12.2133H84.6296ZM77.1886 17.3906C77.1886 18.6814 76.8659 19.8071 76.0627 20.6103L76.0949 20.6425C76.9096 19.8277 77.2341 18.6884 77.2341 17.3906H77.1886ZM76.0627 20.6103C75.0962 21.5768 73.9695 22.0597 72.5194 22.0597V22.1052C73.9815 22.1052 75.1199 21.6175 76.0949 20.6425L76.0627 20.6103ZM72.5194 22.0597C71.0693 22.0597 69.9426 21.5768 68.9761 20.6103L68.9439 20.6425C69.9189 21.6175 71.0573 22.1052 72.5194 22.1052V22.0597ZM68.9761 20.6103C68.0096 19.6438 67.5267 18.5171 67.5267 17.067H67.4812C67.4812 18.5291 67.9689 19.6675 68.9439 20.6425L68.9761 20.6103ZM67.5267 17.067C67.5267 15.6169 68.0096 14.4902 68.9761 13.5237L68.9439 13.4915C67.9689 14.4665 67.4812 15.6049 67.4812 17.067H67.5267ZM68.9761 13.5237C69.9426 12.5572 71.0693 12.0743 72.5194 12.0743V12.0288C71.0573 12.0288 69.9189 12.5165 68.9439 13.4915L68.9761 13.5237ZM72.5194 12.0743C73.1626 12.0743 73.8063 12.235 74.4507 12.5572L74.4711 12.5165C73.8211 12.1916 73.1705 12.0288 72.5194 12.0288V12.0743ZM74.4507 12.5572C75.0969 12.8803 75.5779 13.2017 75.8981 13.682L75.9359 13.6568C75.609 13.1664 75.1192 12.8406 74.4711 12.5165L74.4507 12.5572ZM75.9009 13.6533L75.092 14.4623L75.1241 14.4944L75.9331 13.6855L75.9009 13.6533ZM75.1258 14.4641C74.4735 13.6487 73.6573 13.3231 72.5194 13.3231V13.3686C73.6465 13.3686 74.4483 13.6901 75.0903 14.4926L75.1258 14.4641ZM72.5194 13.3231C71.5439 13.3231 70.5656 13.6483 69.913 14.4641L69.9485 14.4926C70.5902 13.6905 71.5534 13.3686 72.5194 13.3686V13.3231ZM69.9165 14.4606C69.1004 15.1135 68.7755 16.0921 68.7755 17.2288H68.821C68.821 16.1005 69.1432 15.1375 69.945 14.4961L69.9165 14.4606ZM68.7755 17.2288C68.7755 18.3655 69.1004 19.3441 69.9165 19.997L69.945 19.9615C69.1432 19.3201 68.821 18.3571 68.821 17.2288H68.7755ZM69.9165 19.997C70.7264 20.6449 71.5406 21.1345 72.5194 21.1345V21.089C71.5567 21.089 70.753 20.6079 69.945 19.9615L69.9165 19.997ZM72.5194 21.1345C73.0879 21.1345 73.5763 21.0533 74.0246 20.8699C74.4728 20.6865 74.8798 20.4014 75.2859 19.9953L75.2537 19.9631C74.8509 20.3659 74.4489 20.6471 74.0073 20.8278C73.5658 21.0084 73.0834 21.089 72.5194 21.089V21.1345ZM75.2859 19.9953C75.7751 19.5061 76.1015 18.8534 76.1015 18.0377H76.056C76.056 18.84 75.7353 19.4816 75.2537 19.9631L75.2859 19.9953ZM76.0788 18.015H72.5194V18.0605H76.0788V18.015ZM72.5421 18.0377V16.7434H72.4966V18.0377H72.5421ZM72.5194 16.7662H77.2113V16.7207H72.5194V16.7662ZM77.1886 16.7434V17.3906H77.2341V16.7434H77.1886Z" fill="white"/>
<mask id="mask1" style="mask-type:alpha" maskUnits="userSpaceOnUse" x="0" y="0" width="219" height="66">
<path fill-rule="evenodd" clip-rule="evenodd" d="M0.522217 65.6039H218.939V0.887939H0.522217V65.6039Z" fill="white"/>
</mask>
<g mask="url(#mask1)">
<path fill-rule="evenodd" clip-rule="evenodd" d="M173.477 49.4248H176.551V29.201H173.477V49.4248ZM200.657 36.4817L197.259 45.2183H197.097L193.538 36.4817H190.302L195.641 48.7777L192.567 55.5729H195.641L203.892 36.4817H200.657ZM183.67 47.1598C182.699 47.1598 181.243 46.6744 181.243 45.3801C181.243 43.7622 183.023 43.2769 184.479 43.2769C185.773 43.2769 186.42 43.6004 187.229 43.924C186.906 45.8655 185.288 47.1598 183.67 47.1598V47.1598ZM183.992 35.9962C181.727 35.9962 179.462 36.967 178.653 39.0702L181.404 40.2028C182.051 39.0702 183.022 38.7466 184.154 38.7466C185.772 38.7466 187.228 39.7174 187.39 41.3353V41.4971C186.905 41.1735 185.61 40.6881 184.316 40.6881C181.404 40.6881 178.491 42.306 178.491 45.2182C178.491 47.9687 180.918 49.7484 183.507 49.7484C185.61 49.7484 186.581 48.7776 187.39 47.8069H187.552V49.4248H190.464V41.6589C190.14 38.0995 187.39 35.9962 183.992 35.9962V35.9962ZM165.387 38.9085H161.018V31.9515H165.387C167.652 31.9515 168.946 33.893 168.946 35.3491C168.784 37.1288 167.49 38.9085 165.387 38.9085V38.9085ZM165.225 29.201H157.944V49.4248H161.018V41.8207H165.225C168.622 41.8207 171.858 39.3938 171.858 35.5108C171.858 31.6279 168.622 29.201 165.225 29.201V29.201ZM125.749 47.1597C123.645 47.1597 121.866 45.3801 121.866 42.9532C121.866 40.5264 123.645 38.7467 125.749 38.7467C127.852 38.7467 129.47 40.5264 129.47 42.9532C129.47 45.3801 127.852 47.1597 125.749 47.1597V47.1597ZM129.307 37.6141C128.499 36.8052 127.204 35.9962 125.586 35.9962C122.189 35.9962 118.953 39.0702 118.953 42.9532C118.953 46.8361 122.027 49.7484 125.586 49.7484C127.204 49.7484 128.499 48.9394 129.146 48.1305H129.307V49.1012C129.307 51.6898 127.851 53.146 125.586 53.146C123.807 53.146 122.512 51.8516 122.189 50.7191L119.6 51.8516C120.409 53.6313 122.35 55.8964 125.748 55.8964C129.307 55.8964 132.22 53.7931 132.22 48.7776V36.4816H129.307V37.6141ZM134.162 49.4248H137.236V29.201H134.162V49.4248ZM141.766 42.7914C141.766 40.2028 143.869 38.7467 145.326 38.7467C146.458 38.7467 147.591 39.3938 147.914 40.2028L141.766 42.7914ZM151.149 40.5264C150.502 38.9085 148.884 36.1581 145.325 36.1581C141.766 36.1581 138.853 38.9085 138.853 43.1151C138.853 46.998 141.766 50.072 145.649 50.072C148.723 50.072 150.664 48.1306 151.311 46.998L149.046 45.3801C148.237 46.5127 147.266 47.3216 145.649 47.3216C144.031 47.3216 143.06 46.6745 142.251 45.2183L151.473 41.3354L151.149 40.5264ZM77.6967 38.2613V41.1735H84.6537C84.4919 42.7914 83.8447 44.0858 83.0358 44.8947C82.065 45.8655 80.4471 46.998 77.6967 46.998C73.3284 46.998 70.0926 43.6004 70.0926 39.2321C70.0926 34.8637 73.4902 31.4661 77.6967 31.4661C79.9618 31.4661 81.7414 32.4369 83.0358 33.5694L85.139 31.4661C83.3593 29.8482 81.0943 28.5539 77.8585 28.5539C72.034 28.5539 67.0186 33.4076 67.0186 39.2321C67.0186 45.0565 72.034 49.9102 77.8585 49.9102C81.0943 49.9102 83.3593 48.9395 85.3008 46.8362C87.2423 44.8947 87.8895 42.1443 87.8895 40.041C87.8895 39.3939 87.8895 38.7467 87.7277 38.2613H77.6967ZM95.6551 47.1597C93.5519 47.1597 91.7722 45.3801 91.7722 42.9532C91.7722 40.5264 93.5519 38.7467 95.6551 38.7467C97.7584 38.7467 99.5381 40.3646 99.5381 42.9532C99.5381 45.3801 97.7584 47.1597 95.6551 47.1597V47.1597ZM95.6551 36.1581C91.7722 36.1581 88.6982 39.0703 88.6982 43.1151C88.6982 46.998 91.7722 50.072 95.6551 50.072C99.5381 50.072 102.612 47.1598 102.612 43.1151C102.612 38.9085 99.5381 36.1581 95.6551 36.1581V36.1581ZM110.703 47.1597C108.599 47.1597 106.82 45.3801 106.82 42.9532C106.82 40.5264 108.599 38.7467 110.703 38.7467C112.806 38.7467 114.586 40.3646 114.586 42.9532C114.586 45.3801 112.806 47.1597 110.703 47.1597V47.1597ZM110.703 36.1581C106.82 36.1581 103.746 39.0703 103.746 43.1151C103.746 46.998 106.82 50.072 110.703 50.072C114.586 50.072 117.66 47.1598 117.66 43.1151C117.66 38.9085 114.586 36.1581 110.703 36.1581V36.1581Z" fill="white"/>
</g>
<mask id="mask2" style="mask-type:alpha" maskUnits="userSpaceOnUse" x="16" y="13" width="22" height="41">
<path fill-rule="evenodd" clip-rule="evenodd" d="M16.7017 15.2873V51.0428C16.7017 52.0139 17.0252 52.8225 17.5106 53.3079V53.3079L17.6724 53.47L37.7344 33.4081V33.0842L17.3488 13.0225C16.8635 13.5076 16.7017 14.3165 16.7017 15.2873" fill="white"/>
</mask>
<g mask="url(#mask2)">
<path fill-rule="evenodd" clip-rule="evenodd" d="M16.7017 15.2873V51.0428C16.7017 52.0139 17.0252 52.8225 17.5106 53.3079V53.3079L17.6724 53.47L37.7344 33.4081V33.0842L17.3488 13.0225C16.8635 13.5076 16.7017 14.3165 16.7017 15.2873" fill="#32BBFF"/>
</g>
<mask id="mask3" style="mask-type:alpha" maskUnits="userSpaceOnUse" x="37" y="26" width="17" height="15">
<path fill-rule="evenodd" clip-rule="evenodd" d="M37.5718 33.0842V33.5696L44.2052 40.203L52.2947 35.8347C54.5597 34.5404 54.5597 32.4371 52.2947 31.1424V31.1424L44.367 26.6126L44.2052 26.4505L37.5718 33.0842Z" fill="white"/>
</mask>
<g mask="url(#mask3)">
<path fill-rule="evenodd" clip-rule="evenodd" d="M37.5718 33.0842V33.5696L44.2052 40.203L52.2947 35.8347C54.5597 34.5404 54.5597 32.4371 52.2947 31.1424V31.1424L44.367 26.6126L44.2052 26.4505L37.5718 33.0842Z" fill="#FFD500"/>
</g>
<mask id="mask4" style="mask-type:alpha" maskUnits="userSpaceOnUse" x="17" y="33" width="28" height="22">
<path fill-rule="evenodd" clip-rule="evenodd" d="M17.3477 53.47C18.1566 54.2786 19.2891 54.2786 20.7452 53.6314V53.6314L44.3666 40.0411L37.5714 33.2459L17.3477 53.47Z" fill="white"/>
</mask>
<g mask="url(#mask4)">
<path fill-rule="evenodd" clip-rule="evenodd" d="M17.3477 53.47C18.1566 54.2786 19.2891 54.2786 20.7452 53.6314V53.6314L44.3666 40.0411L37.5714 33.2459L17.3477 53.47Z" fill="url(#paint0_linear)"/>
</g>
<mask id="mask5" style="mask-type:alpha" maskUnits="userSpaceOnUse" x="17" y="12" width="28" height="22">
<path fill-rule="evenodd" clip-rule="evenodd" d="M17.3477 13.184L37.5714 33.246L44.3666 26.4508L20.7452 13.0226C20.089 12.6579 19.4988 12.4906 18.9743 12.4906V12.4906C18.3343 12.4903 17.7923 12.7394 17.3477 13.184" fill="white"/>
</mask>
<g mask="url(#mask5)">
<path fill-rule="evenodd" clip-rule="evenodd" d="M17.3477 13.184L37.5714 33.246L44.3666 26.4508L20.7452 13.0226C20.089 12.6579 19.4988 12.4906 18.9743 12.4906V12.4906C18.3343 12.4903 17.7923 12.7394 17.3477 13.184" fill="#29CC5E"/>
</g>
<path fill-rule="evenodd" clip-rule="evenodd" d="M44.2055 39.8794L20.746 53.1462C19.4517 53.9551 18.3191 53.7933 17.5102 53.1462L17.3484 53.308L17.5102 53.4698C18.3191 54.1169 19.4517 54.2787 20.746 53.4698L44.2055 39.8794Z" fill="black"/>
<path fill-rule="evenodd" clip-rule="evenodd" d="M52.2961 35.3492L44.2066 39.8793L44.3684 40.0411L52.2961 35.511C53.4286 34.8638 53.914 34.0548 53.914 33.2459C53.914 34.0548 53.2668 34.702 52.2961 35.3492V35.3492ZM17.3488 53.1461C16.8634 52.6607 16.7017 51.8517 16.7017 50.881V51.0428C16.7017 52.0135 17.0252 52.8225 17.5106 53.3078V53.1461H17.3488Z" fill="black"/>
<path fill-rule="evenodd" clip-rule="evenodd" d="M20.7464 13.184L52.2955 31.1427C53.2662 31.7899 53.9134 32.437 53.9134 33.246C53.9134 32.437 53.428 31.6281 52.2955 30.9809L20.7464 13.0222C18.4814 11.7279 16.7017 12.6986 16.7017 15.2873V15.4491C16.7017 13.0222 18.4814 11.8897 20.7464 13.184" fill="white"/>
<defs>
<linearGradient id="paint0_linear" x1="16.8161" y1="22.7336" x2="-9.01401" y2="66.0998" gradientUnits="userSpaceOnUse">
<stop stop-color="#FF3A44"/>
<stop offset="1" stop-color="#C31162"/>
</linearGradient>
</defs>
</svg>
