<svg width="23" height="23" viewBox="0 0 23 23" fill="none" xmlns="http://www.w3.org/2000/svg">
<path d="M18.2414 6.08043V21.8103C18.2414 22.1259 18.116 22.4285 17.8929 22.6516C17.6698 22.8747 17.3672 23 17.0517 23C16.7362 23 16.4336 22.8747 16.2105 22.6516C15.9874 22.4285 15.8621 22.1259 15.8621 21.8103V21.4138C15.8621 17.6966 12.8379 14.6724 9.12069 14.6724H6.08043L4.49422 13.4828L6.08043 12.2931H9.12069C10.3903 12.2926 11.6461 12.5578 12.8071 13.0716C13.9681 13.5855 15.0087 14.3367 15.8621 15.2768V6.08043L17.0517 4.49422L18.2414 6.08043ZM22.5241 8.48621C22.6491 8.39247 22.7544 8.27503 22.834 8.1406C22.9136 8.00617 22.966 7.85738 22.988 7.70273C23.0101 7.54807 23.0016 7.39057 22.9628 7.23923C22.924 7.08789 22.8558 6.94567 22.7621 6.82069L18.0034 0.475862C17.8926 0.328111 17.7489 0.20819 17.5838 0.125595C17.4186 0.0430002 17.2364 0 17.0517 0C16.867 0 16.6849 0.0430002 16.5197 0.125595C16.3545 0.20819 16.2108 0.328111 16.1 0.475862L11.3414 6.82069C11.2476 6.94567 11.1794 7.08789 11.1407 7.23923C11.1019 7.39057 11.0933 7.54807 11.1154 7.70273C11.1375 7.85738 11.1898 8.00617 11.2694 8.1406C11.349 8.27503 11.4543 8.39247 11.5793 8.48621C11.8317 8.67552 12.149 8.7568 12.4613 8.71218C12.7737 8.66756 13.0555 8.50069 13.2448 8.24828L17.0517 3.17241L20.8586 8.24828C20.9524 8.37326 21.0698 8.47855 21.2042 8.55815C21.3387 8.63775 21.4874 8.69009 21.6421 8.71218C21.7968 8.73428 21.9543 8.72569 22.1056 8.68692C22.2569 8.64815 22.3992 8.57994 22.5241 8.48621ZM8.48621 18.9552C8.67552 18.7028 8.7568 18.3855 8.71218 18.0731C8.66756 17.7608 8.50069 17.479 8.24828 17.2897L3.17241 13.4828L8.24828 9.67586C8.50069 9.48655 8.66756 9.20473 8.71218 8.89238C8.7568 8.58004 8.67552 8.26276 8.48621 8.01035C8.2969 7.75793 8.01507 7.59106 7.70273 7.54644C7.39038 7.50182 7.0731 7.5831 6.82069 7.77241L0.475862 12.531C0.328111 12.6418 0.20819 12.7855 0.125595 12.9507C0.0430002 13.1159 0 13.2981 0 13.4828C0 13.6674 0.0430002 13.8496 0.125595 14.0148C0.20819 14.18 0.328111 14.3237 0.475862 14.4345L6.82069 19.1931C6.94567 19.2868 7.08789 19.355 7.23923 19.3938C7.39057 19.4326 7.54807 19.4412 7.70273 19.4191C7.85738 19.397 8.00617 19.3446 8.1406 19.265C8.27503 19.1855 8.39247 19.0802 8.48621 18.9552Z" fill="#FF5757"/>
</svg>
