<svg width="27" height="25" viewBox="0 0 27 25" fill="none" xmlns="http://www.w3.org/2000/svg">
<path d="M14.2402 23.8044C14.3576 23.7269 17.1204 21.8942 19.9163 19.2366C21.6017 17.6333 22.9591 16.0518 23.9462 14.5353M14.2402 23.8044L1.10121 5.54266C1.47885 4.63865 2.02459 3.82073 2.70679 3.13488L2.70746 3.13421C3.39383 2.44153 4.19172 1.89855 5.07655 1.52108L5.0771 1.52085C5.99251 1.12904 6.96084 0.931662 7.9622 0.931662C9.35138 0.931662 10.7068 1.32351 11.8855 2.0644L11.8855 2.06441C12.1675 2.24167 12.4352 2.43621 12.6887 2.64805L13.0093 2.91603L13.3299 2.64805C13.5834 2.43621 13.8511 2.24167 14.1331 2.06441L14.1331 2.0644C15.3118 1.32351 16.6672 0.931662 18.0564 0.931664L18.0576 0.931661C19.0468 0.929315 20.0271 1.12944 20.9415 1.52084L20.9422 1.52112C21.8238 1.89701 22.6281 2.44434 23.311 3.13406L23.3114 3.13445C23.9928 3.82123 24.5386 4.63909 24.9174 5.54266M14.2402 23.8044L13.527 24.2758L14.2402 23.8044ZM23.9462 14.5353C24.5692 13.5771 25.0598 12.6282 25.3968 11.7134C25.8031 10.6187 26.0078 9.54261 26.0078 8.50996C26.0108 7.41528 25.7971 6.35161 25.3788 5.34996L24.9174 5.54266M23.9462 14.5353L23.5272 14.2626C23.5271 14.2626 23.5271 14.2627 23.527 14.2628M23.9462 14.5353L23.527 14.2628M24.9174 5.54266C25.3102 6.48314 25.5106 7.48085 25.5078 8.50858V8.50996C25.5078 9.47624 25.3163 10.4934 24.9281 11.5394L24.9277 11.5405C24.6058 12.4139 24.1338 13.3296 23.527 14.2628M24.9174 5.54266L23.527 14.2628M23.527 14.2628C22.5663 15.7385 21.2367 17.2904 19.5719 18.8742C16.807 21.5023 14.072 23.3163 13.9647 23.3872L13.9646 23.3873L13.2523 23.858C13.2522 23.8581 13.252 23.8582 13.2519 23.8582C13.1028 23.9561 12.9128 23.9561 12.7637 23.8582C12.7635 23.8582 12.7634 23.8581 12.7633 23.858L12.051 23.3873L12.0511 23.3872L12.0431 23.3822C12.0432 23.3822 12.0422 23.3816 12.0398 23.38L12.0306 23.3741L11.9995 23.3535C11.9735 23.3363 11.9377 23.3123 11.8927 23.2818C11.8026 23.2208 11.6763 23.1342 11.5189 23.0237C11.2039 22.8028 10.765 22.4869 10.2428 22.0908C9.19775 21.2981 7.82325 20.1869 6.44392 18.8744L6.44387 18.8743C4.77888 17.2904 3.44917 15.7384 2.48843 14.2626C1.88237 13.3303 1.41282 12.4144 1.08752 11.5394L23.527 14.2628ZM0.507812 8.50996C0.507812 7.48131 0.708413 6.48316 1.10119 5.54269L1.08743 11.5391C0.699276 10.4933 0.507812 9.47616 0.507812 8.50996Z" stroke="black"/>
</svg>
