<svg width="294" height="72" viewBox="0 0 294 72" fill="none" xmlns="http://www.w3.org/2000/svg">
<path d="M152.653 0.70636C153.906 0.233151 155.198 -0.150148 156.536 0.0580642C159.304 0.488684 160.899 3.4699 159.859 6.2571C159.114 8.27296 158.279 10.2557 157.486 12.2526L151.993 26.0278C151.932 26.1839 151.894 26.3495 151.841 26.501L151.784 26.5814H151.917C154.468 25.7202 157.014 24.8589 159.556 23.9977C161.312 23.4014 163.059 22.7815 164.825 22.209C165.3 22.0528 165.475 21.854 165.428 21.3383C164.953 15.991 168.604 9.07742 173.973 6.30442C184.606 0.805733 195.914 7.53476 197.666 17.6614L197.794 18.4422C197.975 19.5164 197.566 20.1742 196.512 20.477L187.46 23.1175L177.049 26.1602L176.522 26.3259C177.699 27.4838 179.25 28.188 180.899 28.3133C182.207 28.4639 183.532 28.2796 184.749 27.7779C185.966 27.2761 187.034 26.4735 187.854 25.4457C188.589 24.5608 189.173 24.4993 190.184 25.0387C191.575 25.8101 192.971 26.5767 194.357 27.3527C194.587 27.4502 194.79 27.6005 194.95 27.7914C195.11 27.9824 195.222 28.2084 195.277 28.4509C195.332 28.6935 195.329 28.9456 195.267 29.1866C195.205 29.4276 195.087 29.6505 194.922 29.8371C193.58 31.7413 191.834 33.3272 189.807 34.4821C187.781 35.637 185.523 36.3324 183.197 36.5188C180.584 36.8278 177.936 36.4442 175.52 35.4067C172.73 34.1338 170.318 32.1629 168.518 29.6857C168.243 29.3213 168.044 29.2124 167.612 29.3686C160.899 31.6873 154.185 33.9934 147.469 36.2869C146.644 36.6098 145.799 36.8801 144.939 37.0961C144.314 37.2155 143.668 37.1784 143.061 36.9882C142.454 36.798 141.903 36.4607 141.458 36.0063C141.014 35.552 140.689 34.9948 140.514 34.3848C140.338 33.7747 140.317 33.1308 140.453 32.5107C140.928 30.2204 141.977 28.1335 142.826 25.9804C144.858 20.7988 146.942 15.6408 148.998 10.4687C149.074 10.2794 149.112 10.0712 149.169 9.87714L152.653 0.70636ZM187.009 14.6944C184.991 12.5839 181.198 12.0539 178.293 13.4215C176.166 14.4247 174.837 16.0904 174.101 18.4328L187.009 14.6944Z" fill="#FF5757"/>
<path d="M152.653 0.705933L149.173 9.87672L137.101 13.6056L134.514 14.4053C134.97 15.7653 135.359 17.1472 135.677 18.5459C136.268 21.5861 135.938 24.7331 134.727 27.5852C133.516 30.4373 131.481 32.8651 128.88 34.5588C126.279 36.2525 123.231 37.1353 120.124 37.0944C117.018 37.0536 113.994 36.0909 111.438 34.3294C108.883 32.5679 106.912 30.0874 105.778 27.2044C104.643 24.3215 104.396 21.1669 105.068 18.1433C105.739 15.1197 107.3 12.3642 109.55 10.2285C111.8 8.09282 114.637 6.6738 117.699 6.15256C121.288 5.61311 124.82 6.00587 128.039 7.90344C128.3 8.02947 128.6 8.0531 128.879 7.96969C136.737 5.57209 144.589 3.16662 152.434 0.753253L152.653 0.705933ZM120.585 14.9542C119.326 14.9487 118.092 15.3151 117.041 16.0073C115.99 16.6994 115.168 17.6862 114.678 18.8435C114.189 20.0007 114.054 21.2764 114.291 22.5098C114.528 23.7433 115.126 24.8792 116.009 25.7744C116.893 26.6697 118.022 27.2841 119.256 27.5403C120.489 27.7965 121.771 27.683 122.94 27.214C124.108 26.7451 125.112 25.9418 125.823 24.9053C126.535 23.8688 126.922 22.6456 126.937 21.3899C126.947 20.5507 126.791 19.7179 126.476 18.9394C126.162 18.1608 125.696 17.452 125.106 16.8538C124.515 16.2555 123.812 15.7797 123.036 15.4537C122.26 15.1277 121.427 14.9579 120.585 14.9542Z" fill="#053F7C"/>
<path d="M209.313 26.3257C212.284 29.2264 217.525 28.9804 220.288 25.8525C221.565 24.4328 221.76 24.3713 223.45 25.3035C224.694 25.9913 225.934 26.6806 227.172 27.3715C227.394 27.4711 227.59 27.621 227.744 27.8092C227.898 27.9975 228.005 28.219 228.058 28.456C228.111 28.6931 228.108 28.9392 228.049 29.1748C227.99 29.4104 227.876 29.629 227.718 29.8132C226.379 31.7162 224.636 33.3016 222.612 34.4565C220.589 35.6114 218.335 36.3074 216.011 36.4949C213.205 36.7694 210.438 36.4949 207.941 35.2031C203.747 33.1145 200.529 29.4861 198.964 25.0811C196.191 17.7227 201.19 7.23644 210.357 4.8846C219.524 2.53275 228.833 8.39107 230.428 17.6612C230.476 17.9404 230.518 18.2196 230.566 18.4988C230.751 19.5493 230.324 20.1976 229.246 20.5099L218.285 23.7041L209.313 26.3257ZM219.799 14.6942C217.801 12.6026 214.041 12.0584 211.155 13.3976C208.999 14.3961 207.651 16.0712 206.882 18.4326L219.799 14.6942Z" fill="#FF5757"/>
<path d="M242.131 26.3353C244.685 28.9001 249.294 29.0563 252.204 26.676C252.673 26.2655 253.113 25.8228 253.519 25.3511C254.189 24.6271 254.782 24.5088 255.646 24.982C257.089 25.777 258.529 26.5767 259.966 27.3811C260.188 27.4797 260.384 27.6283 260.538 27.8151C260.692 28.002 260.801 28.2221 260.855 28.458C260.909 28.6938 260.908 28.9391 260.851 29.1743C260.794 29.4095 260.683 29.6283 260.526 29.8134C259.189 31.717 257.447 33.3031 255.424 34.4588C253.402 35.6146 251.148 36.3114 248.824 36.4999C245.933 36.779 243.128 36.4999 240.526 35.1134C236.436 32.997 233.303 29.4114 231.763 25.0813C228.972 17.6709 234.042 7.17513 243.275 4.84221C245.438 4.29765 247.69 4.20279 249.891 4.56352C252.092 4.92426 254.195 5.73286 256.069 6.93899C257.943 8.14511 259.548 9.72292 260.783 11.5741C262.019 13.4254 262.859 15.5104 263.251 17.6993C263.294 17.9406 263.337 18.1725 263.375 18.4233C263.555 19.5495 263.156 20.1836 262.069 20.5007L251.113 23.6948L242.663 26.165L242.131 26.3353ZM252.575 14.6991C250.809 12.8915 247.486 12.0444 244.419 13.1801C241.708 14.1833 239.933 16.8522 239.81 18.3854L252.575 14.6991Z" fill="#FF5757"/>
<path d="M87.3485 6.01117C94.3364 5.46698 102.943 11.6565 102.953 21.3621C102.953 29.8798 95.9172 36.817 87.2868 36.8502C85.1864 36.8457 83.1083 36.4203 81.1762 35.5992C79.2441 34.778 77.4973 33.578 76.0398 32.0704C74.5823 30.5628 73.4438 28.7784 72.692 26.8234C71.9403 24.8683 71.5906 22.7826 71.6638 20.6901C72.0009 12.0777 79.7625 5.46698 87.3485 6.01117ZM87.3485 27.6699C88.6084 27.6754 89.8416 27.309 90.8929 26.6169C91.9441 25.9248 92.7663 24.9379 93.2557 23.7807C93.7451 22.6235 93.8799 21.3478 93.643 20.1143C93.4061 18.8809 92.8083 17.745 91.9247 16.8497C91.0411 15.9545 89.9115 15.3401 88.6781 15.0839C87.4448 14.8277 86.1629 14.9412 84.9942 15.4101C83.8255 15.8791 82.8222 16.6824 82.1108 17.7189C81.3994 18.7553 81.0118 19.9785 80.9968 21.2343C80.9867 22.0754 81.1442 22.9102 81.46 23.6903C81.7759 24.4704 82.2438 25.1802 82.8368 25.7788C83.4297 26.3773 84.1359 26.8527 84.9145 27.1773C85.693 27.5019 86.5284 27.6694 87.3723 27.6699H87.3485Z" fill="#053F7C"/>
<path d="M57.295 20.1033L60.5279 12.4941C60.7557 11.9547 61.0026 11.4152 61.2115 10.8805C61.4224 10.2657 61.7581 9.70087 62.1976 9.22109C62.6371 8.74131 63.1711 8.35689 63.7661 8.09178C64.3612 7.82667 65.0047 7.68656 65.6564 7.68016C66.3082 7.67377 66.9543 7.80123 67.5545 8.05461C68.1547 8.30799 68.6961 8.68186 69.145 9.15292C69.5939 9.62398 69.9407 10.1821 70.1637 10.7926C70.3868 11.4031 70.4813 12.0529 70.4415 12.7014C70.4016 13.3499 70.2282 13.9833 69.9321 14.562C68.1946 18.6979 66.4286 22.8195 64.6769 26.9743C63.6895 29.2962 62.7068 31.6228 61.7289 33.9541C61.389 34.8551 60.7816 35.6312 59.9877 36.1791C59.1938 36.727 58.2511 37.0205 57.2855 37.0205C56.3199 37.0205 55.3773 36.727 54.5834 36.1791C53.7895 35.6312 53.1821 34.8551 52.8422 33.9541L49.1631 25.2282C49.1014 25.0815 49.0302 24.9348 48.9162 24.6934C48.7786 24.9963 48.6741 25.2092 48.5839 25.4269C47.3781 28.304 46.1629 31.1953 44.9144 34.0724C44.7037 34.6903 44.3672 35.2581 43.9258 35.7401C43.4845 36.2221 42.9479 36.6079 42.3498 36.8732C41.7517 37.1386 41.1051 37.2777 40.4504 37.282C39.7958 37.2862 39.1473 37.1554 38.5458 36.8979C37.9443 36.6403 37.4027 36.2615 36.9552 35.7852C36.5076 35.309 36.1637 34.7456 35.945 34.1305C35.7263 33.5154 35.6377 32.8619 35.6846 32.211C35.7315 31.5601 35.9129 30.9259 36.2175 30.3483C37.7999 26.5626 39.3965 22.7959 41.0074 19.0481C42.1562 16.3176 43.3003 13.5825 44.4776 10.8852C44.7874 10.1354 45.2836 9.47658 45.9196 8.97088C46.5555 8.46518 47.3102 8.12927 48.1124 7.9948C48.9146 7.86034 49.738 7.93176 50.5049 8.20233C51.2718 8.4729 51.9569 8.93371 52.4956 9.5413C52.896 10.0168 53.2166 10.5537 53.4451 11.1313C54.6841 13.9705 55.8851 16.8524 57.1004 19.7106C57.1526 19.8005 57.2048 19.9046 57.295 20.1033Z" fill="#053F7C"/>
<path d="M33.834 24.0119C32.7754 22.1853 31.7737 20.4345 30.7626 18.6931C30.2879 17.8602 29.7609 17.0368 29.2672 16.2182C28.1089 14.2733 28.0662 12.3047 29.3052 10.4119C29.8299 9.53204 30.6097 8.83134 31.5419 8.40219C32.4741 7.97305 33.5149 7.83561 34.5271 8.00801C35.5948 8.11224 36.6034 8.54563 37.4126 9.24788C38.2217 9.95012 38.7912 10.8863 39.0417 11.9262C39.248 12.6168 39.3056 13.3431 39.2107 14.0575C39.1158 14.7718 38.8705 15.4582 38.491 16.0715C37.0447 18.5669 35.5905 21.0607 34.1283 23.5529C34.0524 23.6617 33.9717 23.7895 33.834 24.0119Z" fill="#FE5858"/>
<path d="M3.00617 55.1786H5.32345V60.0878H10.4901V55.1786H12.8074V67.4688H10.4901V62.2849H5.32345V67.4688H3.00617V55.1786ZM17.7458 67.7434C16.8189 67.7434 16.058 67.4745 15.4629 66.9366C14.8678 66.3874 14.5703 65.6721 14.5703 64.791C14.5703 64.2074 14.7248 63.6924 15.0338 63.2461C15.3427 62.7999 15.7661 62.4566 16.304 62.2162C16.8418 61.9759 17.4369 61.8558 18.0891 61.8558C18.9932 61.8558 19.7656 61.9874 20.4064 62.2506V61.8729C20.4064 61.3923 20.2233 61.0032 19.8571 60.7057C19.5024 60.4082 19.0218 60.2594 18.4153 60.2594C18.0033 60.2594 17.6028 60.3567 17.2137 60.5512C16.8361 60.7343 16.5214 60.9804 16.2697 61.2893L14.8278 60.1564C15.2512 59.6072 15.7833 59.1838 16.4241 58.8862C17.065 58.5887 17.763 58.4399 18.5183 58.4399C19.8571 58.4399 20.8756 58.7489 21.5737 59.3668C22.2717 59.9848 22.6207 60.8888 22.6207 62.0789V67.4688H20.4064V66.5762H20.2691C20.0059 66.9195 19.6569 67.1998 19.222 67.4173C18.7986 67.6347 18.3066 67.7434 17.7458 67.7434ZM18.278 65.9926C18.9302 65.9926 19.4452 65.7866 19.8228 65.3746C20.2119 64.9512 20.4064 64.4591 20.4064 63.8984C19.8228 63.6238 19.2106 63.4865 18.5698 63.4865C17.4025 63.4865 16.8189 63.9213 16.8189 64.791C16.8189 65.1457 16.9448 65.4376 17.1966 65.6664C17.4483 65.8838 17.8088 65.9926 18.278 65.9926ZM23.5439 58.7146H26.1015L28.3158 64.4134H28.4531L30.7017 58.7146H33.225L29.483 67.4688H27.2515L23.5439 58.7146ZM38.2968 67.7434C37.4271 67.7434 36.6433 67.5431 35.9452 67.1426C35.2472 66.7421 34.6979 66.1928 34.2974 65.4948C33.9083 64.7853 33.7138 63.99 33.7138 63.1088C33.7138 62.2735 33.9083 61.501 34.2974 60.7915C34.6865 60.0706 35.2243 59.4984 35.9109 59.075C36.5975 58.6516 37.3642 58.4399 38.211 58.4399C39.115 58.4399 39.8932 58.6345 40.5455 59.0235C41.1977 59.4126 41.6898 59.9447 42.0217 60.6199C42.365 61.2951 42.5366 62.0446 42.5366 62.8685C42.5366 63.1317 42.5194 63.3835 42.4851 63.6238H35.9109C36.0253 64.3218 36.3 64.8539 36.7348 65.2201C37.1811 65.5749 37.7132 65.7522 38.3312 65.7522C38.8461 65.7522 39.2867 65.6435 39.6529 65.4261C40.0305 65.1972 40.328 64.894 40.5455 64.5164L42.365 65.4089C41.4724 66.9652 40.1163 67.7434 38.2968 67.7434ZM40.3738 62.0274C40.3509 61.7528 40.2479 61.4839 40.0648 61.2207C39.8932 60.946 39.6472 60.7229 39.3267 60.5512C39.0178 60.3681 38.6516 60.2766 38.2282 60.2766C37.6903 60.2766 37.2269 60.4368 36.8378 60.7572C36.4602 61.0662 36.1855 61.4896 36.0139 62.0274H40.3738ZM48.6008 55.1786H56.3938V57.3757H50.9181V60.3624H55.8445V62.5595H50.9181V67.4688H48.6008V55.1786ZM60.9547 67.7434C59.9019 67.7434 59.1009 67.4173 58.5516 66.765C58.0023 66.1127 57.7277 65.203 57.7277 64.0357V58.7146H59.9763V63.7611C59.9763 64.3562 60.1193 64.8253 60.4054 65.1686C60.6915 65.5005 61.0691 65.6664 61.5383 65.6664C62.1791 65.6664 62.6884 65.4318 63.066 64.9627C63.4436 64.4935 63.6324 63.8984 63.6324 63.1775V58.7146H65.8811V67.4688H63.7698V66.3702H63.6324C63.3693 66.7936 62.9973 67.1312 62.5167 67.3829C62.0475 67.6232 61.5269 67.7434 60.9547 67.7434ZM68.0719 58.7146H70.1832V59.8131H70.3205C70.5837 59.3897 70.9556 59.0579 71.4362 58.8176C71.9169 58.5658 72.4375 58.4399 72.9983 58.4399C74.051 58.4399 74.8521 58.7603 75.4014 59.4012C75.9506 60.042 76.2253 60.9174 76.2253 62.0274V67.4688H73.9767V62.3021C73.9767 61.7413 73.8336 61.3065 73.5475 60.9975C73.2615 60.6886 72.8609 60.5341 72.346 60.5341C71.7395 60.5341 71.2474 60.7687 70.8698 61.2378C70.5036 61.707 70.3205 62.2963 70.3205 63.0058V67.4688H68.0719V58.7146ZM82.6795 53.874H84.7393V69.5286H82.6795V53.874ZM91.5805 55.1786H94.5672L97.8286 63.8126H97.9659L101.227 55.1786H104.231V67.4688H101.931V61.4095L102.068 59.3668H101.931L98.807 67.4688H97.0047L93.8635 59.3668H93.7261L93.8635 61.4095V67.4688H91.5805V55.1786ZM109.153 67.7434C108.226 67.7434 107.465 67.4745 106.87 66.9366C106.275 66.3874 105.978 65.6721 105.978 64.791C105.978 64.2074 106.132 63.6924 106.441 63.2461C106.75 62.7999 107.173 62.4566 107.711 62.2162C108.249 61.9759 108.844 61.8558 109.496 61.8558C110.4 61.8558 111.173 61.9874 111.814 62.2506V61.8729C111.814 61.3923 111.631 61.0032 111.264 60.7057C110.91 60.4082 110.429 60.2594 109.823 60.2594C109.411 60.2594 109.01 60.3567 108.621 60.5512C108.243 60.7343 107.929 60.9804 107.677 61.2893L106.235 60.1564C106.658 59.6072 107.191 59.1838 107.831 58.8862C108.472 58.5887 109.17 58.4399 109.926 58.4399C111.264 58.4399 112.283 58.7489 112.981 59.3668C113.679 59.9848 114.028 60.8888 114.028 62.0789V67.4688H111.814V66.5762H111.676C111.413 66.9195 111.064 67.1998 110.629 67.4173C110.206 67.6347 109.714 67.7434 109.153 67.7434ZM109.685 65.9926C110.337 65.9926 110.852 65.7866 111.23 65.3746C111.619 64.9512 111.814 64.4591 111.814 63.8984C111.23 63.6238 110.618 63.4865 109.977 63.4865C108.81 63.4865 108.226 63.9213 108.226 64.791C108.226 65.1457 108.352 65.4376 108.604 65.6664C108.856 65.8838 109.216 65.9926 109.685 65.9926ZM116.097 55.1786H118.346V61.8729H118.466L121.607 58.7146H124.371V58.8519L121.058 62.0961L124.525 67.3314V67.4688H121.865L119.479 63.6409L118.346 64.7567V67.4688H116.097V55.1786ZM129.536 67.7434C128.667 67.7434 127.883 67.5431 127.185 67.1426C126.487 66.7421 125.938 66.1928 125.537 65.4948C125.148 64.7853 124.953 63.99 124.953 63.1088C124.953 62.2735 125.148 61.501 125.537 60.7915C125.926 60.0706 126.464 59.4984 127.151 59.075C127.837 58.6516 128.604 58.4399 129.451 58.4399C130.355 58.4399 131.133 58.6345 131.785 59.0235C132.437 59.4126 132.929 59.9447 133.261 60.6199C133.605 61.2951 133.776 62.0446 133.776 62.8685C133.776 63.1317 133.759 63.3835 133.725 63.6238H127.151C127.265 64.3218 127.54 64.8539 127.974 65.2201C128.421 65.5749 128.953 65.7522 129.571 65.7522C130.086 65.7522 130.526 65.6435 130.892 65.4261C131.27 65.1972 131.568 64.894 131.785 64.5164L133.605 65.4089C132.712 66.9652 131.356 67.7434 129.536 67.7434ZM131.613 62.0274C131.591 61.7528 131.488 61.4839 131.304 61.2207C131.133 60.946 130.887 60.7229 130.566 60.5512C130.257 60.3681 129.891 60.2766 129.468 60.2766C128.93 60.2766 128.466 60.4368 128.077 60.7572C127.7 61.0662 127.425 61.4896 127.253 62.0274H131.613ZM139.84 55.1786H142.827L146.089 63.8126H146.226L149.487 55.1786H152.491V67.4688H150.191V61.4095L150.328 59.3668H150.191L147.067 67.4688H145.265L142.123 59.3668H141.986L142.123 61.4095V67.4688H139.84V55.1786ZM159.175 67.7434C158.271 67.7434 157.464 67.5431 156.755 67.1426C156.045 66.7307 155.49 66.1756 155.09 65.4776C154.701 64.7681 154.506 63.9728 154.506 63.0917C154.506 62.222 154.701 61.4324 155.09 60.7229C155.49 60.0134 156.045 59.4584 156.755 59.0579C157.464 58.6459 158.271 58.4399 159.175 58.4399C160.068 58.4399 160.869 58.6459 161.578 59.0579C162.288 59.4584 162.837 60.0134 163.226 60.7229C163.626 61.4324 163.827 62.222 163.827 63.0917C163.827 63.9728 163.626 64.7681 163.226 65.4776C162.837 66.1756 162.288 66.7307 161.578 67.1426C160.869 67.5431 160.068 67.7434 159.175 67.7434ZM159.175 65.6664C159.61 65.6664 160.01 65.5634 160.377 65.3574C160.743 65.1515 161.035 64.8539 161.252 64.4649C161.469 64.0758 161.578 63.6181 161.578 63.0917C161.578 62.5767 161.469 62.1247 161.252 61.7356C161.035 61.3465 160.743 61.049 160.377 60.843C160.01 60.6371 159.61 60.5341 159.175 60.5341C158.74 60.5341 158.34 60.6371 157.973 60.843C157.607 61.049 157.31 61.3465 157.081 61.7356C156.863 62.1247 156.755 62.5767 156.755 63.0917C156.755 63.6066 156.863 64.0643 157.081 64.4649C157.31 64.8539 157.607 65.1515 157.973 65.3574C158.34 65.5634 158.74 65.6664 159.175 65.6664ZM165.38 58.7146H167.491V59.8131H167.628C167.891 59.3897 168.263 59.0579 168.744 58.8176C169.225 58.5658 169.745 58.4399 170.306 58.4399C171.359 58.4399 172.16 58.7603 172.709 59.4012C173.258 60.042 173.533 60.9174 173.533 62.0274V67.4688H171.284V62.3021C171.284 61.7413 171.141 61.3065 170.855 60.9975C170.569 60.6886 170.169 60.5341 169.654 60.5341C169.047 60.5341 168.555 60.7687 168.178 61.2378C167.811 61.707 167.628 62.2963 167.628 63.0058V67.4688H165.38V58.7146ZM179.758 67.7434C178.888 67.7434 178.104 67.5431 177.406 67.1426C176.708 66.7421 176.159 66.1928 175.758 65.4948C175.369 64.7853 175.175 63.99 175.175 63.1088C175.175 62.2735 175.369 61.501 175.758 60.7915C176.147 60.0706 176.685 59.4984 177.372 59.075C178.058 58.6516 178.825 58.4399 179.672 58.4399C180.576 58.4399 181.354 58.6345 182.006 59.0235C182.659 59.4126 183.151 59.9447 183.482 60.6199C183.826 61.2951 183.997 62.0446 183.997 62.8685C183.997 63.1317 183.98 63.3835 183.946 63.6238H177.372C177.486 64.3218 177.761 64.8539 178.196 65.2201C178.642 65.5749 179.174 65.7522 179.792 65.7522C180.307 65.7522 180.747 65.6435 181.114 65.4261C181.491 65.1972 181.789 64.894 182.006 64.5164L183.826 65.4089C182.933 66.9652 181.577 67.7434 179.758 67.7434ZM181.835 62.0274C181.812 61.7528 181.709 61.4839 181.526 61.2207C181.354 60.946 181.108 60.7229 180.788 60.5512C180.479 60.3681 180.112 60.2766 179.689 60.2766C179.151 60.2766 178.688 60.4368 178.299 60.7572C177.921 61.0662 177.646 61.4896 177.475 62.0274H181.835ZM188.291 67.0568L184.601 58.7146H187.158L189.424 64.1559H189.561L191.741 58.7146H194.247L188.84 71.1764H186.42L188.291 67.0568ZM199.818 53.874H201.877V69.5286H199.818V53.874ZM214.254 67.7434C213.075 67.7434 211.988 67.4688 210.992 66.9195C210.008 66.3587 209.224 65.592 208.641 64.6194C208.057 63.6352 207.765 62.5367 207.765 61.3237C207.765 60.1107 208.057 59.0178 208.641 58.0451C209.224 57.061 210.008 56.2943 210.992 55.745C211.988 55.1843 213.075 54.9039 214.254 54.9039C215.215 54.9039 216.09 55.0756 216.88 55.4189C217.681 55.7507 218.368 56.2256 218.94 56.8436L217.343 58.4056C216.931 57.9708 216.474 57.6446 215.97 57.4272C215.478 57.2098 214.9 57.1011 214.237 57.1011C213.481 57.1011 212.789 57.2784 212.16 57.6332C211.53 57.9765 211.027 58.4743 210.649 59.1265C210.283 59.7674 210.1 60.4997 210.1 61.3237C210.1 62.1476 210.289 62.8857 210.666 63.538C211.044 64.1788 211.547 64.6766 212.177 65.0313C212.818 65.3746 213.516 65.5463 214.271 65.5463C215.415 65.5463 216.354 65.2087 217.086 64.5335C217.315 64.3275 217.515 64.0643 217.687 63.7439C217.858 63.4235 217.984 63.0745 218.064 62.6969H214.202V60.7229H220.227C220.307 61.0433 220.347 61.4038 220.347 61.8043C220.347 62.6168 220.221 63.372 219.97 64.0701C219.729 64.7681 219.357 65.3803 218.854 65.9067C218.305 66.5018 217.641 66.9595 216.863 67.2799C216.085 67.5889 215.215 67.7434 214.254 67.7434ZM223.526 57.7533C223.125 57.7533 222.782 57.6103 222.496 57.3242C222.21 57.0381 222.067 56.6948 222.067 56.2943C222.067 55.8938 222.21 55.5562 222.496 55.2816C222.782 54.9955 223.125 54.8524 223.526 54.8524C223.926 54.8524 224.264 54.9955 224.539 55.2816C224.825 55.5562 224.968 55.8938 224.968 56.2943C224.968 56.6948 224.825 57.0381 224.539 57.3242C224.264 57.6103 223.926 57.7533 223.526 57.7533ZM222.393 58.7146H224.642V67.4688H222.393V58.7146ZM226.021 58.7146H228.579L230.793 64.4134H230.93L233.179 58.7146H235.702L231.96 67.4688H229.729L226.021 58.7146ZM240.774 67.7434C239.904 67.7434 239.12 67.5431 238.422 67.1426C237.724 66.7421 237.175 66.1928 236.775 65.4948C236.385 64.7853 236.191 63.99 236.191 63.1088C236.191 62.2735 236.385 61.501 236.775 60.7915C237.164 60.0706 237.701 59.4984 238.388 59.075C239.075 58.6516 239.841 58.4399 240.688 58.4399C241.592 58.4399 242.37 58.6345 243.023 59.0235C243.675 59.4126 244.167 59.9447 244.499 60.6199C244.842 61.2951 245.014 62.0446 245.014 62.8685C245.014 63.1317 244.997 63.3835 244.962 63.6238H238.388C238.502 64.3218 238.777 64.8539 239.212 65.2201C239.658 65.5749 240.19 65.7522 240.808 65.7522C241.323 65.7522 241.764 65.6435 242.13 65.4261C242.508 65.1972 242.805 64.894 243.023 64.5164L244.842 65.4089C243.95 66.9652 242.594 67.7434 240.774 67.7434ZM242.851 62.0274C242.828 61.7528 242.725 61.4839 242.542 61.2207C242.37 60.946 242.124 60.7229 241.804 60.5512C241.495 60.3681 241.129 60.2766 240.705 60.2766C240.168 60.2766 239.704 60.4368 239.315 60.7572C238.937 61.0662 238.663 61.4896 238.491 62.0274H242.851ZM251.078 55.1786H255.884C256.571 55.1786 257.2 55.3216 257.772 55.6077C258.356 55.8938 258.814 56.2829 259.146 56.7749C259.477 57.267 259.643 57.8048 259.643 58.3884C259.643 59.0064 259.489 59.5442 259.18 60.002C258.882 60.4482 258.488 60.7915 257.996 61.0319V61.1692C258.636 61.398 259.146 61.7642 259.523 62.2677C259.901 62.7598 260.09 63.3549 260.09 64.0529C260.09 64.7281 259.907 65.3288 259.54 65.8552C259.186 66.3702 258.699 66.7707 258.081 67.0568C257.475 67.3314 256.8 67.4688 256.056 67.4688H251.078V55.1786ZM255.713 60.1908C256.216 60.1908 256.617 60.0534 256.914 59.7788C257.223 59.4927 257.378 59.138 257.378 58.7146C257.378 58.3026 257.229 57.9593 256.931 57.6847C256.645 57.3986 256.262 57.2555 255.781 57.2555H253.395V60.1908H255.713ZM255.97 65.3574C256.531 65.3574 256.966 65.2144 257.275 64.9283C257.595 64.6308 257.755 64.2474 257.755 63.7783C257.755 63.3091 257.595 62.9257 257.275 62.6282C256.954 62.3307 256.496 62.1819 255.901 62.1819H253.395V65.3574H255.97ZM264.56 67.7434C263.634 67.7434 262.873 67.4745 262.278 66.9366C261.682 66.3874 261.385 65.6721 261.385 64.791C261.385 64.2074 261.539 63.6924 261.848 63.2461C262.157 62.7999 262.581 62.4566 263.119 62.2162C263.656 61.9759 264.252 61.8558 264.904 61.8558C265.808 61.8558 266.58 61.9874 267.221 62.2506V61.8729C267.221 61.3923 267.038 61.0032 266.672 60.7057C266.317 60.4082 265.836 60.2594 265.23 60.2594C264.818 60.2594 264.417 60.3567 264.028 60.5512C263.651 60.7343 263.336 60.9804 263.084 61.2893L261.642 60.1564C262.066 59.6072 262.598 59.1838 263.239 58.8862C263.88 58.5887 264.578 58.4399 265.333 58.4399C266.672 58.4399 267.69 58.7489 268.388 59.3668C269.086 59.9848 269.435 60.8888 269.435 62.0789V67.4688H267.221V66.5762H267.084C266.821 66.9195 266.472 67.1998 266.037 67.4173C265.613 67.6347 265.121 67.7434 264.56 67.7434ZM265.093 65.9926C265.745 65.9926 266.26 65.7866 266.637 65.3746C267.027 64.9512 267.221 64.4591 267.221 63.8984C266.637 63.6238 266.025 63.4865 265.384 63.4865C264.217 63.4865 263.634 63.9213 263.634 64.791C263.634 65.1457 263.759 65.4376 264.011 65.6664C264.263 65.8838 264.623 65.9926 265.093 65.9926ZM275.54 67.7434C274.659 67.7434 273.87 67.5489 273.172 67.1598C272.474 66.7593 271.924 66.2043 271.524 65.4948C271.135 64.7853 270.94 63.9842 270.94 63.0917C270.94 62.1991 271.135 61.4038 271.524 60.7057C271.924 59.9962 272.474 59.4412 273.172 59.0407C273.87 58.6402 274.659 58.4399 275.54 58.4399C276.513 58.4399 277.348 58.6516 278.046 59.075C278.744 59.487 279.248 60.0763 279.557 60.843L277.497 61.7013C277.131 60.9231 276.479 60.5341 275.54 60.5341C274.854 60.5341 274.287 60.7687 273.841 61.2378C273.406 61.707 273.189 62.325 273.189 63.0917C273.189 63.8698 273.406 64.4935 273.841 64.9627C274.287 65.4318 274.854 65.6664 275.54 65.6664C276.49 65.6664 277.177 65.2545 277.6 64.4305L279.643 65.3231C279.265 66.0898 278.727 66.6849 278.029 67.1083C277.331 67.5317 276.502 67.7434 275.54 67.7434ZM281.26 55.1786H283.509V61.8729H283.629L286.77 58.7146H289.534V58.8519L286.221 62.0961L289.688 67.3314V67.4688H287.028L284.642 63.6409L283.509 64.7567V67.4688H281.26V55.1786Z" fill="#212121"/>
</svg>
