<svg width="23" height="28" viewBox="0 0 23 28" fill="none" xmlns="http://www.w3.org/2000/svg">
<path d="M3.60508 22.5237C3.4301 22.5237 3.26229 22.4524 3.13856 22.3254C3.01483 22.1984 2.94531 22.0261 2.94531 21.8465V14.7189C2.94531 14.5393 3.01483 14.3671 3.13856 14.2401C3.26229 14.1131 3.4301 14.0417 3.60508 14.0417C3.78006 14.0417 3.94787 14.1131 4.0716 14.2401C4.19533 14.3671 4.26484 14.5393 4.26484 14.7189V21.8428C4.26532 21.9321 4.2486 22.0205 4.21566 22.1031C4.18272 22.1857 4.1342 22.2608 4.07289 22.324C4.01157 22.3873 3.93868 22.4375 3.8584 22.4718C3.77811 22.5061 3.69202 22.5237 3.60508 22.5237Z" fill="#828282"/>
<path d="M18.6886 9.93796C18.5137 9.93796 18.3458 9.86661 18.2221 9.73962C18.0984 9.61263 18.0289 9.44039 18.0289 9.2608V3.68595C18.0279 3.3314 17.8903 2.99166 17.646 2.74095C17.4017 2.49025 17.0707 2.34897 16.7253 2.34799H5.57234C5.22689 2.34897 4.89587 2.49025 4.65161 2.74095C4.40735 2.99166 4.2697 3.3314 4.26874 3.68595V4.31777C4.26874 4.49736 4.19923 4.6696 4.0755 4.79659C3.95177 4.92358 3.78396 4.99493 3.60898 4.99493C3.434 4.99493 3.26619 4.92358 3.14246 4.79659C3.01873 4.6696 2.94922 4.49736 2.94922 4.31777V3.68595C2.95018 2.97195 3.2269 2.28747 3.71874 1.78252C4.21058 1.27758 4.8774 0.993367 5.57306 0.992188L16.726 0.992188C17.4215 0.993761 18.0881 1.27825 18.5796 1.78331C19.0712 2.28837 19.3476 2.97282 19.3484 3.6867V9.26154C19.3482 9.44101 19.2786 9.61305 19.1549 9.73988C19.0312 9.86672 18.8635 9.93796 18.6886 9.93796Z" fill="#828282"/>
<path d="M3.60547 21.6111V24.3138C3.60547 24.8488 3.81255 25.3619 4.18116 25.7402C4.54977 26.1186 5.0497 26.3311 5.57099 26.3311H16.7239C17.2452 26.3311 17.7452 26.1186 18.1138 25.7402C18.4824 25.3619 18.6895 24.8488 18.6895 24.3138V21.6111H3.60547Z" fill="#828282"/>
<path d="M16.7235 27.0082H5.5706C4.87457 27.0074 4.20726 26.7233 3.71509 26.2181C3.22292 25.713 2.94608 25.0281 2.94531 24.3137V21.611C2.94531 21.4314 3.01483 21.2592 3.13856 21.1322C3.26229 21.0052 3.4301 20.9338 3.60508 20.9338H18.6891C18.8641 20.9338 19.0319 21.0052 19.1556 21.1322C19.2793 21.2592 19.3488 21.4314 19.3488 21.611V24.3137C19.3481 25.0281 19.0712 25.713 18.5791 26.2181C18.0869 26.7233 17.4196 27.0074 16.7235 27.0082ZM4.26701 22.2881V24.3137C4.26797 24.6682 4.40562 25.008 4.64988 25.2587C4.89414 25.5094 5.22516 25.6507 5.5706 25.6517H16.7235C17.069 25.6507 17.4 25.5094 17.6443 25.2587C17.8885 25.008 18.0262 24.6682 18.0271 24.3137V22.2881H4.26701Z" fill="#828282"/>
<path d="M12.3157 24.6363H10.0445C9.86954 24.6363 9.70173 24.565 9.578 24.438C9.45427 24.311 9.38477 24.1387 9.38477 23.9591C9.38477 23.7796 9.45427 23.6073 9.578 23.4803C9.70173 23.3533 9.86954 23.282 10.0445 23.282H12.3157C12.4907 23.282 12.6585 23.3533 12.7822 23.4803C12.9059 23.6073 12.9754 23.7796 12.9754 23.9591C12.9754 24.1387 12.9059 24.311 12.7822 24.438C12.6585 24.565 12.4907 24.6363 12.3157 24.6363Z" fill="#828282"/>
<path d="M18.691 23.1919C18.516 23.1919 18.3482 23.1206 18.2245 22.9936C18.1008 22.8666 18.0313 22.6944 18.0313 22.5148V19.8671C18.0312 19.6875 18.1008 19.5153 18.2245 19.3883C18.3482 19.2613 18.516 19.1899 18.691 19.1899C18.866 19.1899 19.0338 19.2613 19.1575 19.3883C19.2813 19.5153 19.3508 19.6875 19.3508 19.8671V22.5148C19.3508 22.6944 19.2813 22.8666 19.1575 22.9936C19.0338 23.1206 18.866 23.1919 18.691 23.1919Z" fill="#828282"/>
<path d="M16.1809 18.6171C15.9218 18.6172 15.6695 18.532 15.461 18.374L11.7581 15.5926C11.6031 15.476 11.477 15.3235 11.39 15.1476C11.3031 14.9716 11.2578 14.7771 11.2578 14.5798C11.2578 14.3825 11.3031 14.188 11.39 14.012C11.477 13.8361 11.6031 13.6836 11.7581 13.567L15.461 10.7848C15.6695 10.6269 15.9218 10.5417 16.1809 10.5417C16.5056 10.5419 16.817 10.6743 17.0467 10.9098C17.2764 11.1453 17.4057 11.4647 17.4063 11.7979V11.879H20.3531C20.8693 11.8796 21.3641 12.0903 21.729 12.4648C22.094 12.8394 22.2993 13.3473 22.2998 13.877V15.2826C22.2993 15.8123 22.094 16.3202 21.729 16.6948C21.3641 17.0693 20.8693 17.28 20.3531 17.2806H17.4056V17.3616C17.4048 17.6946 17.2755 18.0137 17.0459 18.249C16.8164 18.4844 16.5054 18.6167 16.1809 18.6171ZM12.6431 14.5787L16.0868 17.1654V16.6027C16.0868 16.4231 16.1563 16.2509 16.28 16.1239C16.4037 15.9969 16.5716 15.9256 16.7465 15.9256H20.3531C20.5194 15.9254 20.6788 15.8575 20.7964 15.7368C20.914 15.6161 20.9801 15.4525 20.9803 15.2819V13.8792C20.9801 13.7086 20.914 13.545 20.7964 13.4243C20.6788 13.3036 20.5194 13.2357 20.3531 13.2355H16.7465C16.5716 13.2355 16.4037 13.1642 16.28 13.0372C16.1563 12.9102 16.0868 12.7379 16.0868 12.5584V11.9957L12.6431 14.5787Z" fill="#828282"/>
<path d="M6.11529 13.3974C5.79061 13.3972 5.47926 13.2648 5.24954 13.0293C5.01982 12.7938 4.89049 12.4744 4.88992 12.1412V12.0602H1.9467C1.43058 12.0596 0.935761 11.8489 0.570809 11.4743C0.205857 11.0997 0.000575064 10.5919 0 10.0621V8.65653C0.000575064 8.1268 0.205857 7.61894 0.570809 7.24437C0.935761 6.86979 1.43058 6.6591 1.9467 6.65851H4.89354V6.57749C4.89411 6.24425 5.02344 5.92485 5.25316 5.68935C5.48288 5.45385 5.79423 5.32149 6.11891 5.32129C6.37802 5.32122 6.63032 5.40642 6.83878 5.56435L10.5417 8.34583C10.6968 8.46242 10.8229 8.61488 10.9098 8.79084C10.9967 8.9668 11.042 9.16131 11.042 9.35859C11.042 9.55588 10.9967 9.75039 10.9098 9.92635C10.8229 10.1023 10.6968 10.2548 10.5417 10.3714L6.83951 13.1573C6.62947 13.315 6.37555 13.3992 6.11529 13.3974ZM1.94308 8.01208C1.7768 8.01228 1.61739 8.08016 1.49981 8.20084C1.38223 8.32151 1.31609 8.48513 1.3159 8.65579V10.0614C1.31609 10.2321 1.38223 10.3957 1.49981 10.5164C1.61739 10.637 1.7768 10.7049 1.94308 10.7051H5.54968C5.72466 10.7051 5.89247 10.7764 6.0162 10.9034C6.13993 11.0304 6.20944 11.2027 6.20944 11.3823V11.945L9.65309 9.35822L6.20944 6.7715V7.33418C6.20944 7.51377 6.13993 7.68601 6.0162 7.813C5.89247 7.93999 5.72466 8.01134 5.54968 8.01134L1.94308 8.01208Z" fill="#828282"/>
</svg>
