<svg width="234" height="202" viewBox="0 0 234 202" fill="none" xmlns="http://www.w3.org/2000/svg">
<path d="M175.291 142.899C207.482 110.701 207.482 58.4976 175.291 26.2996C143.101 -5.89841 90.909 -5.89841 58.7182 26.2996C26.5274 58.4976 26.5274 110.701 58.7182 142.899C90.909 175.097 143.101 175.097 175.291 142.899Z" fill="#D60B52" fill-opacity="0.12"/>
<g clip-path="url(#clip0)">
<path d="M97.9619 75.5843C97.9619 76.83 98.8816 77.8403 100.016 77.8403H136.984C138.118 77.8403 139.037 76.83 139.037 75.5843V53.0239H97.9619V75.5843ZM126.715 60.92C126.715 60.2968 127.174 59.792 127.742 59.792H133.903C134.47 59.792 134.93 60.2968 134.93 60.92V63.1761C134.93 63.7993 134.47 64.3041 133.903 64.3041H127.742C127.174 64.3041 126.715 63.7993 126.715 63.1761V60.92ZM126.715 69.3802C126.715 69.0686 126.944 68.8162 127.228 68.8162H134.416C134.7 68.8162 134.93 69.0686 134.93 69.3802V70.5082C134.93 70.8198 134.7 71.0722 134.416 71.0722H127.228C126.944 71.0722 126.715 70.8198 126.715 70.5082V69.3802ZM102.069 62.6121C102.069 62.3004 102.299 62.0481 102.583 62.0481H122.094C122.377 62.0481 122.607 62.3004 122.607 62.6121V63.7401C122.607 64.0517 122.377 64.3041 122.094 64.3041H102.583C102.299 64.3041 102.069 64.0517 102.069 63.7401V62.6121ZM102.069 69.3802C102.069 69.0686 102.299 68.8162 102.583 68.8162H113.879C114.162 68.8162 114.392 69.0686 114.392 69.3802V70.5082C114.392 70.8198 114.162 71.0722 113.879 71.0722H102.583C102.299 71.0722 102.069 70.8198 102.069 70.5082V69.3802ZM138.01 46.2558H98.9888C98.4214 46.2558 97.9619 46.7606 97.9619 47.3838V50.7679H139.037V47.3838C139.037 46.7606 138.578 46.2558 138.01 46.2558Z" fill="#D60B52"/>
</g>
<path d="M61.3106 94.0229H63.8647L67.3262 103.147H67.4271L70.8886 94.0229H73.4427V106.054H71.5775V99.316L71.6784 97.1484H71.5775L68.1328 106.054H66.6205L63.1758 97.1484H63.0749L63.1758 99.316V106.054H61.3106V94.0229ZM79.9078 106.323C79.0452 106.323 78.2722 106.127 77.5889 105.735C76.9055 105.332 76.3734 104.783 75.9926 104.088C75.6117 103.394 75.4212 102.621 75.4212 101.769C75.4212 100.918 75.6117 100.145 75.9926 99.4505C76.3734 98.7559 76.9055 98.2126 77.5889 97.8205C78.2722 97.4172 79.0452 97.2156 79.9078 97.2156C80.7704 97.2156 81.5433 97.4172 82.2267 97.8205C82.91 98.2238 83.4421 98.7727 83.823 99.4673C84.2039 100.162 84.3943 100.929 84.3943 101.769C84.3943 102.621 84.2039 103.394 83.823 104.088C83.4421 104.783 82.91 105.332 82.2267 105.735C81.5433 106.127 80.7704 106.323 79.9078 106.323ZM79.9078 104.626C80.3783 104.626 80.8152 104.514 81.2185 104.29C81.6218 104.055 81.941 103.724 82.1763 103.298C82.4227 102.862 82.546 102.352 82.546 101.769C82.546 101.187 82.4227 100.683 82.1763 100.257C81.941 99.8313 81.6218 99.5065 81.2185 99.2824C80.8152 99.0472 80.3783 98.9295 79.9078 98.9295C79.4373 98.9295 79.0004 99.0472 78.5971 99.2824C78.1938 99.5065 77.869 99.8313 77.6225 100.257C77.3873 100.683 77.2696 101.187 77.2696 101.769C77.2696 102.352 77.3873 102.862 77.6225 103.298C77.869 103.724 78.1938 104.055 78.5971 104.29C79.0004 104.514 79.4373 104.626 79.9078 104.626ZM85.9345 97.4844H87.6989V98.6103H87.7829C88.0293 98.207 88.3934 97.8765 88.8751 97.6189C89.368 97.35 89.8889 97.2156 90.4379 97.2156C91.4797 97.2156 92.2694 97.5236 92.8072 98.1398C93.3561 98.7447 93.6305 99.5737 93.6305 100.627V106.054H91.7821V100.879C91.7821 100.207 91.6141 99.7137 91.278 99.4C90.9532 99.0864 90.4995 98.9295 89.9169 98.9295C89.5025 98.9295 89.1328 99.0472 88.8079 99.2824C88.483 99.5065 88.231 99.8089 88.0518 100.19C87.8725 100.571 87.7829 100.98 87.7829 101.416V106.054H85.9345V97.4844ZM99.6299 106.323C98.7898 106.323 98.0336 106.127 97.3615 105.735C96.7005 105.343 96.1796 104.805 95.7987 104.122C95.429 103.427 95.2442 102.649 95.2442 101.786C95.2442 100.968 95.4234 100.212 95.7819 99.5177C96.1516 98.8119 96.6613 98.2518 97.311 97.8373C97.9608 97.4228 98.7001 97.2156 99.5291 97.2156C100.392 97.2156 101.137 97.406 101.764 97.7869C102.403 98.1678 102.884 98.6887 103.209 99.3496C103.545 100.011 103.713 100.756 103.713 101.585C103.713 101.741 103.696 101.937 103.663 102.173H97.0926C97.1598 102.968 97.4399 103.584 97.9328 104.021C98.4369 104.447 99.0194 104.66 99.6804 104.66C100.207 104.66 100.661 104.542 101.041 104.307C101.434 104.06 101.747 103.73 101.982 103.315L103.545 104.055C103.142 104.76 102.615 105.315 101.966 105.718C101.316 106.121 100.537 106.323 99.6299 106.323ZM101.831 100.761C101.809 100.459 101.714 100.162 101.546 99.8705C101.378 99.5681 101.12 99.316 100.773 99.1144C100.437 98.9127 100.022 98.8119 99.5291 98.8119C98.9354 98.8119 98.4313 98.9912 98.0168 99.3496C97.6135 99.6969 97.3335 100.167 97.1766 100.761H101.831ZM107.854 105.584L104.291 97.4844H106.358L108.778 103.315H108.845L111.198 97.4844H113.231L107.938 109.684H105.989L107.854 105.584ZM118.679 94.0229H121.233L124.695 103.147H124.796L128.257 94.0229H130.811V106.054H128.946V99.316L129.047 97.1484H128.946L125.501 106.054H123.989L120.544 97.1484H120.443L120.544 99.316V106.054H118.679V94.0229ZM135.703 106.323C135.087 106.323 134.538 106.205 134.056 105.97C133.574 105.724 133.199 105.382 132.93 104.945C132.661 104.497 132.527 103.993 132.527 103.433C132.527 102.548 132.857 101.848 133.518 101.332C134.19 100.817 135.036 100.559 136.056 100.559C136.56 100.559 137.013 100.61 137.417 100.711C137.82 100.8 138.139 100.901 138.374 101.013V100.576C138.374 100.05 138.178 99.6241 137.786 99.2992C137.394 98.9631 136.89 98.7951 136.274 98.7951C135.837 98.7951 135.423 98.8903 135.03 99.0808C134.65 99.2712 134.342 99.5345 134.106 99.8705L132.812 98.8791C133.193 98.3526 133.686 97.9437 134.291 97.6525C134.896 97.3612 135.568 97.2156 136.308 97.2156C137.551 97.2156 138.509 97.5236 139.181 98.1398C139.853 98.7447 140.189 99.6017 140.189 100.711V106.054H138.374V105.029H138.29C138.044 105.399 137.697 105.707 137.249 105.953C136.8 106.2 136.285 106.323 135.703 106.323ZM136.022 104.794C136.47 104.794 136.873 104.688 137.232 104.475C137.59 104.262 137.87 103.976 138.072 103.618C138.274 103.259 138.374 102.873 138.374 102.458C138.117 102.313 137.814 102.195 137.467 102.105C137.131 102.016 136.778 101.971 136.408 101.971C135.714 101.971 135.204 102.111 134.879 102.391C134.554 102.66 134.392 103.013 134.392 103.45C134.392 103.842 134.543 104.167 134.846 104.424C135.148 104.671 135.54 104.794 136.022 104.794ZM145.551 106.189C145.17 106.189 144.812 106.127 144.476 106.004C144.14 105.881 143.865 105.718 143.653 105.517C143.171 105.035 142.93 104.38 142.93 103.551V99.1144H141.434V97.4844H142.93V95.0647H144.778V97.4844H148.391V95.0647H150.24V97.4844H152.323V99.1144H150.24V103.147C150.24 103.607 150.329 103.931 150.508 104.122C150.676 104.346 150.968 104.458 151.382 104.458C151.573 104.458 151.741 104.436 151.886 104.391C152.032 104.335 152.189 104.251 152.357 104.139V105.937C151.976 106.105 151.528 106.189 151.013 106.189C150.632 106.189 150.273 106.127 149.937 106.004C149.601 105.881 149.327 105.718 149.114 105.517C148.632 105.035 148.391 104.38 148.391 103.551V99.1144H144.778V103.147C144.778 103.607 144.868 103.931 145.047 104.122C145.215 104.346 145.501 104.458 145.904 104.458C146.196 104.458 146.492 104.363 146.795 104.172V105.97C146.616 106.049 146.431 106.105 146.24 106.138C146.061 106.172 145.831 106.189 145.551 106.189ZM157.671 106.323C156.831 106.323 156.075 106.127 155.403 105.735C154.742 105.343 154.221 104.805 153.84 104.122C153.47 103.427 153.285 102.649 153.285 101.786C153.285 100.968 153.465 100.212 153.823 99.5177C154.193 98.8119 154.703 98.2518 155.352 97.8373C156.002 97.4228 156.741 97.2156 157.57 97.2156C158.433 97.2156 159.178 97.406 159.805 97.7869C160.444 98.1678 160.926 98.6887 161.25 99.3496C161.586 100.011 161.754 100.756 161.754 101.585C161.754 101.741 161.738 101.937 161.704 102.173H155.134C155.201 102.968 155.481 103.584 155.974 104.021C156.478 104.447 157.061 104.66 157.722 104.66C158.248 104.66 158.702 104.542 159.083 104.307C159.475 104.06 159.788 103.73 160.024 103.315L161.586 104.055C161.183 104.76 160.657 105.315 160.007 105.718C159.357 106.121 158.579 106.323 157.671 106.323ZM159.872 100.761C159.85 100.459 159.755 100.162 159.587 99.8705C159.419 99.5681 159.161 99.316 158.814 99.1144C158.478 98.9127 158.063 98.8119 157.57 98.8119C156.977 98.8119 156.473 98.9912 156.058 99.3496C155.655 99.6969 155.375 100.167 155.218 100.761H159.872ZM163.438 97.4844H165.202V98.7447H165.286C165.477 98.3078 165.807 97.9493 166.278 97.6693C166.748 97.378 167.247 97.2324 167.773 97.2324C168.188 97.2324 168.535 97.2884 168.815 97.4004V99.316C168.322 99.1368 167.879 99.0472 167.487 99.0472C167.062 99.0472 166.681 99.1592 166.345 99.3832C166.02 99.6073 165.762 99.9098 165.572 100.291C165.381 100.66 165.286 101.069 165.286 101.517V106.054H163.438V97.4844ZM173.029 106.323C172.043 106.323 171.236 106.11 170.609 105.685C169.982 105.248 169.539 104.693 169.281 104.021L170.928 103.298C171.13 103.747 171.41 104.088 171.768 104.323C172.138 104.559 172.558 104.676 173.029 104.676C173.488 104.676 173.874 104.598 174.188 104.441C174.502 104.273 174.659 104.027 174.659 103.702C174.659 103.388 174.524 103.142 174.255 102.962C173.986 102.783 173.572 102.626 173.012 102.492L171.987 102.24C171.303 102.072 170.738 101.775 170.29 101.349C169.842 100.924 169.618 100.386 169.618 99.7361C169.618 99.232 169.763 98.7895 170.054 98.4086C170.357 98.0277 170.76 97.7365 171.264 97.5348C171.768 97.322 172.317 97.2156 172.911 97.2156C173.706 97.2156 174.407 97.378 175.011 97.7029C175.616 98.0165 176.053 98.4758 176.322 99.0808L174.709 99.7865C174.384 99.1256 173.79 98.7951 172.928 98.7951C172.513 98.7951 172.166 98.8791 171.886 99.0472C171.606 99.2152 171.466 99.4336 171.466 99.7025C171.466 99.9602 171.572 100.173 171.785 100.341C171.998 100.498 172.312 100.632 172.726 100.744L173.986 101.064C174.827 101.276 175.46 101.601 175.885 102.038C176.322 102.464 176.541 102.99 176.541 103.618C176.541 104.155 176.384 104.632 176.07 105.046C175.768 105.449 175.348 105.763 174.81 105.987C174.272 106.211 173.678 106.323 173.029 106.323Z" fill="#1A1A1A"/>
<defs>
<clipPath id="clip0">
<rect width="41.0754" height="36.0966" fill="white" transform="translate(97.9609 44)"/>
</clipPath>
</defs>
</svg>
