<svg width="203" height="210" viewBox="0 0 203 210" fill="none" xmlns="http://www.w3.org/2000/svg">
<path d="M157.045 157.081C185.957 128.163 185.957 81.2779 157.045 52.3602C128.134 23.4425 81.2597 23.4425 52.3485 52.3602C23.4372 81.2779 23.4372 128.163 52.3485 157.081C81.2597 185.998 128.134 185.998 157.045 157.081Z" fill="#36A9E1" fill-opacity="0.33"/>
<path d="M120.28 85.6144C120.28 83.5868 118.843 81.8911 116.938 81.4831C117.699 80.2124 118.166 78.743 118.166 77.1573C118.166 72.4932 114.373 68.7003 109.709 68.7003C106.504 68.7003 103.743 70.5122 102.309 73.1487C100.876 70.5122 98.1144 68.7003 94.9092 68.7003C90.2451 68.7003 86.4521 72.4932 86.4521 77.1573C86.4521 79.0644 87.1118 80.8065 88.1795 82.2231C87.6457 82.6132 87.2112 83.1235 86.9111 83.7126C86.6111 84.3017 86.4538 84.9532 86.4521 85.6144V102.528C86.4521 104.861 88.3486 106.757 90.6807 106.757H116.052C118.384 106.757 120.28 104.861 120.28 102.528V96.9532L128.737 101.182V86.3818L120.28 90.6104V85.6144ZM109.709 72.9288C112.041 72.9288 113.938 74.8253 113.938 77.1573C113.938 79.4893 112.041 81.3858 109.709 81.3858C107.377 81.3858 105.481 79.4893 105.481 77.1573C105.481 74.8253 107.377 72.9288 109.709 72.9288ZM94.9092 72.9288C97.2412 72.9288 99.1377 74.8253 99.1377 77.1573C99.1377 79.4893 97.2412 81.3858 94.9092 81.3858C92.5772 81.3858 90.6807 79.4893 90.6807 77.1573C90.6807 74.8253 92.5772 72.9288 94.9092 72.9288Z" fill="#36A9E1"/>
<path d="M74.4535 122.497H77.613L81.8949 133.784H82.0196L86.3015 122.497H89.461V137.38H87.1537V129.044L87.2784 126.363H87.1537L82.8926 137.38H81.0219L76.7607 126.363H76.636L76.7607 129.044V137.38H74.4535V122.497ZM97.4582 137.712C96.3912 137.712 95.4351 137.47 94.5898 136.985C93.7445 136.486 93.0862 135.807 92.6151 134.948C92.1439 134.089 91.9084 133.132 91.9084 132.079C91.9084 131.026 92.1439 130.07 92.6151 129.211C93.0862 128.352 93.7445 127.679 94.5898 127.194C95.4351 126.696 96.3912 126.446 97.4582 126.446C98.5252 126.446 99.4814 126.696 100.327 127.194C101.172 127.693 101.83 128.372 102.301 129.232C102.773 130.091 103.008 131.04 103.008 132.079C103.008 133.132 102.773 134.089 102.301 134.948C101.83 135.807 101.172 136.486 100.327 136.985C99.4814 137.47 98.5252 137.712 97.4582 137.712ZM97.4582 135.613C98.0402 135.613 98.5807 135.474 99.0795 135.197C99.5784 134.906 99.9733 134.497 100.264 133.971C100.569 133.43 100.722 132.8 100.722 132.079C100.722 131.359 100.569 130.735 100.264 130.208C99.9733 129.682 99.5784 129.28 99.0795 129.003C98.5807 128.712 98.0402 128.566 97.4582 128.566C96.8762 128.566 96.3358 128.712 95.8369 129.003C95.3381 129.28 94.9362 129.682 94.6313 130.208C94.3403 130.735 94.1948 131.359 94.1948 132.079C94.1948 132.8 94.3403 133.43 94.6313 133.971C94.9362 134.497 95.3381 134.906 95.8369 135.197C96.3358 135.474 96.8762 135.613 97.4582 135.613ZM103.627 126.779H106.184L109.114 134.428H109.198L112.191 126.779H114.685L110.278 137.38H107.992L103.627 126.779ZM117.468 125.241C117.039 125.241 116.672 125.095 116.367 124.804C116.076 124.499 115.93 124.132 115.93 123.702C115.93 123.273 116.076 122.913 116.367 122.622C116.672 122.317 117.039 122.164 117.468 122.164C117.898 122.164 118.258 122.317 118.549 122.622C118.854 122.913 119.007 123.273 119.007 123.702C119.007 124.132 118.854 124.499 118.549 124.804C118.258 125.095 117.898 125.241 117.468 125.241ZM116.325 126.779H118.612V137.38H116.325V126.779ZM126.198 137.712C125.159 137.712 124.224 137.47 123.392 136.985C122.575 136.5 121.93 135.835 121.459 134.989C121.002 134.13 120.773 133.167 120.773 132.1C120.773 131.088 120.995 130.153 121.438 129.294C121.896 128.421 122.526 127.728 123.33 127.215C124.134 126.703 125.048 126.446 126.074 126.446C127.141 126.446 128.062 126.682 128.838 127.153C129.628 127.624 130.224 128.268 130.626 129.086C131.042 129.904 131.249 130.825 131.249 131.851C131.249 132.045 131.229 132.287 131.187 132.578H123.06C123.143 133.562 123.489 134.324 124.099 134.865C124.723 135.391 125.443 135.654 126.261 135.654C126.912 135.654 127.473 135.509 127.944 135.218C128.43 134.913 128.818 134.504 129.109 133.992L131.042 134.906C130.543 135.779 129.891 136.465 129.088 136.964C128.284 137.463 127.321 137.712 126.198 137.712ZM128.921 130.832C128.894 130.458 128.776 130.091 128.568 129.73C128.36 129.356 128.041 129.044 127.612 128.795C127.196 128.546 126.683 128.421 126.074 128.421C125.339 128.421 124.716 128.643 124.203 129.086C123.704 129.516 123.358 130.098 123.164 130.832H128.921ZM137.299 137.712C136.08 137.712 135.082 137.449 134.306 136.922C133.53 136.382 132.983 135.696 132.664 134.865L134.701 133.971C134.951 134.525 135.297 134.948 135.74 135.239C136.198 135.53 136.717 135.675 137.299 135.675C137.867 135.675 138.346 135.578 138.734 135.384C139.122 135.176 139.316 134.871 139.316 134.47C139.316 134.082 139.149 133.777 138.817 133.555C138.484 133.333 137.971 133.139 137.279 132.973L136.011 132.661C135.165 132.453 134.466 132.086 133.911 131.56C133.357 131.033 133.08 130.368 133.08 129.564C133.08 128.941 133.26 128.393 133.62 127.922C133.994 127.451 134.493 127.091 135.117 126.841C135.74 126.578 136.419 126.446 137.154 126.446C138.138 126.446 139.004 126.647 139.752 127.049C140.5 127.437 141.041 128.005 141.373 128.753L139.378 129.626C138.976 128.809 138.242 128.4 137.175 128.4C136.662 128.4 136.232 128.504 135.886 128.712C135.539 128.92 135.366 129.19 135.366 129.523C135.366 129.841 135.498 130.105 135.761 130.312C136.024 130.506 136.412 130.673 136.925 130.811L138.484 131.206C139.523 131.469 140.306 131.871 140.833 132.412C141.373 132.938 141.644 133.59 141.644 134.366C141.644 135.031 141.45 135.62 141.062 136.132C140.687 136.631 140.168 137.019 139.503 137.296C138.838 137.574 138.103 137.712 137.299 137.712Z" fill="#1A1A1A"/>
</svg>
