<svg width="34" height="30" viewBox="0 0 34 30" fill="none" xmlns="http://www.w3.org/2000/svg">
<path d="M26.6667 13.3333C26.6667 11.735 25.5333 10.3983 24.0317 10.0767C24.6317 9.075 25 7.91667 25 6.66667C25 2.99 22.01 0 18.3333 0C15.8067 0 13.63 1.42833 12.5 3.50667C11.37 1.42833 9.19333 0 6.66667 0C2.99 0 0 2.99 0 6.66667C0 8.17 0.52 9.54333 1.36167 10.66C0.940883 10.9675 0.598371 11.3698 0.361821 11.8342C0.125272 12.2986 0.00132437 12.8121 0 13.3333V26.6667C0 28.505 1.495 30 3.33333 30H23.3333C25.1717 30 26.6667 28.505 26.6667 26.6667V22.2717L33.3333 25.605V13.9383L26.6667 17.2717V13.3333ZM18.3333 3.33333C20.1717 3.33333 21.6667 4.82833 21.6667 6.66667C21.6667 8.505 20.1717 10 18.3333 10C16.495 10 15 8.505 15 6.66667C15 4.82833 16.495 3.33333 18.3333 3.33333ZM6.66667 3.33333C8.505 3.33333 10 4.82833 10 6.66667C10 8.505 8.505 10 6.66667 10C4.82833 10 3.33333 8.505 3.33333 6.66667C3.33333 4.82833 4.82833 3.33333 6.66667 3.33333Z" fill="#D6035B"/>
</svg>
