<svg width="227" height="227" viewBox="0 0 227 227" fill="none" xmlns="http://www.w3.org/2000/svg">
<path d="M169.862 170.35C201.133 139.072 201.133 88.3609 169.862 57.0831C138.591 25.8053 87.8915 25.8053 56.6208 57.0831C25.35 88.3609 25.3499 139.072 56.6207 170.35C87.8915 201.628 138.591 201.628 169.862 170.35Z" fill="#9A8C09" fill-opacity="0.32"/>
<path fill-rule="evenodd" clip-rule="evenodd" d="M96.1025 103.309L104.36 106.894V77.9724L96.1025 75.3426V103.309Z" fill="#9A8C09"/>
<path fill-rule="evenodd" clip-rule="evenodd" d="M120.234 94.926C117.38 94.926 115.069 97.866 115.069 101.495C115.069 102.432 115.229 103.319 115.503 104.129L120.251 114.268L124.958 104.129C125.239 103.319 125.394 102.432 125.394 101.495C125.394 97.866 123.081 94.926 120.234 94.926ZM120.267 104.794C119.433 104.794 118.633 104.409 118.043 103.722C117.452 103.036 117.121 102.105 117.12 101.133C117.119 100.162 117.45 99.2299 118.04 98.5425C118.629 97.8551 119.429 97.4686 120.263 97.468C120.676 97.4677 121.085 97.5621 121.467 97.7459C121.849 97.9296 122.195 98.1992 122.488 98.539C122.78 98.8789 123.012 99.2825 123.17 99.7268C123.329 100.171 123.41 100.647 123.41 101.128C123.411 101.609 123.33 102.086 123.172 102.53C123.014 102.975 122.783 103.379 122.491 103.719C122.199 104.059 121.852 104.329 121.471 104.514C121.089 104.698 120.68 104.793 120.267 104.794Z" fill="#9A8C09"/>
<path fill-rule="evenodd" clip-rule="evenodd" d="M129.653 77.7449L119.234 75.4789V92.2153C119.561 92.1664 119.889 92.103 120.23 92.103C124.376 92.103 127.733 95.8658 127.733 100.51C127.733 101.712 127.506 102.845 127.102 103.885L126.294 105.421L129.653 107.123V77.7449Z" fill="#9A8C09"/>
<path fill-rule="evenodd" clip-rule="evenodd" d="M112.723 100.51C112.723 97.1651 114.48 94.2984 117.006 92.9456V75.7843L106.652 77.9722V106.893L114.371 105.797L113.354 103.885C112.939 102.825 112.724 101.675 112.723 100.51Z" fill="#9A8C09"/>
<path d="M78.1357 136.491C76.9793 136.491 75.9285 136.219 74.9834 135.674C74.0383 135.118 73.2933 134.362 72.7485 133.406C72.2147 132.45 71.9479 131.399 71.9479 130.254C71.9479 129.108 72.2147 128.063 72.7485 127.118C73.2933 126.162 74.0383 125.406 74.9834 124.85C75.9285 124.294 76.9793 124.016 78.1357 124.016C79.2921 124.016 80.3373 124.294 81.2713 124.85C82.2164 125.406 82.9614 126.162 83.5062 127.118C84.0511 128.063 84.3235 129.108 84.3235 130.254C84.3235 131.399 84.0511 132.45 83.5062 133.406C82.9725 134.362 82.2331 135.118 81.288 135.674C80.3428 136.219 79.2921 136.491 78.1357 136.491ZM78.1357 134.707C78.9251 134.707 79.6479 134.518 80.3039 134.14C80.9599 133.762 81.477 133.239 81.855 132.572C82.2331 131.894 82.4221 131.121 82.4221 130.254C82.4221 129.386 82.2331 128.619 81.855 127.952C81.477 127.274 80.9599 126.745 80.3039 126.367C79.6479 125.989 78.9251 125.8 78.1357 125.8C77.3462 125.8 76.6235 125.989 75.9675 126.367C75.3114 126.745 74.7888 127.274 74.3997 127.952C74.0216 128.619 73.8326 129.386 73.8326 130.254C73.8326 131.121 74.0216 131.894 74.3997 132.572C74.7888 133.239 75.3114 133.762 75.9675 134.14C76.6235 134.518 77.3462 134.707 78.1357 134.707ZM86.0764 127.718H87.8277V128.836H87.9111C88.1557 128.436 88.5171 128.108 88.9952 127.852C89.4845 127.585 90.0015 127.452 90.5463 127.452C91.5804 127.452 92.3643 127.757 92.898 128.369C93.4429 128.969 93.7153 129.792 93.7153 130.837V136.225H91.8806V131.088C91.8806 130.42 91.7138 129.931 91.3803 129.62C91.0578 129.308 90.6075 129.153 90.0293 129.153C89.6179 129.153 89.251 129.27 88.9285 129.503C88.606 129.725 88.3559 130.026 88.178 130.404C88.0001 130.782 87.9111 131.188 87.9111 131.621V136.225H86.0764V127.718ZM101.744 126.067H98.4081V124.283H106.948V126.067H103.612V136.225H101.744V126.067ZM108.456 124.283H110.291V127.535L110.207 128.836H110.291C110.535 128.436 110.897 128.108 111.375 127.852C111.864 127.585 112.386 127.452 112.942 127.452C113.977 127.452 114.766 127.757 115.311 128.369C115.856 128.969 116.128 129.792 116.128 130.837V136.225H114.293V131.088C114.293 130.443 114.121 129.959 113.776 129.636C113.443 129.314 113.004 129.153 112.459 129.153C112.047 129.153 111.675 129.27 111.341 129.503C111.019 129.737 110.763 130.048 110.574 130.437C110.385 130.815 110.291 131.221 110.291 131.655V136.225H108.456V124.283ZM122.098 136.491C121.264 136.491 120.514 136.297 119.847 135.908C119.191 135.518 118.674 134.985 118.296 134.307C117.929 133.617 117.745 132.844 117.745 131.988C117.745 131.176 117.923 130.426 118.279 129.737C118.646 129.036 119.152 128.48 119.797 128.069C120.442 127.657 121.176 127.452 121.998 127.452C122.855 127.452 123.594 127.641 124.217 128.019C124.85 128.397 125.329 128.914 125.651 129.57C125.985 130.226 126.151 130.965 126.151 131.788C126.151 131.944 126.135 132.138 126.101 132.372H119.58C119.647 133.161 119.925 133.773 120.414 134.206C120.914 134.629 121.492 134.84 122.148 134.84C122.671 134.84 123.121 134.723 123.499 134.49C123.889 134.245 124.2 133.917 124.433 133.506L125.985 134.24C125.584 134.94 125.062 135.491 124.417 135.891C123.772 136.291 122.999 136.491 122.098 136.491ZM124.283 130.971C124.261 130.671 124.167 130.376 124 130.087C123.833 129.787 123.577 129.536 123.233 129.336C122.899 129.136 122.488 129.036 121.998 129.036C121.409 129.036 120.909 129.214 120.497 129.57C120.097 129.914 119.819 130.381 119.663 130.971H124.283ZM137.36 136.491C136.226 136.491 135.18 136.219 134.224 135.674C133.268 135.129 132.506 134.384 131.939 133.439C131.383 132.483 131.105 131.421 131.105 130.254C131.105 129.086 131.383 128.03 131.939 127.085C132.506 126.128 133.268 125.378 134.224 124.833C135.18 124.288 136.226 124.016 137.36 124.016C138.26 124.016 139.1 124.177 139.878 124.499C140.656 124.822 141.307 125.272 141.83 125.85L140.529 127.151C140.139 126.718 139.672 126.384 139.128 126.151C138.594 125.917 137.999 125.8 137.343 125.8C136.576 125.8 135.859 125.984 135.191 126.351C134.524 126.718 133.991 127.24 133.59 127.919C133.19 128.597 132.99 129.375 132.99 130.254C132.99 131.132 133.19 131.91 133.59 132.589C133.991 133.267 134.524 133.789 135.191 134.156C135.859 134.523 136.581 134.707 137.36 134.707C138.071 134.707 138.666 134.601 139.144 134.39C139.622 134.179 140.051 133.895 140.429 133.539C140.673 133.295 140.879 132.989 141.046 132.622C141.224 132.255 141.34 131.855 141.396 131.421H137.343V129.753H143.164C143.219 130.065 143.247 130.387 143.247 130.721C143.247 131.477 143.131 132.205 142.897 132.906C142.663 133.595 142.291 134.195 141.78 134.707C140.656 135.897 139.183 136.491 137.36 136.491ZM149.008 136.491C148.152 136.491 147.385 136.297 146.707 135.908C146.028 135.507 145.5 134.963 145.122 134.273C144.744 133.584 144.555 132.817 144.555 131.971C144.555 131.126 144.744 130.359 145.122 129.67C145.5 128.98 146.028 128.441 146.707 128.052C147.385 127.652 148.152 127.452 149.008 127.452C149.864 127.452 150.632 127.652 151.31 128.052C151.988 128.452 152.516 128.997 152.894 129.687C153.272 130.376 153.461 131.138 153.461 131.971C153.461 132.817 153.272 133.584 152.894 134.273C152.516 134.963 151.988 135.507 151.31 135.908C150.632 136.297 149.864 136.491 149.008 136.491ZM149.008 134.807C149.475 134.807 149.909 134.696 150.309 134.473C150.709 134.24 151.026 133.912 151.26 133.489C151.504 133.056 151.627 132.55 151.627 131.971C151.627 131.393 151.504 130.893 151.26 130.47C151.026 130.048 150.709 129.725 150.309 129.503C149.909 129.27 149.475 129.153 149.008 129.153C148.541 129.153 148.108 129.27 147.707 129.503C147.307 129.725 146.985 130.048 146.74 130.47C146.506 130.893 146.39 131.393 146.39 131.971C146.39 132.55 146.506 133.056 146.74 133.489C146.985 133.912 147.307 134.24 147.707 134.473C148.108 134.696 148.541 134.807 149.008 134.807Z" fill="#1A1A1A"/>
</svg>
