<svg width="32" height="34" viewBox="0 0 32 34" fill="none" xmlns="http://www.w3.org/2000/svg">
<path fill-rule="evenodd" clip-rule="evenodd" d="M0.540039 24.0507L8.27832 27.0664V2.73475L0.540039 0.522217V24.0507Z" fill="#07CE6E"/>
<path fill-rule="evenodd" clip-rule="evenodd" d="M23.1504 16.9976C20.476 16.9976 18.3105 19.471 18.3105 22.5238C18.3105 23.3126 18.4599 24.0584 18.7173 24.7404L23.1661 33.27L27.5776 24.7404C27.8409 24.0584 27.9863 23.3126 27.9863 22.5238C27.9863 19.471 25.8189 16.9976 23.1504 16.9976ZM23.1819 25.2992C22.4001 25.2997 21.6502 24.9756 21.097 24.3981C20.5439 23.8206 20.2329 23.037 20.2323 22.2197C20.2318 21.4024 20.5419 20.6184 21.0943 20.0401C21.6467 19.4619 22.3962 19.1367 23.1779 19.1361C23.565 19.1359 23.9483 19.2153 24.306 19.3699C24.6638 19.5245 24.9888 19.7513 25.2627 20.0372C25.5366 20.3232 25.7539 20.6627 25.9023 21.0365C26.0507 21.4103 26.1272 21.8109 26.1274 22.2156C26.1277 22.6203 26.0517 23.021 25.9038 23.395C25.7559 23.769 25.539 24.1088 25.2655 24.3952C24.992 24.6815 24.6672 24.9087 24.3097 25.0638C23.9522 25.2189 23.5689 25.2989 23.1819 25.2992Z" fill="#07CE6E"/>
<path fill-rule="evenodd" clip-rule="evenodd" d="M31.98 2.54291L22.2158 0.636475V14.717C22.5224 14.6759 22.8289 14.6225 23.1492 14.6225C27.0341 14.6225 30.1801 17.7882 30.1801 21.6956C30.1801 22.7063 29.9679 23.6595 29.5886 24.5347L28.8321 25.8269L31.98 27.2588V2.54291Z" fill="#07CE6E"/>
<path fill-rule="evenodd" clip-rule="evenodd" d="M16.1145 21.6956C16.1145 18.8812 17.7612 16.4694 20.1291 15.3313V0.893311L10.4258 2.73401V27.0657L17.659 26.1433L16.706 24.5347C16.3175 23.6433 16.1158 22.6753 16.1145 21.6956Z" fill="#07CE6E"/>
</svg>
