<svg width="434" height="416" viewBox="0 0 434 416" fill="none" xmlns="http://www.w3.org/2000/svg">
<path fill-rule="evenodd" clip-rule="evenodd" d="M202.859 405.415C314.811 405.415 405.566 314.659 405.566 202.707C405.566 90.7551 314.811 0 202.859 0C90.9065 0 0.151367 90.7551 0.151367 202.707C0.151367 314.659 90.9065 405.415 202.859 405.415Z" fill="url(#paint0_linear)"/>
<mask id="mask0" style="mask-type:alpha" maskUnits="userSpaceOnUse" x="0" y="0" width="406" height="406">
<path fill-rule="evenodd" clip-rule="evenodd" d="M202.859 405.415C314.811 405.415 405.566 314.659 405.566 202.707C405.566 90.7551 314.811 0 202.859 0C90.9065 0 0.151367 90.7551 0.151367 202.707C0.151367 314.659 90.9065 405.415 202.859 405.415Z" fill="white"/>
</mask>
<g mask="url(#mask0)">
<path fill-rule="evenodd" clip-rule="evenodd" d="M287.096 259.761C358.827 259.761 416.976 201.611 416.976 129.881C416.976 58.1496 358.827 0.000183105 287.096 0.000183105C215.365 0.000183105 157.216 58.1496 157.216 129.881C157.216 201.611 215.365 259.761 287.096 259.761Z" fill="url(#paint1_linear)"/>
</g>
<path fill-rule="evenodd" clip-rule="evenodd" d="M397.267 415.473C417.471 415.473 433.849 399.095 433.849 378.891C433.849 358.688 417.471 342.31 397.267 342.31C377.064 342.31 360.686 358.688 360.686 378.891C360.686 399.095 377.064 415.473 397.267 415.473Z" fill="url(#paint2_linear)"/>
<defs>
<linearGradient id="paint0_linear" x1="55.3639" y1="102.979" x2="-34.1137" y2="374.934" gradientUnits="userSpaceOnUse">
<stop stop-color="#1B4D81"/>
<stop offset="1" stop-color="#053F7C"/>
</linearGradient>
<linearGradient id="paint1_linear" x1="192.592" y1="65.9819" x2="135.261" y2="240.231" gradientUnits="userSpaceOnUse">
<stop stop-color="#154981"/>
<stop offset="1" stop-color="#0D335B"/>
</linearGradient>
<linearGradient id="paint2_linear" x1="410.364" y1="342.232" x2="370.777" y2="403.841" gradientUnits="userSpaceOnUse">
<stop stop-color="#0C55A4"/>
<stop offset="1" stop-color="#0C437D"/>
</linearGradient>
</defs>
</svg>
