<svg width="217" height="322" viewBox="0 0 217 322" fill="none" xmlns="http://www.w3.org/2000/svg">
<path opacity="0.5" d="M213.664 180.953L150.239 214.25C147.411 215.739 143.117 215.898 140.664 214.608L1.65716 141.649C-0.796321 140.359 -0.485058 138.112 2.34377 136.622L65.7682 103.326C68.597 101.836 72.8906 101.678 75.3441 102.968L214.35 175.927C216.804 177.217 216.502 179.464 213.664 180.953Z" fill="#13247A"/>
<path d="M216.007 160.049L202.944 157.985L75.344 91.0177C72.8905 89.7278 68.6061 89.8943 65.7681 91.3756L6.65556 122.408L0 121.351V127.493H0.00916374C8.94044e-06 128.317 0.540131 129.099 1.65702 129.69L140.663 202.649C143.117 203.939 147.401 203.772 150.239 202.291L213.664 168.995C215.238 168.171 216.026 167.106 216.007 166.107V160.049Z" fill="url(#paint0_linear)"/>
<path d="M213.664 162.886L150.239 196.183C147.41 197.672 143.117 197.83 140.663 196.541L1.66595 123.59C-0.787532 122.3 -0.476269 120.053 2.35256 118.564L65.777 85.2672C68.6058 83.7776 72.8994 83.6195 75.3529 84.9094L214.359 157.868C216.804 159.15 216.502 161.397 213.664 162.886Z" fill="url(#paint1_linear)"/>
<path d="M213.665 162.104L150.24 195.4C147.411 196.89 143.118 197.048 140.664 195.758L1.65772 122.799C0.733087 122.317 0.202155 121.693 0.0465237 121.018C-0.145727 121.975 0.376049 122.908 1.65772 123.582L140.664 196.541C143.118 197.83 147.402 197.664 150.24 196.183L213.665 162.886C215.431 161.963 216.21 160.739 215.962 159.641C215.788 160.515 215.019 161.388 213.665 162.104Z" fill="white"/>
<path d="M213.765 157.552L140.087 196.233L2.26172 123.898L75.9395 85.2173L213.765 157.552Z" fill="#0F65B2"/>
<path d="M43.5681 100.363L33.7815 105.498C33.3604 105.723 32.7104 105.748 32.3442 105.556L32.2435 105.506C31.8773 105.315 31.9231 104.974 32.3442 104.749L42.1307 99.6143C42.5519 99.3897 43.2019 99.3647 43.5681 99.5644L43.6688 99.6143C44.0441 99.7974 43.9892 100.139 43.5681 100.363Z" fill="#0063AD"/>
<path d="M20.2045 124.53L18.9686 125.179L16.0391 123.64L17.2749 122.991L20.2045 124.53Z" fill="white"/>
<path d="M22.4857 123.332L21.2498 123.981L18.3203 122.45L19.5562 121.801L22.4857 123.332Z" fill="white"/>
<path d="M24.7559 122.142L23.52 122.791L20.5996 121.251L21.8355 120.602L24.7559 122.142Z" fill="white"/>
<path d="M27.0355 120.944L25.7997 121.593L22.8701 120.061L24.106 119.412L27.0355 120.944Z" fill="white"/>
<path d="M68.8723 9.42892C71.28 9.42892 73.23 11.2015 73.23 13.3902C73.23 15.5789 71.28 17.3515 68.8723 17.3515C66.4646 17.3515 64.5146 15.5789 64.5146 13.3902C64.5146 11.2015 66.4646 9.42892 68.8723 9.42892Z" fill="white"/>
<path d="M54.8118 9.42892C57.2195 9.42892 59.1695 11.2015 59.1695 13.3902C59.1695 15.5789 57.2195 17.3515 54.8118 17.3515C52.404 17.3515 50.4541 15.5789 50.4541 13.3902C50.4633 11.2015 52.4132 9.42892 54.8118 9.42892Z" fill="#7BDAFF"/>
<path opacity="0.5" d="M40.759 9.42892C43.1668 9.42892 45.1167 11.2015 45.1167 13.3902C45.1167 15.5789 43.1668 17.3515 40.759 17.3515C38.3513 17.3515 36.4014 15.5789 36.4014 13.3902C36.4014 11.2015 38.3513 9.42892 40.759 9.42892Z" fill="#7BDAFF"/>
<path opacity="0.1" d="M26.6955 9.42896C29.1032 9.42896 31.0532 11.2015 31.0532 13.3902C31.0532 15.5789 29.1032 17.3515 26.6955 17.3515C24.2879 17.3515 22.3379 15.5789 22.3379 13.3902C22.3379 11.2015 24.2879 9.42896 26.6955 9.42896Z" fill="#7BDAFF"/>
<path opacity="0.6" d="M93.1596 144.936C106.76 144.936 117.786 139.15 117.786 132.012C117.786 124.874 106.76 119.088 93.1596 119.088C79.5588 119.088 68.5332 124.874 68.5332 132.012C68.5332 139.15 79.5588 144.936 93.1596 144.936Z" fill="#041860"/>
<path d="M93.1592 152.243C83.3728 152.243 73.5772 150.287 66.1252 146.376C58.8379 142.556 54.8281 137.455 54.8281 132.012C54.8281 126.569 58.8379 121.476 66.1252 117.656C81.0292 109.834 105.28 109.834 120.193 117.656C127.481 121.476 131.49 126.578 131.49 132.02C131.49 137.455 127.481 142.556 120.193 146.376C112.732 150.287 102.946 152.243 93.1592 152.243ZM93.1592 112.372C83.4918 112.372 73.8152 114.303 66.4547 118.164C59.3872 121.876 55.4873 126.794 55.4873 132.004C55.4873 137.221 59.3781 142.131 66.4547 145.843C81.1756 153.574 105.143 153.574 119.864 145.843C126.931 142.131 130.831 137.213 130.831 132.004C130.831 126.786 126.94 121.876 119.864 118.164C112.494 114.311 102.827 112.372 93.1592 112.372Z" fill="white"/>
<path d="M192.783 55.8324L87.0814 0.357993C86.2575 -0.0747499 85.5068 -0.0997115 84.9301 0.19988V0.191556L83.3555 1.02376C83.3555 1.02376 83.7216 1.07369 84.0787 1.1153C83.8864 1.52307 83.7766 2.02239 83.7766 2.61325V68.8147C83.7766 71.02 85.2505 73.5832 87.0723 74.5402L192.774 130.015C192.975 130.123 193.167 130.198 193.36 130.256V131.005L194.943 130.164H194.934C195.63 129.798 196.079 128.949 196.079 127.743V61.5413C196.079 59.3526 194.605 56.7894 192.783 55.8324Z" fill="white"/>
<path d="M191.254 130.838L85.5525 75.3641C83.7307 74.407 82.2568 71.8439 82.2568 69.6385V3.4371C82.2568 1.23178 83.7307 0.216493 85.5525 1.17352L191.254 56.6479C193.076 57.6049 194.549 60.1681 194.549 62.3734V128.575C194.549 130.78 193.076 131.795 191.254 130.838Z" fill="url(#paint2_linear)"/>
<path d="M159.734 60.085V50.6312L161.941 51.7879C162.362 52.0043 162.719 52.2373 163.03 52.4786C163.341 52.72 163.616 52.9946 163.854 53.3025C164.092 53.6104 164.275 53.9516 164.403 54.3428C164.522 54.7256 164.586 55.1417 164.586 55.5911C164.586 56.7561 164.138 57.1723 163.259 56.8477C163.79 57.2305 164.193 57.6882 164.449 58.2042C164.714 58.7201 164.843 59.3276 164.852 60.0267C164.852 60.9255 164.641 61.4914 164.211 61.7327C163.781 61.974 163.149 61.8742 162.325 61.4414L159.734 60.085ZM161.373 55.3497L161.886 55.616C162.371 55.8657 162.7 55.9323 162.884 55.8158C163.067 55.6909 163.158 55.3747 163.158 54.8671C163.158 54.6008 163.131 54.3677 163.067 54.1763C163.003 53.9766 162.911 53.8018 162.765 53.6437C162.627 53.4856 162.462 53.3525 162.298 53.236C162.124 53.1194 161.895 52.9863 161.611 52.8365L161.382 52.72V55.3497H161.373ZM161.373 59.7271L161.977 60.0433C162.462 60.3013 162.801 60.3596 162.993 60.2181C163.186 60.0766 163.277 59.7354 163.277 59.1779C163.277 58.6036 163.167 58.1376 162.957 57.7714C162.746 57.4053 162.389 57.089 161.886 56.831L161.373 56.5564V59.7271Z" fill="white"/>
<path d="M165.428 63.0725L167.259 54.584L168.971 55.4828L170.792 65.8936L169.264 65.0947L168.897 62.7063L167.341 61.8907L166.975 63.888L165.428 63.0725ZM167.515 60.8505L168.723 61.483L168.119 57.2887L167.515 60.8505Z" fill="white"/>
<path d="M171.68 66.3514V56.8976L172.806 57.4885L175.012 63.9963V58.6452L176.367 59.3609V68.8147L175.296 68.2488L173.071 61.4581V67.0837L171.68 66.3514Z" fill="white"/>
<path d="M177.713 69.522V60.0683L179.352 60.9338V65.0365L181.118 61.8575L182.684 62.6814L180.963 66.0102L182.867 72.2267L181.228 71.3695L179.672 66.11L179.342 66.5511V70.3792L177.713 69.522Z" fill="white"/>
<path d="M111.434 75.2226L91.3662 64.6869V62.2486L111.434 72.7842V75.2226Z" fill="white"/>
<path d="M136.097 88.1633L116.039 77.636V75.1976L136.097 85.7249V88.1633Z" fill="white"/>
<path d="M160.761 101.112L140.703 90.5767V88.1384L160.761 98.674V101.112Z" fill="white"/>
<path d="M185.431 114.053L165.363 103.526V101.087L185.431 111.615V114.053Z" fill="white"/>
<path opacity="0.2" d="M106.023 27.2213L82.248 25.4737V69.6468C82.248 71.8522 83.7219 74.4153 85.5438 75.3724L131.281 99.3813C143.1 84.1521 140.427 60.8172 140.427 60.8172L106.023 27.2213Z" fill="#041860"/>
<path d="M132.304 65.9603L97.8916 32.3727L63.4787 29.8428C63.4787 29.8428 57.9493 72.2517 97.8916 117.232C137.834 114.178 132.304 65.9603 132.304 65.9603Z" fill="url(#paint3_linear)"/>
<path d="M63.4803 29.8428L55.7354 33.904L90.1482 36.4339L97.8932 32.3727L63.4803 29.8428Z" fill="url(#paint4_linear)"/>
<path d="M124.56 70.0297L90.1475 36.4421L75.9942 35.1439L55.7346 33.9122C55.7346 33.9122 50.2051 76.3211 90.1475 121.301C130.09 118.239 124.56 70.0297 124.56 70.0297Z" fill="url(#paint5_linear)"/>
<path d="M124.562 70.0297L90.1492 36.4422L55.7363 33.9123C56.7067 33.4047 56.7067 33.4047 56.7067 33.4047L91.5774 35.9678L125.99 69.5554C125.99 69.5554 130.604 109.859 100.86 119.096C129.03 109.027 124.562 70.0297 124.562 70.0297Z" fill="white"/>
<path opacity="0.2" d="M120.384 70.5457L89.4405 40.3452L76.7154 39.1801L58.4973 38.0733C58.4973 38.0733 53.5263 76.2046 89.4405 116.641C125.355 113.895 120.384 70.5457 120.384 70.5457Z" fill="white"/>
<path d="M67.5392 49.5026L66.3223 48.3963L65.1053 49.5026L66.3223 50.6089L67.5392 49.5026Z" fill="white"/>
<path d="M71.9533 49.4762L70.7363 48.3699L69.5193 49.4762L70.7363 50.5824L71.9533 49.4762Z" fill="white"/>
<path d="M69.7443 47.4981L68.5273 46.3918L67.3104 47.4981L68.5274 48.6044L69.7443 47.4981Z" fill="white"/>
<path d="M69.7443 51.4808L68.5273 50.3745L67.3104 51.4808L68.5273 52.5871L69.7443 51.4808Z" fill="white"/>
<path d="M194.092 43.6074L191.584 41.3271L197.599 35.8596L191.584 30.392L194.092 28.1118L202.615 35.8596L194.092 43.6074ZM192.591 41.3271L194.092 42.6919L201.618 35.8513L194.092 29.0106L192.591 30.3754L198.606 35.8429L192.591 41.3271Z" fill="white"/>
<path opacity="0.5" d="M184.763 28.5696L182.758 30.3921L188.782 35.8597L182.758 41.3272L184.763 43.1497L190.787 37.6822L192.792 35.8597L184.763 28.5696Z" fill="#7BDAFF"/>
<path d="M144.895 175.611C144.648 175.611 144.437 175.436 144.419 175.211C144.401 174.97 144.593 174.762 144.859 174.737C152.128 174.213 159.387 172.207 165.32 169.095C171.765 165.716 175.619 162.346 176.781 159.092C176.864 158.867 177.129 158.734 177.386 158.809C177.642 158.884 177.779 159.133 177.697 159.358C176.452 162.828 172.451 166.357 165.796 169.852C159.744 173.031 152.338 175.07 144.932 175.611C144.923 175.611 144.904 175.611 144.895 175.611Z" fill="white"/>
<path d="M177.625 157.319C177.369 157.319 177.158 157.136 177.149 156.895C177.048 154.298 174.97 151.868 171.143 149.863C162.684 145.427 151.653 145.444 140.081 149.929C139.834 150.021 139.55 149.921 139.449 149.696C139.349 149.471 139.458 149.213 139.706 149.122C151.561 144.528 162.895 144.52 171.619 149.105C175.748 151.269 177.991 153.957 178.101 156.861C178.11 157.103 177.9 157.302 177.634 157.311C177.634 157.319 177.634 157.319 177.625 157.319Z" fill="white"/>
<path d="M137.562 175.594C137.544 175.594 137.534 175.594 137.516 175.594C133.479 175.253 129.918 174.321 127.226 172.914C124.242 171.35 122.383 169.236 121.852 166.798C121.779 166.457 121.889 166.115 122.163 165.824C122.639 165.325 123.537 165.05 124.525 165.1C125.651 165.158 126.539 165.624 126.741 166.274C127.272 167.963 128.645 169.403 130.806 170.534C138.322 174.479 152.786 173.297 163.049 167.913C169.677 164.434 173.174 160.889 173.174 157.66C173.174 155.388 171.398 153.258 168.047 151.494C159.387 146.95 147.641 147.907 135.804 154.115C131.538 156.354 128.471 159.1 127.18 161.846C126.915 162.412 126.109 162.795 125.12 162.82C124.15 162.837 123.308 162.529 122.951 162.013C122.731 161.705 122.713 161.339 122.887 161.014C124.626 157.802 128.151 154.739 133.058 152.168C133.287 152.043 133.579 152.118 133.717 152.326C133.854 152.534 133.772 152.8 133.543 152.925C128.801 155.413 125.413 158.343 123.756 161.405C123.729 161.447 123.729 161.48 123.766 161.538C123.912 161.746 124.425 161.954 125.102 161.946C125.798 161.929 126.228 161.68 126.301 161.505C127.675 158.584 130.879 155.696 135.328 153.358C147.467 146.983 159.57 146.026 168.533 150.736C172.204 152.659 174.144 155.055 174.144 157.66C174.144 161.272 170.574 164.975 163.534 168.67C152.997 174.196 138.102 175.378 130.33 171.292C127.968 170.052 126.411 168.404 125.816 166.507C125.743 166.274 125.212 166.007 124.48 165.966C123.711 165.924 123.125 166.157 122.905 166.39C122.795 166.507 122.804 166.59 122.813 166.615C123.289 168.795 124.992 170.709 127.72 172.149C130.293 173.497 133.717 174.387 137.617 174.72C137.882 174.745 138.075 174.953 138.047 175.195C138.02 175.428 137.809 175.594 137.562 175.594Z" fill="white"/>
<path d="M149.682 171.084C148.913 171.084 148.162 170.842 147.759 170.443C147.457 170.143 147.366 169.76 147.494 169.411C147.668 168.936 148.217 168.57 148.977 168.429C152.245 167.83 155.404 166.756 158.122 165.333C162.572 163.003 165.089 160.664 165.41 158.592C165.565 157.56 165.172 156.595 164.238 155.713C163.917 155.413 163.789 155.047 163.89 154.673C164.009 154.207 164.467 153.824 165.144 153.607C166.316 153.233 167.772 153.458 168.458 154.123C169.767 155.388 170.372 156.778 170.243 158.268C170.06 160.431 168.339 162.662 165.135 164.909C164.924 165.058 164.622 165.017 164.458 164.825C164.293 164.634 164.339 164.359 164.549 164.21C167.534 162.121 169.127 160.09 169.291 158.193C169.401 156.961 168.879 155.796 167.762 154.714C167.387 154.348 166.325 154.148 165.465 154.423C165.044 154.556 164.86 154.747 164.833 154.864C164.824 154.889 164.805 154.972 164.934 155.089C166.087 156.171 166.572 157.386 166.371 158.7C166.005 161.089 163.396 163.569 158.617 166.082C155.815 167.555 152.547 168.662 149.178 169.286C148.721 169.369 148.464 169.552 148.418 169.685C148.409 169.71 148.391 169.76 148.492 169.86C148.748 170.118 149.471 170.31 150.185 170.168C153.911 169.436 157.5 168.204 160.558 166.598C160.787 166.473 161.079 166.548 161.217 166.756C161.345 166.964 161.272 167.23 161.043 167.355C157.903 169.003 154.213 170.276 150.387 171.017C150.14 171.059 149.911 171.084 149.682 171.084Z" fill="white"/>
<path d="M142.057 171.758C142.021 171.758 141.984 171.758 141.948 171.758C138.414 171.658 135.365 170.984 133.132 169.81C130.605 168.487 129.277 166.631 129.277 164.451C129.277 161.139 132.472 157.477 137.819 154.673C146.296 150.22 154.764 148.797 161.667 150.645C162.409 150.845 162.921 151.236 163.077 151.71C163.196 152.076 163.095 152.451 162.793 152.759C162.17 153.408 160.761 153.666 159.589 153.349C154.654 152.001 148.429 152.958 142.057 156.029C141.819 156.146 141.728 156.262 141.728 156.337C141.728 156.42 141.838 156.528 142.003 156.612C142.524 156.886 143.431 156.895 143.98 156.637C150.315 153.591 156.229 153.033 160.184 155.114C161.777 155.954 162.619 157.044 162.619 158.284C162.619 160.315 160.422 162.495 156.101 164.767C150.169 167.88 142.35 168.845 138.67 166.914C137.517 166.307 136.821 165.458 136.656 164.459C136.436 163.136 137.114 161.646 138.634 160.157C138.725 160.074 138.707 160.024 138.707 160.007C138.688 159.916 138.542 159.782 138.267 159.674C137.526 159.4 136.537 159.566 136.208 159.882C134.541 161.53 133.754 163.228 133.992 164.684C134.184 165.849 135.008 166.823 136.446 167.58C137.892 168.337 139.888 168.803 142.204 168.928C143.431 168.995 144.319 169.544 144.355 170.285C144.374 170.618 144.245 170.909 143.98 171.15C143.55 171.525 142.845 171.758 142.057 171.758ZM155.405 150.728C150.095 150.728 144.209 152.326 138.304 155.43C133.251 158.076 130.239 161.455 130.239 164.451C130.239 166.307 131.401 167.896 133.617 169.053C135.713 170.152 138.606 170.784 141.975 170.876C142.607 170.892 143.083 170.709 143.284 170.518C143.33 170.476 143.394 170.401 143.385 170.335C143.376 170.11 142.891 169.819 142.14 169.777C139.668 169.652 137.535 169.145 135.96 168.312C134.285 167.43 133.278 166.215 133.04 164.792C132.756 163.07 133.626 161.106 135.493 159.266C136.134 158.634 137.572 158.443 138.624 158.842C139.183 159.05 139.54 159.391 139.641 159.791C139.723 160.115 139.613 160.448 139.338 160.723C138.048 161.996 137.434 163.261 137.608 164.301C137.736 165.042 138.249 165.658 139.155 166.132C142.57 167.921 149.958 166.964 155.625 163.985C159.525 161.938 161.667 159.907 161.667 158.259C161.667 157.344 161.008 156.528 159.708 155.846C156.046 153.924 150.48 154.481 144.438 157.386C143.595 157.793 142.35 157.777 141.536 157.344C141.05 157.086 140.767 156.703 140.776 156.295C140.785 155.871 141.087 155.488 141.618 155.23C148.219 152.051 154.7 151.078 159.873 152.484C160.761 152.725 161.74 152.509 162.079 152.159C162.198 152.035 162.17 151.96 162.161 151.926C162.116 151.777 161.859 151.577 161.402 151.452C159.516 150.978 157.511 150.728 155.405 150.728Z" fill="white"/>
<path d="M144.345 165.974C143.173 165.974 142.202 165.791 141.497 165.425C140.728 165.017 140.316 164.418 140.316 163.685C140.316 162.121 142.166 160.215 145.269 158.584C150.304 155.938 154.708 155.222 157.344 156.603C158.479 157.194 158.736 157.943 158.745 158.459C158.782 159.732 157.472 161.172 154.863 162.72C154.049 163.203 152.675 163.228 151.806 162.77C151.339 162.52 151.064 162.154 151.046 161.763C151.037 161.372 151.266 161.022 151.705 160.764C153.801 159.524 153.801 159.017 153.801 159.017C153.215 158.709 151.449 158.975 148.235 160.656C146.011 161.821 145.095 162.82 145.095 163.103C145.095 163.344 144.885 163.544 144.619 163.544C144.354 163.544 144.143 163.352 144.134 163.111C144.125 161.904 146.908 160.348 147.759 159.907C149.956 158.75 152.868 157.527 154.241 158.243C154.57 158.418 154.753 158.684 154.763 159C154.772 159.433 154.525 160.157 152.227 161.513C152.089 161.597 152.007 161.688 152.007 161.755C152.007 161.813 152.08 161.921 152.282 162.029C152.84 162.321 153.82 162.312 154.332 162.004C157.372 160.207 157.802 159.033 157.784 158.501C157.775 158.068 157.463 157.694 156.859 157.377C155.761 156.803 152.465 155.838 145.745 159.358C143.026 160.781 141.268 162.487 141.268 163.702C141.268 164.118 141.497 164.443 141.964 164.684C143.136 165.3 145.434 165.267 148.107 164.592C148.363 164.526 148.629 164.667 148.702 164.9C148.775 165.133 148.62 165.375 148.363 165.441C146.89 165.791 145.516 165.974 144.345 165.974Z" fill="white"/>
<path d="M136.381 150.928C136.326 150.928 136.28 150.919 136.225 150.894L123.555 144.245C123.408 144.17 123.363 143.995 123.445 143.862C123.527 143.729 123.71 143.688 123.866 143.762L136.536 150.412C136.683 150.487 136.729 150.661 136.646 150.795C136.582 150.878 136.481 150.928 136.381 150.928Z" fill="white"/>
<path d="M19.2432 262.05H15.6252V260.592H24.3732V262.05H20.7732V273.48H19.2432V262.05ZM24.9221 264.3H26.3801V265.776H26.4521C26.6321 265.272 26.9801 264.858 27.4961 264.534C28.0121 264.198 28.5521 264.03 29.1161 264.03C29.5361 264.03 29.8961 264.09 30.1961 264.21V265.866C29.8121 265.674 29.3801 265.578 28.9001 265.578C28.4561 265.578 28.0481 265.704 27.6761 265.956C27.3041 266.208 27.0041 266.55 26.7761 266.982C26.5601 267.402 26.4521 267.858 26.4521 268.35V273.48H24.9221V264.3ZM34.2545 273.768C33.5825 273.768 32.9825 273.636 32.4545 273.372C31.9265 273.108 31.5185 272.748 31.2305 272.292C30.9425 271.824 30.7985 271.296 30.7985 270.708C30.7985 269.736 31.1645 268.98 31.8965 268.44C32.6285 267.888 33.5525 267.612 34.6685 267.612C35.2205 267.612 35.7305 267.672 36.1985 267.792C36.6785 267.912 37.0445 268.05 37.2965 268.206V267.648C37.2965 266.964 37.0565 266.418 36.5765 266.01C36.0965 265.59 35.4905 265.38 34.7585 265.38C34.2425 265.38 33.7685 265.494 33.3365 265.722C32.9045 265.938 32.5625 266.244 32.3105 266.64L31.1585 265.776C31.5185 265.224 32.0105 264.792 32.6345 264.48C33.2705 264.168 33.9725 264.012 34.7405 264.012C35.9885 264.012 36.9665 264.342 37.6745 265.002C38.3945 265.65 38.7545 266.538 38.7545 267.666V273.48H37.2965V272.166H37.2245C36.9605 272.61 36.5645 272.988 36.0365 273.3C35.5085 273.612 34.9145 273.768 34.2545 273.768ZM34.3985 272.418C34.9145 272.418 35.3945 272.286 35.8385 272.022C36.2825 271.758 36.6365 271.404 36.9005 270.96C37.1645 270.516 37.2965 270.03 37.2965 269.502C37.0085 269.31 36.6545 269.154 36.2345 269.034C35.8145 268.914 35.3705 268.854 34.9025 268.854C34.0625 268.854 33.4265 269.028 32.9945 269.376C32.5745 269.724 32.3645 270.174 32.3645 270.726C32.3645 271.23 32.5565 271.638 32.9405 271.95C33.3245 272.262 33.8105 272.418 34.3985 272.418ZM40.883 264.3H42.341V265.65H42.413C42.665 265.194 43.067 264.81 43.619 264.498C44.171 264.174 44.759 264.012 45.383 264.012C46.487 264.012 47.327 264.336 47.903 264.984C48.491 265.62 48.785 266.49 48.785 267.594V273.48H47.255V267.828C47.255 266.976 47.051 266.358 46.643 265.974C46.235 265.59 45.677 265.398 44.969 265.398C44.477 265.398 44.033 265.536 43.637 265.812C43.253 266.088 42.953 266.454 42.737 266.91C42.521 267.354 42.413 267.822 42.413 268.314V273.48H40.883V264.3ZM54.089 273.768C53.105 273.768 52.283 273.54 51.623 273.084C50.963 272.616 50.495 272.022 50.219 271.302L51.587 270.69C51.815 271.242 52.151 271.668 52.595 271.968C53.051 272.268 53.549 272.418 54.089 272.418C54.665 272.418 55.157 272.304 55.565 272.076C55.973 271.836 56.177 271.5 56.177 271.068C56.177 270.684 56.015 270.378 55.691 270.15C55.367 269.91 54.857 269.706 54.161 269.538L53.045 269.25C52.313 269.07 51.713 268.764 51.245 268.332C50.777 267.9 50.543 267.342 50.543 266.658C50.543 266.13 50.699 265.668 51.011 265.272C51.335 264.864 51.761 264.552 52.289 264.336C52.817 264.12 53.387 264.012 53.999 264.012C54.803 264.012 55.517 264.186 56.141 264.534C56.777 264.882 57.227 265.368 57.491 265.992L56.159 266.604C55.751 265.788 55.025 265.38 53.981 265.38C53.477 265.38 53.033 265.5 52.649 265.74C52.277 265.968 52.091 266.262 52.091 266.622C52.091 266.958 52.223 267.234 52.487 267.45C52.751 267.654 53.147 267.822 53.675 267.954L55.007 268.296C55.907 268.524 56.585 268.866 57.041 269.322C57.497 269.766 57.725 270.312 57.725 270.96C57.725 271.524 57.563 272.022 57.239 272.454C56.915 272.874 56.477 273.198 55.925 273.426C55.373 273.654 54.761 273.768 54.089 273.768ZM60.4548 265.686H58.7628V264.3H60.4548V263.31C60.4548 262.734 60.5868 262.23 60.8508 261.798C61.1148 261.366 61.4688 261.036 61.9128 260.808C62.3568 260.568 62.8488 260.448 63.3888 260.448C63.9048 260.448 64.3548 260.52 64.7388 260.664V262.158C64.5228 262.074 64.3188 262.008 64.1268 261.96C63.9348 261.9 63.7068 261.87 63.4428 261.87C63.0468 261.87 62.7048 262.014 62.4168 262.302C62.1288 262.578 61.9848 262.968 61.9848 263.472V264.3H64.3428V265.686H61.9848V273.48H60.4548V265.686ZM69.7366 273.768C68.8606 273.768 68.0746 273.558 67.3786 273.138C66.6826 272.718 66.1366 272.142 65.7406 271.41C65.3566 270.666 65.1646 269.832 65.1646 268.908C65.1646 268.02 65.3446 267.204 65.7046 266.46C66.0766 265.716 66.5986 265.122 67.2706 264.678C67.9426 264.234 68.7226 264.012 69.6106 264.012C70.5106 264.012 71.2906 264.216 71.9506 264.624C72.6106 265.02 73.1146 265.572 73.4626 266.28C73.8226 266.988 74.0026 267.798 74.0026 268.71C74.0026 268.89 73.9846 269.046 73.9486 269.178H66.6946C66.7306 269.874 66.8986 270.462 67.1986 270.942C67.4986 271.422 67.8766 271.782 68.3326 272.022C68.8006 272.262 69.2866 272.382 69.7906 272.382C70.9666 272.382 71.8726 271.83 72.5086 270.726L73.8046 271.356C73.4086 272.1 72.8686 272.688 72.1846 273.12C71.5126 273.552 70.6966 273.768 69.7366 273.768ZM72.3826 267.918C72.3586 267.534 72.2506 267.15 72.0586 266.766C71.8666 266.382 71.5606 266.058 71.1406 265.794C70.7326 265.53 70.2166 265.398 69.5926 265.398C68.8726 265.398 68.2606 265.632 67.7566 266.1C67.2646 266.556 66.9406 267.162 66.7846 267.918H72.3826ZM75.7932 264.3H77.2512V265.776H77.3232C77.5032 265.272 77.8512 264.858 78.3672 264.534C78.8832 264.198 79.4232 264.03 79.9872 264.03C80.4072 264.03 80.7672 264.09 81.0672 264.21V265.866C80.6832 265.674 80.2512 265.578 79.7712 265.578C79.3272 265.578 78.9192 265.704 78.5472 265.956C78.1752 266.208 77.8752 266.55 77.6472 266.982C77.4312 267.402 77.3232 267.858 77.3232 268.35V273.48H75.7932V264.3ZM90.2548 273.624C89.8828 273.624 89.5348 273.564 89.2108 273.444C88.8988 273.324 88.6348 273.162 88.4188 272.958C88.1788 272.73 87.9988 272.466 87.8788 272.166C87.7588 271.866 87.6988 271.5 87.6988 271.068V265.686H86.0968V264.3H87.6988V261.708H89.2288V264.3H91.4608V265.686H89.2288V270.69C89.2288 271.194 89.3248 271.566 89.5168 271.806C89.7448 272.07 90.0748 272.202 90.5068 272.202C90.8548 272.202 91.1908 272.1 91.5148 271.896V273.39C91.3348 273.474 91.1488 273.534 90.9568 273.57C90.7768 273.606 90.5428 273.624 90.2548 273.624ZM97.1443 273.768C96.2443 273.768 95.4343 273.552 94.7143 273.12C93.9943 272.688 93.4303 272.1 93.0223 271.356C92.6263 270.612 92.4283 269.79 92.4283 268.89C92.4283 267.99 92.6263 267.168 93.0223 266.424C93.4303 265.68 93.9943 265.092 94.7143 264.66C95.4343 264.228 96.2443 264.012 97.1443 264.012C98.0443 264.012 98.8543 264.228 99.5743 264.66C100.294 265.092 100.852 265.68 101.248 266.424C101.656 267.168 101.86 267.99 101.86 268.89C101.86 269.79 101.656 270.612 101.248 271.356C100.852 272.1 100.294 272.688 99.5743 273.12C98.8543 273.552 98.0443 273.768 97.1443 273.768ZM97.1443 272.382C97.7083 272.382 98.2303 272.244 98.7103 271.968C99.2023 271.68 99.5923 271.272 99.8803 270.744C100.18 270.216 100.33 269.598 100.33 268.89C100.33 268.182 100.18 267.564 99.8803 267.036C99.5923 266.508 99.2023 266.106 98.7103 265.83C98.2303 265.542 97.7083 265.398 97.1443 265.398C96.5803 265.398 96.0523 265.542 95.5603 265.83C95.0683 266.106 94.6723 266.508 94.3723 267.036C94.0843 267.564 93.9403 268.182 93.9403 268.89C93.9403 269.598 94.0843 270.216 94.3723 270.744C94.6723 271.272 95.0683 271.68 95.5603 271.968C96.0523 272.244 96.5803 272.382 97.1443 272.382ZM110.755 273.768C110.083 273.768 109.483 273.636 108.955 273.372C108.427 273.108 108.019 272.748 107.731 272.292C107.443 271.824 107.299 271.296 107.299 270.708C107.299 269.736 107.665 268.98 108.397 268.44C109.129 267.888 110.053 267.612 111.169 267.612C111.721 267.612 112.231 267.672 112.699 267.792C113.179 267.912 113.545 268.05 113.797 268.206V267.648C113.797 266.964 113.557 266.418 113.077 266.01C112.597 265.59 111.991 265.38 111.259 265.38C110.743 265.38 110.269 265.494 109.837 265.722C109.405 265.938 109.063 266.244 108.811 266.64L107.659 265.776C108.019 265.224 108.511 264.792 109.135 264.48C109.771 264.168 110.473 264.012 111.241 264.012C112.489 264.012 113.467 264.342 114.175 265.002C114.895 265.65 115.255 266.538 115.255 267.666V273.48H113.797V272.166H113.725C113.461 272.61 113.065 272.988 112.537 273.3C112.009 273.612 111.415 273.768 110.755 273.768ZM110.899 272.418C111.415 272.418 111.895 272.286 112.339 272.022C112.783 271.758 113.137 271.404 113.401 270.96C113.665 270.516 113.797 270.03 113.797 269.502C113.509 269.31 113.155 269.154 112.735 269.034C112.315 268.914 111.871 268.854 111.403 268.854C110.563 268.854 109.927 269.028 109.495 269.376C109.075 269.724 108.865 270.174 108.865 270.726C108.865 271.23 109.057 271.638 109.441 271.95C109.825 272.262 110.311 272.418 110.899 272.418ZM117.383 264.3H118.841V265.65H118.913C119.165 265.194 119.567 264.81 120.119 264.498C120.671 264.174 121.259 264.012 121.883 264.012C122.987 264.012 123.827 264.336 124.403 264.984C124.991 265.62 125.285 266.49 125.285 267.594V273.48H123.755V267.828C123.755 266.976 123.551 266.358 123.143 265.974C122.735 265.59 122.177 265.398 121.469 265.398C120.977 265.398 120.533 265.536 120.137 265.812C119.753 266.088 119.453 266.454 119.237 266.91C119.021 267.354 118.913 267.822 118.913 268.314V273.48H117.383V264.3ZM131.361 273.768C130.545 273.768 129.801 273.558 129.129 273.138C128.469 272.718 127.947 272.142 127.563 271.41C127.179 270.666 126.987 269.826 126.987 268.89C126.987 267.966 127.179 267.132 127.563 266.388C127.947 265.644 128.469 265.062 129.129 264.642C129.801 264.222 130.545 264.012 131.361 264.012C132.069 264.012 132.699 264.174 133.251 264.498C133.803 264.81 134.223 265.2 134.511 265.668H134.583L134.511 264.39V260.592H136.041V273.48H134.583V272.13H134.511C134.223 272.586 133.803 272.976 133.251 273.3C132.699 273.612 132.069 273.768 131.361 273.768ZM131.541 272.382C132.081 272.382 132.579 272.238 133.035 271.95C133.503 271.662 133.875 271.254 134.151 270.726C134.439 270.198 134.583 269.586 134.583 268.89C134.583 268.194 134.439 267.582 134.151 267.054C133.875 266.526 133.503 266.118 133.035 265.83C132.579 265.542 132.081 265.398 131.541 265.398C131.013 265.398 130.515 265.542 130.047 265.83C129.579 266.118 129.201 266.532 128.913 267.072C128.637 267.6 128.499 268.206 128.499 268.89C128.499 269.574 128.637 270.186 128.913 270.726C129.201 271.254 129.579 271.662 130.047 271.95C130.515 272.238 131.013 272.382 131.541 272.382ZM142.485 264.3H143.943V265.776H144.015C144.195 265.272 144.543 264.858 145.059 264.534C145.575 264.198 146.115 264.03 146.679 264.03C147.099 264.03 147.459 264.09 147.759 264.21V265.866C147.375 265.674 146.943 265.578 146.463 265.578C146.019 265.578 145.611 265.704 145.239 265.956C144.867 266.208 144.567 266.55 144.339 266.982C144.123 267.402 144.015 267.858 144.015 268.35V273.48H142.485V264.3ZM152.776 273.768C151.9 273.768 151.114 273.558 150.418 273.138C149.722 272.718 149.176 272.142 148.78 271.41C148.396 270.666 148.204 269.832 148.204 268.908C148.204 268.02 148.384 267.204 148.744 266.46C149.116 265.716 149.638 265.122 150.31 264.678C150.982 264.234 151.762 264.012 152.65 264.012C153.55 264.012 154.33 264.216 154.99 264.624C155.65 265.02 156.154 265.572 156.502 266.28C156.862 266.988 157.042 267.798 157.042 268.71C157.042 268.89 157.024 269.046 156.988 269.178H149.734C149.77 269.874 149.938 270.462 150.238 270.942C150.538 271.422 150.916 271.782 151.372 272.022C151.84 272.262 152.326 272.382 152.83 272.382C154.006 272.382 154.912 271.83 155.548 270.726L156.844 271.356C156.448 272.1 155.908 272.688 155.224 273.12C154.552 273.552 153.736 273.768 152.776 273.768ZM155.422 267.918C155.398 267.534 155.29 267.15 155.098 266.766C154.906 266.382 154.6 266.058 154.18 265.794C153.772 265.53 153.256 265.398 152.632 265.398C151.912 265.398 151.3 265.632 150.796 266.1C150.304 266.556 149.98 267.162 149.824 267.918H155.422ZM163.078 273.768C162.19 273.768 161.392 273.558 160.684 273.138C159.976 272.706 159.424 272.124 159.028 271.392C158.632 270.648 158.434 269.814 158.434 268.89C158.434 267.966 158.632 267.132 159.028 266.388C159.424 265.644 159.976 265.062 160.684 264.642C161.392 264.222 162.19 264.012 163.078 264.012C164.074 264.012 164.908 264.246 165.58 264.714C166.264 265.17 166.75 265.782 167.038 266.55L165.652 267.126C165.424 266.562 165.082 266.136 164.626 265.848C164.182 265.548 163.642 265.398 163.006 265.398C162.466 265.398 161.962 265.548 161.494 265.848C161.026 266.136 160.648 266.544 160.36 267.072C160.084 267.6 159.946 268.206 159.946 268.89C159.946 269.574 160.084 270.18 160.36 270.708C160.648 271.236 161.026 271.65 161.494 271.95C161.962 272.238 162.466 272.382 163.006 272.382C163.654 272.382 164.212 272.232 164.68 271.932C165.148 271.632 165.496 271.206 165.724 270.654L167.092 271.23C166.78 271.986 166.276 272.598 165.58 273.066C164.896 273.534 164.062 273.768 163.078 273.768ZM172.744 273.768C171.868 273.768 171.082 273.558 170.386 273.138C169.69 272.718 169.144 272.142 168.748 271.41C168.364 270.666 168.172 269.832 168.172 268.908C168.172 268.02 168.352 267.204 168.712 266.46C169.084 265.716 169.606 265.122 170.278 264.678C170.95 264.234 171.73 264.012 172.618 264.012C173.518 264.012 174.298 264.216 174.958 264.624C175.618 265.02 176.122 265.572 176.47 266.28C176.83 266.988 177.01 267.798 177.01 268.71C177.01 268.89 176.992 269.046 176.956 269.178H169.702C169.738 269.874 169.906 270.462 170.206 270.942C170.506 271.422 170.884 271.782 171.34 272.022C171.808 272.262 172.294 272.382 172.798 272.382C173.974 272.382 174.88 271.83 175.516 270.726L176.812 271.356C176.416 272.1 175.876 272.688 175.192 273.12C174.52 273.552 173.704 273.768 172.744 273.768ZM175.39 267.918C175.366 267.534 175.258 267.15 175.066 266.766C174.874 266.382 174.568 266.058 174.148 265.794C173.74 265.53 173.224 265.398 172.6 265.398C171.88 265.398 171.268 265.632 170.764 266.1C170.272 266.556 169.948 267.162 169.792 267.918H175.39ZM179.701 262.608C179.401 262.608 179.143 262.5 178.927 262.284C178.711 262.068 178.603 261.81 178.603 261.51C178.603 261.21 178.711 260.958 178.927 260.754C179.143 260.538 179.401 260.43 179.701 260.43C180.001 260.43 180.259 260.538 180.475 260.754C180.691 260.958 180.799 261.21 180.799 261.51C180.799 261.81 180.691 262.068 180.475 262.284C180.271 262.5 180.013 262.608 179.701 262.608ZM178.945 264.3H180.457V273.48H178.945V264.3ZM181.854 264.3H183.492L186.336 271.68H186.372L189.252 264.3H190.854L187.11 273.48H185.562L181.854 264.3ZM195.93 273.768C195.054 273.768 194.268 273.558 193.572 273.138C192.876 272.718 192.33 272.142 191.934 271.41C191.55 270.666 191.358 269.832 191.358 268.908C191.358 268.02 191.538 267.204 191.898 266.46C192.27 265.716 192.792 265.122 193.464 264.678C194.136 264.234 194.916 264.012 195.804 264.012C196.704 264.012 197.484 264.216 198.144 264.624C198.804 265.02 199.308 265.572 199.656 266.28C200.016 266.988 200.196 267.798 200.196 268.71C200.196 268.89 200.178 269.046 200.142 269.178H192.888C192.924 269.874 193.092 270.462 193.392 270.942C193.692 271.422 194.07 271.782 194.526 272.022C194.994 272.262 195.48 272.382 195.984 272.382C197.16 272.382 198.066 271.83 198.702 270.726L199.998 271.356C199.602 272.1 199.062 272.688 198.378 273.12C197.706 273.552 196.89 273.768 195.93 273.768ZM198.576 267.918C198.552 267.534 198.444 267.15 198.252 266.766C198.06 266.382 197.754 266.058 197.334 265.794C196.926 265.53 196.41 265.398 195.786 265.398C195.066 265.398 194.454 265.632 193.95 266.1C193.458 266.556 193.134 267.162 192.978 267.918H198.576ZM43.2019 287.686H41.5099V286.3H43.2019V285.31C43.2019 284.734 43.3339 284.23 43.5979 283.798C43.8619 283.366 44.2159 283.036 44.6599 282.808C45.1039 282.568 45.5959 282.448 46.1359 282.448C46.6519 282.448 47.1019 282.52 47.4859 282.664V284.158C47.2699 284.074 47.0659 284.008 46.8739 283.96C46.6819 283.9 46.4539 283.87 46.1899 283.87C45.7939 283.87 45.4519 284.014 45.1639 284.302C44.8759 284.578 44.7319 284.968 44.7319 285.472V286.3H47.0899V287.686H44.7319V295.48H43.2019V287.686ZM52.1144 295.768C51.0104 295.768 50.1644 295.444 49.5764 294.796C49.0004 294.148 48.7124 293.242 48.7124 292.078V286.3H50.2424V291.844C50.2424 292.72 50.4404 293.362 50.8364 293.77C51.2324 294.178 51.7664 294.382 52.4384 294.382C52.9544 294.382 53.4104 294.244 53.8064 293.968C54.2144 293.692 54.5264 293.332 54.7424 292.888C54.9704 292.444 55.0844 291.976 55.0844 291.484V286.3H56.6144V295.48H55.1564V294.148H55.0844C54.8324 294.604 54.4304 294.988 53.8784 295.3C53.3264 295.612 52.7384 295.768 52.1144 295.768ZM58.8742 286.3H60.3322V287.65H60.4042C60.6562 287.194 61.0582 286.81 61.6102 286.498C62.1622 286.174 62.7502 286.012 63.3742 286.012C64.4782 286.012 65.3182 286.336 65.8942 286.984C66.4822 287.62 66.7762 288.49 66.7762 289.594V295.48H65.2462V289.828C65.2462 288.976 65.0422 288.358 64.6342 287.974C64.2262 287.59 63.6682 287.398 62.9602 287.398C62.4682 287.398 62.0242 287.536 61.6282 287.812C61.2442 288.088 60.9442 288.454 60.7282 288.91C60.5122 289.354 60.4042 289.822 60.4042 290.314V295.48H58.8742V286.3ZM72.8521 295.768C72.0361 295.768 71.2921 295.558 70.6201 295.138C69.9601 294.718 69.4381 294.142 69.0541 293.41C68.6701 292.666 68.4781 291.826 68.4781 290.89C68.4781 289.966 68.6701 289.132 69.0541 288.388C69.4381 287.644 69.9601 287.062 70.6201 286.642C71.2921 286.222 72.0361 286.012 72.8521 286.012C73.5601 286.012 74.1901 286.174 74.7421 286.498C75.2941 286.81 75.7141 287.2 76.0021 287.668H76.0741L76.0021 286.39V282.592H77.5321V295.48H76.0741V294.13H76.0021C75.7141 294.586 75.2941 294.976 74.7421 295.3C74.1901 295.612 73.5601 295.768 72.8521 295.768ZM73.0321 294.382C73.5721 294.382 74.0701 294.238 74.5261 293.95C74.9941 293.662 75.3661 293.254 75.6421 292.726C75.9301 292.198 76.0741 291.586 76.0741 290.89C76.0741 290.194 75.9301 289.582 75.6421 289.054C75.3661 288.526 74.9941 288.118 74.5261 287.83C74.0701 287.542 73.5721 287.398 73.0321 287.398C72.5041 287.398 72.0061 287.542 71.5381 287.83C71.0701 288.118 70.6921 288.532 70.4041 289.072C70.1281 289.6 69.9901 290.206 69.9901 290.89C69.9901 291.574 70.1281 292.186 70.4041 292.726C70.6921 293.254 71.0701 293.662 71.5381 293.95C72.0061 294.238 72.5041 294.382 73.0321 294.382ZM82.9083 295.768C81.9243 295.768 81.1023 295.54 80.4423 295.084C79.7823 294.616 79.3143 294.022 79.0383 293.302L80.4063 292.69C80.6343 293.242 80.9703 293.668 81.4143 293.968C81.8703 294.268 82.3683 294.418 82.9083 294.418C83.4843 294.418 83.9763 294.304 84.3843 294.076C84.7923 293.836 84.9963 293.5 84.9963 293.068C84.9963 292.684 84.8343 292.378 84.5103 292.15C84.1863 291.91 83.6763 291.706 82.9803 291.538L81.8643 291.25C81.1323 291.07 80.5323 290.764 80.0643 290.332C79.5963 289.9 79.3623 289.342 79.3623 288.658C79.3623 288.13 79.5183 287.668 79.8303 287.272C80.1543 286.864 80.5803 286.552 81.1083 286.336C81.6363 286.12 82.2063 286.012 82.8183 286.012C83.6223 286.012 84.3363 286.186 84.9603 286.534C85.5963 286.882 86.0463 287.368 86.3103 287.992L84.9783 288.604C84.5703 287.788 83.8443 287.38 82.8003 287.38C82.2963 287.38 81.8523 287.5 81.4683 287.74C81.0963 287.968 80.9103 288.262 80.9103 288.622C80.9103 288.958 81.0423 289.234 81.3063 289.45C81.5703 289.654 81.9663 289.822 82.4943 289.954L83.8263 290.296C84.7263 290.524 85.4043 290.866 85.8603 291.322C86.3163 291.766 86.5443 292.312 86.5443 292.96C86.5443 293.524 86.3823 294.022 86.0583 294.454C85.7343 294.874 85.2963 295.198 84.7443 295.426C84.1923 295.654 83.5803 295.768 82.9083 295.768ZM93.1062 287.686H91.4142V286.3H93.1062V285.31C93.1062 284.734 93.2382 284.23 93.5022 283.798C93.7662 283.366 94.1202 283.036 94.5642 282.808C95.0082 282.568 95.5002 282.448 96.0402 282.448C96.5562 282.448 97.0062 282.52 97.3902 282.664V284.158C97.1742 284.074 96.9702 284.008 96.7782 283.96C96.5862 283.9 96.3582 283.87 96.0942 283.87C95.6982 283.87 95.3562 284.014 95.0682 284.302C94.7802 284.578 94.6362 284.968 94.6362 285.472V286.3H96.9942V287.686H94.6362V295.48H93.1062V287.686ZM98.8645 286.3H100.322V287.776H100.394C100.574 287.272 100.922 286.858 101.438 286.534C101.954 286.198 102.494 286.03 103.058 286.03C103.478 286.03 103.838 286.09 104.138 286.21V287.866C103.754 287.674 103.322 287.578 102.842 287.578C102.398 287.578 101.99 287.704 101.618 287.956C101.246 288.208 100.946 288.55 100.718 288.982C100.502 289.402 100.394 289.858 100.394 290.35V295.48H98.8645V286.3ZM109.3 295.768C108.4 295.768 107.59 295.552 106.87 295.12C106.15 294.688 105.586 294.1 105.178 293.356C104.782 292.612 104.584 291.79 104.584 290.89C104.584 289.99 104.782 289.168 105.178 288.424C105.586 287.68 106.15 287.092 106.87 286.66C107.59 286.228 108.4 286.012 109.3 286.012C110.2 286.012 111.01 286.228 111.73 286.66C112.45 287.092 113.008 287.68 113.404 288.424C113.812 289.168 114.016 289.99 114.016 290.89C114.016 291.79 113.812 292.612 113.404 293.356C113.008 294.1 112.45 294.688 111.73 295.12C111.01 295.552 110.2 295.768 109.3 295.768ZM109.3 294.382C109.864 294.382 110.386 294.244 110.866 293.968C111.358 293.68 111.748 293.272 112.036 292.744C112.336 292.216 112.486 291.598 112.486 290.89C112.486 290.182 112.336 289.564 112.036 289.036C111.748 288.508 111.358 288.106 110.866 287.83C110.386 287.542 109.864 287.398 109.3 287.398C108.736 287.398 108.208 287.542 107.716 287.83C107.224 288.106 106.828 288.508 106.528 289.036C106.24 289.564 106.096 290.182 106.096 290.89C106.096 291.598 106.24 292.216 106.528 292.744C106.828 293.272 107.224 293.68 107.716 293.968C108.208 294.244 108.736 294.382 109.3 294.382ZM115.616 286.3H117.074V287.65H117.146C117.41 287.182 117.806 286.792 118.334 286.48C118.862 286.168 119.42 286.012 120.008 286.012C120.68 286.012 121.262 286.174 121.754 286.498C122.258 286.822 122.618 287.254 122.834 287.794C123.158 287.254 123.584 286.822 124.112 286.498C124.652 286.174 125.276 286.012 125.984 286.012C127.04 286.012 127.832 286.336 128.36 286.984C128.9 287.62 129.17 288.49 129.17 289.594V295.48H127.658V289.828C127.658 288.976 127.484 288.358 127.136 287.974C126.788 287.59 126.272 287.398 125.588 287.398C125.132 287.398 124.718 287.53 124.346 287.794C123.974 288.058 123.68 288.412 123.464 288.856C123.26 289.3 123.158 289.78 123.158 290.296V295.48H121.628V289.846C121.628 288.982 121.454 288.358 121.106 287.974C120.758 287.59 120.248 287.398 119.576 287.398C119.12 287.398 118.706 287.536 118.334 287.812C117.962 288.076 117.668 288.436 117.452 288.892C117.248 289.336 117.146 289.816 117.146 290.332V295.48H115.616V286.3ZM138.358 294.904L134.56 286.3H136.216L139.096 293.122H139.132L141.904 286.3H143.56L137.89 299.368H136.306L138.358 294.904ZM148.71 295.768C147.81 295.768 147 295.552 146.28 295.12C145.56 294.688 144.996 294.1 144.588 293.356C144.192 292.612 143.994 291.79 143.994 290.89C143.994 289.99 144.192 289.168 144.588 288.424C144.996 287.68 145.56 287.092 146.28 286.66C147 286.228 147.81 286.012 148.71 286.012C149.61 286.012 150.42 286.228 151.14 286.66C151.86 287.092 152.418 287.68 152.814 288.424C153.222 289.168 153.426 289.99 153.426 290.89C153.426 291.79 153.222 292.612 152.814 293.356C152.418 294.1 151.86 294.688 151.14 295.12C150.42 295.552 149.61 295.768 148.71 295.768ZM148.71 294.382C149.274 294.382 149.796 294.244 150.276 293.968C150.768 293.68 151.158 293.272 151.446 292.744C151.746 292.216 151.896 291.598 151.896 290.89C151.896 290.182 151.746 289.564 151.446 289.036C151.158 288.508 150.768 288.106 150.276 287.83C149.796 287.542 149.274 287.398 148.71 287.398C148.146 287.398 147.618 287.542 147.126 287.83C146.634 288.106 146.238 288.508 145.938 289.036C145.65 289.564 145.506 290.182 145.506 290.89C145.506 291.598 145.65 292.216 145.938 292.744C146.238 293.272 146.634 293.68 147.126 293.968C147.618 294.244 148.146 294.382 148.71 294.382ZM158.444 295.768C157.34 295.768 156.494 295.444 155.906 294.796C155.33 294.148 155.042 293.242 155.042 292.078V286.3H156.572V291.844C156.572 292.72 156.77 293.362 157.166 293.77C157.562 294.178 158.096 294.382 158.768 294.382C159.284 294.382 159.74 294.244 160.136 293.968C160.544 293.692 160.856 293.332 161.072 292.888C161.3 292.444 161.414 291.976 161.414 291.484V286.3H162.944V295.48H161.486V294.148H161.414C161.162 294.604 160.76 294.988 160.208 295.3C159.656 295.612 159.068 295.768 158.444 295.768ZM165.204 286.3H166.662V287.776H166.734C166.914 287.272 167.262 286.858 167.778 286.534C168.294 286.198 168.834 286.03 169.398 286.03C169.818 286.03 170.178 286.09 170.478 286.21V287.866C170.094 287.674 169.662 287.578 169.182 287.578C168.738 287.578 168.33 287.704 167.958 287.956C167.586 288.208 167.286 288.55 167.058 288.982C166.842 289.402 166.734 289.858 166.734 290.35V295.48H165.204V286.3ZM84.4531 309.3H86.0191L88.2151 316.554H88.2331L90.5371 309.3H92.1211L94.4431 316.536H94.4611L96.6391 309.3H98.1871L95.2171 318.48H93.6691L91.2931 311.154L88.9351 318.48H87.4051L84.4531 309.3ZM102.212 318.768C101.54 318.768 100.94 318.636 100.412 318.372C99.8836 318.108 99.4756 317.748 99.1876 317.292C98.8996 316.824 98.7556 316.296 98.7556 315.708C98.7556 314.736 99.1216 313.98 99.8536 313.44C100.586 312.888 101.51 312.612 102.626 312.612C103.178 312.612 103.688 312.672 104.156 312.792C104.636 312.912 105.002 313.05 105.254 313.206V312.648C105.254 311.964 105.014 311.418 104.534 311.01C104.054 310.59 103.448 310.38 102.716 310.38C102.2 310.38 101.726 310.494 101.294 310.722C100.862 310.938 100.52 311.244 100.268 311.64L99.1156 310.776C99.4756 310.224 99.9676 309.792 100.592 309.48C101.228 309.168 101.93 309.012 102.698 309.012C103.946 309.012 104.924 309.342 105.632 310.002C106.352 310.65 106.712 311.538 106.712 312.666V318.48H105.254V317.166H105.182C104.918 317.61 104.522 317.988 103.994 318.3C103.466 318.612 102.872 318.768 102.212 318.768ZM102.356 317.418C102.872 317.418 103.352 317.286 103.796 317.022C104.24 316.758 104.594 316.404 104.858 315.96C105.122 315.516 105.254 315.03 105.254 314.502C104.966 314.31 104.612 314.154 104.192 314.034C103.772 313.914 103.328 313.854 102.86 313.854C102.02 313.854 101.384 314.028 100.952 314.376C100.532 314.724 100.322 315.174 100.322 315.726C100.322 316.23 100.514 316.638 100.898 316.95C101.282 317.262 101.768 317.418 102.356 317.418ZM108.84 305.592H110.37V318.48H108.84V305.592ZM112.637 305.592H114.167V318.48H112.637V305.592ZM120.432 318.768C119.556 318.768 118.77 318.558 118.074 318.138C117.378 317.718 116.832 317.142 116.436 316.41C116.052 315.666 115.86 314.832 115.86 313.908C115.86 313.02 116.04 312.204 116.4 311.46C116.772 310.716 117.294 310.122 117.966 309.678C118.638 309.234 119.418 309.012 120.306 309.012C121.206 309.012 121.986 309.216 122.646 309.624C123.306 310.02 123.81 310.572 124.158 311.28C124.518 311.988 124.698 312.798 124.698 313.71C124.698 313.89 124.68 314.046 124.644 314.178H117.39C117.426 314.874 117.594 315.462 117.894 315.942C118.194 316.422 118.572 316.782 119.028 317.022C119.496 317.262 119.982 317.382 120.486 317.382C121.662 317.382 122.568 316.83 123.204 315.726L124.5 316.356C124.104 317.1 123.564 317.688 122.88 318.12C122.208 318.552 121.392 318.768 120.432 318.768ZM123.078 312.918C123.054 312.534 122.946 312.15 122.754 311.766C122.562 311.382 122.256 311.058 121.836 310.794C121.428 310.53 120.912 310.398 120.288 310.398C119.568 310.398 118.956 310.632 118.452 311.1C117.96 311.556 117.636 312.162 117.48 312.918H123.078ZM129.753 318.624C129.381 318.624 129.033 318.564 128.709 318.444C128.397 318.324 128.133 318.162 127.917 317.958C127.677 317.73 127.497 317.466 127.377 317.166C127.257 316.866 127.197 316.5 127.197 316.068V310.686H125.595V309.3H127.197V306.708H128.727V309.3H130.959V310.686H128.727V315.69C128.727 316.194 128.823 316.566 129.015 316.806C129.243 317.07 129.573 317.202 130.005 317.202C130.353 317.202 130.689 317.1 131.013 316.896V318.39C130.833 318.474 130.647 318.534 130.455 318.57C130.275 318.606 130.041 318.624 129.753 318.624Z" fill="white"/>
<defs>
<linearGradient id="paint0_linear" x1="14.6744" y1="102.126" x2="189.913" y2="203.699" gradientUnits="userSpaceOnUse">
<stop stop-color="#3A9BD5"/>
<stop offset="0.3053" stop-color="#3A9BD5"/>
<stop offset="0.3555" stop-color="#3A9BD5"/>
<stop offset="0.5988" stop-color="#3999D4"/>
<stop offset="0.6883" stop-color="#3592CF"/>
<stop offset="0.7522" stop-color="#2F86C7"/>
<stop offset="0.8039" stop-color="#2676BC"/>
<stop offset="0.8102" stop-color="#2573BA"/>
</linearGradient>
<linearGradient id="paint1_linear" x1="19.6916" y1="158.034" x2="177.507" y2="84.8338" gradientUnits="userSpaceOnUse">
<stop stop-color="#59BDEF"/>
<stop offset="1" stop-color="#7BDAFF"/>
</linearGradient>
<linearGradient id="paint2_linear" x1="232.948" y1="130.225" x2="40.2315" y2="108.793" gradientUnits="userSpaceOnUse">
<stop stop-color="#59BDEF"/>
<stop offset="1" stop-color="#7BDAFF"/>
</linearGradient>
<linearGradient id="paint3_linear" x1="87.9368" y1="65.3809" x2="189.56" y2="99.6858" gradientUnits="userSpaceOnUse">
<stop stop-color="#2573BA"/>
<stop offset="0.907" stop-color="#0364AE"/>
<stop offset="1" stop-color="#0063AD"/>
</linearGradient>
<linearGradient id="paint4_linear" x1="97.8929" y1="33.1383" x2="55.7372" y2="33.1383" gradientUnits="userSpaceOnUse">
<stop stop-color="#0063AD"/>
<stop offset="1" stop-color="#2573BA"/>
</linearGradient>
<linearGradient id="paint5_linear" x1="55.4763" y1="60.6648" x2="124.822" y2="60.6648" gradientUnits="userSpaceOnUse">
<stop stop-color="#7BDAFF"/>
<stop offset="1" stop-color="#59BDEF"/>
</linearGradient>
</defs>
</svg>
