<svg width="37" height="26" viewBox="0 0 37 26" fill="none" xmlns="http://www.w3.org/2000/svg">
<path d="M25.3883 25.9025C23.6582 25.8652 22.3854 25.0643 21.5886 23.537C21.2761 22.941 21.0568 22.2952 20.7919 21.6744C20.4669 20.9107 20.1379 20.1471 19.813 19.3834C19.488 18.6197 19.1776 17.8809 18.863 17.1297C18.6064 16.5233 18.3539 15.9148 18.0952 15.3105C18.0836 15.2859 18.0662 15.2645 18.0446 15.248C18.023 15.2314 17.9978 15.2202 17.9711 15.2153C17.9276 15.2153 17.8697 15.2712 17.849 15.3167C17.5447 16.0286 17.2467 16.7426 16.9446 17.4546L15.974 19.7518C15.5987 20.632 15.2255 21.5116 14.8543 22.3905C14.4901 23.2555 14.1652 24.1454 13.4222 24.7849C12.3274 25.7266 11.0877 26.1053 9.65561 25.7742C9.00981 25.6405 8.40649 25.351 7.89824 24.9307C7.38999 24.5105 6.99222 23.9723 6.73961 23.3631C6.51336 22.8867 6.38845 22.3684 6.37278 21.8412C6.3571 21.314 6.45101 20.7893 6.64855 20.3002C7.17422 18.9943 7.73921 17.705 8.28557 16.4074C8.69948 15.414 9.11339 14.4185 9.5273 13.4272C9.94121 12.4359 10.3758 11.4612 10.7959 10.4781C11.1664 9.60683 11.5223 8.73141 11.8928 7.86013C12.2632 6.98885 12.642 6.12171 13.0124 5.25043C13.3353 4.48469 13.6498 3.71689 13.9727 2.94909C14.37 1.93539 15.1276 1.10408 16.1002 0.614633C16.892 0.211502 17.7938 0.0778007 18.6685 0.233836C19.3065 0.320626 19.914 0.560851 20.4388 0.933916C20.9636 1.30698 21.3901 1.80175 21.6818 2.37582C22.135 3.25952 22.4827 4.19703 22.8759 5.11177C23.2526 5.98926 23.6278 6.86744 24.0017 7.74631C24.3204 8.49686 24.6378 9.24742 24.9537 9.99798C25.0655 10.2649 25.1607 10.5319 25.2828 10.7968C25.3035 10.8403 25.3635 10.8962 25.4028 10.8962C25.4297 10.8894 25.4547 10.8765 25.4759 10.8586C25.497 10.8406 25.5138 10.8181 25.5249 10.7927C25.8312 10.0746 26.1313 9.344 26.4355 8.63414C26.7625 7.86013 27.0936 7.09026 27.4227 6.31625C27.7518 5.54223 28.0436 4.81168 28.3747 4.06664C28.7307 3.26366 28.9687 2.39652 29.5688 1.71977C30.6843 0.461486 32.0688 -0.0559019 33.7286 0.322826C35.2767 0.67465 36.3011 1.65562 36.7978 3.14776C37.1216 4.13316 37.0541 5.20533 36.6094 6.1424C36.2721 6.90193 35.9617 7.67387 35.6368 8.43961C35.2746 9.2964 34.9083 10.1511 34.544 11.0058C34.1798 11.8606 33.7928 12.7795 33.4161 13.6673C33.0933 14.4227 32.7684 15.1781 32.4476 15.9438C32.1268 16.7095 31.8102 17.4608 31.4873 18.2203C31.1645 18.9798 30.8292 19.7456 30.5043 20.5113C30.2352 21.1322 29.9807 21.7737 29.7096 22.3987C29.4074 23.092 29.1756 23.8184 28.6624 24.4021C28.1992 24.9496 27.6066 25.3728 26.9384 25.6334C26.4482 25.8375 25.9186 25.9294 25.3883 25.9025Z" fill="#043F7C"/>
<path d="M4.68674 17.2702C4.49634 16.8273 4.33491 16.459 4.17762 16.0885C3.63264 14.7971 3.08835 13.5036 2.54475 12.2081C2.09221 11.1278 1.64173 10.0475 1.19333 8.96718C0.986377 8.45807 0.73803 7.95724 0.55798 7.43571C0.23306 6.50234 -0.100138 5.57311 0.0281745 4.53834C0.0980787 3.8582 0.311273 3.20058 0.653718 2.60879C0.996163 2.017 1.46009 1.50447 2.01494 1.10495C2.54606 0.709576 3.156 0.433056 3.80339 0.294151C4.45078 0.155246 5.12047 0.157206 5.76704 0.299898C6.38627 0.411808 6.97617 0.648835 7.50068 0.99649C8.02519 1.34414 8.47328 1.79512 8.81756 2.32185C9.25606 2.93114 9.5371 3.6394 9.63568 4.38357C9.73425 5.12775 9.64729 5.88475 9.38255 6.58719C9.20578 7.00115 9.00823 7.40592 8.79066 7.79995C8.49057 8.43323 8.18221 9.06031 7.90903 9.70394C7.10604 11.5872 6.31754 13.4767 5.5249 15.3642C5.30139 15.896 5.08823 16.432 4.86679 16.9639C4.81197 17.069 4.75187 17.1712 4.68674 17.2702Z" fill="#FB5657"/>
</svg>
