<svg width="657" height="534" viewBox="0 0 657 534" fill="none" xmlns="http://www.w3.org/2000/svg">
<path d="M614.167 239.422C637.401 216.183 637.401 178.505 614.167 155.266C590.933 132.027 553.264 132.027 530.03 155.266C506.796 178.505 506.796 216.183 530.03 239.422C553.264 262.661 590.933 262.661 614.167 239.422Z" fill="#36A9E1"/>
<path d="M584.621 183.298C584.621 181.669 583.465 180.306 581.935 179.978C582.546 178.957 582.922 177.776 582.922 176.502C582.922 172.754 579.874 169.706 576.125 169.706C573.55 169.706 571.331 171.162 570.179 173.281C569.027 171.162 566.808 169.706 564.232 169.706C560.484 169.706 557.436 172.754 557.436 176.502C557.436 178.035 557.966 179.435 558.824 180.573C558.395 180.887 558.046 181.297 557.804 181.77C557.563 182.243 557.437 182.767 557.436 183.298V196.891C557.436 198.765 558.96 200.289 560.834 200.289H581.223C583.097 200.289 584.621 198.765 584.621 196.891V192.411L591.417 195.809V183.915L584.621 187.313V183.298ZM576.125 173.104C578 173.104 579.524 174.628 579.524 176.502C579.524 178.376 578 179.9 576.125 179.9C574.251 179.9 572.727 178.376 572.727 176.502C572.727 174.628 574.251 173.104 576.125 173.104ZM564.232 173.104C566.106 173.104 567.63 174.628 567.63 176.502C567.63 178.376 566.106 179.9 564.232 179.9C562.358 179.9 560.834 178.376 560.834 176.502C560.834 174.628 562.358 173.104 564.232 173.104Z" fill="white"/>
<path d="M547.794 212.866H550.333L553.774 221.936H553.874L557.315 212.866H559.854V224.826H558V218.128L558.1 215.973H558L554.575 224.826H553.072L549.648 215.973H549.548L549.648 218.128V224.826H547.794V212.866ZM566.281 225.093C565.423 225.093 564.655 224.898 563.976 224.509C563.296 224.108 562.767 223.562 562.389 222.872C562.01 222.181 561.821 221.413 561.821 220.566C561.821 219.72 562.01 218.952 562.389 218.261C562.767 217.571 563.296 217.031 563.976 216.641C564.655 216.24 565.423 216.04 566.281 216.04C567.138 216.04 567.907 216.24 568.586 216.641C569.265 217.042 569.794 217.587 570.173 218.278C570.552 218.968 570.741 219.731 570.741 220.566C570.741 221.413 570.552 222.181 570.173 222.872C569.794 223.562 569.265 224.108 568.586 224.509C567.907 224.898 567.138 225.093 566.281 225.093ZM566.281 223.406C566.749 223.406 567.183 223.295 567.584 223.072C567.985 222.838 568.302 222.51 568.536 222.086C568.781 221.652 568.903 221.145 568.903 220.566C568.903 219.987 568.781 219.486 568.536 219.063C568.302 218.64 567.985 218.317 567.584 218.094C567.183 217.86 566.749 217.743 566.281 217.743C565.813 217.743 565.379 217.86 564.978 218.094C564.577 218.317 564.254 218.64 564.009 219.063C563.775 219.486 563.658 219.987 563.658 220.566C563.658 221.145 563.775 221.652 564.009 222.086C564.254 222.51 564.577 222.838 564.978 223.072C565.379 223.295 565.813 223.406 566.281 223.406ZM571.238 216.307H573.293L575.648 222.454H575.715L578.12 216.307H580.125L576.584 224.826H574.746L571.238 216.307ZM582.362 215.071C582.016 215.071 581.721 214.954 581.476 214.72C581.242 214.475 581.125 214.18 581.125 213.835C581.125 213.489 581.242 213.2 581.476 212.966C581.721 212.721 582.016 212.598 582.362 212.598C582.707 212.598 582.996 212.721 583.23 212.966C583.475 213.2 583.598 213.489 583.598 213.835C583.598 214.18 583.475 214.475 583.23 214.72C582.996 214.954 582.707 215.071 582.362 215.071ZM581.443 216.307H583.28V224.826H581.443V216.307ZM589.377 225.093C588.542 225.093 587.79 224.898 587.122 224.509C586.465 224.119 585.947 223.584 585.569 222.905C585.201 222.215 585.017 221.441 585.017 220.583C585.017 219.77 585.196 219.018 585.552 218.328C585.92 217.626 586.426 217.07 587.072 216.658C587.718 216.246 588.453 216.04 589.277 216.04C590.135 216.04 590.875 216.229 591.499 216.607C592.133 216.986 592.612 217.504 592.935 218.161C593.269 218.818 593.436 219.559 593.436 220.383C593.436 220.539 593.42 220.733 593.386 220.967H586.855C586.922 221.758 587.2 222.37 587.69 222.805C588.191 223.228 588.77 223.439 589.427 223.439C589.951 223.439 590.402 223.323 590.78 223.089C591.17 222.844 591.482 222.515 591.716 222.103L593.269 222.838C592.868 223.54 592.345 224.091 591.699 224.492C591.053 224.893 590.279 225.093 589.377 225.093ZM591.566 219.564C591.543 219.263 591.449 218.968 591.282 218.679C591.115 218.378 590.858 218.128 590.513 217.927C590.179 217.727 589.767 217.626 589.277 217.626C588.687 217.626 588.186 217.805 587.774 218.161C587.373 218.506 587.094 218.974 586.938 219.564H591.566ZM598.298 225.093C597.318 225.093 596.516 224.882 595.893 224.458C595.269 224.024 594.829 223.473 594.573 222.805L596.21 222.086C596.411 222.532 596.689 222.872 597.045 223.105C597.413 223.339 597.831 223.456 598.298 223.456C598.755 223.456 599.139 223.378 599.451 223.222C599.763 223.055 599.919 222.81 599.919 222.487C599.919 222.176 599.785 221.931 599.518 221.752C599.25 221.574 598.838 221.418 598.282 221.285L597.263 221.034C596.583 220.867 596.021 220.572 595.575 220.149C595.13 219.726 594.907 219.191 594.907 218.545C594.907 218.044 595.052 217.604 595.342 217.226C595.642 216.847 596.043 216.557 596.544 216.357C597.045 216.145 597.591 216.04 598.181 216.04C598.972 216.04 599.668 216.201 600.269 216.524C600.871 216.836 601.305 217.292 601.572 217.894L599.969 218.595C599.646 217.938 599.056 217.61 598.198 217.61C597.786 217.61 597.441 217.693 597.162 217.86C596.884 218.027 596.745 218.244 596.745 218.512C596.745 218.768 596.851 218.979 597.062 219.146C597.274 219.302 597.586 219.436 597.998 219.547L599.25 219.865C600.086 220.076 600.715 220.399 601.138 220.834C601.572 221.257 601.789 221.78 601.789 222.404C601.789 222.938 601.634 223.412 601.322 223.824C601.021 224.225 600.603 224.536 600.069 224.759C599.534 224.982 598.944 225.093 598.298 225.093Z" fill="white"/>
<path d="M342.739 123.554C368.608 97.6785 368.608 55.7264 342.739 29.8512C316.87 3.97602 274.927 3.97602 249.058 29.8512C223.188 55.7264 223.188 97.6785 249.058 123.554C274.927 149.429 316.87 149.429 342.739 123.554Z" fill="#D60B52"/>
<g clip-path="url(#clip0)">
<path d="M278.987 70.2614C278.987 71.2625 279.726 72.0744 280.638 72.0744H310.346C311.258 72.0744 311.997 71.2625 311.997 70.2614V52.1312H278.987V70.2614ZM302.094 58.4768C302.094 57.9759 302.463 57.5703 302.919 57.5703H307.87C308.326 57.5703 308.696 57.9759 308.696 58.4768V60.2898C308.696 60.7906 308.326 61.1963 307.87 61.1963H302.919C302.463 61.1963 302.094 60.7906 302.094 60.2898V58.4768ZM302.094 65.2756C302.094 65.0252 302.278 64.8223 302.506 64.8223H308.283C308.511 64.8223 308.696 65.0252 308.696 65.2756V66.1821C308.696 66.4325 308.511 66.6353 308.283 66.6353H302.506C302.278 66.6353 302.094 66.4325 302.094 66.1821V65.2756ZM282.288 59.8365C282.288 59.5861 282.473 59.3833 282.701 59.3833H298.38C298.608 59.3833 298.793 59.5861 298.793 59.8365V60.7431C298.793 60.9935 298.608 61.1963 298.38 61.1963H282.701C282.473 61.1963 282.288 60.9935 282.288 60.7431V59.8365ZM282.288 65.2756C282.288 65.0252 282.473 64.8223 282.701 64.8223H291.778C292.006 64.8223 292.191 65.0252 292.191 65.2756V66.1821C292.191 66.4325 292.006 66.6353 291.778 66.6353H282.701C282.473 66.6353 282.288 66.4325 282.288 66.1821V65.2756ZM311.171 46.6922H279.813C279.357 46.6922 278.987 47.0979 278.987 47.5987V50.3182H311.997V47.5987C311.997 47.0979 311.627 46.6922 311.171 46.6922Z" fill="white"/>
</g>
<path d="M249.534 85.2212H251.586L254.368 92.5537H254.449L257.231 85.2212H259.283V94.8899H257.784V89.4749L257.865 87.7329H257.784L255.016 94.8899H253.801L251.033 87.7329H250.952L251.033 89.4749V94.8899H249.534V85.2212ZM264.479 95.106C263.786 95.106 263.165 94.9484 262.615 94.6333C262.066 94.3092 261.639 93.8681 261.332 93.3099C261.026 92.7518 260.873 92.1306 260.873 91.4464C260.873 90.7622 261.026 90.141 261.332 89.5829C261.639 89.0247 262.066 88.5881 262.615 88.273C263.165 87.9489 263.786 87.7869 264.479 87.7869C265.172 87.7869 265.793 87.9489 266.342 88.273C266.892 88.5971 267.319 89.0382 267.625 89.5964C267.931 90.1546 268.084 90.7712 268.084 91.4464C268.084 92.1306 267.931 92.7518 267.625 93.3099C267.319 93.8681 266.892 94.3092 266.342 94.6333C265.793 94.9484 265.172 95.106 264.479 95.106ZM264.479 93.7421C264.857 93.7421 265.208 93.652 265.532 93.472C265.856 93.2829 266.113 93.0174 266.302 92.6753C266.5 92.3242 266.599 91.9145 266.599 91.4464C266.599 90.9783 266.5 90.5732 266.302 90.2311C266.113 89.889 265.856 89.6279 265.532 89.4479C265.208 89.2588 264.857 89.1643 264.479 89.1643C264.101 89.1643 263.75 89.2588 263.426 89.4479C263.101 89.6279 262.84 89.889 262.642 90.2311C262.453 90.5732 262.359 90.9783 262.359 91.4464C262.359 91.9145 262.453 92.3242 262.642 92.6753C262.84 93.0174 263.101 93.2829 263.426 93.472C263.75 93.652 264.101 93.7421 264.479 93.7421ZM269.322 88.0029H270.74V88.9077H270.808C271.006 88.5836 271.298 88.318 271.685 88.111C272.081 87.8949 272.5 87.7869 272.941 87.7869C273.778 87.7869 274.413 88.0344 274.845 88.5296C275.286 89.0157 275.507 89.6819 275.507 90.5282V94.8899H274.021V90.7307C274.021 90.1906 273.886 89.7944 273.616 89.5424C273.355 89.2903 272.991 89.1643 272.523 89.1643C272.189 89.1643 271.892 89.2588 271.631 89.4479C271.37 89.6279 271.168 89.871 271.024 90.1771C270.88 90.4831 270.808 90.8117 270.808 91.1628V94.8899H269.322V88.0029ZM280.328 95.106C279.653 95.106 279.045 94.9484 278.505 94.6333C277.974 94.3182 277.555 93.8861 277.249 93.337C276.952 92.7788 276.804 92.1531 276.804 91.4599C276.804 90.8027 276.948 90.1951 277.236 89.6369C277.533 89.0697 277.942 88.6196 278.465 88.2865C278.987 87.9534 279.581 87.7869 280.247 87.7869C280.94 87.7869 281.539 87.9399 282.043 88.246C282.556 88.5521 282.943 88.9707 283.204 89.5019C283.475 90.033 283.61 90.6317 283.61 91.2979C283.61 91.4239 283.596 91.5815 283.569 91.7705H278.289C278.343 92.4097 278.568 92.9048 278.964 93.2559C279.369 93.598 279.838 93.7691 280.369 93.7691C280.792 93.7691 281.156 93.6745 281.462 93.4855C281.778 93.2874 282.03 93.0219 282.219 92.6888L283.475 93.2829C283.15 93.8501 282.727 94.2957 282.205 94.6198C281.683 94.9439 281.057 95.106 280.328 95.106ZM282.097 90.6362C282.079 90.3931 282.003 90.1546 281.868 89.9205C281.733 89.6774 281.525 89.4749 281.246 89.3128C280.976 89.1508 280.643 89.0697 280.247 89.0697C279.77 89.0697 279.365 89.2138 279.032 89.5019C278.708 89.7809 278.483 90.1591 278.357 90.6362H282.097ZM286.937 94.5118L284.074 88.0029H285.735L287.68 92.6888H287.734L289.624 88.0029H291.258L287.005 97.8067H285.438L286.937 94.5118ZM295.637 85.2212H297.689L300.471 92.5537H300.552L303.334 85.2212H305.386V94.8899H303.887V89.4749L303.968 87.7329H303.887L301.119 94.8899H299.904L297.135 87.7329H297.054L297.135 89.4749V94.8899H295.637V85.2212ZM309.317 95.106C308.822 95.106 308.381 95.0114 307.994 94.8224C307.607 94.6243 307.305 94.3497 307.089 93.9986C306.873 93.6385 306.765 93.2334 306.765 92.7833C306.765 92.0721 307.031 91.5094 307.562 91.0953C308.102 90.6812 308.782 90.4741 309.601 90.4741C310.006 90.4741 310.37 90.5147 310.695 90.5957C311.019 90.6677 311.275 90.7487 311.464 90.8387V90.4876C311.464 90.0645 311.307 89.7224 310.992 89.4614C310.677 89.1913 310.271 89.0562 309.776 89.0562C309.425 89.0562 309.092 89.1328 308.777 89.2858C308.471 89.4388 308.223 89.6504 308.034 89.9205L306.995 89.1238C307.301 88.7006 307.697 88.372 308.183 88.138C308.669 87.9039 309.209 87.7869 309.803 87.7869C310.803 87.7869 311.572 88.0344 312.112 88.5296C312.653 89.0157 312.923 89.7044 312.923 90.5957V94.8899H311.464V94.0662H311.397C311.199 94.3632 310.92 94.6108 310.56 94.8089C310.199 95.0069 309.785 95.106 309.317 95.106ZM309.574 93.8771C309.934 93.8771 310.258 93.7916 310.546 93.6205C310.834 93.4495 311.059 93.2199 311.221 92.9318C311.383 92.6438 311.464 92.3332 311.464 92.0001C311.257 91.883 311.014 91.7885 310.735 91.7165C310.465 91.6445 310.181 91.6085 309.884 91.6085C309.326 91.6085 308.917 91.721 308.655 91.9461C308.394 92.1621 308.264 92.4457 308.264 92.7968C308.264 93.1119 308.385 93.373 308.628 93.58C308.872 93.7781 309.187 93.8771 309.574 93.8771ZM317.232 94.9979C316.926 94.9979 316.638 94.9484 316.368 94.8494C316.098 94.7504 315.877 94.6198 315.706 94.4578C315.319 94.0707 315.125 93.544 315.125 92.8778V89.3128H313.923V88.0029H315.125V86.0584H316.611V88.0029H319.514V86.0584H320.999V88.0029H322.674V89.3128H320.999V92.5537C320.999 92.9228 321.071 93.1839 321.216 93.337C321.351 93.517 321.585 93.607 321.918 93.607C322.071 93.607 322.206 93.589 322.323 93.553C322.44 93.508 322.566 93.4405 322.701 93.3505V94.7954C322.395 94.9304 322.035 94.9979 321.621 94.9979C321.315 94.9979 321.026 94.9484 320.756 94.8494C320.486 94.7504 320.266 94.6198 320.095 94.4578C319.708 94.0707 319.514 93.544 319.514 92.8778V89.3128H316.611V92.5537C316.611 92.9228 316.683 93.1839 316.827 93.337C316.962 93.517 317.191 93.607 317.515 93.607C317.75 93.607 317.988 93.5305 318.231 93.3775V94.8224C318.087 94.8854 317.939 94.9304 317.786 94.9574C317.642 94.9844 317.457 94.9979 317.232 94.9979ZM326.972 95.106C326.297 95.106 325.689 94.9484 325.149 94.6333C324.618 94.3182 324.199 93.8861 323.893 93.337C323.596 92.7788 323.447 92.1531 323.447 91.4599C323.447 90.8027 323.591 90.1951 323.879 89.6369C324.176 89.0697 324.586 88.6196 325.108 88.2865C325.63 87.9534 326.225 87.7869 326.891 87.7869C327.584 87.7869 328.183 87.9399 328.687 88.246C329.2 88.5521 329.587 88.9707 329.848 89.5019C330.118 90.033 330.253 90.6317 330.253 91.2979C330.253 91.4239 330.24 91.5815 330.213 91.7705H324.933C324.987 92.4097 325.212 92.9048 325.608 93.2559C326.013 93.598 326.481 93.7691 327.012 93.7691C327.435 93.7691 327.8 93.6745 328.106 93.4855C328.421 93.2874 328.673 93.0219 328.862 92.6888L330.118 93.2829C329.794 93.8501 329.371 94.2957 328.849 94.6198C328.327 94.9439 327.701 95.106 326.972 95.106ZM328.741 90.6362C328.723 90.3931 328.646 90.1546 328.511 89.9205C328.376 89.6774 328.169 89.4749 327.89 89.3128C327.62 89.1508 327.287 89.0697 326.891 89.0697C326.414 89.0697 326.008 89.2138 325.675 89.5019C325.351 89.7809 325.126 90.1591 325 90.6362H328.741ZM331.606 88.0029H333.024V89.0157H333.091C333.244 88.6646 333.51 88.3765 333.888 88.1515C334.266 87.9174 334.667 87.8004 335.09 87.8004C335.423 87.8004 335.702 87.8454 335.927 87.9354V89.4749C335.531 89.3308 335.175 89.2588 334.86 89.2588C334.518 89.2588 334.212 89.3488 333.942 89.5289C333.681 89.7089 333.474 89.952 333.321 90.2581C333.168 90.5552 333.091 90.8838 333.091 91.2439V94.8899H331.606V88.0029ZM339.313 95.106C338.521 95.106 337.873 94.9349 337.369 94.5928C336.865 94.2417 336.509 93.7961 336.302 93.2559L337.625 92.6753C337.787 93.0354 338.013 93.3099 338.301 93.499C338.598 93.6881 338.935 93.7826 339.313 93.7826C339.683 93.7826 339.993 93.7196 340.245 93.5935C340.497 93.4585 340.623 93.2604 340.623 92.9994C340.623 92.7473 340.515 92.5492 340.299 92.4052C340.083 92.2611 339.75 92.1351 339.3 92.0271L338.476 91.8245C337.927 91.6895 337.472 91.4509 337.112 91.1088C336.752 90.7667 336.572 90.3346 336.572 89.8125C336.572 89.4073 336.689 89.0517 336.923 88.7457C337.166 88.4396 337.49 88.2055 337.895 88.0435C338.301 87.8724 338.742 87.7869 339.219 87.7869C339.858 87.7869 340.421 87.9174 340.907 88.1785C341.393 88.4306 341.744 88.7997 341.96 89.2858L340.664 89.853C340.403 89.3218 339.926 89.0562 339.232 89.0562C338.899 89.0562 338.62 89.1238 338.395 89.2588C338.17 89.3938 338.058 89.5694 338.058 89.7854C338.058 89.9925 338.143 90.1636 338.314 90.2986C338.485 90.4246 338.737 90.5327 339.07 90.6227L340.083 90.8793C340.758 91.0503 341.267 91.3114 341.609 91.6625C341.96 92.0046 342.136 92.4277 342.136 92.9318C342.136 93.364 342.01 93.7466 341.758 94.0797C341.515 94.4038 341.177 94.6558 340.745 94.8359C340.313 95.0159 339.836 95.106 339.313 95.106Z" fill="white"/>
<path d="M482.077 134.094C515.589 134.094 542.757 106.927 542.757 73.4143C542.757 39.9016 515.589 12.7343 482.077 12.7343C448.564 12.7343 421.396 39.9016 421.396 73.4143C421.396 106.927 448.564 134.094 482.077 134.094Z" fill="#95C11F"/>
<path d="M494.846 45.0491C494.63 44.9977 494.402 45.0255 494.205 45.1273L492.802 45.8278L491.387 45.1204C491.261 45.0571 491.121 45.0241 490.979 45.0241C490.838 45.0241 490.698 45.0571 490.571 45.1204L489.139 45.8284L487.725 45.1204C487.598 45.0566 487.458 45.0234 487.315 45.0234C487.173 45.0234 487.033 45.0566 486.906 45.1204L485.5 45.8261L484.105 45.1221C483.979 45.0579 483.839 45.0241 483.697 45.0235C483.554 45.0229 483.414 45.0555 483.287 45.1187L481.849 45.8289L480.435 45.1198C480.308 45.0565 480.168 45.0236 480.026 45.0236C479.884 45.0236 479.744 45.0565 479.617 45.1198L478.198 45.8278L476.781 45.1198C476.599 45.0283 476.39 45.0007 476.19 45.0414C475.99 45.0822 475.809 45.1889 475.677 45.3446C475.534 45.5146 475.457 45.7302 475.46 45.9522V59.6274L475.463 59.6303H486.413C486.897 59.6303 487.361 59.8226 487.704 60.1649C488.046 60.5073 488.239 60.9716 488.239 61.4558V67.3858C488.239 69.1502 490.125 70.5804 491.89 70.5804H492.574C493.361 70.5804 494.115 70.2679 494.672 69.7115C495.228 69.1552 495.54 68.4007 495.54 67.614V45.9362C495.541 45.7319 495.472 45.5335 495.346 45.3726C495.22 45.2118 495.044 45.0979 494.846 45.0491ZM490.977 56.8892H483.703C483.21 56.8892 482.785 56.5104 482.763 56.0175C482.758 55.8943 482.777 55.7713 482.82 55.6558C482.864 55.5404 482.93 55.4349 483.015 55.3458C483.1 55.2566 483.203 55.1857 483.316 55.1372C483.429 55.0887 483.551 55.0637 483.675 55.0637H490.948C491.441 55.0637 491.867 55.4425 491.888 55.9353C491.894 56.0585 491.874 56.1815 491.831 56.297C491.788 56.4124 491.722 56.5179 491.636 56.6071C491.551 56.6962 491.449 56.7672 491.335 56.8156C491.222 56.8641 491.1 56.8891 490.977 56.8892ZM490.977 52.3254H480.052C479.559 52.3254 479.134 51.9466 479.112 51.4538C479.107 51.3306 479.126 51.2075 479.169 51.0921C479.213 50.9766 479.279 50.8712 479.364 50.782C479.449 50.6929 479.552 50.6219 479.665 50.5735C479.778 50.525 479.9 50.5 480.024 50.4999H490.948C491.441 50.4999 491.867 50.8787 491.888 51.3716C491.894 51.4948 491.874 51.6178 491.831 51.7333C491.788 51.8487 491.722 51.9542 491.636 52.0433C491.551 52.1325 491.449 52.2034 491.335 52.2519C491.222 52.3004 491.1 52.3254 490.977 52.3254Z" fill="white"/>
<path d="M486.413 67.3857V62.3656C486.413 62.1236 486.317 61.8914 486.146 61.7202C485.975 61.549 485.742 61.4529 485.5 61.4529H469.984C469.5 61.4544 469.036 61.6476 468.694 61.9902C468.351 62.3329 468.159 62.797 468.158 63.2812C468.158 66.1649 468.488 67.3641 468.983 68.2768C469.823 69.8268 471.345 70.5804 473.635 70.5804H487.65C487.695 70.5804 487.739 70.5671 487.776 70.5422C487.814 70.5173 487.843 70.4818 487.861 70.4403C487.878 70.3987 487.883 70.353 487.874 70.3088C487.866 70.2646 487.844 70.2239 487.813 70.1919C487.273 69.6505 486.413 68.926 486.413 67.3857Z" fill="white"/>
<path d="M461.832 82.5731H465.242C465.724 82.5731 466.168 82.6787 466.574 82.8901C466.988 83.1014 467.318 83.393 467.563 83.765C467.808 84.1369 467.931 84.5469 467.931 84.9949C467.931 85.4429 467.816 85.8317 467.588 86.1614C467.368 86.491 467.077 86.7404 466.713 86.9094V86.9855C467.17 87.1461 467.537 87.4124 467.816 87.7843C468.104 88.1563 468.247 88.5916 468.247 89.0903C468.247 89.589 468.116 90.0328 467.854 90.4216C467.601 90.8105 467.254 91.1148 466.815 91.3346C466.384 91.5459 465.91 91.6516 465.395 91.6516H461.832V82.5731ZM465.179 86.3769C465.585 86.3769 465.91 86.2501 466.155 85.9965C466.409 85.7429 466.536 85.4513 466.536 85.1217C466.536 84.792 466.413 84.5046 466.168 84.2595C465.931 84.0059 465.619 83.8791 465.23 83.8791H463.252V86.3769H465.179ZM465.395 90.3329C465.826 90.3329 466.168 90.1976 466.422 89.9271C466.684 89.6567 466.815 89.3439 466.815 88.9889C466.815 88.6254 466.679 88.3126 466.409 88.0506C466.147 87.7801 465.792 87.6449 465.344 87.6449H463.252V90.3329H465.395ZM470.364 84.2468C470.102 84.2468 469.878 84.158 469.692 83.9805C469.515 83.7945 469.426 83.5705 469.426 83.3085C469.426 83.0465 469.515 82.8267 469.692 82.6492C469.878 82.4632 470.102 82.3702 470.364 82.3702C470.626 82.3702 470.846 82.4632 471.023 82.6492C471.209 82.8267 471.302 83.0465 471.302 83.3085C471.302 83.5705 471.209 83.7945 471.023 83.9805C470.846 84.158 470.626 84.2468 470.364 84.2468ZM469.667 85.185H471.061V91.6516H469.667V85.185ZM472.797 82.5731H474.192V91.6516H472.797V82.5731ZM475.831 82.5731H477.225V91.6516H475.831V82.5731ZM481.785 85.185H483.117V86.0346H483.18C483.366 85.7387 483.641 85.4894 484.004 85.2865C484.368 85.0836 484.778 84.9822 485.234 84.9822C485.817 84.9822 486.346 85.1301 486.819 85.426C487.292 85.7218 487.664 86.1318 487.935 86.6559C488.214 87.1715 488.353 87.759 488.353 88.4183C488.353 89.0776 488.214 89.6693 487.935 90.1934C487.664 90.709 487.292 91.1148 486.819 91.4106C486.346 91.7065 485.817 91.8544 485.234 91.8544C484.778 91.8544 484.368 91.753 484.004 91.5501C483.641 91.3472 483.366 91.1021 483.18 90.8147H483.117L483.18 91.7149V94.3903H481.785V85.185ZM485.031 90.5738C485.369 90.5738 485.686 90.485 485.982 90.3075C486.278 90.13 486.515 89.8764 486.692 89.5468C486.87 89.2171 486.959 88.8409 486.959 88.4183C486.959 87.9957 486.87 87.6237 486.692 87.3025C486.515 86.9728 486.278 86.7193 485.982 86.5417C485.686 86.3642 485.369 86.2755 485.031 86.2755C484.693 86.2755 484.376 86.3642 484.08 86.5417C483.793 86.7193 483.56 86.9728 483.383 87.3025C483.205 87.6237 483.117 87.9957 483.117 88.4183C483.117 88.8409 483.205 89.2171 483.383 89.5468C483.56 89.8764 483.793 90.13 484.08 90.3075C484.376 90.485 484.693 90.5738 485.031 90.5738ZM491.653 91.8544C491.188 91.8544 490.774 91.7657 490.411 91.5882C490.047 91.4022 489.764 91.1444 489.561 90.8147C489.358 90.4766 489.257 90.0962 489.257 89.6736C489.257 89.0058 489.506 88.4775 490.005 88.0886C490.512 87.6998 491.15 87.5054 491.919 87.5054C492.3 87.5054 492.642 87.5434 492.946 87.6195C493.251 87.6871 493.492 87.7632 493.669 87.8477V87.5181C493.669 87.1208 493.521 86.7996 493.225 86.5544C492.93 86.3008 492.549 86.174 492.084 86.174C491.755 86.174 491.442 86.2459 491.146 86.3896C490.859 86.5333 490.626 86.7319 490.449 86.9855L489.472 86.2374C489.76 85.8402 490.132 85.5316 490.588 85.3118C491.045 85.0921 491.552 84.9822 492.11 84.9822C493.048 84.9822 493.771 85.2146 494.278 85.6795C494.785 86.136 495.039 86.7827 495.039 87.6195V91.6516H493.669V90.8781H493.606C493.42 91.1571 493.158 91.3895 492.82 91.5755C492.482 91.7614 492.093 91.8544 491.653 91.8544ZM491.894 90.7006C492.232 90.7006 492.537 90.6203 492.807 90.4597C493.078 90.2991 493.289 90.0835 493.441 89.813C493.593 89.5425 493.669 89.2509 493.669 88.9382C493.475 88.8283 493.247 88.7395 492.985 88.6719C492.731 88.6043 492.465 88.5705 492.186 88.5705C491.662 88.5705 491.277 88.6761 491.032 88.8874C490.787 89.0903 490.664 89.3566 490.664 89.6862C490.664 89.9821 490.778 90.2272 491.007 90.4216C491.235 90.6076 491.531 90.7006 491.894 90.7006ZM498.413 91.2965L495.725 85.185H497.284L499.11 89.5848H499.161L500.936 85.185H502.47L498.476 94.3903H497.005L498.413 91.2965Z" fill="white"/>
<path d="M152.457 362.865C179.88 335.435 179.88 290.963 152.457 263.534C125.034 236.104 80.5717 236.104 53.1484 263.534C25.7251 290.963 25.7251 335.435 53.1484 362.865C80.5717 390.294 125.034 390.294 152.457 362.865Z" fill="#00983A"/>
<path d="M116.895 285.161L112.185 280.078C111.249 279.067 109.98 278.499 108.656 278.498H98.1027C96.7787 278.499 95.5094 279.067 94.5739 280.078L89.8632 285.161C88.9265 286.17 88.3996 287.539 88.3984 288.968V305.437C88.3984 306.866 88.9245 308.236 89.861 309.246C90.7975 310.257 92.0677 310.825 93.392 310.825H113.366C114.691 310.825 115.961 310.257 116.897 309.246C117.834 308.236 118.36 306.866 118.36 305.437V288.968C118.359 287.539 117.832 286.17 116.895 285.161ZM103.379 301.845C101.613 301.845 99.9199 301.088 98.6712 299.741C97.4226 298.394 96.7211 296.566 96.7211 294.661C96.7211 294.185 96.8965 293.728 97.2086 293.391C97.5208 293.054 97.9442 292.865 98.3856 292.865C98.8271 292.865 99.2505 293.054 99.5626 293.391C99.8748 293.728 100.05 294.185 100.05 294.661C100.05 295.614 100.401 296.527 101.025 297.201C101.65 297.875 102.496 298.253 103.379 298.253C104.262 298.253 105.109 297.875 105.733 297.201C106.358 296.527 106.708 295.614 106.708 294.661C106.708 294.185 106.884 293.728 107.196 293.391C107.508 293.054 107.931 292.865 108.373 292.865C108.814 292.865 109.238 293.054 109.55 293.391C109.862 293.728 110.037 294.185 110.037 294.661C110.037 296.566 109.336 298.394 108.087 299.741C106.839 301.088 105.145 301.845 103.379 301.845ZM94.0745 285.681L96.9208 282.61C97.2398 282.282 97.662 282.096 98.1027 282.089H108.656C109.097 282.096 109.519 282.282 109.838 282.61L112.684 285.681H94.0745Z" fill="white"/>
<path d="M66.7206 334.653C65.7002 334.653 64.768 334.412 63.9242 333.932C63.0804 333.451 62.4181 332.789 61.9373 331.945C61.4565 331.101 61.2161 330.169 61.2161 329.148C61.2161 328.128 61.4565 327.196 61.9373 326.352C62.4181 325.508 63.0804 324.846 63.9242 324.365C64.768 323.884 65.7002 323.644 66.7206 323.644C67.5154 323.644 68.2366 323.791 68.8842 324.085C69.5416 324.38 70.1205 324.807 70.6209 325.366L69.4434 326.499C69.0804 326.067 68.6781 325.748 68.2366 325.542C67.795 325.327 67.2897 325.219 66.7206 325.219C66.0141 325.219 65.3666 325.381 64.7778 325.704C64.1989 326.028 63.7378 326.489 63.3943 327.088C63.0509 327.677 62.8792 328.363 62.8792 329.148C62.8792 329.933 63.0509 330.625 63.3943 331.224C63.7378 331.812 64.1989 332.269 64.7778 332.592C65.3666 332.916 66.0141 333.078 66.7206 333.078C67.8981 333.078 68.8989 332.587 69.7231 331.606L70.9152 332.754C70.405 333.353 69.7918 333.819 69.0755 334.152C68.3592 334.486 67.5743 334.653 66.7206 334.653ZM72.347 323.879H73.966V334.417H72.347V323.879ZM76.7956 325.822C76.4915 325.822 76.2315 325.719 76.0156 325.513C75.8095 325.297 75.7065 325.037 75.7065 324.733C75.7065 324.429 75.8095 324.174 76.0156 323.968C76.2315 323.752 76.4915 323.644 76.7956 323.644C77.0998 323.644 77.3549 323.752 77.561 323.968C77.7768 324.174 77.8848 324.429 77.8848 324.733C77.8848 325.037 77.7768 325.297 77.561 325.513C77.3549 325.719 77.0998 325.822 76.7956 325.822ZM75.9862 326.911H77.6051V334.417H75.9862V326.911ZM83.0213 334.653C82.2756 334.653 81.6035 334.481 81.005 334.138C80.4163 333.794 79.9551 333.323 79.6215 332.725C79.2977 332.116 79.1358 331.43 79.1358 330.664C79.1358 329.899 79.2977 329.217 79.6215 328.618C79.9551 328.01 80.4163 327.534 81.005 327.191C81.6035 326.847 82.2756 326.676 83.0213 326.676C83.8456 326.676 84.5471 326.862 85.126 327.235C85.7049 327.608 86.117 328.113 86.3623 328.751L84.8758 329.369C84.5422 328.574 83.9093 328.177 82.9772 328.177C82.5749 328.177 82.202 328.28 81.8586 328.486C81.525 328.692 81.2552 328.986 81.0491 329.369C80.8529 329.742 80.7548 330.174 80.7548 330.664C80.7548 331.155 80.8529 331.592 81.0491 331.974C81.2552 332.357 81.525 332.651 81.8586 332.857C82.202 333.063 82.5749 333.166 82.9772 333.166C83.4482 333.166 83.8505 333.063 84.1841 332.857C84.5275 332.641 84.7875 332.337 84.9641 331.945L86.4212 332.578C86.1367 333.215 85.7049 333.721 85.126 334.094C84.5471 334.466 83.8456 334.653 83.0213 334.653ZM87.798 323.879H89.417V330.017H89.4611L92.5372 326.911H94.5683V326.999L91.6541 329.899L94.6566 334.329V334.417H92.7285L90.5208 331.018L89.417 332.092V334.417H87.798V323.879ZM106.071 332.43L107.116 333.74L105.924 334.653L105.173 333.711C104.487 334.339 103.662 334.653 102.701 334.653C101.984 334.653 101.327 334.491 100.729 334.167C100.14 333.843 99.6738 333.402 99.3304 332.843C98.9869 332.273 98.8152 331.641 98.8152 330.944C98.8152 330.345 98.9722 329.771 99.2862 329.222C99.6002 328.672 100.027 328.216 100.567 327.853C100.096 327.245 99.8602 326.681 99.8602 326.161C99.8602 325.699 99.973 325.277 100.199 324.895C100.434 324.502 100.753 324.198 101.155 323.982C101.558 323.757 102.004 323.644 102.495 323.644C103.123 323.644 103.648 323.811 104.07 324.144C104.491 324.468 104.791 324.89 104.967 325.41L103.628 326.116C103.383 325.449 103.01 325.116 102.509 325.116C102.205 325.116 101.95 325.209 101.744 325.395C101.548 325.582 101.45 325.832 101.45 326.146C101.45 326.45 101.567 326.749 101.803 327.044L105.144 331.268L106.056 329.781L107.263 330.532L106.071 332.43ZM102.745 333.181C103.353 333.181 103.863 332.975 104.276 332.563L101.45 328.972C101.106 329.188 100.836 329.472 100.64 329.825C100.444 330.169 100.346 330.532 100.346 330.914C100.346 331.346 100.454 331.739 100.67 332.092C100.886 332.435 101.175 332.705 101.538 332.901C101.911 333.088 102.313 333.181 102.745 333.181ZM114.954 334.653C114.081 334.653 113.296 334.398 112.6 333.888C111.903 333.377 111.422 332.661 111.157 331.739L112.717 331.106C112.874 331.685 113.149 332.161 113.541 332.533C113.944 332.897 114.425 333.078 114.984 333.078C115.504 333.078 115.945 332.946 116.308 332.681C116.672 332.406 116.853 332.033 116.853 331.562C116.853 331.13 116.691 330.777 116.367 330.502C116.053 330.218 115.499 329.933 114.704 329.649L114.042 329.413C113.335 329.168 112.742 328.815 112.261 328.354C111.78 327.892 111.54 327.284 111.54 326.529C111.54 326.008 111.682 325.528 111.967 325.086C112.251 324.645 112.644 324.296 113.144 324.041C113.654 323.776 114.228 323.644 114.866 323.644C115.788 323.644 116.524 323.869 117.074 324.321C117.623 324.762 117.991 325.263 118.178 325.822L116.691 326.455C116.583 326.121 116.377 325.827 116.073 325.572C115.769 325.317 115.376 325.189 114.896 325.189C114.415 325.189 114.008 325.312 113.674 325.557C113.35 325.802 113.188 326.116 113.188 326.499C113.188 326.862 113.335 327.161 113.63 327.397C113.924 327.632 114.385 327.858 115.013 328.074L115.676 328.295C116.578 328.609 117.275 329.021 117.766 329.531C118.266 330.031 118.516 330.704 118.516 331.547C118.516 332.234 118.34 332.813 117.986 333.284C117.633 333.745 117.182 334.089 116.632 334.314C116.093 334.54 115.533 334.653 114.954 334.653ZM120.137 323.879H121.756V326.749L121.683 327.897H121.756C121.972 327.544 122.291 327.255 122.713 327.029C123.145 326.793 123.606 326.676 124.096 326.676C125.009 326.676 125.706 326.946 126.186 327.485C126.667 328.015 126.908 328.741 126.908 329.663V334.417H125.289V329.884C125.289 329.315 125.137 328.888 124.832 328.604C124.538 328.319 124.15 328.177 123.67 328.177C123.307 328.177 122.978 328.28 122.684 328.486C122.399 328.692 122.173 328.967 122.007 329.31C121.84 329.644 121.756 330.002 121.756 330.385V334.417H120.137V323.879ZM132.264 334.653C131.509 334.653 130.832 334.481 130.233 334.138C129.635 333.784 129.169 333.304 128.835 332.695C128.501 332.087 128.335 331.41 128.335 330.664C128.335 329.919 128.501 329.242 128.835 328.633C129.169 328.025 129.635 327.549 130.233 327.206C130.832 326.852 131.509 326.676 132.264 326.676C133.02 326.676 133.697 326.852 134.295 327.206C134.894 327.559 135.36 328.04 135.694 328.648C136.027 329.256 136.194 329.928 136.194 330.664C136.194 331.41 136.027 332.087 135.694 332.695C135.36 333.304 134.894 333.784 134.295 334.138C133.697 334.481 133.02 334.653 132.264 334.653ZM132.264 333.166C132.676 333.166 133.059 333.068 133.412 332.872C133.766 332.666 134.045 332.376 134.251 332.004C134.467 331.621 134.575 331.174 134.575 330.664C134.575 330.154 134.467 329.713 134.251 329.34C134.045 328.967 133.766 328.682 133.412 328.486C133.059 328.28 132.676 328.177 132.264 328.177C131.852 328.177 131.47 328.28 131.116 328.486C130.763 328.682 130.479 328.967 130.263 329.34C130.057 329.713 129.954 330.154 129.954 330.664C129.954 331.174 130.057 331.621 130.263 332.004C130.479 332.376 130.763 332.666 131.116 332.872C131.47 333.068 131.852 333.166 132.264 333.166ZM137.556 326.911H139.101V327.897H139.175C139.391 327.554 139.71 327.264 140.132 327.029C140.554 326.793 141.029 326.676 141.559 326.676C142.236 326.676 142.85 326.847 143.399 327.191C143.949 327.534 144.38 328.01 144.694 328.618C145.018 329.217 145.18 329.899 145.18 330.664C145.18 331.43 145.018 332.116 144.694 332.725C144.38 333.323 143.949 333.794 143.399 334.138C142.85 334.481 142.236 334.653 141.559 334.653C141.029 334.653 140.554 334.535 140.132 334.3C139.71 334.064 139.391 333.78 139.175 333.446H139.101L139.175 334.491V337.596H137.556V326.911ZM141.324 333.166C141.716 333.166 142.084 333.063 142.428 332.857C142.771 332.651 143.046 332.357 143.252 331.974C143.458 331.592 143.561 331.155 143.561 330.664C143.561 330.174 143.458 329.742 143.252 329.369C143.046 328.986 142.771 328.692 142.428 328.486C142.084 328.28 141.716 328.177 141.324 328.177C140.931 328.177 140.563 328.28 140.22 328.486C139.886 328.692 139.617 328.986 139.411 329.369C139.204 329.742 139.101 330.174 139.101 330.664C139.101 331.155 139.204 331.592 139.411 331.974C139.617 332.357 139.886 332.651 140.22 332.857C140.563 333.063 140.931 333.166 141.324 333.166Z" fill="white"/>
<path d="M639.186 359.177C638.97 323.407 609.798 294.588 574.028 294.809C538.258 295.026 509.439 324.197 509.66 359.967C509.877 395.737 539.053 424.556 574.819 424.335C610.584 424.118 639.403 394.947 639.186 359.177Z" fill="#9A096A"/>
<path d="M569.37 348.939C568.87 348.939 568.465 349.391 568.465 349.947C568.465 350.504 568.87 350.956 569.37 350.956C569.87 350.956 570.275 350.504 570.275 349.947C570.275 349.391 569.87 348.939 569.37 348.939Z" fill="white"/>
<path d="M583.744 348.093C582.677 347.665 581.823 347.225 581.13 346.746C581.009 346.655 580.966 346.644 580.859 346.579C580.469 346.339 580.095 346.537 579.987 346.689C579.957 346.731 579.927 346.773 579.896 346.815C579.085 347.872 576.414 349.152 576.413 349.152C576.204 349.216 576.051 349.428 576.051 349.681C576.051 349.682 576.051 349.682 576.051 349.682L576.05 349.683L576.06 353.339C576.06 355.592 574.428 357.424 572.424 357.424C570.416 357.424 568.782 355.592 568.782 353.339V351.809C568.09 351.541 567.592 350.81 567.592 349.948C567.592 348.859 568.384 347.976 569.362 347.976C570.34 347.976 571.132 348.859 571.132 349.948C571.132 350.791 570.656 351.509 569.987 351.791V353.27C569.987 354.867 571.078 356.167 572.422 356.167C573.764 356.167 574.857 354.867 574.857 353.27L574.863 349.706L574.863 349.705C574.863 349.705 574.863 349.704 574.863 349.704L574.863 349.681C574.863 349.681 574.862 349.679 574.862 349.678C574.852 349.45 574.7 349.281 574.533 349.187C574.531 349.186 571.687 347.606 570.853 346.424C570.746 346.271 570.372 346.073 569.981 346.313C569.253 346.76 568.264 347.128 567.013 347.631C563.157 349.179 562.045 350.759 562.045 351.837C562.045 352.912 562.045 358.893 562.045 358.893H575.369H575.388H588.712C588.712 358.893 588.712 352.912 588.712 351.837C588.712 350.759 587.6 349.642 583.744 348.093Z" fill="white"/>
<path d="M569.089 334.898C569.287 337.802 570.324 336.551 570.538 337.823C570.959 340.326 571.818 340.422 572.12 341.284C572.187 341.477 572.227 342.404 572.227 342.711C572.227 343.742 572.176 344.287 571.814 344.811C571.732 344.929 571.594 345.317 571.771 345.611C572.571 346.941 574.117 348.06 575.57 348.081C577.022 348.06 578.568 346.942 579.369 345.611C579.546 345.317 579.407 344.929 579.325 344.811C578.963 344.287 578.912 343.742 578.912 342.711C578.912 342.404 578.952 341.477 579.02 341.284C579.321 340.422 580.181 340.326 580.601 337.823C580.815 336.551 581.852 337.802 582.05 334.898C582.05 333.741 581.484 333.453 581.484 333.453C581.484 333.453 581.772 331.74 581.885 330.422C582.025 328.78 581.024 324.536 575.688 324.536C575.669 324.536 575.604 324.536 575.57 324.536C575.535 324.536 575.471 324.536 575.451 324.536C570.115 324.536 569.115 328.78 569.254 330.422C569.367 331.74 569.655 333.453 569.655 333.453C569.655 333.453 569.089 333.741 569.089 334.898Z" fill="white"/>
<path d="M548.315 370.135H550.028L553.629 379.717H551.969L551.113 377.268H547.245L546.375 379.717H544.715L548.315 370.135ZM550.604 375.876L549.587 373.025L549.212 371.915H549.132L548.757 373.025L547.74 375.876H550.604ZM557.179 379.931C556.394 379.931 555.751 379.762 555.252 379.422C554.752 379.075 554.4 378.633 554.194 378.098L555.506 377.522C555.667 377.879 555.89 378.151 556.175 378.338C556.47 378.526 556.804 378.62 557.179 378.62C557.545 378.62 557.853 378.557 558.102 378.432C558.352 378.298 558.477 378.102 558.477 377.843C558.477 377.593 558.37 377.397 558.156 377.254C557.942 377.112 557.612 376.987 557.166 376.88L556.349 376.679C555.805 376.545 555.354 376.309 554.997 375.97C554.641 375.631 554.462 375.202 554.462 374.685C554.462 374.283 554.578 373.931 554.81 373.628C555.051 373.324 555.372 373.092 555.774 372.932C556.175 372.762 556.612 372.677 557.085 372.677C557.719 372.677 558.276 372.807 558.758 373.066C559.24 373.315 559.588 373.681 559.802 374.163L558.517 374.725C558.258 374.199 557.786 373.935 557.099 373.935C556.768 373.935 556.492 374.002 556.269 374.136C556.046 374.27 555.934 374.444 555.934 374.658C555.934 374.863 556.019 375.033 556.189 375.167C556.358 375.292 556.608 375.399 556.938 375.488L557.942 375.742C558.611 375.912 559.115 376.17 559.454 376.518C559.802 376.857 559.976 377.277 559.976 377.776C559.976 378.205 559.851 378.584 559.601 378.914C559.36 379.235 559.026 379.485 558.597 379.663C558.169 379.842 557.696 379.931 557.179 379.931ZM561.25 370.135H562.723V375.715H562.763L565.56 372.892H567.407V372.972L564.757 375.608L567.487 379.637V379.717H565.734L563.726 376.625L562.723 377.602V379.717H561.25V370.135ZM573.677 379.931C573.187 379.931 572.749 379.837 572.366 379.65C571.982 379.454 571.683 379.182 571.469 378.834C571.255 378.477 571.148 378.075 571.148 377.629C571.148 376.924 571.411 376.367 571.938 375.956C572.473 375.546 573.146 375.341 573.958 375.341C574.36 375.341 574.721 375.381 575.042 375.461C575.364 375.532 575.618 375.613 575.805 375.702V375.354C575.805 374.935 575.649 374.596 575.337 374.337C575.025 374.069 574.623 373.935 574.132 373.935C573.784 373.935 573.454 374.011 573.142 374.163C572.839 374.315 572.593 374.524 572.406 374.792L571.375 374.002C571.679 373.583 572.071 373.257 572.553 373.025C573.035 372.793 573.57 372.677 574.159 372.677C575.149 372.677 575.912 372.923 576.448 373.414C576.983 373.895 577.251 374.578 577.251 375.461V379.717H575.805V378.901H575.738C575.542 379.195 575.265 379.44 574.909 379.637C574.552 379.833 574.141 379.931 573.677 379.931ZM573.932 378.713C574.288 378.713 574.61 378.628 574.895 378.459C575.181 378.289 575.404 378.062 575.564 377.776C575.725 377.491 575.805 377.183 575.805 376.853C575.6 376.737 575.359 376.643 575.083 376.572C574.815 376.501 574.534 376.465 574.239 376.465C573.686 376.465 573.28 376.576 573.022 376.799C572.763 377.014 572.633 377.295 572.633 377.643C572.633 377.955 572.754 378.214 572.995 378.419C573.236 378.615 573.548 378.713 573.932 378.713ZM582.232 370.135H585.297C586.287 370.135 587.153 370.335 587.893 370.737C588.634 371.138 589.201 371.705 589.593 372.437C589.995 373.159 590.195 373.989 590.195 374.926C590.195 375.863 589.995 376.697 589.593 377.428C589.201 378.151 588.634 378.713 587.893 379.115C587.153 379.516 586.287 379.717 585.297 379.717H582.232V370.135ZM585.27 378.285C586.341 378.285 587.175 377.991 587.773 377.402C588.38 376.804 588.683 375.979 588.683 374.926C588.683 373.882 588.38 373.061 587.773 372.463C587.175 371.866 586.341 371.567 585.27 371.567H583.731V378.285H585.27ZM594.665 379.931C593.978 379.931 593.363 379.775 592.819 379.463C592.274 379.141 591.85 378.704 591.547 378.151C591.244 377.598 591.092 376.982 591.092 376.304C591.092 375.626 591.244 375.011 591.547 374.457C591.85 373.904 592.274 373.472 592.819 373.159C593.363 372.838 593.978 372.677 594.665 372.677C595.352 372.677 595.968 372.838 596.512 373.159C597.056 373.48 597.48 373.918 597.784 374.471C598.087 375.024 598.239 375.635 598.239 376.304C598.239 376.982 598.087 377.598 597.784 378.151C597.48 378.704 597.056 379.141 596.512 379.463C595.968 379.775 595.352 379.931 594.665 379.931ZM594.665 378.579C595.04 378.579 595.388 378.49 595.709 378.312C596.03 378.124 596.285 377.861 596.472 377.522C596.668 377.174 596.766 376.768 596.766 376.304C596.766 375.84 596.668 375.439 596.472 375.1C596.285 374.761 596.03 374.502 595.709 374.324C595.388 374.136 595.04 374.043 594.665 374.043C594.291 374.043 593.943 374.136 593.621 374.324C593.3 374.502 593.042 374.761 592.845 375.1C592.658 375.439 592.564 375.84 592.564 376.304C592.564 376.768 592.658 377.174 592.845 377.522C593.042 377.861 593.3 378.124 593.621 378.312C593.943 378.49 594.291 378.579 594.665 378.579ZM602.754 379.931C602.076 379.931 601.465 379.775 600.921 379.463C600.386 379.15 599.966 378.722 599.663 378.178C599.368 377.625 599.221 377 599.221 376.304C599.221 375.608 599.368 374.988 599.663 374.444C599.966 373.891 600.386 373.458 600.921 373.146C601.465 372.834 602.076 372.677 602.754 372.677C603.504 372.677 604.142 372.847 604.668 373.186C605.195 373.525 605.569 373.985 605.792 374.564L604.441 375.127C604.137 374.404 603.562 374.043 602.714 374.043C602.348 374.043 602.009 374.136 601.697 374.324C601.394 374.511 601.148 374.779 600.961 375.127C600.783 375.466 600.693 375.858 600.693 376.304C600.693 376.75 600.783 377.147 600.961 377.495C601.148 377.843 601.394 378.111 601.697 378.298C602.009 378.486 602.348 378.579 602.714 378.579C603.142 378.579 603.508 378.486 603.812 378.298C604.124 378.102 604.36 377.825 604.521 377.469L605.846 378.044C605.587 378.624 605.195 379.083 604.668 379.422C604.142 379.762 603.504 379.931 602.754 379.931Z" fill="white"/>
<path d="M419.907 506.051C457.417 506.051 487.825 475.644 487.825 438.134C487.825 400.624 457.417 370.216 419.907 370.216C382.397 370.216 351.989 400.624 351.989 438.134C351.989 475.644 382.397 506.051 419.907 506.051Z" fill="#1D71B8"/>
<path d="M428.488 443.221C428.488 441.381 427.208 439.89 425.628 439.89H414.189C412.609 439.89 411.329 441.381 411.329 443.221V444.405H428.488V443.221Z" fill="white"/>
<path d="M434.271 415.467V413.247H422.592C422.304 412.306 421.669 411.566 420.861 411.231V406.512H418.955V411.231C418.147 411.566 417.512 412.306 417.224 413.247H405.545V415.467H407.929L403.639 427.679C403.639 430.739 405.777 433.229 408.405 433.229H410.312C412.94 433.229 415.078 430.739 415.078 427.679L410.769 415.467H417.224C417.512 416.407 418.147 417.147 418.955 417.483V433.351C417.092 433.795 415.618 435.499 415.238 437.67H424.578C424.198 435.499 422.724 433.795 420.861 433.351V417.483C421.669 417.147 422.304 416.407 422.592 415.467H429.028L424.738 427.679C424.738 430.739 426.876 433.229 429.504 433.229H431.411C434.039 433.229 436.177 430.739 436.177 427.679L431.868 415.467H434.271ZM412.695 426.568H406.022L409.358 417.243L412.695 426.568ZM433.794 426.568H427.121L430.457 417.243L433.794 426.568Z" fill="white"/>
<path d="M391.527 456.366H393.324L397.099 466.415H395.359L394.461 463.846H390.405L389.492 466.415H387.752L391.527 456.366ZM393.927 462.387L392.861 459.397L392.468 458.232H392.383L391.99 459.397L390.924 462.387H393.927ZM400.822 466.639C399.999 466.639 399.325 466.461 398.801 466.106C398.277 465.741 397.908 465.278 397.693 464.716L399.068 464.113C399.236 464.487 399.47 464.772 399.77 464.969C400.078 465.165 400.429 465.264 400.822 465.264C401.206 465.264 401.529 465.198 401.791 465.067C402.053 464.927 402.184 464.721 402.184 464.45C402.184 464.188 402.071 463.982 401.847 463.832C401.622 463.682 401.276 463.551 400.808 463.439L399.952 463.229C399.381 463.088 398.909 462.84 398.535 462.485C398.16 462.129 397.973 461.68 397.973 461.138C397.973 460.716 398.095 460.347 398.338 460.029C398.591 459.711 398.928 459.467 399.349 459.299C399.77 459.121 400.228 459.032 400.724 459.032C401.388 459.032 401.973 459.168 402.478 459.439C402.984 459.701 403.349 460.085 403.573 460.59L402.226 461.18C401.954 460.628 401.459 460.352 400.738 460.352C400.392 460.352 400.102 460.422 399.868 460.562C399.634 460.702 399.517 460.885 399.517 461.109C399.517 461.325 399.606 461.502 399.784 461.643C399.961 461.774 400.223 461.886 400.57 461.98L401.622 462.246C402.324 462.424 402.853 462.695 403.208 463.06C403.573 463.416 403.756 463.856 403.756 464.38C403.756 464.829 403.625 465.226 403.363 465.572C403.11 465.909 402.759 466.171 402.31 466.358C401.861 466.546 401.365 466.639 400.822 466.639ZM405.092 456.366H406.636V462.218H406.678L409.611 459.257H411.548V459.341L408.769 462.106L411.632 466.33V466.415H409.794L407.689 463.173L406.636 464.197V466.415H405.092V456.366ZM418.124 466.639C417.609 466.639 417.151 466.541 416.749 466.344C416.346 466.139 416.033 465.853 415.808 465.488C415.584 465.114 415.471 464.693 415.471 464.225C415.471 463.486 415.748 462.901 416.3 462.471C416.861 462.04 417.567 461.825 418.419 461.825C418.84 461.825 419.219 461.867 419.556 461.952C419.892 462.026 420.159 462.111 420.356 462.204V461.839C420.356 461.4 420.192 461.044 419.864 460.773C419.537 460.492 419.116 460.352 418.601 460.352C418.236 460.352 417.89 460.431 417.563 460.59C417.245 460.749 416.987 460.969 416.791 461.25L415.71 460.422C416.028 459.982 416.44 459.64 416.945 459.397C417.45 459.154 418.012 459.032 418.629 459.032C419.668 459.032 420.468 459.29 421.029 459.804C421.591 460.309 421.871 461.025 421.871 461.952V466.415H420.356V465.558H420.285C420.08 465.867 419.789 466.125 419.415 466.33C419.041 466.536 418.611 466.639 418.124 466.639ZM418.391 465.362C418.765 465.362 419.102 465.273 419.401 465.095C419.701 464.918 419.935 464.679 420.103 464.38C420.271 464.08 420.356 463.757 420.356 463.411C420.14 463.29 419.888 463.191 419.598 463.116C419.317 463.042 419.022 463.004 418.713 463.004C418.133 463.004 417.708 463.121 417.436 463.355C417.165 463.58 417.029 463.874 417.029 464.239C417.029 464.567 417.156 464.838 417.408 465.053C417.661 465.259 417.988 465.362 418.391 465.362ZM427.096 456.366H430.31C431.348 456.366 432.256 456.576 433.032 456.997C433.809 457.418 434.403 458.012 434.815 458.78C435.236 459.538 435.446 460.408 435.446 461.39C435.446 462.373 435.236 463.247 434.815 464.015C434.403 464.772 433.809 465.362 433.032 465.783C432.256 466.204 431.348 466.415 430.31 466.415H427.096V456.366ZM430.282 464.913C431.404 464.913 432.279 464.604 432.906 463.987C433.542 463.36 433.86 462.494 433.86 461.39C433.86 460.295 433.542 459.435 432.906 458.808C432.279 458.181 431.404 457.867 430.282 457.867H428.668V464.913H430.282ZM440.134 466.639C439.414 466.639 438.768 466.475 438.197 466.148C437.626 465.811 437.182 465.353 436.864 464.772C436.546 464.192 436.387 463.547 436.387 462.836C436.387 462.125 436.546 461.479 436.864 460.899C437.182 460.319 437.626 459.865 438.197 459.538C438.768 459.201 439.414 459.032 440.134 459.032C440.854 459.032 441.5 459.201 442.071 459.538C442.641 459.874 443.086 460.333 443.404 460.913C443.722 461.493 443.881 462.134 443.881 462.836C443.881 463.547 443.722 464.192 443.404 464.772C443.086 465.353 442.641 465.811 442.071 466.148C441.5 466.475 440.854 466.639 440.134 466.639ZM440.134 465.222C440.527 465.222 440.892 465.128 441.229 464.941C441.566 464.744 441.832 464.468 442.029 464.113C442.234 463.748 442.337 463.322 442.337 462.836C442.337 462.349 442.234 461.928 442.029 461.573C441.832 461.217 441.566 460.946 441.229 460.759C440.892 460.562 440.527 460.464 440.134 460.464C439.741 460.464 439.376 460.562 439.039 460.759C438.702 460.946 438.431 461.217 438.225 461.573C438.029 461.928 437.931 462.349 437.931 462.836C437.931 463.322 438.029 463.748 438.225 464.113C438.431 464.468 438.702 464.744 439.039 464.941C439.376 465.128 439.741 465.222 440.134 465.222ZM448.617 466.639C447.906 466.639 447.265 466.475 446.694 466.148C446.133 465.82 445.693 465.371 445.375 464.801C445.066 464.22 444.912 463.566 444.912 462.836C444.912 462.106 445.066 461.456 445.375 460.885C445.693 460.305 446.133 459.851 446.694 459.524C447.265 459.196 447.906 459.032 448.617 459.032C449.403 459.032 450.072 459.21 450.624 459.566C451.176 459.921 451.569 460.403 451.803 461.011L450.385 461.601C450.067 460.843 449.464 460.464 448.575 460.464C448.191 460.464 447.836 460.562 447.508 460.759C447.19 460.955 446.933 461.236 446.736 461.601C446.549 461.956 446.455 462.368 446.455 462.836C446.455 463.304 446.549 463.72 446.736 464.085C446.933 464.45 447.19 464.73 447.508 464.927C447.836 465.123 448.191 465.222 448.575 465.222C449.024 465.222 449.407 465.123 449.726 464.927C450.053 464.721 450.301 464.431 450.469 464.057L451.859 464.66C451.587 465.268 451.176 465.75 450.624 466.106C450.072 466.461 449.403 466.639 448.617 466.639Z" fill="white"/>
<path d="M160.124 178.8C189.573 149.344 189.573 101.588 160.124 72.1326C130.675 42.6773 82.9295 42.6773 53.4808 72.1326C24.0321 101.588 24.0321 149.344 53.4808 178.8C82.9295 208.255 130.675 208.255 160.124 178.8Z" fill="#E94E1B"/>
<path d="M100.628 119.042C98.5737 119.042 96.9136 120.897 96.9136 123.186C96.9136 125.467 98.5737 127.323 100.628 127.323C102.682 127.323 104.342 125.467 104.342 123.186C104.342 120.897 102.682 119.042 100.628 119.042ZM100.628 125.254C99.6007 125.254 98.7706 124.323 98.7706 123.185C98.7706 122.042 99.6007 121.117 100.628 121.117C101.655 121.117 102.485 122.042 102.485 123.185C102.485 124.323 101.655 125.254 100.628 125.254ZM128.64 115.981V120.399C128.64 121.501 127.838 122.394 126.849 122.394H124.932C124.586 119.747 122.538 117.711 120.065 117.711C117.599 117.711 115.551 119.747 115.205 122.394H105.49C105.143 119.747 103.095 117.711 100.629 117.711C98.1628 117.711 96.1147 119.747 95.7684 122.394H93.3679C92.3786 122.394 91.5766 121.501 91.5766 120.399V115.981H128.64ZM120.07 119.042C118.016 119.042 116.35 120.897 116.35 123.186C116.35 125.467 118.016 127.323 120.07 127.323C122.118 127.323 123.784 125.467 123.784 123.186C123.784 120.897 122.118 119.042 120.07 119.042ZM120.07 125.254C119.043 125.254 118.213 124.323 118.213 123.185C118.213 122.042 119.043 121.117 120.07 121.117C121.091 121.117 121.927 122.042 121.927 123.185C121.927 124.323 121.091 125.254 120.07 125.254ZM127.934 111.532L120.894 103.776C120.446 103.284 119.843 103.005 119.216 103.005H115.663V101.521C115.663 100.417 114.863 99.5261 113.872 99.5261H93.3667C92.3814 99.5261 91.5754 100.417 91.5754 101.521V101.834L84.3059 102.767L97.1871 104.636L84.1387 106.08L97.1411 108.139L84.1387 109.395L91.5758 110.957L91.5753 114.878H128.639V113.421C128.639 112.709 128.382 112.031 127.934 111.532ZM124.865 111.791H118.052C117.897 111.791 117.771 111.652 117.771 111.479V105.619C117.771 105.446 117.897 105.306 118.052 105.306H119.348C119.419 105.306 119.491 105.34 119.545 105.393L125.056 111.253C125.241 111.446 125.116 111.791 124.865 111.791Z" fill="white"/>
<path d="M76.2754 136.972H79.7418C80.8619 136.972 81.8408 137.199 82.6784 137.653C83.516 138.107 84.1568 138.748 84.6008 139.576C85.0549 140.393 85.282 141.332 85.282 142.391C85.282 143.451 85.0549 144.394 84.6008 145.222C84.1568 146.039 83.516 146.675 82.6784 147.129C81.8408 147.583 80.8619 147.81 79.7418 147.81H76.2754V136.972ZM79.7115 146.191C80.9225 146.191 81.866 145.858 82.5421 145.191C83.2284 144.515 83.5715 143.582 83.5715 142.391C83.5715 141.21 83.2284 140.282 82.5421 139.606C81.866 138.93 80.9225 138.592 79.7115 138.592H77.9708V146.191H79.7115ZM87.8955 138.97C87.5826 138.97 87.3152 138.864 87.0932 138.652C86.8813 138.43 86.7753 138.163 86.7753 137.85C86.7753 137.537 86.8813 137.275 87.0932 137.063C87.3152 136.841 87.5826 136.73 87.8955 136.73C88.2083 136.73 88.4707 136.841 88.6826 137.063C88.9046 137.275 89.0156 137.537 89.0156 137.85C89.0156 138.163 88.9046 138.43 88.6826 138.652C88.4707 138.864 88.2083 138.97 87.8955 138.97ZM87.0629 140.09H88.728V147.81H87.0629V140.09ZM93.6155 148.052C92.7274 148.052 92.0009 147.861 91.4357 147.477C90.8706 147.084 90.472 146.584 90.2399 145.979L91.7233 145.328C91.905 145.731 92.1573 146.039 92.4802 146.251C92.8132 146.463 93.1916 146.569 93.6155 146.569C94.0292 146.569 94.3774 146.498 94.6599 146.357C94.9425 146.206 95.0838 145.984 95.0838 145.691C95.0838 145.408 94.9627 145.186 94.7205 145.025C94.4783 144.864 94.1049 144.722 93.6003 144.601L92.677 144.374C92.0614 144.223 91.5518 143.955 91.1481 143.572C90.7445 143.188 90.5427 142.704 90.5427 142.119C90.5427 141.665 90.6738 141.266 90.9362 140.923C91.2087 140.58 91.572 140.317 92.0261 140.136C92.4802 139.944 92.9747 139.848 93.5095 139.848C94.226 139.848 94.8567 139.994 95.4016 140.287C95.9466 140.57 96.3401 140.983 96.5823 141.528L95.1292 142.164C94.8365 141.569 94.3017 141.271 93.5247 141.271C93.1513 141.271 92.8384 141.347 92.5862 141.498C92.3339 141.649 92.2077 141.846 92.2077 142.088C92.2077 142.32 92.3036 142.512 92.4953 142.664C92.6871 142.805 92.9696 142.926 93.343 143.027L94.4783 143.314C95.2351 143.506 95.8053 143.799 96.1888 144.192C96.5823 144.576 96.7791 145.05 96.7791 145.615C96.7791 146.1 96.6378 146.529 96.3553 146.902C96.0828 147.265 95.7044 147.548 95.22 147.75C94.7356 147.951 94.2008 148.052 93.6155 148.052ZM98.0862 140.09H99.6756V141.104H99.7513C99.9733 140.751 100.301 140.454 100.735 140.211C101.169 139.969 101.659 139.848 102.203 139.848C102.9 139.848 103.531 140.025 104.096 140.378C104.661 140.731 105.105 141.221 105.428 141.846C105.761 142.462 105.927 143.163 105.927 143.95C105.927 144.737 105.761 145.444 105.428 146.069C105.105 146.685 104.661 147.169 104.096 147.523C103.531 147.876 102.9 148.052 102.203 148.052C101.659 148.052 101.169 147.931 100.735 147.689C100.301 147.447 99.9733 147.154 99.7513 146.811H99.6756L99.7513 147.886V151.08H98.0862V140.09ZM101.961 146.524C102.365 146.524 102.743 146.418 103.097 146.206C103.45 145.994 103.732 145.691 103.944 145.297C104.156 144.904 104.262 144.455 104.262 143.95C104.262 143.446 104.156 143.002 103.944 142.618C103.732 142.225 103.45 141.922 103.097 141.71C102.743 141.498 102.365 141.392 101.961 141.392C101.558 141.392 101.179 141.498 100.826 141.71C100.483 141.922 100.205 142.225 99.9935 142.618C99.7816 143.002 99.6756 143.446 99.6756 143.95C99.6756 144.455 99.7816 144.904 99.9935 145.297C100.205 145.691 100.483 145.994 100.826 146.206C101.179 146.418 101.558 146.524 101.961 146.524ZM109.867 148.052C109.312 148.052 108.817 147.946 108.383 147.734C107.949 147.512 107.611 147.205 107.369 146.811C107.127 146.407 107.006 145.953 107.006 145.449C107.006 144.652 107.304 144.021 107.899 143.557C108.504 143.092 109.266 142.86 110.185 142.86C110.639 142.86 111.047 142.906 111.411 142.997C111.774 143.077 112.062 143.168 112.274 143.269V142.876C112.274 142.401 112.097 142.018 111.744 141.725C111.391 141.422 110.936 141.271 110.381 141.271C109.988 141.271 109.614 141.357 109.261 141.528C108.918 141.7 108.641 141.937 108.429 142.24L107.263 141.347C107.606 140.872 108.05 140.504 108.595 140.242C109.14 139.979 109.746 139.848 110.412 139.848C111.532 139.848 112.395 140.126 113 140.681C113.606 141.226 113.908 141.998 113.908 142.997V147.81H112.274V146.887H112.198C111.976 147.22 111.663 147.497 111.259 147.719C110.856 147.941 110.391 148.052 109.867 148.052ZM110.154 146.675C110.558 146.675 110.921 146.579 111.244 146.387C111.567 146.196 111.819 145.938 112.001 145.615C112.183 145.292 112.274 144.944 112.274 144.571C112.041 144.44 111.769 144.334 111.456 144.253C111.153 144.172 110.836 144.132 110.502 144.132C109.877 144.132 109.418 144.258 109.125 144.51C108.832 144.753 108.686 145.07 108.686 145.464C108.686 145.817 108.822 146.11 109.095 146.342C109.367 146.564 109.72 146.675 110.154 146.675ZM118.739 147.931C118.396 147.931 118.073 147.876 117.77 147.765C117.467 147.654 117.22 147.507 117.028 147.326C116.594 146.892 116.377 146.302 116.377 145.555V141.559H115.03V140.09H116.377V137.911H118.042V140.09H119.919V141.559H118.042V145.191C118.042 145.605 118.123 145.898 118.285 146.069C118.436 146.271 118.698 146.372 119.072 146.372C119.243 146.372 119.395 146.352 119.526 146.312C119.657 146.261 119.798 146.185 119.95 146.085V147.704C119.617 147.856 119.213 147.931 118.739 147.931ZM124.779 148.052C124.012 148.052 123.321 147.876 122.706 147.523C122.1 147.169 121.626 146.685 121.283 146.069C120.95 145.444 120.783 144.737 120.783 143.95C120.783 143.163 120.95 142.462 121.283 141.846C121.626 141.221 122.1 140.731 122.706 140.378C123.321 140.025 124.012 139.848 124.779 139.848C125.627 139.848 126.349 140.04 126.944 140.423C127.539 140.807 127.963 141.326 128.216 141.982L126.687 142.618C126.344 141.801 125.693 141.392 124.734 141.392C124.32 141.392 123.937 141.498 123.584 141.71C123.24 141.922 122.963 142.225 122.751 142.618C122.549 143.002 122.448 143.446 122.448 143.95C122.448 144.455 122.549 144.904 122.751 145.297C122.963 145.691 123.24 145.994 123.584 146.206C123.937 146.418 124.32 146.524 124.734 146.524C125.218 146.524 125.632 146.418 125.975 146.206C126.328 145.984 126.596 145.671 126.778 145.267L128.276 145.918C127.983 146.574 127.539 147.094 126.944 147.477C126.349 147.861 125.627 148.052 124.779 148.052ZM129.692 136.972H131.357V139.924L131.281 141.104H131.357C131.579 140.741 131.907 140.443 132.341 140.211C132.785 139.969 133.259 139.848 133.764 139.848C134.702 139.848 135.419 140.126 135.913 140.681C136.408 141.226 136.655 141.972 136.655 142.921V147.81H134.99V143.148C134.99 142.563 134.834 142.124 134.521 141.831C134.218 141.538 133.819 141.392 133.325 141.392C132.952 141.392 132.614 141.498 132.311 141.71C132.018 141.922 131.786 142.204 131.615 142.558C131.443 142.901 131.357 143.269 131.357 143.663V147.81H129.692V136.972Z" fill="white"/>
<path d="M266.395 488.488C291.525 463.352 291.525 422.599 266.395 397.464C241.265 372.328 200.521 372.328 175.391 397.464C150.261 422.599 150.261 463.352 175.391 488.488C200.521 513.624 241.265 513.624 266.395 488.488Z" fill="#9A8C09"/>
<path fill-rule="evenodd" clip-rule="evenodd" d="M207.119 436.219L213.755 439.1V415.858L207.119 413.745V436.219Z" fill="white"/>
<path fill-rule="evenodd" clip-rule="evenodd" d="M226.512 429.483C224.218 429.483 222.361 431.845 222.361 434.761C222.361 435.515 222.489 436.227 222.71 436.879L226.525 445.026L230.308 436.879C230.534 436.227 230.659 435.515 230.659 434.761C230.659 431.845 228.8 429.483 226.512 429.483ZM226.539 437.412C225.868 437.413 225.225 437.103 224.751 436.552C224.276 436 224.01 435.251 224.009 434.471C224.009 433.69 224.275 432.941 224.748 432.389C225.222 431.836 225.865 431.526 226.535 431.525C226.867 431.525 227.196 431.601 227.503 431.749C227.809 431.896 228.088 432.113 228.323 432.386C228.558 432.659 228.744 432.984 228.871 433.341C228.999 433.698 229.064 434.08 229.064 434.467C229.065 434.853 229 435.236 228.873 435.593C228.746 435.951 228.56 436.275 228.325 436.549C228.091 436.822 227.812 437.039 227.506 437.188C227.199 437.336 226.87 437.412 226.539 437.412Z" fill="white"/>
<path fill-rule="evenodd" clip-rule="evenodd" d="M234.082 415.675L225.709 413.854V427.304C225.972 427.265 226.235 427.214 226.509 427.214C229.841 427.214 232.538 430.238 232.538 433.97C232.538 434.936 232.357 435.846 232.031 436.682L231.383 437.916L234.082 439.284V415.675Z" fill="white"/>
<path fill-rule="evenodd" clip-rule="evenodd" d="M220.476 433.97C220.476 431.282 221.888 428.978 223.918 427.891V414.1L215.598 415.858V439.1L221.8 438.219L220.983 436.682C220.65 435.831 220.477 434.906 220.476 433.97Z" fill="white"/>
<path d="M192.681 463.028C191.752 463.028 190.907 462.809 190.148 462.371C189.388 461.924 188.79 461.316 188.352 460.548C187.923 459.779 187.708 458.935 187.708 458.015C187.708 457.094 187.923 456.254 188.352 455.495C188.79 454.726 189.388 454.119 190.148 453.672C190.907 453.225 191.752 453.002 192.681 453.002C193.61 453.002 194.45 453.225 195.201 453.672C195.96 454.119 196.559 454.726 196.997 455.495C197.435 456.254 197.654 457.094 197.654 458.015C197.654 458.935 197.435 459.779 196.997 460.548C196.568 461.316 195.974 461.924 195.214 462.371C194.455 462.809 193.61 463.028 192.681 463.028ZM192.681 461.593C193.315 461.593 193.896 461.441 194.423 461.138C194.951 460.834 195.366 460.414 195.67 459.878C195.974 459.333 196.126 458.712 196.126 458.015C196.126 457.318 195.974 456.701 195.67 456.165C195.366 455.62 194.951 455.195 194.423 454.892C193.896 454.588 193.315 454.436 192.681 454.436C192.047 454.436 191.466 454.588 190.939 454.892C190.411 455.195 189.991 455.62 189.679 456.165C189.375 456.701 189.223 457.318 189.223 458.015C189.223 458.712 189.375 459.333 189.679 459.878C189.991 460.414 190.411 460.834 190.939 461.138C191.466 461.441 192.047 461.593 192.681 461.593ZM199.062 455.977H200.47V456.875H200.537C200.733 456.554 201.024 456.29 201.408 456.085C201.801 455.87 202.217 455.763 202.655 455.763C203.486 455.763 204.116 456.009 204.544 456.5C204.982 456.983 205.201 457.644 205.201 458.484V462.813H203.727V458.685C203.727 458.149 203.593 457.756 203.325 457.505C203.066 457.255 202.704 457.13 202.239 457.13C201.908 457.13 201.614 457.224 201.354 457.412C201.095 457.59 200.894 457.831 200.751 458.135C200.608 458.439 200.537 458.765 200.537 459.114V462.813H199.062V455.977ZM211.653 454.65H208.973V453.216H215.835V454.65H213.154V462.813H211.653V454.65ZM217.047 453.216H218.522V455.83L218.455 456.875H218.522C218.718 456.554 219.009 456.29 219.393 456.085C219.786 455.87 220.206 455.763 220.653 455.763C221.484 455.763 222.118 456.009 222.556 456.5C222.994 456.983 223.213 457.644 223.213 458.484V462.813H221.738V458.685C221.738 458.167 221.6 457.778 221.323 457.519C221.055 457.26 220.702 457.13 220.264 457.13C219.933 457.13 219.634 457.224 219.366 457.412C219.107 457.599 218.901 457.849 218.749 458.162C218.598 458.466 218.522 458.792 218.522 459.141V462.813H217.047V453.216ZM228.011 463.028C227.341 463.028 226.737 462.871 226.201 462.558C225.674 462.246 225.259 461.817 224.955 461.272C224.66 460.718 224.512 460.097 224.512 459.409C224.512 458.756 224.655 458.153 224.941 457.599C225.236 457.036 225.643 456.589 226.161 456.259C226.679 455.928 227.269 455.763 227.93 455.763C228.618 455.763 229.213 455.915 229.713 456.219C230.222 456.522 230.607 456.938 230.866 457.465C231.134 457.992 231.268 458.587 231.268 459.248C231.268 459.373 231.254 459.529 231.228 459.717H225.987C226.04 460.351 226.264 460.843 226.657 461.191C227.059 461.531 227.524 461.701 228.051 461.701C228.471 461.701 228.833 461.607 229.137 461.419C229.449 461.223 229.7 460.959 229.887 460.628L231.134 461.218C230.812 461.781 230.392 462.223 229.874 462.545C229.356 462.867 228.734 463.028 228.011 463.028ZM229.767 458.591C229.749 458.35 229.673 458.113 229.539 457.881C229.405 457.639 229.199 457.438 228.922 457.277C228.654 457.117 228.323 457.036 227.93 457.036C227.457 457.036 227.055 457.179 226.724 457.465C226.402 457.742 226.179 458.117 226.054 458.591H229.767ZM240.275 463.028C239.364 463.028 238.524 462.809 237.755 462.371C236.987 461.933 236.375 461.334 235.919 460.575C235.472 459.806 235.249 458.953 235.249 458.015C235.249 457.076 235.472 456.228 235.919 455.468C236.375 454.7 236.987 454.096 237.755 453.659C238.524 453.221 239.364 453.002 240.275 453.002C240.999 453.002 241.674 453.131 242.299 453.39C242.925 453.65 243.447 454.011 243.867 454.476L242.822 455.522C242.509 455.173 242.134 454.905 241.696 454.717C241.267 454.53 240.789 454.436 240.262 454.436C239.645 454.436 239.069 454.583 238.533 454.878C237.996 455.173 237.568 455.593 237.246 456.138C236.924 456.683 236.763 457.309 236.763 458.015C236.763 458.721 236.924 459.346 237.246 459.891C237.568 460.436 237.996 460.856 238.533 461.151C239.069 461.446 239.65 461.593 240.275 461.593C240.847 461.593 241.325 461.509 241.709 461.339C242.093 461.169 242.438 460.941 242.741 460.655C242.938 460.459 243.103 460.213 243.237 459.918C243.38 459.623 243.474 459.301 243.519 458.953H240.262V457.613H244.939C244.984 457.863 245.007 458.122 245.007 458.39C245.007 458.998 244.913 459.583 244.725 460.146C244.537 460.7 244.238 461.182 243.827 461.593C242.925 462.55 241.741 463.028 240.275 463.028ZM249.636 463.028C248.948 463.028 248.332 462.871 247.786 462.558C247.241 462.237 246.817 461.799 246.513 461.245C246.209 460.691 246.057 460.074 246.057 459.395C246.057 458.716 246.209 458.1 246.513 457.546C246.817 456.992 247.241 456.558 247.786 456.245C248.332 455.924 248.948 455.763 249.636 455.763C250.324 455.763 250.941 455.924 251.486 456.245C252.031 456.567 252.455 457.005 252.759 457.559C253.063 458.113 253.215 458.725 253.215 459.395C253.215 460.074 253.063 460.691 252.759 461.245C252.455 461.799 252.031 462.237 251.486 462.558C250.941 462.871 250.324 463.028 249.636 463.028ZM249.636 461.674C250.011 461.674 250.36 461.584 250.682 461.406C251.003 461.218 251.258 460.954 251.446 460.615C251.642 460.266 251.741 459.86 251.741 459.395C251.741 458.931 251.642 458.528 251.446 458.189C251.258 457.849 251.003 457.59 250.682 457.412C250.36 457.224 250.011 457.13 249.636 457.13C249.261 457.13 248.912 457.224 248.591 457.412C248.269 457.59 248.01 457.849 247.813 458.189C247.626 458.528 247.532 458.931 247.532 459.395C247.532 459.86 247.626 460.266 247.813 460.615C248.01 460.954 248.269 461.218 248.591 461.406C248.912 461.584 249.261 461.674 249.636 461.674Z" fill="white"/>
<defs>
<clipPath id="clip0">
<rect width="33.0094" height="29.0082" fill="white" transform="translate(278.987 44.8794)"/>
</clipPath>
</defs>
</svg>
