<svg width="657" height="549" viewBox="0 0 657 549" fill="none" xmlns="http://www.w3.org/2000/svg">
<path d="M614.982 251.488C638.132 228.333 638.132 190.792 614.982 167.637C591.833 144.482 554.3 144.482 531.15 167.637C508.001 190.792 508.001 228.333 531.15 251.488C554.3 274.643 591.833 274.643 614.982 251.488Z" fill="#36A9E1" fill-opacity="0.33"/>
<path d="M587.092 192.142C587.092 190.271 585.765 188.706 584.008 188.33C584.71 187.157 585.141 185.802 585.141 184.338C585.141 180.035 581.641 176.535 577.338 176.535C574.38 176.535 571.833 178.207 570.51 180.64C569.187 178.207 566.64 176.535 563.682 176.535C559.379 176.535 555.879 180.035 555.879 184.338C555.879 186.098 556.488 187.706 557.473 189.013C556.98 189.373 556.579 189.843 556.302 190.387C556.026 190.931 555.88 191.532 555.879 192.142V207.748C555.879 209.9 557.629 211.65 559.781 211.65H583.19C585.342 211.65 587.092 209.9 587.092 207.748V202.604L594.895 206.505V192.85L587.092 196.751V192.142ZM577.338 180.437C579.49 180.437 581.239 182.187 581.239 184.338C581.239 186.49 579.49 188.24 577.338 188.24C575.186 188.24 573.436 186.49 573.436 184.338C573.436 182.187 575.186 180.437 577.338 180.437ZM563.682 180.437C565.834 180.437 567.584 182.187 567.584 184.338C567.584 186.49 565.834 188.24 563.682 188.24C561.53 188.24 559.781 186.49 559.781 184.338C559.781 182.187 561.53 180.437 563.682 180.437Z" fill="#36A9E1"/>
<path d="M544.807 225.719H547.722L551.673 236.133H551.788L555.739 225.719H558.654V239.451H556.525V231.76L556.641 229.286H556.525L552.594 239.451H550.868L546.936 229.286H546.821L546.936 231.76V239.451H544.807V225.719ZM566.033 239.758C565.049 239.758 564.167 239.534 563.387 239.087C562.607 238.626 561.999 238 561.565 237.207C561.13 236.414 560.912 235.532 560.912 234.561C560.912 233.589 561.13 232.707 561.565 231.914C561.999 231.121 562.607 230.501 563.387 230.053C564.167 229.593 565.049 229.363 566.033 229.363C567.018 229.363 567.9 229.593 568.68 230.053C569.46 230.514 570.067 231.14 570.502 231.933C570.937 232.726 571.154 233.602 571.154 234.561C571.154 235.532 570.937 236.414 570.502 237.207C570.067 238 569.46 238.626 568.68 239.087C567.9 239.534 567.018 239.758 566.033 239.758ZM566.033 237.821C566.57 237.821 567.069 237.693 567.529 237.437C567.99 237.169 568.354 236.792 568.622 236.306C568.904 235.807 569.044 235.225 569.044 234.561C569.044 233.896 568.904 233.32 568.622 232.834C568.354 232.349 567.99 231.978 567.529 231.722C567.069 231.454 566.57 231.319 566.033 231.319C565.496 231.319 564.998 231.454 564.537 231.722C564.077 231.978 563.706 232.349 563.425 232.834C563.156 233.32 563.022 233.896 563.022 234.561C563.022 235.225 563.156 235.807 563.425 236.306C563.706 236.792 564.077 237.169 564.537 237.437C564.998 237.693 565.496 237.821 566.033 237.821ZM571.725 229.67H574.084L576.788 236.728H576.865L579.627 229.67H581.928L577.862 239.451H575.753L571.725 229.67ZM584.496 228.251C584.1 228.251 583.761 228.116 583.48 227.848C583.211 227.567 583.077 227.228 583.077 226.831C583.077 226.435 583.211 226.103 583.48 225.834C583.761 225.553 584.1 225.412 584.496 225.412C584.893 225.412 585.225 225.553 585.494 225.834C585.775 226.103 585.916 226.435 585.916 226.831C585.916 227.228 585.775 227.567 585.494 227.848C585.225 228.116 584.893 228.251 584.496 228.251ZM583.442 229.67H585.551V239.451H583.442V229.67ZM592.552 239.758C591.593 239.758 590.73 239.534 589.962 239.087C589.208 238.639 588.614 238.026 588.179 237.246C587.757 236.453 587.546 235.564 587.546 234.58C587.546 233.646 587.75 232.783 588.16 231.991C588.582 231.185 589.163 230.546 589.905 230.073C590.646 229.6 591.49 229.363 592.437 229.363C593.421 229.363 594.271 229.58 594.987 230.015C595.716 230.45 596.266 231.044 596.637 231.799C597.02 232.553 597.212 233.403 597.212 234.35C597.212 234.529 597.193 234.752 597.155 235.021H589.656C589.732 235.929 590.052 236.632 590.615 237.131C591.19 237.616 591.855 237.859 592.609 237.859C593.21 237.859 593.728 237.725 594.163 237.457C594.61 237.175 594.968 236.798 595.237 236.325L597.02 237.169C596.56 237.974 595.959 238.607 595.217 239.068C594.476 239.528 593.587 239.758 592.552 239.758ZM595.064 233.41C595.038 233.065 594.93 232.726 594.738 232.393C594.546 232.048 594.252 231.76 593.856 231.53C593.472 231.3 592.999 231.185 592.437 231.185C591.759 231.185 591.183 231.39 590.71 231.799C590.25 232.195 589.93 232.732 589.751 233.41H595.064ZM602.794 239.758C601.669 239.758 600.748 239.515 600.032 239.029C599.316 238.531 598.811 237.898 598.517 237.131L600.397 236.306C600.627 236.817 600.947 237.207 601.356 237.476C601.778 237.744 602.257 237.878 602.794 237.878C603.318 237.878 603.76 237.789 604.118 237.61C604.476 237.418 604.655 237.137 604.655 236.766C604.655 236.408 604.501 236.127 604.194 235.922C603.887 235.718 603.414 235.539 602.775 235.385L601.605 235.098C600.825 234.906 600.18 234.567 599.668 234.081C599.157 233.595 598.901 232.981 598.901 232.24C598.901 231.664 599.067 231.159 599.4 230.725C599.745 230.29 600.205 229.958 600.78 229.727C601.356 229.484 601.982 229.363 602.66 229.363C603.568 229.363 604.367 229.548 605.057 229.919C605.748 230.277 606.246 230.801 606.553 231.492L604.712 232.297C604.341 231.543 603.664 231.166 602.679 231.166C602.206 231.166 601.81 231.262 601.49 231.454C601.17 231.645 601.011 231.895 601.011 232.201C601.011 232.496 601.132 232.739 601.375 232.93C601.618 233.109 601.976 233.263 602.449 233.391L603.887 233.755C604.846 233.998 605.569 234.369 606.055 234.867C606.553 235.353 606.803 235.954 606.803 236.67C606.803 237.284 606.624 237.827 606.266 238.3C605.92 238.761 605.441 239.119 604.827 239.374C604.213 239.63 603.536 239.758 602.794 239.758Z" fill="#1A1A1A"/>
<path d="M341.337 140.043C367.113 114.262 367.113 72.4624 341.337 46.6811C315.562 20.8999 273.771 20.8998 247.996 46.6811C222.22 72.4624 222.22 114.262 247.996 140.043C273.771 165.825 315.562 165.825 341.337 140.043Z" fill="#D60B52" fill-opacity="0.12"/>
<g clip-path="url(#clip0)">
<path d="M276.914 89.9965C276.914 91.1459 277.763 92.0781 278.809 92.0781H312.919C313.965 92.0781 314.814 91.1459 314.814 89.9965V69.1803H276.914V89.9965ZM303.444 76.466C303.444 75.8909 303.868 75.4251 304.391 75.4251H310.076C310.6 75.4251 311.024 75.8909 311.024 76.466V78.5476C311.024 79.1226 310.6 79.5884 310.076 79.5884H304.391C303.868 79.5884 303.444 79.1226 303.444 78.5476V76.466ZM303.444 84.272C303.444 83.9845 303.656 83.7516 303.918 83.7516H310.55C310.812 83.7516 311.024 83.9845 311.024 84.272V85.3128C311.024 85.6004 310.812 85.8332 310.55 85.8332H303.918C303.656 85.8332 303.444 85.6004 303.444 85.3128V84.272ZM280.704 78.0272C280.704 77.7396 280.916 77.5068 281.178 77.5068H299.18C299.442 77.5068 299.654 77.7396 299.654 78.0272V79.068C299.654 79.3555 299.442 79.5884 299.18 79.5884H281.178C280.916 79.5884 280.704 79.3555 280.704 79.068V78.0272ZM280.704 84.272C280.704 83.9845 280.916 83.7516 281.178 83.7516H291.6C291.862 83.7516 292.074 83.9845 292.074 84.272V85.3128C292.074 85.6004 291.862 85.8332 291.6 85.8332H281.178C280.916 85.8332 280.704 85.6004 280.704 85.3128V84.272ZM313.866 62.9354H277.862C277.338 62.9354 276.914 63.4012 276.914 63.9762V67.0987H314.814V63.9762C314.814 63.4012 314.39 62.9354 313.866 62.9354Z" fill="#D60B52"/>
</g>
<path d="M243.096 107.247H245.453L248.647 115.666H248.74L251.934 107.247H254.29V118.348H252.569V112.131L252.662 110.13H252.569L249.391 118.348H247.996L244.817 110.13H244.724L244.817 112.131V118.348H243.096V107.247ZM260.256 118.596C259.46 118.596 258.746 118.415 258.116 118.053C257.485 117.681 256.994 117.175 256.643 116.534C256.292 115.893 256.116 115.18 256.116 114.394C256.116 113.609 256.292 112.895 256.643 112.255C256.994 111.614 257.485 111.112 258.116 110.751C258.746 110.379 259.46 110.192 260.256 110.192C261.051 110.192 261.765 110.379 262.395 110.751C263.026 111.123 263.517 111.629 263.868 112.27C264.22 112.911 264.395 113.619 264.395 114.394C264.395 115.18 264.22 115.893 263.868 116.534C263.517 117.175 263.026 117.681 262.395 118.053C261.765 118.415 261.051 118.596 260.256 118.596ZM260.256 117.03C260.69 117.03 261.093 116.927 261.465 116.72C261.837 116.503 262.132 116.198 262.349 115.805C262.576 115.402 262.69 114.932 262.69 114.394C262.69 113.857 262.576 113.392 262.349 112.999C262.132 112.606 261.837 112.306 261.465 112.1C261.093 111.882 260.69 111.774 260.256 111.774C259.821 111.774 259.418 111.882 259.046 112.1C258.674 112.306 258.374 112.606 258.147 112.999C257.93 113.392 257.821 113.857 257.821 114.394C257.821 114.932 257.93 115.402 258.147 115.805C258.374 116.198 258.674 116.503 259.046 116.72C259.418 116.927 259.821 117.03 260.256 117.03ZM265.816 110.441H267.444V111.479H267.522C267.749 111.107 268.085 110.802 268.53 110.565C268.984 110.317 269.465 110.192 269.972 110.192C270.933 110.192 271.662 110.477 272.158 111.045C272.664 111.603 272.917 112.368 272.917 113.34V118.348H271.212V113.572C271.212 112.952 271.057 112.497 270.747 112.208C270.447 111.919 270.028 111.774 269.491 111.774C269.108 111.774 268.767 111.882 268.468 112.1C268.168 112.306 267.935 112.585 267.77 112.937C267.605 113.288 267.522 113.665 267.522 114.069V118.348H265.816V110.441ZM278.453 118.596C277.678 118.596 276.98 118.415 276.36 118.053C275.75 117.691 275.269 117.195 274.918 116.565C274.577 115.924 274.406 115.206 274.406 114.41C274.406 113.655 274.572 112.957 274.902 112.317C275.244 111.665 275.714 111.149 276.313 110.766C276.913 110.384 277.595 110.192 278.36 110.192C279.156 110.192 279.843 110.368 280.422 110.72C281.011 111.071 281.456 111.552 281.755 112.162C282.066 112.771 282.221 113.459 282.221 114.224C282.221 114.368 282.205 114.549 282.174 114.766H276.112C276.174 115.5 276.432 116.069 276.887 116.472C277.352 116.865 277.89 117.061 278.5 117.061C278.985 117.061 279.404 116.952 279.755 116.735C280.117 116.508 280.407 116.203 280.624 115.821L282.066 116.503C281.693 117.154 281.208 117.666 280.608 118.038C280.009 118.41 279.29 118.596 278.453 118.596ZM280.484 113.464C280.463 113.185 280.376 112.911 280.221 112.642C280.065 112.363 279.828 112.131 279.507 111.944C279.197 111.758 278.815 111.665 278.36 111.665C277.812 111.665 277.347 111.831 276.965 112.162C276.592 112.482 276.334 112.916 276.189 113.464H280.484ZM286.041 117.914L282.754 110.441H284.661L286.894 115.821H286.956L289.126 110.441H291.002L286.119 121.697H284.32L286.041 117.914ZM296.029 107.247H298.386L301.58 115.666H301.673L304.867 107.247H307.224V118.348H305.503V112.131L305.596 110.13H305.503L302.324 118.348H300.929L297.75 110.13H297.657L297.75 112.131V118.348H296.029V107.247ZM311.737 118.596C311.168 118.596 310.662 118.487 310.217 118.27C309.773 118.043 309.427 117.728 309.179 117.325C308.931 116.911 308.807 116.446 308.807 115.929C308.807 115.113 309.111 114.467 309.721 113.991C310.341 113.516 311.122 113.278 312.062 113.278C312.528 113.278 312.946 113.324 313.318 113.417C313.69 113.5 313.985 113.593 314.202 113.696V113.293C314.202 112.808 314.021 112.415 313.659 112.115C313.298 111.805 312.833 111.65 312.264 111.65C311.861 111.65 311.478 111.738 311.117 111.913C310.765 112.089 310.481 112.332 310.264 112.642L309.07 111.727C309.422 111.242 309.876 110.864 310.435 110.596C310.993 110.327 311.613 110.192 312.295 110.192C313.442 110.192 314.326 110.477 314.946 111.045C315.566 111.603 315.877 112.394 315.877 113.417V118.348H314.202V117.402H314.125C313.897 117.743 313.577 118.027 313.163 118.255C312.75 118.482 312.274 118.596 311.737 118.596ZM312.031 117.185C312.445 117.185 312.817 117.087 313.148 116.89C313.479 116.694 313.737 116.43 313.923 116.1C314.109 115.769 314.202 115.412 314.202 115.03C313.964 114.896 313.685 114.787 313.365 114.704C313.055 114.622 312.729 114.58 312.388 114.58C311.747 114.58 311.277 114.709 310.977 114.968C310.677 115.216 310.528 115.542 310.528 115.945C310.528 116.306 310.667 116.606 310.946 116.844C311.225 117.071 311.587 117.185 312.031 117.185ZM320.824 118.472C320.473 118.472 320.142 118.415 319.832 118.301C319.522 118.188 319.269 118.038 319.072 117.852C318.628 117.407 318.406 116.803 318.406 116.038V111.944H317.026V110.441H318.406V108.208H320.111V110.441H323.444V108.208H325.15V110.441H327.073V111.944H325.15V115.666C325.15 116.089 325.233 116.389 325.398 116.565C325.553 116.772 325.822 116.875 326.204 116.875C326.38 116.875 326.535 116.854 326.669 116.813C326.804 116.761 326.948 116.684 327.104 116.58V118.239C326.752 118.394 326.339 118.472 325.863 118.472C325.512 118.472 325.181 118.415 324.871 118.301C324.561 118.188 324.308 118.038 324.111 117.852C323.667 117.407 323.444 116.803 323.444 116.038V111.944H320.111V115.666C320.111 116.089 320.194 116.389 320.359 116.565C320.514 116.772 320.778 116.875 321.15 116.875C321.419 116.875 321.692 116.787 321.972 116.611V118.27C321.806 118.343 321.636 118.394 321.46 118.425C321.295 118.456 321.083 118.472 320.824 118.472ZM332.007 118.596C331.232 118.596 330.534 118.415 329.914 118.053C329.304 117.691 328.823 117.195 328.472 116.565C328.131 115.924 327.96 115.206 327.96 114.41C327.96 113.655 328.126 112.957 328.457 112.317C328.798 111.665 329.268 111.149 329.867 110.766C330.467 110.384 331.149 110.192 331.914 110.192C332.71 110.192 333.397 110.368 333.976 110.72C334.565 111.071 335.01 111.552 335.31 112.162C335.62 112.771 335.775 113.459 335.775 114.224C335.775 114.368 335.759 114.549 335.728 114.766H329.666C329.728 115.5 329.986 116.069 330.441 116.472C330.906 116.865 331.444 117.061 332.054 117.061C332.539 117.061 332.958 116.952 333.309 116.735C333.671 116.508 333.961 116.203 334.178 115.821L335.62 116.503C335.248 117.154 334.762 117.666 334.162 118.038C333.563 118.41 332.844 118.596 332.007 118.596ZM334.038 113.464C334.017 113.185 333.93 112.911 333.775 112.642C333.62 112.363 333.382 112.131 333.061 111.944C332.751 111.758 332.369 111.665 331.914 111.665C331.366 111.665 330.901 111.831 330.519 112.162C330.147 112.482 329.888 112.916 329.743 113.464H334.038ZM337.328 110.441H338.956V111.603H339.033C339.209 111.2 339.514 110.87 339.948 110.611C340.382 110.342 340.842 110.208 341.328 110.208C341.71 110.208 342.031 110.26 342.289 110.363V112.131C341.834 111.965 341.426 111.882 341.064 111.882C340.672 111.882 340.32 111.986 340.01 112.193C339.71 112.399 339.473 112.678 339.297 113.03C339.121 113.371 339.033 113.748 339.033 114.162V118.348H337.328V110.441ZM346.177 118.596C345.268 118.596 344.523 118.4 343.945 118.007C343.366 117.604 342.957 117.092 342.72 116.472L344.239 115.805C344.425 116.219 344.684 116.534 345.014 116.751C345.355 116.968 345.743 117.076 346.177 117.076C346.601 117.076 346.958 117.004 347.247 116.859C347.536 116.704 347.681 116.477 347.681 116.177C347.681 115.888 347.557 115.66 347.309 115.495C347.061 115.33 346.679 115.185 346.162 115.061L345.216 114.828C344.585 114.673 344.063 114.399 343.65 114.007C343.237 113.614 343.03 113.118 343.03 112.518C343.03 112.053 343.164 111.645 343.433 111.293C343.712 110.942 344.084 110.673 344.549 110.487C345.014 110.291 345.521 110.192 346.069 110.192C346.803 110.192 347.449 110.342 348.007 110.642C348.565 110.932 348.968 111.355 349.216 111.913L347.728 112.565C347.428 111.955 346.88 111.65 346.084 111.65C345.702 111.65 345.381 111.727 345.123 111.882C344.864 112.038 344.735 112.239 344.735 112.487C344.735 112.725 344.833 112.921 345.03 113.076C345.226 113.221 345.516 113.345 345.898 113.448L347.061 113.743C347.836 113.939 348.42 114.239 348.813 114.642C349.216 115.035 349.418 115.521 349.418 116.1C349.418 116.596 349.273 117.035 348.984 117.418C348.704 117.79 348.317 118.079 347.821 118.286C347.325 118.493 346.777 118.596 346.177 118.596Z" fill="#1A1A1A"/>
<path d="M480.168 153.749C513.559 153.749 540.628 126.68 540.628 93.289C540.628 59.8979 513.559 32.8292 480.168 32.8292C446.777 32.8292 419.708 59.8979 419.708 93.289C419.708 126.68 446.777 153.749 480.168 153.749Z" fill="#95C11F" fill-opacity="0.35"/>
<path d="M498.239 63.4598C497.935 63.3875 497.615 63.4265 497.338 63.5699L495.363 64.5561L493.371 63.5602C493.192 63.471 492.996 63.4246 492.796 63.4246C492.597 63.4246 492.4 63.471 492.221 63.5602L490.205 64.5569L488.214 63.5602C488.035 63.4704 487.838 63.4236 487.638 63.4236C487.437 63.4236 487.24 63.4704 487.061 63.5602L485.082 64.5537L483.118 63.5626C482.94 63.4721 482.743 63.4246 482.543 63.4238C482.343 63.4229 482.145 63.4688 481.966 63.5578L479.942 64.5577L477.95 63.5594C477.771 63.4702 477.574 63.4238 477.375 63.4238C477.175 63.4238 476.978 63.4702 476.799 63.5594L474.802 64.5561L472.807 63.5594C472.549 63.4305 472.256 63.3916 471.974 63.449C471.692 63.5063 471.438 63.6567 471.252 63.8759C471.051 64.1152 470.942 64.4188 470.946 64.7312V83.9847L470.95 83.9887H486.367C487.049 83.9887 487.702 84.2595 488.184 84.7414C488.666 85.2234 488.937 85.8772 488.937 86.5588V94.9077C488.937 97.3919 491.593 99.4054 494.077 99.4054H495.041C496.149 99.4054 497.211 98.9654 497.994 98.1821C498.778 97.3989 499.218 96.3366 499.218 95.2289V64.7087C499.218 64.4211 499.122 64.1417 498.944 63.9153C498.767 63.6889 498.519 63.5285 498.239 63.4598ZM492.792 80.1295H482.552C481.858 80.1295 481.259 79.5962 481.228 78.9022C481.221 78.7288 481.248 78.5556 481.309 78.3931C481.37 78.2305 481.463 78.082 481.583 77.9565C481.703 77.831 481.847 77.7311 482.007 77.6629C482.167 77.5946 482.338 77.5594 482.512 77.5594H492.752C493.446 77.5594 494.045 78.0927 494.076 78.7866C494.084 78.96 494.056 79.1332 493.995 79.2958C493.934 79.4583 493.841 79.6068 493.721 79.7323C493.601 79.8578 493.457 79.9577 493.297 80.026C493.138 80.0942 492.966 80.1294 492.792 80.1295ZM492.792 73.7042H477.412C476.718 73.7042 476.119 73.1709 476.088 72.4769C476.08 72.3035 476.108 72.1303 476.169 71.9678C476.23 71.8052 476.323 71.6567 476.443 71.5312C476.563 71.4057 476.707 71.3058 476.867 71.2376C477.026 71.1693 477.198 71.1341 477.372 71.134H492.752C493.446 71.134 494.045 71.6673 494.076 72.3613C494.084 72.5347 494.056 72.7079 493.995 72.8705C493.934 73.033 493.841 73.1815 493.721 73.307C493.601 73.4325 493.457 73.5324 493.297 73.6006C493.138 73.6689 492.966 73.7041 492.792 73.7042Z" fill="#95C11F"/>
<path d="M486.367 94.9077V87.8399C486.367 87.4991 486.232 87.1722 485.991 86.9312C485.75 86.6902 485.423 86.5548 485.082 86.5548H463.236C462.554 86.5569 461.901 86.8289 461.42 87.3113C460.938 87.7937 460.667 88.4473 460.666 89.1289C460.666 93.1889 461.13 94.8772 461.827 96.1623C463.01 98.3444 465.152 99.4054 468.376 99.4054H488.109C488.172 99.4055 488.234 99.3868 488.287 99.3517C488.339 99.3166 488.381 99.2667 488.405 99.2082C488.43 99.1497 488.436 99.0853 488.424 99.0231C488.412 98.9609 488.382 98.9036 488.337 98.8585C487.578 98.0963 486.367 97.0763 486.367 94.9077Z" fill="#95C11F"/>
<path d="M456.959 113.871H460.875C461.429 113.871 461.938 113.993 462.404 114.235C462.88 114.478 463.258 114.813 463.54 115.24C463.821 115.667 463.962 116.138 463.962 116.652C463.962 117.166 463.831 117.613 463.569 117.991C463.316 118.37 462.982 118.656 462.564 118.85V118.937C463.088 119.122 463.51 119.428 463.831 119.855C464.161 120.282 464.326 120.781 464.326 121.354C464.326 121.927 464.175 122.436 463.874 122.883C463.583 123.329 463.185 123.679 462.681 123.931C462.186 124.173 461.642 124.295 461.05 124.295H456.959V113.871ZM460.803 118.239C461.269 118.239 461.642 118.093 461.924 117.802C462.215 117.511 462.36 117.176 462.36 116.797C462.36 116.419 462.22 116.089 461.938 115.808C461.666 115.516 461.307 115.371 460.861 115.371H458.59V118.239H460.803ZM461.05 122.781C461.545 122.781 461.938 122.625 462.229 122.315C462.53 122.004 462.681 121.645 462.681 121.238C462.681 120.82 462.525 120.461 462.215 120.16C461.914 119.85 461.506 119.694 460.992 119.694H458.59V122.781H461.05ZM466.756 115.793C466.455 115.793 466.198 115.691 465.984 115.487C465.78 115.274 465.679 115.017 465.679 114.716C465.679 114.415 465.78 114.162 465.984 113.959C466.198 113.745 466.455 113.638 466.756 113.638C467.057 113.638 467.309 113.745 467.513 113.959C467.726 114.162 467.833 114.415 467.833 114.716C467.833 115.017 467.726 115.274 467.513 115.487C467.309 115.691 467.057 115.793 466.756 115.793ZM465.955 116.87H467.557V124.295H465.955V116.87ZM469.549 113.871H471.151V124.295H469.549V113.871ZM473.032 113.871H474.634V124.295H473.032V113.871ZM479.869 116.87H481.398V117.846H481.471C481.684 117.506 482 117.22 482.417 116.987C482.834 116.754 483.305 116.637 483.829 116.637C484.499 116.637 485.105 116.807 485.649 117.147C486.192 117.487 486.619 117.957 486.93 118.559C487.25 119.151 487.41 119.826 487.41 120.583C487.41 121.34 487.25 122.019 486.93 122.621C486.619 123.213 486.192 123.679 485.649 124.018C485.105 124.358 484.499 124.528 483.829 124.528C483.305 124.528 482.834 124.411 482.417 124.178C482 123.945 481.684 123.664 481.471 123.334H481.398L481.471 124.368V127.439H479.869V116.87ZM483.596 123.057C483.984 123.057 484.348 122.955 484.688 122.752C485.028 122.548 485.299 122.257 485.503 121.878C485.707 121.5 485.809 121.068 485.809 120.583C485.809 120.097 485.707 119.67 485.503 119.301C485.299 118.923 485.028 118.632 484.688 118.428C484.348 118.224 483.984 118.122 483.596 118.122C483.208 118.122 482.844 118.224 482.504 118.428C482.174 118.632 481.907 118.923 481.704 119.301C481.5 119.67 481.398 120.097 481.398 120.583C481.398 121.068 481.5 121.5 481.704 121.878C481.907 122.257 482.174 122.548 482.504 122.752C482.844 122.955 483.208 123.057 483.596 123.057ZM491.199 124.528C490.665 124.528 490.19 124.426 489.772 124.222C489.355 124.008 489.03 123.712 488.797 123.334C488.564 122.946 488.448 122.509 488.448 122.024C488.448 121.257 488.734 120.65 489.307 120.204C489.889 119.758 490.622 119.534 491.505 119.534C491.942 119.534 492.335 119.578 492.684 119.665C493.033 119.743 493.31 119.83 493.514 119.927V119.549C493.514 119.093 493.344 118.724 493.004 118.443C492.665 118.151 492.228 118.006 491.694 118.006C491.316 118.006 490.956 118.088 490.617 118.253C490.287 118.418 490.02 118.646 489.816 118.937L488.695 118.079C489.025 117.622 489.452 117.268 489.976 117.016C490.5 116.763 491.083 116.637 491.723 116.637C492.8 116.637 493.63 116.904 494.213 117.438C494.795 117.962 495.086 118.705 495.086 119.665V124.295H493.514V123.407H493.441C493.227 123.727 492.927 123.994 492.538 124.207C492.15 124.421 491.704 124.528 491.199 124.528ZM491.476 123.203C491.864 123.203 492.213 123.111 492.524 122.926C492.834 122.742 493.077 122.494 493.252 122.184C493.426 121.873 493.514 121.538 493.514 121.179C493.291 121.053 493.029 120.951 492.728 120.874C492.436 120.796 492.131 120.757 491.81 120.757C491.209 120.757 490.767 120.879 490.486 121.121C490.204 121.354 490.064 121.66 490.064 122.038C490.064 122.378 490.195 122.659 490.457 122.883C490.719 123.096 491.058 123.203 491.476 123.203ZM498.96 123.887L495.874 116.87H497.664L499.761 121.922H499.819L501.857 116.87H503.619L499.033 127.439H497.344L498.96 123.887Z" fill="#1A1A1A"/>
<path d="M151.745 378.486C179.069 351.156 179.069 306.846 151.745 279.516C124.422 252.186 80.1211 252.186 52.7973 279.516C25.4735 306.846 25.4735 351.156 52.7973 378.486C80.121 405.816 124.422 405.816 151.745 378.486Z" fill="#00983A" fill-opacity="0.26"/>
<path d="M118.363 302.092L112.955 296.257C111.881 295.096 110.423 294.443 108.903 294.442H96.7865C95.2664 294.443 93.8091 295.096 92.7349 296.257L87.3263 302.092C86.2508 303.251 85.6459 304.824 85.6445 306.464V325.372C85.6445 327.013 86.2486 328.586 87.3238 329.747C88.399 330.907 89.8574 331.558 91.378 331.558H114.312C115.832 331.558 117.291 330.907 118.366 329.747C119.441 328.586 120.045 327.013 120.045 325.372V306.464C120.044 304.824 119.439 303.251 118.363 302.092ZM102.845 321.248C100.817 321.248 98.8729 320.379 97.4393 318.832C96.0056 317.286 95.2002 315.188 95.2002 313C95.2002 312.453 95.4016 311.929 95.76 311.542C96.1184 311.155 96.6045 310.938 97.1114 310.938C97.6182 310.938 98.1043 311.155 98.4628 311.542C98.8212 311.929 99.0225 312.453 99.0225 313C99.0225 314.094 99.4252 315.143 100.142 315.916C100.859 316.69 101.831 317.124 102.845 317.124C103.859 317.124 104.831 316.69 105.548 315.916C106.264 315.143 106.667 314.094 106.667 313C106.667 312.453 106.868 311.929 107.227 311.542C107.585 311.155 108.071 310.938 108.578 310.938C109.085 310.938 109.571 311.155 109.93 311.542C110.288 311.929 110.489 312.453 110.489 313C110.489 315.188 109.684 317.286 108.25 318.832C106.817 320.379 104.872 321.248 102.845 321.248ZM92.1615 302.69L95.4296 299.164C95.7958 298.787 96.2805 298.574 96.7865 298.566H108.903C109.409 298.574 109.894 298.787 110.26 299.164L113.528 302.69H92.1615Z" fill="#00983A"/>
<path d="M60.7566 358.843C59.5849 358.843 58.5147 358.567 57.5458 358.015C56.577 357.463 55.8166 356.702 55.2645 355.734C54.7125 354.765 54.4365 353.695 54.4365 352.523C54.4365 351.351 54.7125 350.281 55.2645 349.312C55.8166 348.343 56.577 347.583 57.5458 347.031C58.5147 346.479 59.5849 346.203 60.7566 346.203C61.6691 346.203 62.4971 346.372 63.2406 346.71C63.9954 347.048 64.6601 347.538 65.2347 348.18L63.8828 349.481C63.466 348.985 63.0041 348.619 62.4971 348.383C61.9901 348.135 61.41 348.011 60.7566 348.011C59.9454 348.011 59.2019 348.197 58.526 348.569C57.8613 348.94 57.3318 349.47 56.9375 350.157C56.5432 350.833 56.346 351.622 56.346 352.523C56.346 353.424 56.5432 354.218 56.9375 354.906C57.3318 355.582 57.8613 356.105 58.526 356.477C59.2019 356.849 59.9454 357.035 60.7566 357.035C62.1084 357.035 63.2575 356.472 64.2039 355.345L65.5726 356.663C64.9868 357.35 64.2827 357.885 63.4603 358.268C62.6379 358.651 61.7367 358.843 60.7566 358.843ZM67.2165 346.473H69.0754V358.573H67.2165V346.473ZM72.3242 348.704C71.975 348.704 71.6765 348.586 71.4286 348.349C71.192 348.101 71.0738 347.803 71.0738 347.453C71.0738 347.104 71.192 346.811 71.4286 346.575C71.6765 346.327 71.975 346.203 72.3242 346.203C72.6735 346.203 72.9664 346.327 73.203 346.575C73.4508 346.811 73.5747 347.104 73.5747 347.453C73.5747 347.803 73.4508 348.101 73.203 348.349C72.9664 348.586 72.6735 348.704 72.3242 348.704ZM71.3948 349.954H73.2537V358.573H71.3948V349.954ZM79.4723 358.843C78.6161 358.843 77.8444 358.646 77.1572 358.251C76.4813 357.857 75.9518 357.316 75.5688 356.629C75.197 355.931 75.0111 355.142 75.0111 354.263C75.0111 353.385 75.197 352.602 75.5688 351.915C75.9518 351.216 76.4813 350.67 77.1572 350.275C77.8444 349.881 78.6161 349.684 79.4723 349.684C80.4186 349.684 81.2241 349.898 81.8888 350.326C82.5535 350.754 83.0266 351.334 83.3083 352.067L81.6015 352.776C81.2185 351.864 80.4919 351.408 79.4216 351.408C78.9597 351.408 78.5316 351.526 78.1373 351.762C77.7543 351.999 77.4445 352.337 77.2079 352.776C76.9826 353.204 76.8699 353.7 76.8699 354.263C76.8699 354.827 76.9826 355.328 77.2079 355.767C77.4445 356.207 77.7543 356.545 78.1373 356.781C78.5316 357.018 78.9597 357.136 79.4216 357.136C79.9624 357.136 80.4243 357.018 80.8073 356.781C81.2016 356.533 81.5001 356.184 81.7029 355.734L83.3759 356.46C83.0492 357.193 82.5535 357.773 81.8888 358.201C81.2241 358.629 80.4186 358.843 79.4723 358.843ZM84.9567 346.473H86.8155V353.52H86.8662L90.398 349.954H92.73V350.056L89.3841 353.385L92.8314 358.471V358.573H90.6177L88.0829 354.669L86.8155 355.903V358.573H84.9567V346.473ZM105.937 356.291L107.137 357.795L105.768 358.843L104.906 357.761C104.118 358.482 103.171 358.843 102.067 358.843C101.245 358.843 100.49 358.657 99.8029 358.285C99.127 357.914 98.5919 357.407 98.1976 356.764C97.8033 356.111 97.6061 355.384 97.6061 354.585C97.6061 353.897 97.7864 353.238 98.1469 352.607C98.5074 351.977 98.9975 351.453 99.6171 351.036C99.0763 350.337 98.8059 349.69 98.8059 349.093C98.8059 348.563 98.9355 348.079 99.1946 347.639C99.465 347.189 99.8311 346.839 100.293 346.592C100.755 346.332 101.267 346.203 101.831 346.203C102.552 346.203 103.154 346.394 103.639 346.777C104.123 347.149 104.467 347.634 104.67 348.231L103.132 349.042C102.85 348.276 102.422 347.893 101.848 347.893C101.498 347.893 101.206 348 100.969 348.214C100.744 348.428 100.631 348.715 100.631 349.076C100.631 349.425 100.766 349.768 101.037 350.106L104.873 354.956L105.92 353.25L107.306 354.111L105.937 356.291ZM102.118 357.153C102.817 357.153 103.402 356.917 103.875 356.443L100.631 352.32C100.237 352.568 99.9269 352.895 99.7016 353.3C99.4762 353.695 99.3636 354.111 99.3636 354.551C99.3636 355.046 99.4875 355.497 99.7354 355.903C99.9832 356.297 100.316 356.607 100.732 356.832C101.16 357.046 101.622 357.153 102.118 357.153ZM116.136 358.843C115.134 358.843 114.233 358.55 113.433 357.964C112.633 357.378 112.081 356.556 111.777 355.497L113.568 354.77C113.748 355.435 114.064 355.981 114.514 356.41C114.976 356.826 115.528 357.035 116.17 357.035C116.767 357.035 117.274 356.883 117.691 356.579C118.108 356.263 118.316 355.835 118.316 355.294C118.316 354.799 118.13 354.393 117.759 354.078C117.398 353.751 116.762 353.424 115.849 353.097L115.089 352.827C114.278 352.545 113.596 352.14 113.044 351.61C112.492 351.081 112.216 350.382 112.216 349.515C112.216 348.918 112.379 348.366 112.706 347.859C113.033 347.352 113.483 346.952 114.058 346.659C114.644 346.355 115.303 346.203 116.035 346.203C117.094 346.203 117.939 346.462 118.57 346.98C119.201 347.487 119.623 348.062 119.837 348.704L118.13 349.43C118.007 349.047 117.77 348.709 117.421 348.417C117.071 348.124 116.621 347.977 116.069 347.977C115.517 347.977 115.049 348.118 114.666 348.4C114.294 348.681 114.109 349.042 114.109 349.481C114.109 349.898 114.278 350.242 114.616 350.512C114.954 350.782 115.483 351.041 116.204 351.289L116.964 351.543C118.001 351.903 118.801 352.376 119.364 352.962C119.939 353.537 120.226 354.309 120.226 355.277C120.226 356.066 120.023 356.731 119.618 357.271C119.212 357.801 118.694 358.195 118.063 358.454C117.443 358.713 116.801 358.843 116.136 358.843ZM122.087 346.473H123.946V349.768L123.862 351.087H123.946C124.194 350.681 124.56 350.349 125.044 350.09C125.54 349.819 126.07 349.684 126.633 349.684C127.681 349.684 128.48 349.994 129.032 350.613C129.585 351.222 129.861 352.055 129.861 353.114V358.573H128.002V353.368C128.002 352.714 127.827 352.224 127.478 351.898C127.14 351.571 126.695 351.408 126.143 351.408C125.726 351.408 125.349 351.526 125.011 351.762C124.684 351.999 124.425 352.314 124.233 352.709C124.042 353.092 123.946 353.503 123.946 353.942V358.573H122.087V346.473ZM136.011 358.843C135.143 358.843 134.366 358.646 133.679 358.251C132.992 357.846 132.457 357.294 132.074 356.595C131.691 355.897 131.499 355.12 131.499 354.263C131.499 353.407 131.691 352.63 132.074 351.931C132.457 351.233 132.992 350.687 133.679 350.292C134.366 349.887 135.143 349.684 136.011 349.684C136.878 349.684 137.656 349.887 138.343 350.292C139.03 350.698 139.565 351.25 139.948 351.948C140.331 352.647 140.523 353.419 140.523 354.263C140.523 355.12 140.331 355.897 139.948 356.595C139.565 357.294 139.03 357.846 138.343 358.251C137.656 358.646 136.878 358.843 136.011 358.843ZM136.011 357.136C136.484 357.136 136.923 357.024 137.329 356.798C137.735 356.562 138.056 356.229 138.292 355.801C138.54 355.362 138.664 354.849 138.664 354.263C138.664 353.678 138.54 353.171 138.292 352.743C138.056 352.314 137.735 351.988 137.329 351.762C136.923 351.526 136.484 351.408 136.011 351.408C135.538 351.408 135.098 351.526 134.693 351.762C134.287 351.988 133.961 352.314 133.713 352.743C133.476 353.171 133.358 353.678 133.358 354.263C133.358 354.849 133.476 355.362 133.713 355.801C133.961 356.229 134.287 356.562 134.693 356.798C135.098 357.024 135.538 357.136 136.011 357.136ZM142.087 349.954H143.861V351.087H143.945C144.193 350.692 144.559 350.36 145.044 350.09C145.528 349.819 146.075 349.684 146.683 349.684C147.46 349.684 148.164 349.881 148.795 350.275C149.426 350.67 149.922 351.216 150.282 351.915C150.654 352.602 150.84 353.385 150.84 354.263C150.84 355.142 150.654 355.931 150.282 356.629C149.922 357.316 149.426 357.857 148.795 358.251C148.164 358.646 147.46 358.843 146.683 358.843C146.075 358.843 145.528 358.708 145.044 358.437C144.559 358.167 144.193 357.84 143.945 357.457H143.861L143.945 358.657V362.223H142.087V349.954ZM146.413 357.136C146.863 357.136 147.286 357.018 147.68 356.781C148.074 356.545 148.39 356.207 148.626 355.767C148.863 355.328 148.981 354.827 148.981 354.263C148.981 353.7 148.863 353.204 148.626 352.776C148.39 352.337 148.074 351.999 147.68 351.762C147.286 351.526 146.863 351.408 146.413 351.408C145.962 351.408 145.54 351.526 145.145 351.762C144.762 351.999 144.452 352.337 144.216 352.776C143.979 353.204 143.861 353.7 143.861 354.263C143.861 354.827 143.979 355.328 144.216 355.767C144.452 356.207 144.762 356.545 145.145 356.781C145.54 357.018 145.962 357.136 146.413 357.136Z" fill="#1A1A1A"/>
<path d="M630.302 383.619C630.086 347.979 601.021 319.264 565.381 319.485C529.74 319.701 501.026 348.766 501.246 384.407C501.462 420.047 530.532 448.761 566.168 448.541C601.804 448.325 630.518 419.259 630.302 383.619Z" fill="#9A096A" fill-opacity="0.28"/>
<path d="M559.825 377.122C559.251 377.122 558.786 377.641 558.786 378.28C558.786 378.919 559.251 379.438 559.825 379.438C560.399 379.438 560.864 378.919 560.864 378.28C560.864 377.641 560.399 377.122 559.825 377.122Z" fill="#9A096A"/>
<path d="M576.329 376.151C575.105 375.66 574.124 375.154 573.329 374.604C573.189 374.5 573.14 374.487 573.018 374.412C572.57 374.137 572.14 374.364 572.016 374.539C571.982 374.588 571.947 374.636 571.912 374.684C570.981 375.897 567.914 377.367 567.913 377.367C567.673 377.44 567.497 377.684 567.497 377.975C567.497 377.975 567.497 377.976 567.497 377.976L567.497 377.976L567.507 382.174C567.507 384.761 565.633 386.865 563.332 386.865C561.027 386.865 559.151 384.761 559.151 382.174V380.417C558.356 380.11 557.785 379.271 557.785 378.28C557.785 377.03 558.695 376.016 559.817 376.016C560.94 376.016 561.85 377.03 561.85 378.28C561.85 379.249 561.303 380.073 560.535 380.396V382.095C560.535 383.928 561.788 385.421 563.331 385.421C564.871 385.421 566.126 383.928 566.126 382.095L566.133 378.003L566.133 378.002C566.133 378.001 566.133 378.001 566.133 378.001L566.133 377.974C566.133 377.974 566.132 377.972 566.132 377.97C566.12 377.709 565.946 377.515 565.754 377.407C565.752 377.406 562.487 375.592 561.529 374.234C561.406 374.059 560.976 373.832 560.528 374.107C559.692 374.62 558.556 375.043 557.12 375.62C552.692 377.398 551.416 379.212 551.416 380.449C551.416 381.684 551.416 388.551 551.416 388.551H566.714H566.736H582.034C582.034 388.551 582.034 381.684 582.034 380.449C582.034 379.212 580.758 377.929 576.329 376.151Z" fill="#9A096A"/>
<path d="M559.503 361.001C559.731 364.336 560.921 362.899 561.167 364.359C561.65 367.233 562.636 367.344 562.983 368.333C563.06 368.555 563.106 369.619 563.106 369.972C563.106 371.155 563.048 371.782 562.632 372.382C562.538 372.519 562.379 372.964 562.582 373.302C563.502 374.829 565.276 376.113 566.944 376.137C568.612 376.113 570.386 374.829 571.306 373.302C571.509 372.964 571.35 372.519 571.256 372.382C570.84 371.782 570.782 371.155 570.782 369.972C570.782 369.619 570.827 368.555 570.905 368.333C571.251 367.344 572.238 367.233 572.721 364.359C572.967 362.899 574.157 364.336 574.385 361.001C574.385 359.673 573.735 359.342 573.735 359.342C573.735 359.342 574.065 357.376 574.195 355.862C574.355 353.976 573.206 349.105 567.08 349.105C567.057 349.105 566.983 349.105 566.944 349.105C566.905 349.105 566.83 349.105 566.808 349.105C560.681 349.105 559.533 353.976 559.693 355.862C559.822 357.376 560.153 359.342 560.153 359.342C560.153 359.342 559.503 359.673 559.503 361.001Z" fill="#9A096A"/>
<path d="M535.653 400.94H537.62L541.754 411.941H539.848L538.865 409.13H534.424L533.425 411.941H531.52L535.653 400.94ZM538.281 407.532L537.113 404.259L536.683 402.983H536.591L536.161 404.259L534.993 407.532H538.281ZM545.83 412.187C544.929 412.187 544.191 411.993 543.617 411.603C543.044 411.204 542.639 410.697 542.403 410.082L543.909 409.422C544.094 409.831 544.35 410.144 544.678 410.359C545.016 410.574 545.4 410.682 545.83 410.682C546.25 410.682 546.603 410.61 546.89 410.466C547.177 410.313 547.321 410.087 547.321 409.79C547.321 409.503 547.198 409.278 546.952 409.114C546.706 408.95 546.327 408.807 545.815 408.684L544.877 408.453C544.252 408.3 543.735 408.028 543.325 407.639C542.916 407.25 542.711 406.758 542.711 406.164C542.711 405.703 542.844 405.298 543.11 404.95C543.387 404.602 543.756 404.335 544.217 404.151C544.678 403.956 545.18 403.859 545.722 403.859C546.45 403.859 547.09 404.008 547.643 404.305C548.196 404.592 548.596 405.012 548.842 405.565L547.367 406.21C547.07 405.606 546.527 405.303 545.738 405.303C545.359 405.303 545.041 405.38 544.785 405.534C544.529 405.688 544.401 405.887 544.401 406.133C544.401 406.369 544.498 406.563 544.693 406.717C544.888 406.861 545.174 406.983 545.553 407.086L546.706 407.378C547.474 407.572 548.053 407.87 548.442 408.269C548.842 408.658 549.041 409.14 549.041 409.713C549.041 410.205 548.898 410.641 548.611 411.02C548.335 411.388 547.951 411.675 547.459 411.88C546.967 412.085 546.424 412.187 545.83 412.187ZM550.505 400.94H552.195V407.347H552.241L555.453 404.105H557.573V404.197L554.531 407.224L557.665 411.849V411.941H555.652L553.347 408.392L552.195 409.514V411.941H550.505V400.94ZM564.773 412.187C564.209 412.187 563.707 412.08 563.267 411.865C562.826 411.639 562.483 411.327 562.237 410.927C561.992 410.518 561.869 410.057 561.869 409.544C561.869 408.735 562.171 408.095 562.775 407.624C563.39 407.152 564.163 406.917 565.095 406.917C565.556 406.917 565.971 406.963 566.34 407.055C566.709 407.137 567.001 407.229 567.216 407.332V406.932C567.216 406.451 567.037 406.062 566.678 405.764C566.32 405.457 565.859 405.303 565.295 405.303C564.896 405.303 564.517 405.391 564.158 405.565C563.81 405.739 563.528 405.98 563.313 406.287L562.13 405.38C562.478 404.899 562.929 404.525 563.482 404.259C564.035 403.992 564.65 403.859 565.326 403.859C566.463 403.859 567.339 404.141 567.954 404.704C568.568 405.257 568.875 406.041 568.875 407.055V411.941H567.216V411.004H567.139C566.914 411.342 566.596 411.624 566.186 411.849C565.777 412.075 565.305 412.187 564.773 412.187ZM565.065 410.789C565.474 410.789 565.843 410.692 566.171 410.497C566.499 410.302 566.755 410.041 566.939 409.713C567.124 409.386 567.216 409.032 567.216 408.653C566.98 408.52 566.704 408.412 566.386 408.331C566.079 408.249 565.756 408.208 565.418 408.208C564.783 408.208 564.317 408.336 564.02 408.592C563.723 408.838 563.574 409.16 563.574 409.56C563.574 409.918 563.713 410.215 563.989 410.451C564.266 410.676 564.624 410.789 565.065 410.789ZM574.595 400.94H578.114C579.251 400.94 580.245 401.17 581.095 401.631C581.945 402.092 582.596 402.743 583.047 403.583C583.508 404.412 583.738 405.365 583.738 406.441C583.738 407.516 583.508 408.474 583.047 409.314C582.596 410.144 581.945 410.789 581.095 411.25C580.245 411.711 579.251 411.941 578.114 411.941H574.595V400.94ZM578.083 410.297C579.313 410.297 580.27 409.959 580.957 409.283C581.653 408.597 582.002 407.649 582.002 406.441C582.002 405.242 581.653 404.3 580.957 403.613C580.27 402.927 579.313 402.584 578.083 402.584H576.316V410.297H578.083ZM588.87 412.187C588.082 412.187 587.375 412.008 586.75 411.65C586.125 411.281 585.638 410.779 585.29 410.144C584.942 409.509 584.768 408.802 584.768 408.023C584.768 407.245 584.942 406.538 585.29 405.903C585.638 405.268 586.125 404.771 586.75 404.412C587.375 404.043 588.082 403.859 588.87 403.859C589.659 403.859 590.366 404.043 590.991 404.412C591.616 404.781 592.102 405.283 592.451 405.918C592.799 406.553 592.973 407.255 592.973 408.023C592.973 408.802 592.799 409.509 592.451 410.144C592.102 410.779 591.616 411.281 590.991 411.65C590.366 412.008 589.659 412.187 588.87 412.187ZM588.87 410.635C589.301 410.635 589.7 410.533 590.069 410.328C590.438 410.113 590.73 409.811 590.945 409.422C591.17 409.022 591.283 408.556 591.283 408.023C591.283 407.491 591.17 407.03 590.945 406.64C590.73 406.251 590.438 405.954 590.069 405.749C589.7 405.534 589.301 405.426 588.87 405.426C588.44 405.426 588.041 405.534 587.672 405.749C587.303 405.954 587.006 406.251 586.781 406.64C586.565 407.03 586.458 407.491 586.458 408.023C586.458 408.556 586.565 409.022 586.781 409.422C587.006 409.811 587.303 410.113 587.672 410.328C588.041 410.533 588.44 410.635 588.87 410.635ZM598.158 412.187C597.379 412.187 596.677 412.008 596.053 411.65C595.438 411.291 594.957 410.799 594.608 410.174C594.27 409.539 594.101 408.822 594.101 408.023C594.101 407.224 594.27 406.512 594.608 405.887C594.957 405.252 595.438 404.755 596.053 404.397C596.677 404.038 597.379 403.859 598.158 403.859C599.018 403.859 599.751 404.054 600.355 404.443C600.959 404.832 601.39 405.36 601.646 406.026L600.094 406.671C599.746 405.841 599.085 405.426 598.112 405.426C597.692 405.426 597.302 405.534 596.944 405.749C596.596 405.964 596.314 406.272 596.099 406.671C595.894 407.06 595.791 407.511 595.791 408.023C595.791 408.535 595.894 408.991 596.099 409.391C596.314 409.79 596.596 410.098 596.944 410.313C597.302 410.528 597.692 410.635 598.112 410.635C598.603 410.635 599.023 410.528 599.372 410.313C599.73 410.087 600.002 409.77 600.186 409.36L601.707 410.021C601.41 410.687 600.959 411.214 600.355 411.603C599.751 411.993 599.018 412.187 598.158 412.187Z" fill="#1A1A1A"/>
<path d="M399.165 533.296C436.539 533.296 466.836 502.998 466.836 465.624C466.836 428.251 436.539 397.953 399.165 397.953C361.792 397.953 331.494 428.251 331.494 465.624C331.494 502.998 361.792 533.296 399.165 533.296Z" fill="#1D71B8" fill-opacity="0.2"/>
<path d="M410.617 473.862C410.617 471.751 409.147 470.039 407.334 470.039H394.2C392.386 470.039 390.916 471.751 390.916 473.862V475.222H410.617V473.862Z" fill="#1D71B8"/>
<path d="M417.258 441.997V439.448H403.849C403.519 438.368 402.789 437.518 401.862 437.133V431.715H399.673V437.133C398.746 437.518 398.016 438.368 397.686 439.448H384.277V441.997H387.013L382.088 456.018C382.088 459.532 384.543 462.391 387.56 462.391H389.749C392.767 462.391 395.222 459.532 395.222 456.018L390.274 441.997H397.686C398.016 443.077 398.746 443.926 399.673 444.312V462.531C397.534 463.04 395.842 464.997 395.406 467.489H406.129C405.693 464.997 404.001 463.04 401.862 462.531V444.312C402.789 443.926 403.519 443.077 403.849 441.997H411.239L406.313 456.018C406.313 459.532 408.768 462.391 411.785 462.391H413.974C416.992 462.391 419.447 459.532 419.447 456.018L414.499 441.997H417.258ZM392.485 454.743H384.824L388.655 444.036L392.485 454.743ZM416.71 454.743H409.049L412.88 444.036L416.71 454.743Z" fill="#1D71B8"/>
<path d="M355.932 489.288H357.994L362.329 500.826H360.331L359.299 497.877H354.642L353.595 500.826H351.597L355.932 489.288ZM358.687 496.201L357.462 492.769L357.011 491.432H356.915L356.463 492.769L355.239 496.201H358.687ZM366.604 501.084C365.658 501.084 364.885 500.88 364.283 500.471C363.682 500.053 363.257 499.521 363.01 498.876L364.589 498.183C364.783 498.613 365.051 498.941 365.395 499.166C365.75 499.392 366.152 499.505 366.604 499.505C367.044 499.505 367.415 499.429 367.716 499.279C368.016 499.118 368.167 498.882 368.167 498.57C368.167 498.269 368.038 498.033 367.78 497.861C367.522 497.689 367.125 497.539 366.588 497.41L365.605 497.168C364.949 497.007 364.407 496.722 363.977 496.314C363.547 495.906 363.333 495.39 363.333 494.767C363.333 494.284 363.472 493.859 363.751 493.494C364.042 493.129 364.428 492.85 364.912 492.656C365.395 492.452 365.922 492.35 366.491 492.35C367.254 492.35 367.925 492.506 368.505 492.817C369.085 493.118 369.504 493.559 369.762 494.139L368.215 494.815C367.904 494.182 367.334 493.865 366.507 493.865C366.109 493.865 365.776 493.945 365.508 494.106C365.239 494.268 365.105 494.477 365.105 494.735C365.105 494.982 365.207 495.186 365.411 495.347C365.615 495.498 365.916 495.627 366.314 495.734L367.522 496.04C368.328 496.244 368.935 496.556 369.343 496.975C369.762 497.383 369.971 497.888 369.971 498.489C369.971 499.005 369.821 499.462 369.52 499.859C369.23 500.246 368.827 500.547 368.312 500.762C367.796 500.976 367.227 501.084 366.604 501.084ZM371.506 489.288H373.279V496.008H373.327L376.695 492.608H378.918V492.705L375.728 495.879L379.015 500.729V500.826H376.904L374.487 497.104L373.279 498.28V500.826H371.506V489.288ZM386.469 501.084C385.878 501.084 385.352 500.971 384.89 500.745C384.428 500.509 384.068 500.181 383.81 499.762C383.552 499.333 383.423 498.849 383.423 498.312C383.423 497.464 383.74 496.792 384.374 496.298C385.018 495.804 385.83 495.557 386.807 495.557C387.291 495.557 387.726 495.605 388.112 495.702C388.499 495.788 388.805 495.884 389.031 495.992V495.573C389.031 495.068 388.843 494.66 388.467 494.348C388.091 494.026 387.607 493.865 387.017 493.865C386.598 493.865 386.2 493.956 385.824 494.139C385.459 494.321 385.164 494.574 384.938 494.896L383.697 493.945C384.062 493.44 384.535 493.048 385.115 492.769C385.695 492.49 386.34 492.35 387.049 492.35C388.241 492.35 389.16 492.645 389.804 493.236C390.449 493.816 390.771 494.638 390.771 495.702V500.826H389.031V499.843H388.95C388.714 500.198 388.381 500.493 387.951 500.729C387.522 500.966 387.027 501.084 386.469 501.084ZM386.775 499.617C387.205 499.617 387.591 499.515 387.935 499.311C388.279 499.107 388.547 498.833 388.741 498.489C388.934 498.146 389.031 497.775 389.031 497.378C388.784 497.238 388.494 497.125 388.161 497.039C387.838 496.953 387.5 496.91 387.146 496.91C386.479 496.91 385.991 497.045 385.679 497.313C385.368 497.571 385.212 497.909 385.212 498.328C385.212 498.704 385.357 499.016 385.647 499.263C385.937 499.499 386.313 499.617 386.775 499.617ZM396.77 489.288H398.574V499.102H403.521V500.826H396.77V489.288ZM407.634 501.084C407.043 501.084 406.517 500.971 406.055 500.745C405.593 500.509 405.233 500.181 404.975 499.762C404.717 499.333 404.588 498.849 404.588 498.312C404.588 497.464 404.905 496.792 405.539 496.298C406.184 495.804 406.995 495.557 407.972 495.557C408.456 495.557 408.891 495.605 409.278 495.702C409.664 495.788 409.971 495.884 410.196 495.992V495.573C410.196 495.068 410.008 494.66 409.632 494.348C409.256 494.026 408.773 493.865 408.182 493.865C407.763 493.865 407.365 493.956 406.989 494.139C406.624 494.321 406.329 494.574 406.103 494.896L404.862 493.945C405.228 493.44 405.7 493.048 406.28 492.769C406.861 492.49 407.505 492.35 408.214 492.35C409.407 492.35 410.325 492.645 410.97 493.236C411.614 493.816 411.936 494.638 411.936 495.702V500.826H410.196V499.843H410.116C409.879 500.198 409.546 500.493 409.117 500.729C408.687 500.966 408.193 501.084 407.634 501.084ZM407.94 499.617C408.37 499.617 408.757 499.515 409.1 499.311C409.444 499.107 409.713 498.833 409.906 498.489C410.099 498.146 410.196 497.775 410.196 497.378C409.949 497.238 409.659 497.125 409.326 497.039C409.004 496.953 408.665 496.91 408.311 496.91C407.645 496.91 407.156 497.045 406.844 497.313C406.533 497.571 406.377 497.909 406.377 498.328C406.377 498.704 406.522 499.016 406.812 499.263C407.102 499.499 407.478 499.617 407.94 499.617ZM412.792 492.608H414.71L416.37 498.489H416.434L418.287 492.608H420.108L421.945 498.489H422.009L423.669 492.608H425.554L422.928 500.826H421.059L419.173 494.928H419.125L417.256 500.826H415.419L412.792 492.608ZM429.412 500.375L425.995 492.608H427.977L430.298 498.199H430.362L432.618 492.608H434.568L429.492 504.307H427.623L429.412 500.375ZM439.166 501.084C438.36 501.084 437.635 500.896 436.99 500.52C436.356 500.144 435.857 499.628 435.492 498.973C435.137 498.307 434.96 497.56 434.96 496.733C434.96 495.949 435.132 495.224 435.476 494.558C435.83 493.881 436.319 493.344 436.942 492.946C437.565 492.549 438.274 492.35 439.069 492.35C439.896 492.35 440.611 492.533 441.212 492.898C441.824 493.263 442.286 493.763 442.598 494.397C442.92 495.03 443.081 495.745 443.081 496.54C443.081 496.69 443.065 496.878 443.033 497.104H436.732C436.797 497.866 437.065 498.457 437.538 498.876C438.022 499.284 438.58 499.489 439.214 499.489C439.719 499.489 440.154 499.376 440.519 499.15C440.895 498.914 441.196 498.597 441.422 498.199L442.92 498.908C442.533 499.585 442.029 500.117 441.405 500.504C440.782 500.89 440.036 501.084 439.166 501.084ZM441.277 495.75C441.255 495.46 441.164 495.175 441.003 494.896C440.841 494.606 440.594 494.364 440.261 494.171C439.939 493.978 439.542 493.881 439.069 493.881C438.5 493.881 438.016 494.053 437.619 494.397C437.232 494.73 436.963 495.181 436.813 495.75H441.277ZM444.695 492.608H446.387V493.816H446.468C446.651 493.397 446.968 493.054 447.419 492.785C447.87 492.506 448.348 492.366 448.853 492.366C449.25 492.366 449.583 492.42 449.852 492.527V494.364C449.379 494.192 448.955 494.106 448.579 494.106C448.171 494.106 447.805 494.214 447.483 494.429C447.172 494.644 446.925 494.934 446.742 495.299C446.559 495.653 446.468 496.046 446.468 496.475V500.826H444.695V492.608Z" fill="#1A1A1A"/>
<path d="M159.384 195.089C188.726 165.741 188.726 118.158 159.384 88.8091C130.042 59.4607 82.4699 59.4607 53.1281 88.8091C23.7863 118.158 23.7863 165.741 53.1281 195.089C82.4699 224.437 130.042 224.437 159.384 195.089Z" fill="#E94E1B" fill-opacity="0.2"/>
<path d="M99.2289 135.307C96.8705 135.307 94.9645 137.438 94.9645 140.065C94.9645 142.684 96.8705 144.815 99.2289 144.815C101.587 144.815 103.493 142.684 103.493 140.065C103.493 137.438 101.587 135.307 99.2289 135.307ZM99.2289 142.44C98.0497 142.44 97.0966 141.371 97.0966 140.065C97.0966 138.751 98.0497 137.69 99.2289 137.69C100.408 137.69 101.361 138.751 101.361 140.065C101.361 141.371 100.408 142.44 99.2289 142.44ZM131.391 131.793V136.865C131.391 138.13 130.471 139.156 129.335 139.156H127.134C126.736 136.117 124.385 133.78 121.546 133.78C118.715 133.78 116.363 136.117 115.966 139.156H104.811C104.413 136.117 102.062 133.78 99.2303 133.78C96.3988 133.78 94.0472 136.117 93.6496 139.156H90.8935C89.7576 139.156 88.8368 138.131 88.8368 136.865V131.793H131.391ZM121.552 135.307C119.193 135.307 117.281 137.438 117.281 140.065C117.281 142.684 119.193 144.815 121.552 144.815C123.903 144.815 125.816 142.684 125.816 140.065C125.816 137.438 123.903 135.307 121.552 135.307ZM121.552 142.44C120.373 142.44 119.42 141.371 119.42 140.065C119.42 138.751 120.373 137.69 121.552 137.69C122.724 137.69 123.684 138.751 123.684 140.065C123.684 141.371 122.724 142.44 121.552 142.44ZM130.581 126.685L122.498 117.78C121.984 117.215 121.291 116.894 120.571 116.894H116.492V115.191C116.492 113.924 115.574 112.9 114.435 112.9H90.8921C89.7608 112.9 88.8353 113.924 88.8353 115.191V115.55L80.4889 116.622L95.2784 118.767L80.2969 120.425L95.2257 122.789L80.2969 124.231L88.8358 126.025L88.8353 130.526H131.39V128.854C131.39 128.037 131.095 127.258 130.581 126.685ZM127.057 126.983H119.235C119.056 126.983 118.912 126.822 118.912 126.624V119.896C118.912 119.697 119.056 119.537 119.235 119.537H120.722C120.805 119.537 120.887 119.575 120.949 119.636L127.277 126.364C127.489 126.586 127.345 126.983 127.057 126.983Z" fill="#E94E1B"/>
<path d="M71.2689 156.82H75.2488C76.5349 156.82 77.6588 157.081 78.6205 157.602C79.5821 158.123 80.3179 158.859 80.8277 159.809C81.3491 160.748 81.6098 161.825 81.6098 163.042C81.6098 164.258 81.3491 165.342 80.8277 166.292C80.3179 167.23 79.5821 167.96 78.6205 168.482C77.6588 169.003 76.5349 169.264 75.2488 169.264H71.2689V156.82ZM75.2141 167.404C76.6044 167.404 77.6878 167.022 78.4641 166.257C79.2519 165.481 79.6459 164.409 79.6459 163.042C79.6459 161.686 79.2519 160.62 78.4641 159.844C77.6878 159.068 76.6044 158.679 75.2141 158.679H73.2154V167.404H75.2141ZM84.6105 159.114C84.2513 159.114 83.9443 158.992 83.6894 158.749C83.446 158.494 83.3244 158.187 83.3244 157.828C83.3244 157.469 83.446 157.167 83.6894 156.924C83.9443 156.669 84.2513 156.542 84.6105 156.542C84.9697 156.542 85.2709 156.669 85.5142 156.924C85.7691 157.167 85.8966 157.469 85.8966 157.828C85.8966 158.187 85.7691 158.494 85.5142 158.749C85.2709 158.992 84.9697 159.114 84.6105 159.114ZM83.6546 160.4H85.5664V169.264H83.6546V160.4ZM91.178 169.542C90.1583 169.542 89.3241 169.322 88.6753 168.881C88.0264 168.429 87.5688 167.856 87.3023 167.161L89.0055 166.413C89.2141 166.877 89.5037 167.23 89.8745 167.474C90.2568 167.717 90.6913 167.839 91.178 167.839C91.653 167.839 92.0527 167.757 92.3771 167.595C92.7016 167.421 92.8638 167.167 92.8638 166.831C92.8638 166.506 92.7247 166.251 92.4467 166.066C92.1686 165.88 91.7399 165.718 91.1606 165.579L90.1004 165.318C89.3936 165.145 88.8085 164.838 88.3451 164.397C87.8816 163.957 87.6499 163.401 87.6499 162.729C87.6499 162.208 87.8005 161.75 88.1018 161.356C88.4146 160.962 88.8317 160.661 89.3531 160.452C89.8745 160.232 90.4422 160.122 91.0563 160.122C91.8789 160.122 92.6031 160.29 93.2288 160.626C93.8544 160.95 94.3063 161.425 94.5844 162.051L92.9159 162.781C92.5799 162.097 91.9658 161.756 91.0737 161.756C90.645 161.756 90.2858 161.843 89.9961 162.016C89.7065 162.19 89.5616 162.416 89.5616 162.694C89.5616 162.961 89.6717 163.181 89.8919 163.355C90.112 163.517 90.4364 163.656 90.8651 163.772L92.1686 164.102C93.0376 164.322 93.6922 164.658 94.1325 165.11C94.5844 165.55 94.8103 166.095 94.8103 166.744C94.8103 167.3 94.6481 167.792 94.3237 168.221C94.0108 168.638 93.5763 168.962 93.0202 169.194C92.464 169.426 91.85 169.542 91.178 169.542ZM96.3111 160.4H98.1359V161.564H98.2228C98.4777 161.159 98.8543 160.817 99.3525 160.539C99.8507 160.261 100.413 160.122 101.038 160.122C101.838 160.122 102.562 160.325 103.211 160.73C103.86 161.136 104.369 161.698 104.74 162.416C105.123 163.123 105.314 163.928 105.314 164.832C105.314 165.736 105.123 166.547 104.74 167.265C104.369 167.972 103.86 168.528 103.211 168.933C102.562 169.339 101.838 169.542 101.038 169.542C100.413 169.542 99.8507 169.403 99.3525 169.125C98.8543 168.847 98.4777 168.511 98.2228 168.117H98.1359L98.2228 169.351V173.018H96.3111V160.4ZM100.76 167.786C101.224 167.786 101.658 167.665 102.064 167.421C102.469 167.178 102.794 166.831 103.037 166.379C103.28 165.927 103.402 165.411 103.402 164.832C103.402 164.253 103.28 163.743 103.037 163.302C102.794 162.851 102.469 162.503 102.064 162.26C101.658 162.016 101.224 161.895 100.76 161.895C100.297 161.895 99.8623 162.016 99.4568 162.26C99.0628 162.503 98.7442 162.851 98.5009 163.302C98.2576 163.743 98.1359 164.253 98.1359 164.832C98.1359 165.411 98.2576 165.927 98.5009 166.379C98.7442 166.831 99.0628 167.178 99.4568 167.421C99.8623 167.665 100.297 167.786 100.76 167.786ZM109.837 169.542C109.2 169.542 108.632 169.42 108.134 169.177C107.635 168.922 107.247 168.568 106.969 168.117C106.691 167.653 106.552 167.132 106.552 166.552C106.552 165.637 106.894 164.913 107.578 164.38C108.273 163.847 109.148 163.581 110.202 163.581C110.723 163.581 111.193 163.633 111.61 163.737C112.027 163.83 112.357 163.934 112.6 164.05V163.598C112.6 163.053 112.398 162.613 111.992 162.277C111.586 161.929 111.065 161.756 110.428 161.756C109.976 161.756 109.547 161.854 109.142 162.051C108.748 162.248 108.429 162.52 108.186 162.868L106.848 161.843C107.242 161.298 107.751 160.875 108.377 160.574C109.003 160.273 109.698 160.122 110.463 160.122C111.749 160.122 112.739 160.441 113.434 161.078C114.13 161.704 114.477 162.59 114.477 163.737V169.264H112.6V168.204H112.513C112.258 168.586 111.899 168.904 111.436 169.159C110.972 169.414 110.439 169.542 109.837 169.542ZM110.167 167.96C110.631 167.96 111.048 167.85 111.418 167.63C111.789 167.41 112.079 167.114 112.287 166.744C112.496 166.373 112.6 165.973 112.6 165.544C112.334 165.394 112.021 165.272 111.662 165.179C111.314 165.087 110.949 165.04 110.567 165.04C109.848 165.04 109.321 165.185 108.985 165.475C108.649 165.753 108.481 166.118 108.481 166.57C108.481 166.975 108.638 167.311 108.951 167.578C109.263 167.833 109.669 167.96 110.167 167.96ZM120.023 169.403C119.629 169.403 119.259 169.339 118.911 169.212C118.563 169.084 118.28 168.916 118.059 168.708C117.561 168.209 117.312 167.531 117.312 166.674V162.086H115.765V160.4H117.312V157.897H119.224V160.4H121.379V162.086H119.224V166.257C119.224 166.732 119.317 167.068 119.502 167.265C119.676 167.497 119.977 167.613 120.406 167.613C120.603 167.613 120.776 167.589 120.927 167.543C121.078 167.485 121.24 167.398 121.414 167.282V169.142C121.031 169.316 120.568 169.403 120.023 169.403ZM126.959 169.542C126.078 169.542 125.285 169.339 124.578 168.933C123.883 168.528 123.338 167.972 122.944 167.265C122.562 166.547 122.371 165.736 122.371 164.832C122.371 163.928 122.562 163.123 122.944 162.416C123.338 161.698 123.883 161.136 124.578 160.73C125.285 160.325 126.078 160.122 126.959 160.122C127.932 160.122 128.761 160.342 129.444 160.782C130.128 161.223 130.615 161.819 130.904 162.573L129.149 163.302C128.755 162.364 128.008 161.895 126.907 161.895C126.432 161.895 125.992 162.016 125.586 162.26C125.192 162.503 124.873 162.851 124.63 163.302C124.398 163.743 124.283 164.253 124.283 164.832C124.283 165.411 124.398 165.927 124.63 166.379C124.873 166.831 125.192 167.178 125.586 167.421C125.992 167.665 126.432 167.786 126.907 167.786C127.463 167.786 127.938 167.665 128.332 167.421C128.738 167.167 129.045 166.807 129.253 166.344L130.974 167.091C130.638 167.844 130.128 168.441 129.444 168.881C128.761 169.322 127.932 169.542 126.959 169.542ZM132.599 156.82H134.511V160.209L134.424 161.564H134.511C134.766 161.147 135.143 160.806 135.641 160.539C136.151 160.261 136.695 160.122 137.275 160.122C138.352 160.122 139.175 160.441 139.743 161.078C140.31 161.704 140.594 162.561 140.594 163.65V169.264H138.682V163.911C138.682 163.239 138.503 162.735 138.144 162.399C137.796 162.063 137.338 161.895 136.771 161.895C136.342 161.895 135.954 162.016 135.606 162.26C135.27 162.503 135.004 162.827 134.807 163.233C134.61 163.627 134.511 164.05 134.511 164.502V169.264H132.599V156.82Z" fill="#1A1A1A"/>
<path d="M265.268 503.653C290.307 478.609 290.307 438.003 265.268 412.959C240.229 387.915 199.634 387.915 174.595 412.959C149.556 438.003 149.556 478.609 174.595 503.653C199.633 528.697 240.229 528.697 265.268 503.653Z" fill="#9A8C09" fill-opacity="0.32"/>
<path fill-rule="evenodd" clip-rule="evenodd" d="M204.162 453.384L211.781 456.691V430.006L204.162 427.58V453.384Z" fill="#9A8C09"/>
<path fill-rule="evenodd" clip-rule="evenodd" d="M226.426 445.649C223.793 445.649 221.661 448.362 221.661 451.71C221.661 452.575 221.808 453.393 222.062 454.141L226.442 463.496L230.785 454.141C231.044 453.393 231.188 452.575 231.188 451.71C231.188 448.362 229.054 445.649 226.426 445.649ZM226.457 454.754C225.688 454.754 224.949 454.399 224.405 453.765C223.86 453.132 223.554 452.273 223.553 451.376C223.553 450.48 223.858 449.62 224.402 448.986C224.946 448.352 225.684 447.995 226.453 447.994C226.834 447.994 227.212 448.081 227.564 448.251C227.916 448.42 228.236 448.669 228.506 448.983C228.776 449.296 228.99 449.669 229.136 450.079C229.282 450.489 229.357 450.928 229.357 451.372C229.358 451.816 229.283 452.255 229.137 452.665C228.992 453.075 228.778 453.448 228.509 453.762C228.239 454.076 227.92 454.325 227.568 454.496C227.216 454.666 226.838 454.753 226.457 454.754Z" fill="#9A8C09"/>
<path fill-rule="evenodd" clip-rule="evenodd" d="M235.118 429.796L225.505 427.705V443.148C225.807 443.103 226.109 443.044 226.424 443.044C230.249 443.044 233.346 446.516 233.346 450.802C233.346 451.91 233.137 452.955 232.764 453.915L232.019 455.332L235.118 456.903V429.796Z" fill="#9A8C09"/>
<path fill-rule="evenodd" clip-rule="evenodd" d="M219.496 450.802C219.496 447.715 221.118 445.07 223.449 443.822V427.987L213.896 430.006V456.691L221.017 455.68L220.079 453.915C219.696 452.938 219.498 451.876 219.496 450.802Z" fill="#9A8C09"/>
<path d="M187.584 484.238C186.517 484.238 185.548 483.987 184.676 483.484C183.804 482.971 183.116 482.273 182.614 481.391C182.121 480.509 181.875 479.539 181.875 478.482C181.875 477.426 182.121 476.461 182.614 475.589C183.116 474.707 183.804 474.009 184.676 473.496C185.548 472.983 186.517 472.727 187.584 472.727C188.651 472.727 189.616 472.983 190.477 473.496C191.35 474.009 192.037 474.707 192.54 475.589C193.042 476.461 193.294 477.426 193.294 478.482C193.294 479.539 193.042 480.509 192.54 481.391C192.047 482.273 191.365 482.971 190.493 483.484C189.621 483.987 188.651 484.238 187.584 484.238ZM187.584 482.591C188.313 482.591 188.98 482.417 189.585 482.068C190.19 481.719 190.667 481.237 191.016 480.621C191.365 479.996 191.539 479.283 191.539 478.482C191.539 477.682 191.365 476.974 191.016 476.359C190.667 475.733 190.19 475.246 189.585 474.897C188.98 474.548 188.313 474.373 187.584 474.373C186.856 474.373 186.189 474.548 185.584 474.897C184.978 475.246 184.496 475.733 184.137 476.359C183.788 476.974 183.614 477.682 183.614 478.482C183.614 479.283 183.788 479.996 184.137 480.621C184.496 481.237 184.978 481.719 185.584 482.068C186.189 482.417 186.856 482.591 187.584 482.591ZM194.911 476.143H196.527V477.174H196.604C196.83 476.805 197.163 476.502 197.604 476.266C198.056 476.02 198.533 475.897 199.035 475.897C199.99 475.897 200.713 476.179 201.205 476.743C201.708 477.297 201.959 478.057 201.959 479.021V483.992H200.267V479.252C200.267 478.636 200.113 478.185 199.805 477.898C199.507 477.61 199.092 477.467 198.558 477.467C198.179 477.467 197.84 477.574 197.543 477.79C197.245 477.995 197.014 478.272 196.85 478.621C196.686 478.97 196.604 479.344 196.604 479.744V483.992H194.911V476.143ZM209.367 474.62H206.289V472.973H214.169V474.62H211.091V483.992H209.367V474.62ZM215.56 472.973H217.253V475.974L217.176 477.174H217.253C217.479 476.805 217.812 476.502 218.254 476.266C218.705 476.02 219.187 475.897 219.7 475.897C220.654 475.897 221.383 476.179 221.885 476.743C222.388 477.297 222.639 478.057 222.639 479.021V483.992H220.947V479.252C220.947 478.657 220.788 478.21 220.47 477.913C220.162 477.615 219.757 477.467 219.254 477.467C218.874 477.467 218.531 477.574 218.223 477.79C217.925 478.005 217.689 478.293 217.515 478.652C217.34 479 217.253 479.375 217.253 479.775V483.992H215.56V472.973ZM228.148 484.238C227.379 484.238 226.686 484.058 226.071 483.699C225.465 483.34 224.988 482.848 224.639 482.222C224.301 481.586 224.132 480.873 224.132 480.083C224.132 479.334 224.296 478.641 224.624 478.005C224.963 477.359 225.429 476.846 226.025 476.466C226.62 476.087 227.297 475.897 228.056 475.897C228.846 475.897 229.528 476.071 230.103 476.42C230.687 476.769 231.129 477.246 231.426 477.851C231.734 478.457 231.888 479.139 231.888 479.898C231.888 480.042 231.872 480.221 231.842 480.437H225.824C225.886 481.165 226.142 481.73 226.594 482.13C227.056 482.519 227.589 482.714 228.194 482.714C228.677 482.714 229.092 482.607 229.441 482.391C229.8 482.166 230.087 481.863 230.303 481.483L231.734 482.16C231.365 482.807 230.882 483.315 230.287 483.684C229.692 484.053 228.979 484.238 228.148 484.238ZM230.164 479.144C230.144 478.867 230.056 478.595 229.903 478.328C229.749 478.051 229.513 477.821 229.195 477.636C228.887 477.451 228.507 477.359 228.056 477.359C227.512 477.359 227.05 477.523 226.671 477.851C226.302 478.169 226.045 478.6 225.901 479.144H230.164ZM242.23 484.238C241.183 484.238 240.219 483.987 239.336 483.484C238.454 482.981 237.751 482.294 237.228 481.422C236.715 480.539 236.459 479.56 236.459 478.482C236.459 477.405 236.715 476.43 237.228 475.558C237.751 474.676 238.454 473.984 239.336 473.481C240.219 472.978 241.183 472.727 242.23 472.727C243.061 472.727 243.835 472.876 244.553 473.173C245.272 473.471 245.872 473.886 246.354 474.42L245.154 475.62C244.795 475.22 244.364 474.912 243.861 474.697C243.368 474.481 242.82 474.373 242.214 474.373C241.506 474.373 240.845 474.543 240.229 474.881C239.613 475.22 239.121 475.702 238.752 476.328C238.382 476.954 238.198 477.672 238.198 478.482C238.198 479.293 238.382 480.011 238.752 480.637C239.121 481.263 239.613 481.745 240.229 482.083C240.845 482.422 241.511 482.591 242.23 482.591C242.886 482.591 243.435 482.494 243.876 482.299C244.317 482.104 244.712 481.842 245.061 481.514C245.287 481.288 245.477 481.006 245.631 480.668C245.795 480.329 245.903 479.96 245.954 479.56H242.214V478.021H247.585C247.636 478.308 247.662 478.605 247.662 478.913C247.662 479.611 247.554 480.283 247.339 480.929C247.123 481.565 246.78 482.119 246.308 482.591C245.272 483.689 243.912 484.238 242.23 484.238ZM252.978 484.238C252.188 484.238 251.48 484.058 250.854 483.699C250.228 483.33 249.741 482.827 249.392 482.191C249.043 481.555 248.869 480.847 248.869 480.067C248.869 479.288 249.043 478.58 249.392 477.944C249.741 477.308 250.228 476.81 250.854 476.451C251.48 476.082 252.188 475.897 252.978 475.897C253.768 475.897 254.475 476.082 255.101 476.451C255.727 476.82 256.214 477.323 256.563 477.959C256.912 478.595 257.087 479.298 257.087 480.067C257.087 480.847 256.912 481.555 256.563 482.191C256.214 482.827 255.727 483.33 255.101 483.699C254.475 484.058 253.768 484.238 252.978 484.238ZM252.978 482.684C253.408 482.684 253.809 482.581 254.178 482.376C254.547 482.16 254.84 481.858 255.055 481.468C255.281 481.068 255.394 480.601 255.394 480.067C255.394 479.534 255.281 479.072 255.055 478.682C254.84 478.293 254.547 477.995 254.178 477.79C253.809 477.574 253.408 477.467 252.978 477.467C252.547 477.467 252.147 477.574 251.777 477.79C251.408 477.995 251.11 478.293 250.885 478.682C250.669 479.072 250.561 479.534 250.561 480.067C250.561 480.601 250.669 481.068 250.885 481.468C251.11 481.858 251.408 482.16 251.777 482.376C252.147 482.581 252.547 482.684 252.978 482.684Z" fill="#1A1A1A"/>
<defs>
<clipPath id="clip0">
<rect width="37.8998" height="33.3059" fill="white" transform="translate(276.913 60.8541)"/>
</clipPath>
</defs>
</svg>
