<svg width="146" height="183" viewBox="0 0 146 183" fill="none" xmlns="http://www.w3.org/2000/svg">
<path fill-rule="evenodd" clip-rule="evenodd" d="M72.8907 145.781C113.147 145.781 145.781 113.147 145.781 72.8907C145.781 32.6343 113.147 0 72.8907 0C32.6343 0 0 32.6343 0 72.8907C0 113.147 32.6343 145.781 72.8907 145.781Z" fill="url(#paint0_linear)"/>
<mask id="mask0" mask-type="alpha" maskUnits="userSpaceOnUse" x="0" y="0" width="146" height="146">
<path fill-rule="evenodd" clip-rule="evenodd" d="M72.8907 145.781C113.147 145.781 145.781 113.147 145.781 72.8907C145.781 32.6343 113.147 0 72.8907 0C32.6343 0 0 32.6343 0 72.8907C0 113.147 32.6343 145.781 72.8907 145.781Z" fill="white"/>
</mask>
<g mask="url(#mask0)">
<path fill-rule="evenodd" clip-rule="evenodd" d="M103.183 93.4067C128.976 93.4067 149.886 72.497 149.886 46.7035C149.886 20.9101 128.976 0.000396729 103.183 0.000396729C77.3892 0.000396729 56.4795 20.9101 56.4795 46.7035C56.4795 72.497 77.3892 93.4067 103.183 93.4067Z" fill="url(#paint1_linear)"/>
</g>
<path fill-rule="evenodd" clip-rule="evenodd" d="M94.8221 182.972C102.087 182.972 107.976 177.083 107.976 169.818C107.976 162.553 102.087 156.664 94.8221 156.664C87.5573 156.664 81.668 162.553 81.668 169.818C81.668 177.083 87.5573 182.972 94.8221 182.972Z" fill="url(#paint2_linear)"/>
<path d="M91.5962 67.4718L99.0713 49.8214C99.5982 48.57 100.169 47.3187 100.652 46.0783C101.14 44.6524 101.916 43.3421 102.932 42.2292C103.948 41.1163 105.183 40.2246 106.559 39.6096C107.935 38.9947 109.423 38.6697 110.93 38.6548C112.437 38.64 113.931 38.9357 115.318 39.5234C116.706 40.1111 117.958 40.9784 118.996 42.0711C120.034 43.1637 120.836 44.4585 121.352 45.8746C121.867 47.2907 122.086 48.7978 121.994 50.3021C121.902 51.8064 121.501 53.2756 120.816 54.6181C116.799 64.2117 112.715 73.7723 108.665 83.4098C106.382 88.7957 104.11 94.1925 101.848 99.6003C101.063 101.69 99.658 103.491 97.8223 104.761C95.9866 106.032 93.807 106.713 91.5743 106.713C89.3416 106.713 87.162 106.032 85.3263 104.761C83.4906 103.491 82.0861 101.69 81.3002 99.6003L72.7933 79.3594C72.6506 79.0192 72.486 78.6789 72.2225 78.1191C71.9042 78.8216 71.6627 79.3155 71.4542 79.8204C68.6661 86.4942 65.8561 93.2009 62.9692 99.8747C62.4822 101.308 61.704 102.625 60.6836 103.743C59.6631 104.861 58.4224 105.756 57.0395 106.371C55.6566 106.987 54.1613 107.31 52.6476 107.32C51.1339 107.329 49.6345 107.026 48.2437 106.429C46.8529 105.831 45.6007 104.952 44.5657 103.848C43.5308 102.743 42.7356 101.436 42.23 100.01C41.7244 98.5827 41.5194 97.0668 41.6278 95.5569C41.7362 94.0471 42.1558 92.576 42.8601 91.2361C46.5189 82.4548 50.2107 73.7175 53.9355 65.024C56.5918 58.6905 59.2372 52.346 61.9594 46.0893C62.6757 44.35 63.8231 42.8218 65.2935 41.6488C66.764 40.4758 68.5089 39.6966 70.3639 39.3847C72.2188 39.0728 74.1226 39.2384 75.8958 39.8661C77.669 40.4937 79.2532 41.5626 80.4989 42.972C81.4247 44.075 82.166 45.3204 82.6942 46.6601C85.5591 53.2461 88.3362 59.9308 91.1462 66.5607C91.2669 66.7693 91.3877 67.0107 91.5962 67.4718Z" fill="white"/>
<path d="M36.8921 76.5372C34.4444 72.3002 32.1283 68.2388 29.7903 64.1994C28.6926 62.2676 27.4742 60.3576 26.3326 58.4587C23.6543 53.9473 23.5556 49.381 26.4205 44.9904C27.6336 42.9494 29.4368 41.3241 31.5923 40.3286C33.7478 39.3332 36.1544 39.0144 38.4947 39.4143C40.9636 39.656 43.2957 40.6613 45.1666 42.2903C47.0376 43.9192 48.3542 46.0908 48.9335 48.5029C49.4105 50.1049 49.5436 51.7896 49.3242 53.4467C49.1048 55.1038 48.5377 56.6958 47.6602 58.1184C44.316 63.9067 40.9535 69.6914 37.5727 75.4724C37.3971 75.7249 37.2105 76.0213 36.8921 76.5372Z" fill="#FF5757"/>
<defs>
<linearGradient id="paint0_linear" x1="19.8536" y1="37.0299" x2="-12.3213" y2="134.821" gradientUnits="userSpaceOnUse">
<stop stop-color="#1B4D81"/>
<stop offset="1" stop-color="#053F7C"/>
</linearGradient>
<linearGradient id="paint1_linear" x1="69.2003" y1="23.7265" x2="48.5849" y2="86.384" gradientUnits="userSpaceOnUse">
<stop stop-color="#154981"/>
<stop offset="1" stop-color="#0D335B"/>
</linearGradient>
<linearGradient id="paint2_linear" x1="99.5314" y1="156.636" x2="85.2966" y2="178.789" gradientUnits="userSpaceOnUse">
<stop stop-color="#0C55A4"/>
<stop offset="1" stop-color="#0C437D"/>
</linearGradient>
</defs>
</svg>
