<svg width="48" height="48" viewBox="0 0 48 48" fill="none" xmlns="http://www.w3.org/2000/svg">
<rect width="48" height="48" rx="15" fill="#548BF8"/>
<path d="M21.0732 27.185C20.7814 27.185 20.5449 27.4216 20.5449 27.7132C20.5449 28.0049 20.7814 28.2415 21.0732 28.2415C21.3649 28.2415 21.6013 28.0049 21.6013 27.7132C21.6013 27.4216 21.3649 27.185 21.0732 27.185Z" fill="white"/>
<path d="M29.4643 26.7419C28.8419 26.5175 28.3432 26.2869 27.9391 26.0359C27.8681 25.9884 27.843 25.9825 27.781 25.9483C27.5531 25.8227 27.3347 25.9264 27.2719 26.0064C27.2546 26.0284 27.2369 26.0504 27.2188 26.0723C26.7454 26.626 25.1869 27.2965 25.1863 27.2967C25.0643 27.33 24.9746 27.4413 24.9746 27.574C24.9746 27.5742 24.9746 27.5745 24.9746 27.5745L24.9745 27.5747L24.9799 29.49C24.9799 30.6704 24.0274 31.6307 22.8578 31.6307C21.686 31.6307 20.7326 30.6704 20.7326 29.49V28.6885C20.3285 28.5483 20.038 28.1653 20.038 27.7134C20.038 27.1429 20.5005 26.6803 21.0711 26.6803C21.6416 26.6803 22.1041 27.1429 22.1041 27.7134C22.1041 28.1553 21.8261 28.5315 21.4357 28.679V29.4541C21.4357 30.2906 22.0727 30.9717 22.857 30.9717C23.6399 30.9717 24.2778 30.2906 24.2778 29.4541L24.2815 27.5869L24.2815 27.5863C24.2815 27.5861 24.2815 27.586 24.2815 27.5858L24.2815 27.5737C24.2815 27.5737 24.2811 27.5728 24.2808 27.572C24.2749 27.4527 24.1863 27.3643 24.0888 27.315C24.0875 27.3143 22.4281 26.4866 21.9414 25.8671C21.8786 25.7872 21.6602 25.6835 21.4324 25.8091C21.0076 26.0432 20.4301 26.2363 19.7002 26.4996C17.4495 27.311 16.8008 28.1386 16.8008 28.7032C16.8008 29.2668 16.8008 32.4002 16.8008 32.4002H24.5766H24.588H32.3638C32.3638 32.4002 32.3638 29.2668 32.3638 28.7032C32.3638 28.1387 31.7151 27.5533 29.4643 26.7419Z" fill="white"/>
<path d="M20.9102 19.8287C21.026 21.3502 21.6311 20.6945 21.7558 21.361C22.0014 22.6725 22.5028 22.7227 22.6789 23.1741C22.7184 23.2756 22.7416 23.7609 22.7416 23.922C22.7416 24.4619 22.712 24.7479 22.5007 25.022C22.4528 25.0842 22.3719 25.2874 22.4753 25.4415C22.9426 26.1384 23.8447 26.7243 24.6924 26.7352C25.5401 26.7243 26.4422 26.1385 26.9096 25.4415C27.0128 25.2874 26.932 25.0842 26.8841 25.022C26.6728 24.7479 26.6432 24.4619 26.6432 23.922C26.6432 23.7609 26.6664 23.2757 26.7059 23.1741C26.8819 22.7227 27.3834 22.6725 27.6289 21.361C27.7537 20.6945 28.3588 21.3502 28.4746 19.8287C28.4746 19.2224 28.1443 19.0716 28.1443 19.0716C28.1443 19.0716 28.3122 18.1742 28.378 17.4837C28.4595 16.623 27.8757 14.4 24.7614 14.4C24.7501 14.4 24.7125 14.4 24.6925 14.4C24.6724 14.4 24.6347 14.4 24.6234 14.4C21.5092 14.4 20.9253 16.623 21.0068 17.4837C21.0726 18.1742 21.2405 19.0716 21.2405 19.0716C21.2405 19.0716 20.9102 19.2224 20.9102 19.8287Z" fill="white"/>
</svg>
