<svg width="48" height="48" viewBox="0 0 48 48" fill="none" xmlns="http://www.w3.org/2000/svg">
<rect width="48" height="48" rx="15" fill="#9C6A45"/>
<path d="M29.5318 35.25C29.5318 34.085 28.6284 33.1406 27.5141 33.1406H19.4434C18.3291 33.1406 17.4258 34.085 17.4258 35.25V36H29.5318V35.25Z" fill="white"/>
<path d="M33.6114 17.6719V16.2656H25.372C25.1688 15.6699 24.7206 15.2013 24.1508 14.9889V12H22.8057V14.9889C22.2359 15.2013 21.7877 15.6699 21.5845 16.2656H13.3451V17.6719H15.0267L12 25.4062C12 27.3447 13.5086 28.9219 15.3628 28.9219H16.7079C18.562 28.9219 20.0707 27.3447 20.0707 25.4062L17.0303 17.6719H21.5845C21.7877 18.2676 22.236 18.7362 22.8057 18.9486V28.9989C21.4914 29.2801 20.4516 30.3597 20.1836 31.7344H26.773C26.505 30.3597 25.4653 29.2801 24.1509 28.9989V18.9486C24.7206 18.7362 25.1689 18.2676 25.3721 17.6719H29.9126L26.8859 25.4062C26.8859 27.3447 28.3945 28.9219 30.2486 28.9219H31.5937C33.4479 28.9219 34.9565 27.3447 34.9565 25.4062L31.9162 17.6719H33.6114ZM18.3891 24.7031H13.6816L16.0353 18.7966L18.3891 24.7031ZM33.275 24.7031H28.5674L30.9212 18.7966L33.275 24.7031Z" fill="white"/>
</svg>
