<svg width="48" height="48" viewBox="0 0 48 48" fill="none" xmlns="http://www.w3.org/2000/svg">
<rect width="48" height="48" rx="15" fill="#14B571"/>
<g clip-path="url(#clip0)">
<path d="M14.4023 30.1497C14.4023 30.7709 14.8486 31.2747 15.3988 31.2747H33.3345C33.8847 31.2747 34.3309 30.7709 34.3309 30.1497V18.8997H14.4023V30.1497ZM28.3523 22.8372C28.3523 22.5264 28.5753 22.2747 28.8506 22.2747H31.8398C32.1151 22.2747 32.3381 22.5264 32.3381 22.8372V23.9622C32.3381 24.2729 32.1151 24.5247 31.8398 24.5247H28.8506C28.5753 24.5247 28.3523 24.2729 28.3523 23.9622V22.8372ZM28.3523 27.0559C28.3523 26.9005 28.4638 26.7747 28.6015 26.7747H32.089C32.2266 26.7747 32.3381 26.9005 32.3381 27.0559V27.6184C32.3381 27.7738 32.2266 27.8997 32.089 27.8997H28.6015C28.4638 27.8997 28.3523 27.7738 28.3523 27.6184V27.0559ZM16.3952 23.6809C16.3952 23.5255 16.5067 23.3997 16.6443 23.3997H26.1104C26.248 23.3997 26.3595 23.5255 26.3595 23.6809V24.2434C26.3595 24.3988 26.248 24.5247 26.1104 24.5247H16.6443C16.5067 24.5247 16.3952 24.3988 16.3952 24.2434V23.6809ZM16.3952 27.0559C16.3952 26.9005 16.5067 26.7747 16.6443 26.7747H22.1247C22.2623 26.7747 22.3738 26.9005 22.3738 27.0559V27.6184C22.3738 27.7738 22.2623 27.8997 22.1247 27.8997H16.6443C16.5067 27.8997 16.3952 27.7738 16.3952 27.6184V27.0559ZM33.8327 15.5247H14.9006C14.6253 15.5247 14.4023 15.7764 14.4023 16.0872V17.7747H34.3309V16.0872C34.3309 15.7764 34.108 15.5247 33.8327 15.5247Z" fill="white"/>
</g>
<defs>
<clipPath id="clip0">
<rect width="19.9286" height="18" fill="white" transform="translate(14.4023 14.3997)"/>
</clipPath>
</defs>
</svg>
